<?xml version="1.0" standalone="no"?><!DOCTYPE svg PUBLIC "-//W3C//DTD SVG 1.1//EN" "http://www.w3.org/Graphics/SVG/1.1/DTD/svg11.dtd" ><svg xmlns="http://www.w3.org/2000/svg"><metadata></metadata><defs><font id="fonteditor" horiz-adv-x="1069"><font-face font-family="HYQiHei-60S" font-weight="400" font-stretch="normal" units-per-em="1000" panose-1="0 2 6 0 4 1 1 1 1 1" ascent="916" descent="-301" x-height="1" bbox="-31 -251 1061 839" underline-thickness="50" underline-position="-251" unicode-range="U+0021-ff1b" /><missing-glyph horiz-adv-x="1000"  /><glyph glyph-name="exclam" unicode="!" d="M82 707 L182 707 L182 314 L175 179 L90 179 L82 314 L82 707 ZM77 91 L187 91 L187 -38 L77 -38 L77 91 Z" /><glyph glyph-name="quotedbl" unicode="&quot;" d="M167 706 L158 444 L89 444 L80 706 L167 706 ZM338 706 L329 444 L260 444 L251 706 L338 706 Z" /><glyph glyph-name="ampersand" unicode="&amp;" d="M43 154 Q43 280 217 375 Q143 478 143 539 Q143 614 197 660 Q251 706 339 706 Q426 706 477 659 Q527 614 527 542 Q527 440 352 346 Q414 273 529 162 Q569 236 569 330 L665 330 Q665 198 598 97 Q635 63 686 19 L753 -39 L613 -39 Q577 -3 541 30 Q444 -57 299 -57 Q189 -57 119 -3 Q43 55 43 154 ZM295 24 Q405 24 477 93 Q337 229 274 303 Q141 227 141 154 Q141 88 190 53 Q232 24 295 24 ZM240 539 Q240 493 296 416 Q429 484 429 543 Q429 579 405 602 Q379 627 337 627 Q295 627 268 602 Q240 577 240 539 Z" /><glyph glyph-name="quotesingle" unicode="&#39;" d="M170 706 L161 444 L89 444 L80 706 L170 706 Z" /><glyph glyph-name="parenleft" unicode="(" d="M107 235 Q107 492 232 706 L321 706 Q197 465 197 235 Q197 -10 322 -241 L232 -241 Q107 -23 107 235 Z" /><glyph glyph-name="parenright" unicode=")" d="M38 -241 Q164 -8 164 235 Q164 467 39 706 L133 706 Q249 510 249 235 Q249 -41 133 -241 L38 -241 Z" /><glyph glyph-name="asterisk" unicode="*" d="M282 706 L266 563 L397 623 L424 541 L282 510 L385 405 L315 354 L237 478 L159 353 L89 404 L194 511 L53 542 L78 624 L211 563 L196 706 L282 706 Z" /><glyph glyph-name="comma" unicode="," d="M73 -148 Q136 -120 136 -39 L76 -39 L76 113 L195 113 L195 -35 Q195 -154 73 -196 L73 -148 Z" /><glyph glyph-name="hyphen" unicode="-" d="M48 381 L407 381 L407 296 L48 296 L48 381 Z" /><glyph glyph-name="period" unicode="." d="M75 113 L194 113 L194 -39 L75 -39 L75 113 Z" /><glyph glyph-name="slash" unicode="/" d="M280 706 L374 706 L124 -39 L30 -39 L280 706 Z" /><glyph glyph-name="zero" unicode="0" d="M52 330 Q52 523 136 622 Q207 705 316 705 Q426 705 498 621 Q584 522 584 330 Q584 136 501 38 Q430 -46 316 -46 Q206 -46 136 37 Q52 136 52 330 ZM153 330 Q153 192 199 116 Q242 43 316 43 Q392 43 437 116 Q484 193 484 330 Q484 467 436 544 Q391 616 316 616 Q242 616 199 543 Q153 467 153 330 Z" /><glyph glyph-name="one" unicode="1" d="M286 698 L377 698 L377 -39 L279 -39 L279 587 L143 476 L108 558 L286 698 Z" /><glyph glyph-name="two" unicode="2" d="M64 27 Q114 139 306 275 Q389 333 421 369 Q469 424 469 489 Q469 541 434 577 Q395 616 325 616 Q201 616 165 487 L69 502 Q89 595 158 650 Q226 705 325 705 Q443 705 508 645 Q569 589 569 493 Q569 573 205 56 L577 56 L577 -33 L64 -33 L64 27 Z" /><glyph glyph-name="three" unicode="3" d="M154 165 Q184 44 321 44 Q391 44 433 80 Q476 116 476 177 Q476 236 432 270 Q388 304 317 304 L253 304 L253 391 L317 391 Q376 391 416 423 Q455 455 455 504 Q455 551 420 582 Q383 616 320 616 Q196 616 170 499 L70 514 Q88 601 154 652 Q222 705 323 705 Q426 705 490 655 Q556 603 556 515 Q556 392 440 350 Q576 315 576 173 Q576 75 510 16 Q442 -46 321 -46 Q226 -46 158 -3 Q78 47 54 149 L154 165 Z" /><glyph glyph-name="four" unicode="4" d="M362 698 L502 698 L502 208 L595 208 L595 123 L502 123 L502 -39 L404 -39 L404 123 L40 123 L40 190 L362 698 ZM159 208 L404 208 L403 594 L159 208 Z" /><glyph glyph-name="five" unicode="5" d="M158 156 Q190 43 319 43 Q392 43 433 85 Q475 127 475 201 Q475 268 435 309 Q393 351 323 351 Q226 351 170 276 L77 291 L112 692 L535 692 L535 603 L195 603 L178 371 Q244 440 341 440 Q450 440 513 377 Q576 313 576 201 Q576 92 513 25 Q445 -46 323 -46 Q219 -46 147 7 Q80 57 59 138 L158 156 Z" /><glyph glyph-name="six" unicode="6" d="M171 195 Q174 126 214 82 Q256 35 325 35 Q393 35 434 80 Q474 124 474 194 Q474 264 434 309 Q393 356 325 356 Q258 356 213 309 Q167 262 171 195 ZM65 294 Q65 485 131 591 Q201 705 339 705 Q495 705 560 557 L460 541 Q423 624 336 624 Q173 624 163 335 L164 334 Q216 437 347 437 Q454 437 516 368 Q574 303 574 200 Q574 83 509 19 Q444 -46 325 -46 Q204 -46 135 40 Q65 129 65 294 Z" /><glyph glyph-name="seven" unicode="7" d="M62 603 L62 692 L564 692 L564 619 Q322 309 322 -39 L223 -39 Q223 293 452 603 L62 603 Z" /><glyph glyph-name="eight" unicode="8" d="M188 507 Q188 455 226 422 Q265 389 324 389 Q383 389 421 423 Q457 455 457 507 Q457 555 421 589 Q382 624 324 624 Q261 624 223 588 Q188 555 188 507 ZM166 174 Q166 102 222 64 Q266 35 324 35 Q382 35 428 68 Q483 108 483 174 Q484 236 438 273 Q394 309 324 309 Q254 309 211 273 Q166 236 166 174 ZM66 170 Q66 232 108 284 Q148 333 208 351 Q153 373 120 417 Q87 462 87 513 Q87 595 149 649 Q215 705 324 705 Q430 705 495 651 Q557 597 557 512 Q557 463 527 419 Q494 371 437 350 Q504 331 544 283 Q584 234 584 170 Q584 62 501 4 Q430 -46 324 -46 Q217 -46 147 3 Q66 61 66 170 Z" /><glyph glyph-name="nine" unicode="9" d="M163 465 Q163 395 203 350 Q244 303 311 303 Q378 303 423 350 Q470 397 466 464 Q463 533 424 577 Q382 624 311 624 Q243 624 202 579 Q163 535 163 465 ZM63 459 Q63 577 130 641 Q196 705 315 705 Q445 705 511 613 Q574 526 574 365 Q574 174 507 68 Q436 -46 298 -46 Q144 -46 77 102 L176 118 Q213 35 301 35 Q470 35 476 324 L475 325 Q424 222 290 222 Q188 222 124 291 Q63 358 63 459 Z" /><glyph glyph-name="colon" unicode=":" d="M74 113 L193 113 L193 -39 L74 -39 L74 113 ZM74 487 L193 487 L193 335 L74 335 L74 487 Z" /><glyph glyph-name="semicolon" unicode=";" d="M71 -148 Q134 -120 134 -39 L74 -39 L74 113 L193 113 L193 -35 Q193 -154 71 -196 L71 -148 ZM74 487 L193 487 L193 335 L74 335 L74 487 Z" /><glyph glyph-name="less" unicode="&lt;" d="M548 619 L548 523 L176 350 L548 178 L548 82 L75 309 L75 391 L548 619 Z" /><glyph glyph-name="equal" unicode="=" d="M75 257 L597 257 L597 171 L75 171 L75 257 ZM75 510 L597 510 L597 425 L75 425 L75 510 Z" /><glyph glyph-name="greater" unicode="&gt;" d="M548 391 L548 309 L75 82 L75 178 L446 350 L75 523 L75 619 L548 391 Z" /><glyph glyph-name="at" unicode="@" d="M51 314 Q51 484 159 598 Q273 717 457 717 Q626 717 719 635 Q813 552 813 401 Q813 287 750 203 Q679 110 566 110 Q512 110 492 155 Q446 110 376 110 Q311 110 269 152 Q225 197 225 272 Q225 387 289 466 Q355 549 459 549 Q521 549 560 508 L572 542 L650 521 L545 217 Q542 160 596 166 Q661 173 709 243 Q757 313 757 401 Q757 527 673 598 Q593 666 457 666 Q307 666 208 567 Q108 468 108 315 Q108 172 191 86 Q279 -6 434 -6 Q623 -6 752 109 L764 56 Q640 -57 434 -57 Q260 -57 156 42 Q51 143 51 314 ZM310 276 Q310 236 331 211 Q351 188 380 188 Q442 188 465 237 L530 431 Q506 472 460 472 Q394 472 350 409 Q310 351 310 276 Z" /><glyph glyph-name="A" unicode="a" d="M305 706 L414 706 L707 -39 L602 -39 L525 159 L189 159 L111 -39 L7 -39 L305 706 ZM225 249 L491 249 L359 588 L225 249 Z" /><glyph glyph-name="B" unicode="b" d="M352 706 Q613 706 613 514 Q613 390 486 344 Q639 313 639 170 Q639 -39 374 -39 L84 -39 L84 706 L352 706 ZM185 297 L185 51 L352 51 Q539 51 539 175 Q539 297 351 297 L185 297 ZM185 617 L185 386 L344 386 Q415 386 463 418 Q512 450 512 503 Q512 617 341 617 L185 617 Z" /><glyph glyph-name="C" unicode="c" d="M50 335 Q50 504 128 608 Q216 724 383 724 Q503 724 585 663 Q656 610 685 524 L583 507 Q529 634 383 634 Q275 634 214 558 Q150 480 150 335 Q150 198 214 116 Q278 34 383 34 Q534 34 589 169 L689 154 Q616 -57 383 -57 Q223 -57 133 59 Q50 165 50 335 Z" /><glyph glyph-name="D" unicode="d" d="M356 706 Q529 707 618 589 Q694 489 694 334 Q694 167 611 69 Q520 -39 344 -39 L84 -39 L84 706 L356 706 ZM184 617 L184 51 L342 51 Q456 51 523 123 Q593 198 593 335 Q593 452 537 527 Q470 617 341 617 L184 617 Z" /><glyph glyph-name="E" unicode="e" d="M84 706 L625 706 L625 617 L184 617 L184 391 L584 391 L584 302 L184 302 L184 51 L631 51 L631 -39 L84 -39 L84 706 Z" /><glyph glyph-name="F" unicode="f" d="M84 706 L616 706 L616 617 L184 617 L184 375 L576 375 L576 285 L184 285 L184 -39 L84 -39 L84 706 Z" /><glyph glyph-name="G" unicode="g" d="M60 335 Q60 508 154 615 Q248 724 403 724 Q618 724 706 518 L601 502 Q544 634 403 634 Q295 634 228 551 Q160 468 160 335 Q160 200 228 116 Q294 34 395 34 Q478 34 540 86 Q598 134 620 212 L620 278 L409 278 L409 367 L720 367 L720 -39 L631 -39 L631 99 Q554 -57 382 -57 Q249 -57 158 46 Q60 156 60 335 Z" /><glyph glyph-name="H" unicode="h" d="M84 706 L184 706 L184 391 L593 391 L593 706 L694 706 L694 -39 L593 -39 L593 302 L184 302 L184 -39 L84 -39 L84 706 Z" /><glyph glyph-name="I" unicode="i" d="M84 706 L185 706 L185 -39 L84 -39 L84 706 Z" /><glyph glyph-name="J" unicode="j" d="M33 189 L134 189 L134 174 Q135 104 171 68 Q204 33 261 33 Q319 33 353 69 Q390 108 390 180 L390 706 L491 706 L491 172 Q491 58 423 -3 Q362 -57 261 -57 Q158 -57 98 -1 Q33 58 33 166 L33 189 Z" /><glyph glyph-name="K" unicode="k" d="M84 706 L184 706 L184 349 L518 706 L640 706 L369 411 L678 -39 L555 -39 L298 334 L184 209 L184 -39 L84 -39 L84 706 Z" /><glyph glyph-name="L" unicode="l" d="M84 706 L184 706 L184 51 L578 51 L578 -39 L84 -39 L84 706 Z" /><glyph glyph-name="M" unicode="m" d="M228 706 L482 90 L484 90 L733 706 L877 706 L877 -39 L778 -39 L776 556 L532 -39 L434 -39 L186 556 L184 556 L184 -39 L84 -39 L84 706 L228 706 Z" /><glyph glyph-name="N" unicode="n" d="M189 706 L598 121 L598 706 L698 706 L698 -39 L593 -39 L185 547 L185 -39 L84 -39 L84 706 L189 706 Z" /><glyph glyph-name="O" unicode="o" d="M150 334 Q150 207 211 124 Q278 34 392 34 Q509 34 575 123 Q635 205 635 334 Q635 461 573 544 Q506 634 392 634 Q277 634 211 544 Q150 462 150 334 ZM50 334 Q50 499 133 606 Q226 724 392 724 Q559 724 652 605 Q735 499 735 334 Q735 168 653 62 Q561 -57 392 -57 Q226 -57 133 64 Q50 171 50 334 Z" /><glyph glyph-name="P" unicode="p" d="M359 706 Q624 706 624 482 Q624 253 359 253 L184 253 L184 -39 L84 -39 L84 706 L359 706 ZM184 617 L184 342 L345 342 Q524 344 524 482 Q524 617 348 617 L184 617 Z" /><glyph glyph-name="Q" unicode="q" d="M50 334 Q50 499 133 606 Q226 724 392 724 Q559 724 652 605 Q735 499 735 334 Q735 154 641 47 L727 -30 L657 -99 L569 -12 Q492 -57 392 -57 Q226 -57 133 64 Q50 171 50 334 ZM427 127 L488 184 L567 113 Q635 194 635 334 Q635 461 573 544 Q506 634 392 634 Q277 634 211 544 Q150 462 150 334 Q150 207 211 124 Q278 34 392 34 Q452 34 498 57 L427 127 Z" /><glyph glyph-name="R" unicode="r" d="M382 706 Q505 706 569 648 Q628 594 628 501 Q628 459 603 412 Q570 349 508 320 Q607 284 614 157 Q623 38 655 -39 L549 -39 Q527 18 516 146 Q512 205 480 239 Q447 275 390 275 L195 275 L195 -39 L94 -39 L94 706 L382 706 ZM195 617 L195 365 L376 365 Q444 365 486 403 Q527 439 527 495 Q527 552 488 584 Q446 617 370 617 L195 617 Z" /><glyph glyph-name="S" unicode="s" d="M155 170 Q212 34 351 34 Q423 34 467 71 Q506 104 506 147 Q506 226 322 297 Q191 343 133 389 Q67 441 67 513 Q67 608 148 667 Q224 724 337 724 Q439 724 511 675 Q582 627 610 543 L501 527 Q457 634 333 634 Q266 634 221 601 Q178 569 178 523 Q178 477 228 445 Q262 422 355 388 Q619 293 619 158 Q619 65 546 5 Q471 -57 348 -57 Q122 -57 44 153 L155 170 Z" /><glyph glyph-name="T" unicode="t" d="M7 706 L578 706 L578 617 L342 617 L342 -39 L242 -39 L242 617 L7 617 L7 706 Z" /><glyph glyph-name="U" unicode="u" d="M80 706 L181 706 L181 256 Q181 154 229 96 Q280 34 378 34 Q573 34 573 256 L573 706 L673 706 L673 253 Q673 101 591 20 Q514 -57 378 -57 Q239 -57 162 20 Q80 101 80 253 L80 706 Z" /><glyph glyph-name="V" unicode="v" d="M115 706 L334 88 L336 88 L556 706 L665 706 L391 -39 L279 -39 L7 706 L115 706 Z" /><glyph glyph-name="W" unicode="w" d="M118 706 L291 96 L293 96 Q308 148 384 401 Q457 643 475 706 L591 706 L777 96 L779 96 L951 706 L1061 706 L836 -39 L720 -39 L535 579 L533 579 L350 -39 L235 -39 L8 706 L118 706 Z" /><glyph glyph-name="X" unicode="x" d="M134 706 L325 425 L516 706 L633 706 L383 339 L641 -39 L524 -39 L325 253 L126 -39 L9 -39 L266 339 L17 706 L134 706 Z" /><glyph glyph-name="Y" unicode="y" d="M124 706 L335 365 L537 706 L655 706 L384 260 L384 -39 L283 -39 L283 260 L7 706 L124 706 Z" /><glyph glyph-name="Z" unicode="z" d="M488 617 L65 617 L65 706 L623 706 L623 632 L173 52 L624 52 L624 -39 L40 -39 L40 40 L488 617 Z" /><glyph glyph-name="bracketleft" unicode="[" d="M127 706 L343 706 L343 625 L217 625 L217 -160 L343 -160 L343 -241 L127 -241 L127 706 Z" /><glyph glyph-name="backslash" unicode="\" d="M124 706 L374 -39 L280 -39 L30 706 L124 706 Z" /><glyph glyph-name="bracketright" unicode="]" d="M42 706 L257 706 L257 -241 L42 -241 L42 -160 L168 -160 L168 625 L42 625 L42 706 Z" /><glyph glyph-name="underscore" unicode="_" d="M32 -100 L559 -100 L559 -185 L32 -185 L32 -100 Z" /><glyph glyph-name="a" unicode="a" d="M46 84 Q46 185 147 242 Q236 292 423 315 L423 344 Q423 441 295 441 Q189 441 153 354 L62 367 Q116 522 299 522 Q408 522 466 474 Q521 427 521 344 L521 54 Q521 34 533 28 Q546 22 578 26 L578 -38 Q546 -46 508 -46 Q447 -46 434 -8 Q432 -6 430 11 L427 30 Q346 -53 221 -53 Q149 -53 101 -21 Q46 16 46 84 ZM145 95 Q145 28 242 28 Q339 28 423 102 L423 234 Q145 198 145 95 Z" /><glyph glyph-name="b" unicode="b" d="M66 706 L164 706 L164 440 Q245 522 342 522 Q462 522 524 438 Q580 361 580 229 Q580 97 521 23 Q458 -57 338 -57 Q242 -57 164 13 L164 -39 L66 -39 L66 706 ZM325 436 Q241 436 164 354 L164 97 Q235 29 325 29 Q403 29 445 90 Q482 144 482 229 Q482 315 447 370 Q405 436 325 436 Z" /><glyph glyph-name="c" unicode="c" d="M45 233 Q45 360 112 439 Q183 522 307 522 Q485 522 535 363 L439 350 Q400 436 307 436 Q231 436 187 381 Q143 326 143 233 Q143 141 185 86 Q228 29 304 29 Q405 29 448 124 L543 110 Q485 -57 304 -57 Q184 -57 113 29 Q45 110 45 233 Z" /><glyph glyph-name="d" unicode="d" d="M46 234 Q46 364 106 441 Q169 522 285 522 Q385 522 460 444 L460 706 L559 706 L559 -39 L460 -39 L460 14 Q382 -57 288 -57 Q170 -57 106 26 Q46 103 46 234 ZM302 29 Q390 29 460 96 L460 360 Q391 436 302 436 Q225 436 183 376 Q145 321 145 234 Q145 148 183 92 Q225 29 302 29 Z" /><glyph glyph-name="e" unicode="e" d="M46 232 Q46 354 110 434 Q180 522 302 522 Q425 522 493 439 Q555 364 555 246 L555 201 L145 201 Q143 125 186 76 Q231 25 307 25 Q415 25 462 112 L552 98 Q485 -57 307 -57 Q180 -57 110 28 Q46 105 46 232 ZM456 277 Q456 341 417 388 Q373 441 302 441 Q232 441 187 388 Q146 340 145 277 L456 277 Z" /><glyph glyph-name="f" unicode="f" d="M12 499 L121 499 L121 602 Q121 722 266 722 Q317 722 358 707 L358 624 Q331 640 294 640 Q219 640 219 576 L219 499 L362 499 L362 419 L219 419 L219 -38 L121 -38 L121 419 L12 419 L12 499 Z" /><glyph glyph-name="g" unicode="g" d="M49 235 Q49 367 117 446 Q181 522 283 522 Q388 522 463 439 L463 507 L561 507 L561 17 Q561 -251 291 -251 Q115 -251 60 -106 L150 -90 Q189 -170 294 -170 Q374 -170 418 -126 Q463 -80 463 7 L463 34 Q384 -48 286 -48 Q183 -48 117 27 Q49 105 49 235 ZM304 38 Q393 38 463 117 L463 351 Q395 436 304 436 Q231 436 188 380 Q147 325 147 235 Q147 149 187 95 Q230 38 304 38 Z" /><glyph glyph-name="h" unicode="h" d="M66 706 L165 706 L165 434 Q245 522 344 522 Q536 522 536 326 L536 -39 L438 -39 L438 307 Q438 370 405 406 Q372 441 315 441 Q232 441 165 370 L165 -39 L66 -39 L66 706 Z" /><glyph glyph-name="i" unicode="i" d="M66 507 L165 507 L165 -39 L66 -39 L66 507 ZM66 706 L165 706 L165 591 L66 591 L66 706 Z" /><glyph glyph-name="j" unicode="j" d="M-31 -126 Q-17 -128 10 -128 Q73 -128 73 -59 L73 507 L171 507 L171 -75 Q171 -212 35 -212 Q-2 -212 -31 -208 L-31 -126 ZM73 706 L171 706 L171 591 L73 591 L73 706 Z" /><glyph glyph-name="k" unicode="k" d="M66 706 L165 706 L165 264 L413 507 L533 507 L304 281 L552 -39 L437 -39 L237 216 L165 144 L165 -39 L66 -39 L66 706 Z" /><glyph glyph-name="l" unicode="l" d="M66 706 L165 706 L165 -39 L66 -39 L66 706 Z" /><glyph glyph-name="m" unicode="m" d="M164 507 L164 439 Q242 522 339 522 Q454 522 504 424 Q589 522 690 522 Q776 522 823 473 Q872 423 872 329 L872 -39 L774 -39 L774 316 Q774 373 742 407 Q710 441 658 441 Q588 441 519 359 L519 -39 L420 -39 L420 312 Q420 373 388 408 Q357 441 310 441 Q234 441 164 361 L164 -39 L66 -39 L66 507 L164 507 Z" /><glyph glyph-name="n" unicode="n" d="M66 507 L164 507 L164 433 Q243 522 343 522 Q536 522 536 326 L536 -39 L438 -39 L438 307 Q438 370 405 406 Q371 441 314 441 Q232 441 164 369 L164 -39 L66 -39 L66 507 Z" /><glyph glyph-name="o" unicode="o" d="M44 234 Q44 355 109 435 Q181 522 307 522 Q434 522 505 436 Q570 358 570 234 Q570 108 505 29 Q435 -57 307 -57 Q180 -57 109 30 Q44 109 44 234 ZM143 234 Q143 140 184 86 Q227 29 307 29 Q387 29 430 85 Q471 139 471 234 Q471 327 427 381 Q383 436 307 436 Q232 436 188 380 Q143 325 143 234 Z" /><glyph glyph-name="p" unicode="p" d="M66 507 L165 507 L165 441 Q246 523 342 523 Q461 523 523 441 Q581 364 581 230 Q581 98 522 23 Q459 -57 338 -57 Q245 -57 165 13 L165 -234 L66 -234 L66 507 ZM325 437 Q242 437 165 355 L165 97 Q235 29 325 29 Q403 29 445 90 Q482 144 482 230 Q482 320 446 375 Q404 437 325 437 Z" /><glyph glyph-name="q" unicode="q" d="M46 234 Q46 364 106 441 Q169 522 285 522 Q385 522 462 444 L462 507 L560 507 L560 -234 L462 -234 L462 17 Q381 -57 288 -57 Q170 -57 106 26 Q46 103 46 234 ZM302 29 Q391 29 462 98 L462 359 Q392 436 302 436 Q226 436 183 376 Q145 321 145 234 Q145 148 183 92 Q226 29 302 29 Z" /><glyph glyph-name="r" unicode="r" d="M164 507 L164 400 Q193 447 250 483 Q310 519 363 520 L363 438 Q245 438 164 323 L164 -39 L66 -39 L66 507 L164 507 Z" /><glyph glyph-name="s" unicode="s" d="M129 107 Q167 20 273 20 Q323 20 356 45 Q388 69 388 104 Q388 139 347 164 Q320 181 249 205 Q148 237 104 273 Q55 312 55 371 Q55 436 112 478 Q172 522 268 522 Q424 522 481 392 L387 376 Q352 445 268 445 Q215 445 183 421 Q153 399 153 366 Q153 318 285 274 Q390 245 437 210 Q491 169 491 105 Q491 31 430 -13 Q370 -57 271 -57 Q94 -57 37 87 L129 107 Z" /><glyph glyph-name="t" unicode="t" d="M10 499 L102 499 L102 649 L199 649 L199 499 L321 499 L321 419 L199 419 L199 86 Q199 32 270 32 Q297 32 320 42 L320 -38 Q277 -51 224 -51 Q102 -51 102 55 L102 419 L10 419 L10 499 Z" /><glyph glyph-name="u" unicode="u" d="M66 507 L164 507 L164 158 Q164 96 200 60 Q234 25 292 25 Q374 25 438 96 L438 507 L536 507 L536 -39 L438 -39 L438 31 Q358 -57 258 -57 Q165 -57 116 -7 Q66 44 66 139 L66 507 Z" /><glyph glyph-name="v" unicode="v" d="M114 507 L274 56 L276 56 L436 507 L543 507 L335 -39 L215 -39 L6 507 L114 507 Z" /><glyph glyph-name="w" unicode="w" d="M115 507 L245 61 L247 61 L362 507 L492 507 L613 61 Q625 101 676 284 Q724 459 739 507 L846 507 L674 -39 L549 -39 L426 399 Q329 40 309 -39 L184 -39 L7 507 L115 507 Z" /><glyph glyph-name="x" unicode="x" d="M121 507 L264 311 L408 507 L519 507 L320 236 L523 -39 L412 -39 L264 161 L117 -39 L7 -39 L209 236 L11 507 L121 507 Z" /><glyph glyph-name="y" unicode="y" d="M111 507 L280 94 L439 507 L545 507 L274 -170 Q241 -251 152 -251 Q113 -251 83 -244 L83 -160 Q105 -165 126 -165 Q179 -165 196 -123 L232 -29 L6 507 L111 507 Z" /><glyph glyph-name="z" unicode="z" d="M366 426 L52 426 L52 507 L497 507 L497 441 L166 42 L509 42 L509 -39 L35 -39 L35 27 L366 426 Z" /><glyph glyph-name="braceleft" unicode="{" d="M88 272 Q120 278 143 312 Q167 349 167 403 L167 569 Q167 706 304 706 L358 706 L358 624 L321 624 Q257 624 257 545 L257 383 Q257 269 189 235 Q257 202 257 77 L257 -78 Q257 -159 321 -159 L358 -159 L358 -241 L304 -241 Q167 -241 167 -102 L167 56 Q167 162 88 198 L88 272 Z" /><glyph glyph-name="braceright" unicode="}" d="M94 706 Q231 706 231 569 L231 403 Q231 349 256 312 Q278 278 310 272 L310 198 Q231 161 231 56 L231 -102 Q231 -241 94 -241 L40 -241 L40 -159 L77 -159 Q141 -159 141 -78 L141 77 Q141 202 209 235 Q141 268 141 383 L141 545 Q141 624 77 624 L40 624 L40 706 L94 706 Z" /><glyph glyph-name="egrave" unicode="è" d="M655 277 Q655 341 616 388 Q572 441 501 441 Q431 441 386 388 Q345 340 344 277 L655 277 ZM246 232 Q246 354 309 434 Q379 522 501 522 Q624 522 692 439 Q754 364 754 246 L754 201 L344 201 Q342 125 385 76 Q430 25 506 25 Q614 25 661 112 L751 98 Q684 -57 506 -57 Q380 -57 310 28 Q246 105 246 232 ZM426 812 L606 622 L510 622 L315 812 L426 812 Z" /><glyph glyph-name="eacute" unicode="é" d="M246 232 Q246 354 309 434 Q379 522 501 522 Q624 522 692 439 Q754 364 754 246 L754 201 L344 201 Q342 125 385 76 Q430 25 506 25 Q614 25 661 112 L751 98 Q684 -57 506 -57 Q380 -57 310 28 Q246 105 246 232 ZM655 277 Q655 341 616 388 Q572 441 501 441 Q431 441 386 388 Q345 340 344 277 L655 277 ZM589 812 L700 812 L505 622 L409 622 L589 812 Z" /><glyph glyph-name="endash" unicode="&#x2013;" d="M250 381 L750 381 L750 296 L250 296 L250 381 Z" /><glyph glyph-name="emdash" unicode="&#x2014;" d="M0 381 L1000 381 L1000 296 L0 296 L0 381 Z" /><glyph glyph-name="quoteright" unicode="&#x2019;" d="M279 556 Q340 584 340 662 L282 662 L282 809 L396 809 L396 665 Q396 550 279 510 L279 556 Z" /><glyph glyph-name="quotedblleft" unicode="&#x201c;" d="M627 653 Q627 712 665 757 Q697 793 743 809 L743 763 Q682 735 682 657 L740 657 L740 510 L627 510 L627 653 ZM427 653 Q427 712 465 757 Q496 793 542 809 L542 763 Q482 735 482 657 L540 657 L540 510 L427 510 L427 653 Z" /><glyph glyph-name="quotedblright" unicode="&#x201d;" d="M257 556 Q318 584 318 662 L260 662 L260 809 L373 809 L373 665 Q373 606 335 562 Q303 526 257 510 L257 556 ZM458 556 Q518 584 518 662 L460 662 L460 809 L573 809 L573 665 Q573 606 535 562 Q504 526 458 510 L458 556 Z" /><glyph glyph-name="uni3001" unicode="&#x3001;" d="M248 176 Q387 92 470 -30 L388 -101 Q307 43 193 131 L248 176 Z" /><glyph glyph-name="uni3002" unicode="&#x3002;" d="M247 43 Q247 -1 276 -30 Q306 -60 349 -60 Q393 -60 423 -30 Q453 0 453 43 Q453 87 423 117 Q393 147 349 147 Q306 147 276 117 Q247 87 247 43 ZM185 43 Q185 111 233 159 Q282 208 349 208 Q417 208 466 159 Q514 111 514 43 Q514 -25 466 -73 Q417 -121 349 -121 Q281 -121 233 -73 Q185 -25 185 43 Z" /><glyph glyph-name="uni300A" unicode="&#x300a;" d="M761 817 L852 817 L664 347 L852 -126 L761 -126 L573 347 L761 817 ZM570 817 L661 817 L474 347 L661 -126 L570 -126 L383 347 L570 817 Z" /><glyph glyph-name="uni300B" unicode="&#x300b;" d="M239 817 L427 347 L239 -126 L148 -126 L336 347 L148 817 L239 817 ZM430 817 L617 347 L430 -126 L339 -126 L526 347 L339 817 L430 817 Z" /><glyph glyph-name="uni300C" unicode="&#x300c;" d="M593 818 L860 818 L860 739 L686 739 L686 -24 L593 -24 L593 818 Z" /><glyph glyph-name="uni300D" unicode="&#x300d;" d="M140 -48 L314 -48 L314 716 L406 716 L406 -126 L140 -126 L140 -48 Z" /><glyph glyph-name="uni33A1" unicode="&#x33a1;" d="M129 507 L129 432 Q199 522 288 522 Q386 522 436 424 L437 426 Q516 522 602 522 Q684 522 728 463 Q766 414 766 329 L766 -39 L686 -39 L686 316 Q686 373 662 402 Q634 442 580 442 Q513 442 448 360 L448 -39 L369 -39 L369 312 Q369 373 338 409 Q310 442 265 442 Q194 442 129 358 L129 -39 L50 -39 L50 507 L129 507 ZM741 751 Q761 839 847 839 Q948 839 948 751 Q948 697 875 640 Q817 598 801 576 L950 576 L950 536 L740 536 L740 563 Q756 605 822 652 Q903 711 903 750 Q903 800 847 800 Q797 800 784 746 L741 751 Z" /><glyph glyph-name="uni4E00" unicode="&#x4e00;" d="M958 333 L42 333 L42 429 L958 429 L958 333 Z" /><glyph glyph-name="uni4E07" unicode="&#x4e07;" d="M588 25 Q661 25 684 45 Q709 66 714 137 Q732 327 734 406 L389 406 Q371 236 315 130 Q254 12 111 -102 L39 -36 Q193 85 247 200 Q294 301 307 504 Q311 551 315 654 L59 654 L59 740 L947 740 L947 654 L406 654 Q403 568 398 503 Q397 499 397 491 L832 491 Q818 260 805 109 Q797 6 758 -28 Q720 -62 616 -62 L462 -62 L444 25 L588 25 Z" /><glyph glyph-name="uni4E09" unicode="&#x4e09;" d="M948 -32 L53 -32 L53 55 L948 55 L948 -32 ZM889 631 L111 631 L111 718 L889 718 L889 631 ZM844 319 L157 319 L157 404 L844 404 L844 319 Z" /><glyph glyph-name="uni4E0A" unicode="&#x4e0a;" d="M901 434 L521 434 L521 31 L957 31 L957 -54 L47 -54 L47 31 L433 31 L433 799 L521 799 L521 517 L901 517 L901 434 Z" /><glyph glyph-name="uni4E0B" unicode="&#x4e0b;" d="M431 -96 L431 646 L56 646 L56 731 L946 731 L946 646 L521 646 L521 -96 L431 -96 ZM839 203 Q691 327 522 445 L573 515 Q781 371 895 278 L839 203 Z" /><glyph glyph-name="uni4E0D" unicode="&#x4e0d;" d="M608 650 Q560 563 497 481 L544 481 L544 -94 L457 -94 L457 429 Q314 255 108 103 L49 179 Q354 384 505 650 L83 650 L83 737 L921 737 L921 650 L608 650 ZM887 114 Q754 246 564 408 L618 474 Q789 335 951 187 L887 114 Z" /><glyph glyph-name="uni4E0E" unicode="&#x4e0e;" d="M639 -1 Q707 -1 728 17 Q750 36 755 102 L773 348 L197 348 L231 787 L321 787 L312 664 L915 664 L915 580 L306 580 L295 434 L866 434 L844 79 Q837 -20 801 -52 Q765 -85 665 -85 L484 -85 L468 -1 L639 -1 ZM704 134 L46 134 L46 218 L704 218 L704 134 Z" /><glyph glyph-name="uni4E13" unicode="&#x4e13;" d="M778 -122 Q449 7 172 101 L199 181 Q380 120 537 63 Q635 144 717 224 L229 224 L229 295 Q254 343 283 413 L54 413 L54 495 L316 495 Q345 572 355 604 L109 604 L109 686 L381 686 Q395 733 412 801 L501 792 Q494 763 473 686 L891 686 L891 604 L448 604 Q430 543 412 495 L946 495 L946 413 L381 413 Q360 359 334 306 L836 306 L836 220 L735 127 Q668 65 628 30 L812 -37 L778 -122 Z" /><glyph glyph-name="uni4E14" unicode="&#x4e14;" d="M957 -61 L44 -61 L44 21 L192 21 L192 757 L809 757 L809 21 L957 21 L957 -61 ZM279 192 L279 21 L721 21 L721 192 L279 192 ZM279 436 L279 274 L721 274 L721 436 L279 436 ZM279 674 L279 516 L721 516 L721 674 L279 674 Z" /><glyph glyph-name="uni4E16" unicode="&#x4e16;" d="M804 798 L804 570 L958 570 L958 486 L804 486 L804 173 L422 173 L422 486 L259 486 L259 31 L932 31 L932 -52 L171 -52 L171 486 L42 486 L42 570 L171 570 L171 773 L259 773 L259 570 L422 570 L422 797 L508 797 L508 570 L718 570 L718 798 L804 798 ZM508 256 L718 256 L718 486 L508 486 L508 256 Z" /><glyph glyph-name="uni4E1A" unicode="&#x4e1a;" d="M949 -52 L53 -52 L53 35 L341 35 L341 790 L431 790 L431 35 L572 35 L572 790 L662 790 L662 35 L949 35 L949 -52 ZM251 188 Q152 433 76 591 L158 627 Q278 367 337 227 L251 188 ZM931 587 Q856 406 747 185 L665 226 Q770 425 846 623 L931 587 Z" /><glyph glyph-name="uni4E1C" unicode="&#x4e1c;" d="M883 287 L564 287 L564 33 Q564 -36 534 -62 Q506 -86 432 -86 L321 -86 L307 -4 L410 -4 Q454 -4 468 7 Q481 18 481 54 L481 287 L135 287 L135 370 Q196 455 270 592 L67 592 L67 674 L314 674 Q360 763 381 813 L468 779 Q450 737 418 674 L925 674 L925 592 L374 592 Q283 426 242 369 L481 369 L481 546 L564 546 L564 369 L883 369 L883 287 ZM342 186 Q234 37 94 -74 L35 -3 Q176 103 272 243 L342 186 ZM891 -66 Q761 74 640 181 L701 242 Q774 177 955 1 L891 -66 Z" /><glyph glyph-name="uni4E24" unicode="&#x4e24;" d="M102 -74 L102 551 L327 551 L328 678 L48 678 L48 755 L929 755 L929 678 L652 678 Q652 590 651 551 L877 551 L877 46 Q877 -23 849 -48 Q823 -72 750 -72 L633 -72 L619 6 L727 6 Q769 6 782 19 Q793 30 793 65 L793 165 L739 117 Q688 179 611 269 Q567 141 461 18 L392 59 Q557 247 566 474 L407 474 Q404 429 396 379 Q449 322 508 254 L448 200 L374 287 Q336 174 237 58 L184 95 L184 -74 L102 -74 ZM184 124 Q307 272 323 474 L184 474 L184 124 ZM648 474 Q645 417 634 358 Q698 287 793 178 L793 474 L648 474 ZM411 678 Q411 627 409 551 L568 551 L569 678 L411 678 Z" /><glyph glyph-name="uni4E25" unicode="&#x4e25;" d="M947 346 L226 346 L226 251 Q226 48 105 -112 L30 -73 Q98 13 121 82 Q143 150 143 271 L143 420 L368 420 L368 672 L71 672 L71 746 L952 746 L952 672 L666 672 L666 420 L947 420 L947 346 ZM455 672 L455 420 L578 420 L578 672 L455 672 ZM267 432 Q202 523 128 603 L192 656 L333 488 L267 432 ZM901 610 Q832 512 761 435 L697 486 Q790 590 834 655 L901 610 Z" /><glyph glyph-name="uni4E26" unicode="&#x4e26;" d="M946 -59 L53 -59 L53 19 L351 19 L351 550 L92 550 L92 630 L363 630 Q315 707 262 781 L333 824 Q383 757 438 671 L367 630 L621 630 L575 661 Q650 760 687 819 L761 779 Q714 708 655 630 L907 630 L907 550 L649 550 L649 19 L946 19 L946 -59 ZM431 550 L431 19 L569 19 L569 550 L431 550 ZM247 109 L104 409 L177 447 L321 147 L247 109 ZM885 408 Q824 261 741 107 L671 147 Q760 315 815 444 L885 408 Z" /><glyph glyph-name="uni4E2A" unicode="&#x4e2a;" d="M918 320 Q650 491 500 708 Q342 486 80 320 L28 405 Q308 570 462 802 L538 802 Q699 570 973 404 L918 320 ZM454 -97 L454 483 L545 483 L545 -97 L454 -97 Z" /><glyph glyph-name="uni4E2D" unicode="&#x4e2d;" d="M454 -101 L454 205 L197 205 L197 146 L108 146 L108 612 L454 612 L454 800 L543 800 L543 612 L892 612 L892 148 L803 148 L803 205 L543 205 L543 -101 L454 -101 ZM803 526 L543 526 L543 290 L803 290 L803 526 ZM197 526 L197 290 L454 290 L454 526 L197 526 Z" /><glyph glyph-name="uni4E30" unicode="&#x4e30;" d="M456 -100 L456 117 L52 117 L52 200 L456 200 L456 351 L135 351 L135 433 L456 433 L456 576 L88 576 L88 659 L456 659 L456 798 L543 798 L543 659 L910 659 L910 576 L543 576 L543 433 L863 433 L863 351 L543 351 L543 200 L946 200 L946 117 L543 117 L543 -100 L456 -100 Z" /><glyph glyph-name="uni4E34" unicode="&#x4e34;" d="M437 -87 L437 392 L904 392 L904 -87 L824 -87 L824 -28 L517 -28 L517 -87 L437 -87 ZM635 790 Q616 734 593 683 L956 683 L956 598 L668 598 Q758 506 804 452 L743 398 Q696 453 604 551 L657 598 L553 598 Q499 494 435 406 L360 461 Q490 624 548 814 L635 790 ZM261 -96 L261 793 L346 793 L346 -96 L261 -96 ZM94 1 L94 708 L178 708 L178 1 L94 1 ZM824 318 L707 318 L707 47 L824 47 L824 318 ZM517 318 L517 47 L632 47 L632 318 L517 318 Z" /><glyph glyph-name="uni4E3A" unicode="&#x4e3a;" d="M531 795 Q531 739 515 576 L888 576 Q873 206 860 59 Q855 -15 815 -44 Q776 -73 683 -73 L528 -73 L509 14 L655 14 Q724 14 747 30 Q770 46 775 99 Q789 233 797 490 L505 490 Q477 296 392 164 Q307 34 124 -101 L57 -33 Q228 89 307 203 Q387 320 414 490 L85 490 L85 576 L425 576 Q430 620 442 795 L531 795 ZM655 172 Q615 219 495 347 L557 403 Q578 382 638 318 Q711 239 719 231 L655 172 ZM297 587 Q243 650 155 741 L216 794 Q248 764 361 644 L297 587 Z" /><glyph glyph-name="uni4E3B" unicode="&#x4e3b;" d="M873 258 L544 258 L544 26 L949 26 L949 -58 L51 -58 L51 26 L455 26 L455 258 L127 258 L127 343 L455 343 L455 545 L84 545 L84 630 L498 630 Q451 715 408 779 L483 821 Q497 800 532 743 Q564 691 580 667 L516 630 L916 630 L916 545 L544 545 L544 343 L873 343 L873 258 Z" /><glyph glyph-name="uni4E3D" unicode="&#x4e3d;" d="M541 -86 L541 569 L890 569 L890 9 Q890 -49 867 -69 Q845 -88 778 -88 L694 -88 L680 -11 L758 -11 Q795 -11 805 -1 Q813 8 813 41 L813 487 L617 487 L617 -86 L541 -86 ZM112 -86 L112 569 L450 569 L450 9 Q450 -49 428 -69 Q406 -88 341 -88 L260 -88 L247 -11 L320 -11 Q355 -11 365 -1 Q373 7 373 41 L373 487 L188 487 L188 -86 L112 -86 ZM952 671 L51 671 L51 749 L952 749 L952 671 ZM747 160 Q686 264 624 356 L681 395 Q755 284 807 201 L747 160 ZM309 161 Q238 288 193 360 L250 395 Q301 316 369 199 L309 161 Z" /><glyph glyph-name="uni4E45" unicode="&#x4e45;" d="M434 782 Q407 714 382 663 L707 663 L707 579 Q655 443 593 346 Q709 126 962 -10 L903 -94 Q666 53 539 267 Q394 78 94 -103 L39 -19 Q468 216 602 577 L336 577 Q253 435 131 310 L67 376 Q249 562 345 808 L434 782 Z" /><glyph glyph-name="uni4E49" unicode="&#x4e49;" d="M917 -108 Q658 6 512 126 Q372 11 92 -107 L40 -18 Q302 84 439 192 Q265 366 151 688 L236 722 Q345 413 507 253 Q668 416 746 736 L836 706 Q745 359 580 190 Q719 81 960 -10 L917 -108 ZM523 525 Q409 718 383 760 L459 803 Q551 658 601 573 L523 525 Z" /><glyph glyph-name="uni4E4B" unicode="&#x4e4b;" d="M548 -51 Q423 -51 365 -34 Q304 -16 255 39 Q226 72 210 72 Q198 74 170 42 Q137 0 96 -55 L34 18 Q73 72 136 144 Q172 182 205 182 Q215 182 230 177 Q544 344 752 539 L131 539 L131 624 L496 624 Q462 694 413 779 L496 807 Q533 744 585 645 L521 624 L876 624 L876 539 Q667 315 298 114 Q342 66 392 50 Q439 35 541 35 L958 35 L940 -51 L548 -51 Z" /><glyph glyph-name="uni4E50" unicode="&#x4e50;" d="M915 325 L563 325 L563 30 Q563 -39 535 -64 Q508 -87 432 -87 L315 -87 L297 -2 L404 -2 Q447 -2 459 9 Q471 19 471 55 L471 325 L115 325 L158 720 Q544 732 844 778 L863 692 Q594 653 242 636 L215 409 L471 409 L471 610 L563 610 L563 409 L915 409 L915 325 ZM884 -58 Q795 56 651 222 L720 275 Q861 116 958 -2 L884 -58 ZM339 231 Q241 79 104 -59 L34 -3 Q165 123 263 276 L339 231 Z" /><glyph glyph-name="uni4E5F" unicode="&#x4e5f;" d="M947 175 Q941 78 937 40 Q932 -27 901 -49 Q870 -71 787 -71 L348 -71 Q257 -71 221 -37 Q183 -2 183 85 L183 399 L58 369 L44 452 L183 485 L183 686 L269 686 L269 506 L463 553 L463 797 L549 797 L549 573 L861 649 Q854 428 843 305 Q839 241 808 216 Q779 192 708 192 L606 192 L588 275 L674 275 Q725 275 740 287 Q755 299 757 342 Q768 506 769 543 L549 489 L549 94 L463 94 L463 468 L269 420 L269 112 Q269 50 292 30 Q314 11 380 11 L748 11 Q817 11 835 24 Q854 38 855 90 L859 195 L947 175 Z" /><glyph glyph-name="uni4E66" unicode="&#x4e66;" d="M709 72 Q760 72 780 87 Q801 103 806 144 Q821 257 823 283 L433 283 L433 -104 L349 -104 L349 283 L41 283 L41 368 L349 368 L349 565 L107 565 L107 649 L349 649 L349 803 L433 803 L433 649 L796 649 Q707 717 671 742 L724 809 Q822 739 958 634 L902 566 L799 647 L773 368 L917 368 Q917 299 893 112 Q886 45 848 16 Q809 -13 728 -13 L571 -13 L553 72 L709 72 ZM706 565 L433 565 L433 368 L687 368 L706 565 Z" /><glyph glyph-name="uni4E70" unicode="&#x4e70;" d="M640 629 Q640 518 635 418 Q630 326 616 260 L945 260 L945 183 L593 183 Q590 174 576 147 Q760 58 933 -29 L888 -103 Q617 38 530 81 Q424 -34 98 -111 L68 -28 Q423 47 500 183 L59 183 L59 260 L531 260 Q546 317 549 428 Q553 588 553 629 L640 629 ZM816 663 L101 663 L101 741 L905 741 L905 662 L814 480 L738 512 L816 663 ZM374 268 Q187 382 116 423 L156 490 Q274 423 413 339 L374 268 ZM441 436 Q299 522 199 573 L238 641 Q347 585 482 509 L441 436 Z" /><glyph glyph-name="uni4E86" unicode="&#x4e86;" d="M88 734 L898 734 L898 647 L552 419 L552 45 Q552 -29 522 -54 Q492 -80 407 -80 L266 -80 L250 7 L379 7 Q430 7 445 19 Q460 32 460 75 L460 463 L747 647 L88 647 L88 734 Z" /><glyph glyph-name="uni4E88" unicode="&#x4e88;" d="M705 183 Q713 192 760 256 Q809 322 830 347 L547 347 L547 37 Q547 -35 519 -60 Q491 -86 411 -86 L285 -86 L269 -4 L382 -4 Q430 -4 445 9 Q461 23 461 67 L461 347 L56 347 L56 429 L487 429 Q345 534 267 587 L317 649 Q432 568 495 522 Q624 608 716 675 L139 675 L139 755 L857 755 L857 675 Q843 666 723 581 Q621 509 565 471 L586 456 L561 429 L929 429 L929 347 L857 245 Q790 150 780 137 L705 183 Z" /><glyph glyph-name="uni4E89" unicode="&#x4e89;" d="M758 77 L758 130 L527 130 L527 37 Q527 -27 497 -53 Q466 -79 392 -79 L266 -79 L252 -4 L370 -4 Q415 -4 430 9 Q444 22 444 60 L444 130 L119 130 L119 201 L444 201 L444 307 L43 307 L43 380 L444 380 L444 484 L158 484 L158 514 Q141 500 105 474 L49 538 Q228 656 335 820 L418 791 Q397 758 380 736 L737 736 L737 661 L630 556 L838 556 L838 380 L950 380 L950 307 L838 307 L838 77 L758 77 ZM317 660 Q267 604 209 556 L516 556 L622 660 L317 660 ZM527 307 L527 201 L758 201 L758 307 L527 307 ZM758 484 L527 484 L527 380 L758 380 L758 484 Z" /><glyph glyph-name="uni4E8B" unicode="&#x4e8b;" d="M538 804 L538 731 L934 731 L934 665 L538 665 L538 609 L844 609 L844 433 L538 433 L538 376 L863 376 L863 253 L951 253 L951 191 L863 191 L863 28 L787 28 L787 68 L538 68 L538 30 Q538 -37 511 -62 Q484 -88 411 -88 L285 -88 L271 -16 L392 -16 Q432 -16 446 -4 Q460 9 460 44 L460 68 L96 68 L96 132 L460 132 L460 191 L40 191 L40 253 L460 253 L460 314 L105 314 L105 376 L460 376 L460 433 L149 433 L149 609 L460 609 L460 665 L57 665 L57 731 L460 731 L460 804 L538 804 ZM787 314 L538 314 L538 253 L787 253 L787 314 ZM538 191 L538 132 L787 132 L787 191 L538 191 ZM229 550 L229 492 L460 492 L460 550 L229 550 ZM762 550 L538 550 L538 492 L762 492 L762 550 Z" /><glyph glyph-name="uni4E8C" unicode="&#x4e8c;" d="M949 -15 L51 -15 L51 75 L949 75 L949 -15 ZM865 595 L135 595 L135 685 L865 685 L865 595 Z" /><glyph glyph-name="uni4E8E" unicode="&#x4e8e;" d="M948 346 L561 346 L561 49 Q561 -24 528 -52 Q496 -80 411 -80 L272 -80 L254 6 L387 6 Q436 6 453 21 Q468 34 468 74 L468 346 L50 346 L50 429 L468 429 L468 654 L123 654 L123 738 L876 738 L876 654 L561 654 L561 429 L948 429 L948 346 Z" /><glyph glyph-name="uni4E91" unicode="&#x4e91;" d="M780 3 Q379 -8 119 -36 L94 51 Q133 63 166 93 Q288 205 395 392 L60 392 L60 476 L940 476 L940 392 L503 392 Q386 186 261 63 L716 85 Q666 150 573 267 L644 318 Q765 171 914 -17 L842 -75 L780 3 ZM860 659 L140 659 L140 743 L860 743 L860 659 Z" /><glyph glyph-name="uni4E94" unicode="&#x4e94;" d="M951 -36 L50 -36 L50 47 L257 47 L314 357 L114 357 L114 440 L329 440 L367 650 L93 650 L93 734 L915 734 L915 650 L457 650 L419 440 L800 440 L785 47 L951 47 L951 -36 ZM404 357 L348 47 L695 47 L708 357 L404 357 Z" /><glyph glyph-name="uni4E9A" unicode="&#x4e9a;" d="M948 -54 L54 -54 L54 29 L342 29 L342 667 L83 667 L83 750 L919 750 L919 667 L658 667 L658 29 L948 29 L948 -54 ZM429 667 L429 29 L572 29 L572 667 L429 667 ZM254 161 Q145 410 85 518 L161 558 Q254 381 336 204 L254 161 ZM916 517 Q828 320 738 161 L663 203 Q783 420 839 558 L916 517 Z" /><glyph glyph-name="uni4E9E" unicode="&#x4e9e;" d="M948 -58 L54 -58 L54 22 L350 22 L350 184 L133 184 L133 510 L350 510 L350 667 L78 667 L78 747 L924 747 L924 667 L648 667 L648 510 L869 510 L869 184 L648 184 L648 22 L948 22 L948 -58 ZM430 264 L430 22 L568 22 L568 264 L786 264 L786 432 L568 432 L568 667 L430 667 L430 432 L215 432 L215 264 L430 264 Z" /><glyph glyph-name="uni4EA4" unicode="&#x4ea4;" d="M928 -109 Q640 -31 500 72 Q360 -30 76 -118 L37 -32 Q299 39 431 130 Q350 210 276 338 L350 380 Q421 254 500 184 Q579 258 641 381 L721 343 Q650 210 568 130 Q700 42 963 -19 L928 -109 ZM934 586 L66 586 L66 671 L478 671 Q448 728 416 781 L505 810 Q563 708 574 686 L528 671 L934 671 L934 586 ZM414 508 Q286 369 125 259 L74 333 Q234 436 350 564 L414 508 ZM871 272 Q730 387 574 504 L626 566 Q744 484 924 345 L871 272 Z" /><glyph glyph-name="uni4EA6" unicode="&#x4ea6;" d="M936 573 L672 573 L672 27 Q672 -40 642 -67 Q611 -96 533 -96 L422 -96 L404 -11 L511 -11 Q554 -11 570 3 Q586 16 586 55 L586 573 L435 573 Q435 482 430 384 Q421 185 371 83 Q324 -13 187 -122 L120 -60 Q252 38 294 125 Q336 210 344 391 Q349 485 349 573 L61 573 L61 655 L477 655 Q442 729 414 776 L502 815 Q544 738 577 672 L533 655 L936 655 L936 573 ZM870 74 Q794 242 690 437 L764 473 Q854 314 952 115 L870 74 ZM271 455 Q212 258 110 90 L37 130 Q136 286 191 477 L271 455 Z" /><glyph glyph-name="uni4EA7" unicode="&#x4ea7;" d="M929 336 L228 336 L228 265 Q228 37 108 -118 L30 -70 Q100 12 123 86 Q144 154 144 281 L144 419 L344 419 Q301 498 252 574 L308 605 L70 605 L70 688 L477 688 Q468 708 430 782 L512 817 Q551 744 570 703 L527 688 L952 688 L952 605 L715 605 L774 577 Q731 496 683 419 L929 419 L929 336 ZM355 419 L583 419 Q644 510 692 605 L335 605 Q390 519 425 459 L355 419 Z" /><glyph glyph-name="uni4EAB" unicode="&#x4eab;" d="M398 -13 Q440 -13 454 -2 Q468 9 468 43 L468 95 L47 95 L47 167 L468 167 L468 188 L694 265 L127 265 L127 336 L853 336 L853 265 L572 167 L953 167 L953 95 L552 95 L552 17 Q552 -44 526 -66 Q498 -89 421 -89 L285 -89 L271 -13 L398 -13 ZM177 580 L824 580 L824 391 L177 391 L177 580 ZM934 636 L65 636 L65 708 L468 708 L446 747 Q430 774 426 782 L515 807 Q530 782 569 708 L934 708 L934 636 ZM257 519 L257 455 L742 455 L742 519 L257 519 Z" /><glyph glyph-name="uni4EAC" unicode="&#x4eac;" d="M170 522 L829 522 L829 229 L558 229 L558 12 Q558 -45 531 -66 Q503 -88 427 -88 L313 -88 L297 -3 L401 -3 Q443 -3 456 7 Q469 17 469 47 L469 229 L170 229 L170 522 ZM943 614 L58 614 L58 691 L475 691 Q458 729 425 781 L508 818 Q547 747 565 707 L526 691 L943 691 L943 614 ZM258 445 L258 306 L741 306 L741 445 L258 445 ZM907 -76 Q820 0 651 136 L703 202 Q820 111 968 -9 L907 -76 ZM342 147 Q248 38 93 -77 L38 -5 Q189 95 278 203 L342 147 Z" /><glyph glyph-name="uni4EAE" unicode="&#x4eae;" d="M193 583 L811 583 L811 394 L193 394 L193 583 ZM932 118 Q929 48 925 16 Q921 -42 892 -63 Q865 -83 796 -83 L714 -83 Q652 -83 629 -63 Q606 -42 606 15 L606 135 L370 135 L370 103 Q370 30 311 -18 Q245 -71 87 -109 L49 -32 Q198 2 244 40 Q285 73 285 149 L285 208 L691 208 L691 40 Q691 12 701 3 Q710 -5 740 -5 L784 -5 Q820 -5 833 6 Q845 17 847 48 L852 134 L932 118 ZM91 170 L91 337 L913 337 L913 169 L828 169 L828 268 L175 268 L175 170 L91 170 ZM936 640 L66 640 L66 712 L472 712 Q436 778 430 788 L514 823 L568 726 L527 712 L936 712 L936 640 ZM278 521 L278 455 L726 455 L726 521 L278 521 Z" /><glyph glyph-name="uni4EB2" unicode="&#x4eb2;" d="M915 200 L556 200 L556 28 Q556 -39 531 -62 Q505 -85 432 -85 L332 -85 L314 0 L403 0 Q448 0 459 10 Q469 19 469 60 L469 200 L86 200 L86 277 L469 277 L469 388 L53 388 L53 466 L326 466 Q270 548 235 594 L279 620 L106 620 L106 698 L474 698 L424 793 L511 815 L572 698 L894 698 L894 620 L721 620 L764 600 Q739 557 674 466 L945 466 L945 388 L556 388 L556 277 L915 277 L915 200 ZM572 466 Q633 545 681 620 L319 620 Q361 566 409 496 L360 466 L572 466 ZM352 129 Q246 22 98 -76 L52 -4 Q189 82 294 187 L352 129 ZM890 -66 Q786 13 634 113 L682 180 Q796 107 941 5 L890 -66 Z" /><glyph glyph-name="uni4EBA" unicode="&#x4eba;" d="M888 -103 Q589 130 500 402 Q416 123 117 -94 L53 -21 Q269 129 359 293 Q447 454 449 694 L452 787 L540 787 L539 721 Q539 674 538 660 L537 629 Q576 237 949 -26 L888 -103 Z" /><glyph glyph-name="uni4EC1" unicode="&#x4ec1;" d="M348 783 Q315 668 263 553 L263 -98 L178 -98 L178 392 Q130 313 82 249 L32 348 Q174 535 263 808 L348 783 ZM958 -22 L323 -22 L323 65 L958 65 L958 -22 ZM918 585 L373 585 L373 673 L918 673 L918 585 Z" /><glyph glyph-name="uni4EC5" unicode="&#x4ec5;" d="M893 734 L893 649 Q834 370 692 193 Q797 82 967 -28 L913 -110 Q738 10 631 124 Q521 10 332 -109 L276 -29 Q467 88 571 195 Q439 367 385 622 L469 646 Q522 412 633 264 Q753 416 801 648 L360 648 L360 734 L893 734 ZM345 774 Q306 659 259 563 L259 -102 L173 -102 L173 408 Q121 327 69 265 L29 357 Q177 543 259 799 L345 774 Z" /><glyph glyph-name="uni4ECA" unicode="&#x4eca;" d="M528 330 Q469 411 386 508 L447 561 Q438 571 595 386 L528 330 ZM460 -60 Q604 77 702 227 L134 227 L134 312 L817 312 L817 229 Q695 50 544 -108 L460 -60 ZM923 366 Q642 506 501 724 Q361 517 79 366 L31 444 Q318 589 463 810 L541 810 Q687 582 969 444 L923 366 Z" /><glyph glyph-name="uni4ECB" unicode="&#x4ecb;" d="M917 327 Q645 460 500 708 Q349 472 80 324 L28 407 Q331 561 461 804 L538 804 Q683 546 967 412 L917 327 ZM380 307 Q380 147 335 61 Q287 -31 148 -120 L90 -49 Q213 35 252 102 Q291 170 291 300 L291 441 L380 441 L380 307 ZM620 -94 L620 443 L709 443 L709 -94 L620 -94 Z" /><glyph glyph-name="uni4ECE" unicode="&#x4ece;" d="M904 -109 Q714 98 658 342 Q596 106 387 -110 L318 -46 Q489 126 550 281 Q607 423 613 668 Q615 708 615 792 L705 792 Q705 723 700 668 Q698 626 696 602 Q721 205 972 -43 L904 -109 ZM345 791 Q345 743 340 648 Q336 561 333 515 Q438 372 516 256 L446 199 Q382 297 318 388 Q281 152 108 -85 L30 -33 Q156 141 199 273 Q244 410 250 651 Q256 770 255 791 L345 791 Z" /><glyph glyph-name="uni4ED5" unicode="&#x4ed5;" d="M960 431 L690 431 L690 44 L929 44 L929 -42 L362 -42 L362 44 L604 44 L604 431 L333 431 L333 517 L604 517 L604 795 L690 795 L690 517 L960 517 L960 431 ZM361 774 Q321 665 270 565 L270 -95 L184 -95 L184 416 Q130 335 70 266 L31 353 Q191 537 279 799 L361 774 Z" /><glyph glyph-name="uni4ED6" unicode="&#x4ed6;" d="M949 163 Q946 67 943 35 Q938 -29 909 -51 Q879 -73 798 -73 L513 -73 Q435 -73 405 -45 Q373 -15 373 60 L373 395 L288 369 L269 447 L373 479 L373 695 L453 695 L453 503 L583 543 L583 795 L663 795 L663 567 L887 636 Q875 294 874 284 Q871 227 844 206 Q818 185 751 185 L694 185 L678 265 L727 265 Q771 265 783 275 Q793 283 795 320 Q803 499 803 528 L663 484 L663 93 L583 93 L583 460 L453 419 L453 84 Q453 35 469 21 Q486 5 541 5 L762 5 Q825 5 843 19 Q859 31 861 75 L865 177 L949 163 ZM169 415 Q114 328 73 276 L30 354 Q168 523 249 783 L329 765 Q291 653 249 563 L249 -98 L169 -98 L169 415 Z" /><glyph glyph-name="uni4ED8" unicode="&#x4ed8;" d="M797 786 L797 598 L954 598 L954 512 L797 512 L797 37 Q797 -34 765 -62 Q734 -89 652 -89 L522 -89 L504 -1 L629 -1 Q678 -1 694 13 Q708 25 708 63 L708 512 L319 512 L319 598 L708 598 L708 786 L797 786 ZM177 405 Q134 336 81 270 L25 347 Q167 524 256 793 L344 770 Q306 662 265 570 L265 -93 L177 -93 L177 405 ZM532 163 Q506 204 371 401 L442 447 Q524 336 605 213 L532 163 Z" /><glyph glyph-name="uni4EE3" unicode="&#x4ee3;" d="M612 415 Q646 153 719 53 Q757 3 789 3 Q821 3 841 77 Q854 124 868 195 L941 161 Q927 83 909 22 Q875 -95 789 -95 Q715 -95 646 2 Q562 123 527 407 L308 388 L301 472 L518 491 Q512 562 510 604 Q500 805 500 797 L587 797 L595 601 Q599 534 602 499 L942 529 L948 445 L612 415 ZM189 406 Q134 318 75 246 L35 334 Q185 511 276 792 L360 768 Q323 660 274 560 L274 -96 L189 -96 L189 406 ZM826 558 Q752 630 661 707 L709 763 Q820 672 879 619 L826 558 Z" /><glyph glyph-name="uni4EE4" unicode="&#x4ee4;" d="M682 -111 Q382 40 210 116 L251 194 L501 79 Q607 164 713 263 L132 263 L132 350 L837 350 L837 260 Q692 121 590 37 Q692 -11 726 -28 L682 -111 ZM922 364 Q639 504 500 716 Q362 516 80 367 L29 452 Q301 580 462 802 L540 802 Q682 587 970 451 L922 364 ZM528 364 Q464 446 390 526 L460 579 Q558 464 595 419 L528 364 Z" /><glyph glyph-name="uni4EE5" unicode="&#x4ee5;" d="M899 -75 Q845 -9 714 137 Q626 14 402 -105 L348 -29 Q564 81 646 206 Q720 318 737 531 Q743 591 743 771 L829 771 Q829 576 825 525 Q809 328 761 220 Q947 16 969 -9 L899 -75 ZM514 261 Q320 114 141 -44 L82 26 Q118 46 118 91 L118 748 L205 748 L205 126 L461 333 L514 261 ZM494 480 Q405 635 334 748 L403 790 Q481 670 568 522 L494 480 Z" /><glyph glyph-name="uni4EEC" unicode="&#x4eec;" d="M745 -9 Q796 -9 811 6 Q825 20 825 69 L825 657 L581 657 L581 737 L907 737 L907 48 Q907 -35 877 -62 Q850 -87 769 -87 L654 -87 L640 -9 L745 -9 ZM159 416 Q113 336 72 281 L29 359 Q158 539 236 801 L314 780 Q285 684 239 577 L239 -93 L159 -93 L159 416 ZM356 -87 L356 615 L439 615 L439 -87 L356 -87 ZM507 598 Q430 694 376 753 L433 805 Q494 739 567 653 L507 598 Z" /><glyph glyph-name="uni4EF0" unicode="&#x4ef0;" d="M578 132 Q485 86 356 27 L328 114 Q352 130 352 153 L352 708 Q457 735 566 787 L594 719 L594 730 L903 730 L903 175 Q903 111 877 86 Q852 61 786 61 L716 61 L700 146 L752 146 Q794 146 807 158 Q820 169 820 205 L820 647 L677 647 L677 -99 L594 -99 L594 707 Q505 662 436 640 L436 163 L574 225 L578 132 ZM313 780 Q285 677 242 574 L242 -93 L159 -93 L159 406 Q112 326 61 262 L31 360 Q155 539 235 807 L313 780 Z" /><glyph glyph-name="uni4EF6" unicode="&#x4ef6;" d="M924 513 L699 513 L699 288 L960 288 L960 206 L699 206 L699 -102 L614 -102 L614 206 L308 206 L308 288 L614 288 L614 513 L461 513 Q434 427 399 348 L311 377 Q388 546 435 752 L519 728 Q503 656 486 595 L614 595 L614 801 L699 801 L699 595 L924 595 L924 513 ZM324 775 Q298 683 255 579 L255 -100 L169 -100 L169 407 Q124 329 64 255 L25 345 Q165 539 238 801 L324 775 Z" /><glyph glyph-name="uni4EFB" unicode="&#x4efb;" d="M914 680 Q827 661 679 642 L679 403 L957 403 L957 317 L679 317 L679 38 L929 38 L929 -48 L337 -48 L337 38 L591 38 L591 317 L311 317 L311 403 L591 403 L591 632 Q452 618 357 613 L349 698 Q664 715 895 765 L914 680 ZM339 773 Q302 663 258 570 L258 -95 L171 -95 L171 411 Q128 342 70 272 L29 358 Q171 536 256 796 L339 773 Z" /><glyph glyph-name="uni4EFD" unicode="&#x4efd;" d="M645 10 Q699 10 717 29 Q733 47 737 102 Q749 225 753 332 L543 332 L542 314 Q530 164 486 79 Q441 -9 322 -105 L252 -47 Q364 35 405 108 Q446 182 455 316 L456 332 L360 332 L360 387 L325 350 L266 405 Q423 557 501 776 L585 749 Q519 573 385 416 L830 416 Q703 559 637 783 L722 803 Q794 549 967 402 L900 346 Q865 377 843 402 L825 63 Q820 -15 781 -46 Q746 -74 671 -74 L555 -74 L539 10 L645 10 ZM165 401 Q120 329 66 264 L26 349 Q161 526 245 795 L323 770 Q291 661 248 561 L248 -96 L165 -96 L165 401 Z" /><glyph glyph-name="uni4EFF" unicode="&#x4eff;" d="M660 14 Q719 14 740 30 Q762 46 766 92 Q781 216 781 344 L543 344 Q530 188 488 92 Q444 -6 343 -107 L272 -46 Q386 63 421 163 Q452 250 462 464 L467 573 L323 573 L323 658 L619 658 Q573 761 558 791 L643 811 L712 658 L955 658 L955 573 L554 573 L550 454 Q549 445 549 429 L871 429 Q863 200 852 65 Q848 -17 814 -45 Q782 -71 692 -71 L574 -71 L558 14 L660 14 ZM336 774 Q299 667 250 563 L250 -93 L165 -93 L165 408 Q122 339 67 270 L25 355 Q163 541 246 796 L336 774 Z" /><glyph glyph-name="uni4F01" unicode="&#x4f01;" d="M846 238 L561 238 L561 25 L940 25 L940 -60 L47 -60 L47 25 L190 25 L190 380 L275 380 L275 25 L475 25 L475 531 L561 531 L561 323 L846 323 L846 238 ZM924 364 Q647 515 502 713 Q359 521 77 364 L29 446 Q317 596 463 799 L540 799 Q691 592 972 446 L924 364 Z" /><glyph glyph-name="uni4F11" unicode="&#x4f11;" d="M571 414 Q482 213 310 9 L247 77 L247 -102 L165 -102 L165 404 Q119 331 65 264 L21 346 Q165 523 249 789 L331 766 Q289 643 247 554 L247 79 Q453 291 544 529 L325 529 L325 618 L571 618 L571 800 L653 800 L653 618 L931 618 L931 529 L677 529 Q776 276 972 90 L914 16 Q752 195 653 423 L653 -102 L571 -102 L571 414 Z" /><glyph glyph-name="uni4F17" unicode="&#x4f17;" d="M358 484 Q357 477 355 440 Q353 407 351 392 Q349 368 347 354 Q388 311 514 176 L450 115 Q417 154 329 252 Q285 80 116 -98 L42 -39 Q157 72 206 166 Q255 262 264 397 L270 480 Q189 424 92 374 L46 457 Q333 593 464 791 L541 791 Q672 594 956 457 L911 374 Q644 508 503 701 Q416 581 276 484 L358 484 ZM902 -99 Q723 35 656 205 Q600 50 413 -111 L343 -45 Q478 61 537 160 Q596 257 605 391 Q608 420 611 484 L699 484 Q698 476 696 438 Q694 404 692 388 L690 370 Q729 134 961 -29 L902 -99 Z" /><glyph glyph-name="uni4F18" unicode="&#x4f18;" d="M169 404 Q124 332 71 267 L31 355 Q169 520 253 797 L337 774 Q301 660 253 559 L253 -45 Q383 81 436 197 Q487 310 501 489 L310 489 L310 573 L506 573 L510 797 L597 797 L593 573 L940 573 L940 489 L590 489 Q579 298 521 168 Q463 39 325 -102 L253 -45 L253 -97 L169 -97 L169 404 ZM945 200 Q942 60 940 38 Q937 -31 909 -55 Q884 -76 811 -76 L738 -76 Q682 -76 656 -51 Q627 -23 627 43 L627 458 L712 458 L712 65 Q712 31 723 19 Q734 7 766 7 L808 7 Q841 7 851 17 Q860 28 860 63 L863 218 L945 200 ZM822 582 Q735 669 673 723 L726 778 Q785 728 877 640 L822 582 Z" /><glyph glyph-name="uni4F1A" unicode="&#x4f1a;" d="M229 415 L229 477 Q159 432 79 393 L40 471 Q320 602 464 802 L542 802 Q682 609 963 476 L924 396 Q856 428 776 479 L776 415 L229 415 ZM754 -38 Q384 -48 152 -69 L134 8 Q165 20 194 42 Q276 106 363 216 L76 216 L76 294 L927 294 L927 216 L473 216 Q383 98 296 24 L687 39 L596 142 L663 194 Q781 63 877 -46 L811 -104 L754 -38 ZM503 720 Q410 598 249 491 L758 491 Q595 599 503 720 Z" /><glyph glyph-name="uni4F20" unicode="&#x4f20;" d="M841 -118 Q559 21 380 99 L412 172 L657 63 Q691 107 774 226 L427 226 L427 296 Q446 347 462 400 L303 400 L303 477 L484 477 Q494 513 512 587 L357 587 L357 664 L530 664 Q546 742 556 806 L641 796 Q627 717 616 664 L921 664 L921 587 L599 587 Q585 523 572 477 L958 477 L958 400 L551 400 Q536 350 519 302 L876 302 L876 227 L732 29 Q848 -22 877 -36 L841 -118 ZM337 778 Q302 673 254 569 L254 -100 L172 -100 L172 419 Q121 339 68 275 L28 361 Q166 540 255 800 L337 778 Z" /><glyph glyph-name="uni4F34" unicode="&#x4f34;" d="M957 138 L680 138 L680 -102 L595 -102 L595 138 L311 138 L311 220 L595 220 L595 351 L368 351 L368 429 L595 429 L595 802 L680 802 L680 429 L917 429 L917 351 L680 351 L680 220 L957 220 L957 138 ZM173 410 Q127 340 72 273 L22 351 Q172 534 255 789 L340 767 Q304 659 258 562 L258 -96 L173 -96 L173 410 ZM926 706 Q869 588 806 476 L732 513 Q803 636 852 742 L926 706 ZM470 479 Q407 604 351 701 L423 738 Q477 647 544 515 L470 479 Z" /><glyph glyph-name="uni4F38" unicode="&#x4f38;" d="M352 68 L352 661 L590 661 L590 800 L668 800 L668 661 L907 661 L907 68 L829 68 L829 128 L668 128 L668 -100 L590 -100 L590 128 L429 128 L429 68 L352 68 ZM160 409 Q135 369 72 282 L20 356 Q162 536 240 801 L325 779 Q285 654 240 556 L240 -97 L160 -97 L160 409 ZM429 583 L429 433 L590 433 L590 583 L429 583 ZM829 583 L668 583 L668 433 L829 433 L829 583 ZM429 355 L429 205 L590 205 L590 355 L429 355 ZM668 355 L668 205 L829 205 L829 355 L668 355 Z" /><glyph glyph-name="uni4F46" unicode="&#x4f46;" d="M381 738 L890 738 L890 166 L381 166 L381 738 ZM165 401 Q120 326 66 260 L28 353 Q162 529 245 793 L333 775 Q296 661 249 559 L249 -105 L165 -105 L165 401 ZM465 249 L805 249 L805 413 L465 413 L465 249 ZM958 -57 L299 -57 L299 27 L958 27 L958 -57 ZM465 655 L465 493 L805 493 L805 655 L465 655 Z" /><glyph glyph-name="uni4F48" unicode="&#x4f48;" d="M325 772 Q283 647 240 556 L240 220 Q407 403 483 597 L321 597 L321 674 L510 674 Q526 724 543 803 L620 790 Q606 728 590 674 L961 674 L961 597 L564 597 Q530 504 482 420 L609 420 L609 542 L689 542 L689 420 L909 420 L909 92 Q909 40 885 18 Q860 -6 804 -6 L730 -6 L716 70 L777 70 Q808 70 819 80 Q831 91 831 119 L831 344 L689 344 L689 -101 L609 -101 L609 344 L470 344 L470 -11 L392 -11 L392 280 Q346 217 290 157 L240 213 L240 -100 L162 -100 L162 407 Q117 331 76 275 L25 353 Q172 534 247 796 L325 772 Z" /><glyph glyph-name="uni4F4D" unicode="&#x4f4d;" d="M166 415 Q121 343 66 276 L16 350 Q162 536 242 801 L330 781 Q293 665 250 572 L250 -92 L166 -92 L166 415 ZM953 -54 L296 -54 L296 28 L631 28 Q713 273 776 516 L861 491 Q788 246 715 28 L953 28 L953 -54 ZM934 558 L326 558 L326 640 L598 640 Q559 739 534 790 L622 813 Q667 714 689 657 L629 640 L934 640 L934 558 ZM500 93 Q460 238 384 488 L466 510 L582 115 L500 93 Z" /><glyph glyph-name="uni4F4E" unicode="&#x4f4e;" d="M958 141 Q951 89 930 12 Q907 -84 844 -84 Q773 -84 718 60 Q678 168 658 355 L458 355 L458 97 L629 209 L654 129 Q572 77 390 -47 L344 22 Q374 38 374 78 L374 708 Q638 723 888 773 L907 690 Q838 675 723 657 Q724 553 733 437 L943 437 L943 355 L740 355 Q760 175 796 78 Q817 22 844 22 Q861 22 871 69 Q883 116 888 166 L958 141 ZM162 413 Q112 336 62 276 L23 361 Q163 536 245 806 L329 781 Q288 656 245 565 L245 -97 L162 -97 L162 413 ZM458 437 L651 437 Q643 544 640 646 Q542 634 458 628 L458 437 ZM621 -108 Q540 -7 516 21 L577 63 Q620 14 681 -63 L621 -108 Z" /><glyph glyph-name="uni4F4F" unicode="&#x4f4f;" d="M894 262 L663 262 L663 25 L950 25 L950 -58 L298 -58 L298 25 L576 25 L576 262 L345 262 L345 345 L576 345 L576 552 L321 552 L321 634 L615 634 Q591 684 538 780 L613 819 L698 668 L630 634 L927 634 L927 552 L663 552 L663 345 L894 345 L894 262 ZM328 764 Q287 647 245 555 L245 -96 L162 -96 L162 399 Q116 327 73 273 L22 351 Q160 532 243 791 L328 764 Z" /><glyph glyph-name="uni4F53" unicode="&#x4f53;" d="M158 395 Q119 329 64 259 L28 351 Q162 531 238 792 L323 778 Q289 664 240 554 L240 142 Q425 312 522 548 L300 548 L300 633 L564 633 L564 798 L646 798 L646 633 L934 633 L934 548 L688 548 Q789 308 982 142 L920 67 Q749 224 646 469 L646 143 L812 143 L812 65 L646 65 L646 -102 L564 -102 L564 65 L396 65 L396 143 L564 143 L564 465 Q477 254 288 65 L240 133 L240 -95 L158 -95 L158 395 Z" /><glyph glyph-name="uni4F55" unicode="&#x4f55;" d="M957 650 L872 650 L872 49 Q872 -31 842 -59 Q811 -88 722 -88 L592 -88 L576 -5 L700 -5 Q755 -5 771 9 Q787 23 787 72 L787 650 L332 650 L332 730 L957 730 L957 650 ZM355 522 L674 522 L674 131 L355 131 L355 522 ZM158 400 Q116 331 67 270 L19 344 Q161 536 236 796 L319 774 Q287 665 242 560 L242 -99 L158 -99 L158 400 ZM431 445 L431 207 L598 207 L598 445 L431 445 Z" /><glyph glyph-name="uni4F59" unicode="&#x4f59;" d="M751 429 L552 429 L552 317 L920 317 L920 233 L552 233 L552 32 Q552 -40 524 -65 Q496 -90 418 -90 L307 -90 L288 -3 L383 -3 Q434 -3 449 10 Q463 22 463 61 L463 233 L80 233 L80 317 L463 317 L463 429 L256 429 L256 500 Q175 448 77 400 L36 482 Q310 603 458 795 L543 795 Q685 607 968 480 L925 400 Q835 444 751 498 L751 429 ZM501 720 Q416 607 273 511 L731 511 Q580 613 501 720 ZM894 -69 Q776 42 650 141 L703 203 Q816 119 951 -2 L894 -69 ZM340 152 Q243 32 107 -81 L51 -14 Q178 79 273 206 L340 152 Z" /><glyph glyph-name="uni4F5B" unicode="&#x4f5b;" d="M782 76 Q814 76 825 85 Q835 93 837 118 L847 212 L720 212 L720 -101 L643 -101 L643 212 L531 212 Q521 100 474 27 Q429 -41 324 -114 L264 -57 Q369 14 408 69 Q448 125 454 212 L289 212 L310 480 L456 480 L456 599 L293 599 L293 674 L456 674 L456 797 L534 797 L534 674 L643 674 L643 798 L720 798 L720 674 L894 674 L894 405 L720 405 L720 289 L921 289 L910 89 Q907 35 882 15 Q859 -2 800 -2 L750 -2 L736 76 L782 76 ZM297 776 Q256 645 227 570 L227 -94 L150 -94 L150 402 Q110 330 75 283 L21 354 Q145 541 219 797 L297 776 ZM534 599 L534 480 L643 480 L643 599 L534 599 ZM534 289 L643 289 L643 405 L534 405 L534 289 ZM817 599 L720 599 L720 480 L817 480 L817 599 ZM372 289 L456 289 L456 405 L383 405 L372 289 Z" /><glyph glyph-name="uni4F5C" unicode="&#x4f5c;" d="M911 103 L630 103 L630 -103 L544 -103 L544 572 L491 572 Q427 451 343 354 L285 418 Q417 571 497 801 L580 777 Q552 700 532 657 L939 657 L939 572 L630 572 L630 423 L889 423 L889 338 L630 338 L630 188 L911 188 L911 103 ZM167 405 Q120 336 71 277 L21 354 Q166 534 249 785 L336 760 Q300 652 254 558 L254 -97 L167 -97 L167 405 Z" /><glyph glyph-name="uni4F73" unicode="&#x4f73;" d="M954 -62 L295 -62 L295 20 L590 20 L590 169 L359 169 L359 246 L590 246 L590 346 L675 346 L675 246 L903 246 L903 169 L675 169 L675 20 L954 20 L954 -62 ZM953 373 L301 373 L301 453 L590 453 L590 586 L359 586 L359 663 L590 663 L590 794 L675 794 L675 663 L903 663 L903 586 L675 586 L675 453 L953 453 L953 373 ZM327 772 Q298 665 256 571 L256 -103 L171 -103 L171 409 Q135 350 70 256 L30 355 Q180 559 244 791 L327 772 Z" /><glyph glyph-name="uni4F7F" unicode="&#x4f7f;" d="M661 795 L661 679 L941 679 L941 603 L661 603 L661 511 L903 511 L903 246 L661 246 Q658 133 619 68 Q745 11 968 -12 L945 -96 Q706 -65 564 6 Q487 -58 296 -111 L256 -33 Q420 9 485 53 Q403 112 344 200 L403 246 L336 246 L336 511 L579 511 L579 603 L304 603 L304 679 L579 679 L579 795 L661 795 ZM150 397 Q106 324 73 279 L23 351 Q142 515 223 796 L305 775 Q273 658 232 561 L232 -104 L150 -104 L150 397 ZM414 438 L414 321 L579 321 L579 438 L414 438 ZM823 438 L661 438 L661 321 L823 321 L823 438 ZM543 108 Q576 155 579 246 L403 246 Q462 159 543 108 Z" /><glyph glyph-name="uni4F86" unicode="&#x4f86;" d="M916 -47 Q663 77 543 209 L543 -101 L459 -101 L459 208 Q334 65 89 -56 L49 20 Q311 134 459 334 L459 603 L94 603 L94 680 L459 680 L459 802 L543 802 L543 680 L910 680 L910 603 L543 603 L543 337 Q680 153 957 33 L916 -47 ZM864 250 Q797 317 715 394 Q679 341 625 286 L568 339 Q670 443 716 571 L788 548 Q772 502 752 460 Q849 374 917 306 L864 250 ZM369 286 Q322 341 266 398 Q217 311 143 239 L87 292 Q205 410 253 563 L327 545 Q318 514 299 467 L423 339 L369 286 Z" /><glyph glyph-name="uni4F9B" unicode="&#x4f9b;" d="M947 210 L281 210 L281 292 L433 292 L433 533 L320 533 L320 613 L433 613 L433 797 L519 797 L519 613 L715 613 L715 797 L801 797 L801 613 L924 613 L924 533 L801 533 L801 292 L947 292 L947 210 ZM153 415 Q111 349 60 283 L20 371 Q150 535 235 808 L318 783 Q278 660 239 575 L239 -93 L153 -93 L153 415 ZM519 533 L519 292 L715 292 L715 533 L519 533 ZM569 127 Q456 0 336 -98 L280 -36 Q393 49 505 180 L569 127 ZM880 -95 Q779 13 666 122 L723 178 Q832 78 940 -35 L880 -95 Z" /><glyph glyph-name="uni4F9D" unicode="&#x4f9d;" d="M674 27 Q560 -24 422 -96 L383 -28 Q418 -10 418 32 L418 261 Q360 203 289 147 L235 215 L235 -91 L150 -91 L150 408 Q113 347 64 282 L19 364 Q151 532 231 800 L315 782 Q278 666 235 569 L235 217 Q441 368 544 581 L314 581 L314 663 L584 663 Q566 704 525 781 L600 818 Q635 753 668 681 L628 663 L935 663 L935 581 L634 581 L630 573 Q654 445 694 349 Q765 404 855 488 L909 427 Q806 338 727 278 Q809 128 963 31 L902 -42 Q767 53 694 166 Q621 279 575 464 Q544 410 502 356 L502 33 L656 110 L674 27 Z" /><glyph glyph-name="uni4FBF" unicode="&#x4fbf;" d="M943 -90 Q688 -66 558 -1 Q480 -60 284 -111 L252 -33 Q417 6 483 45 Q420 89 360 167 L404 204 L347 204 L347 590 L583 590 L583 674 L331 674 L331 752 L944 752 L944 674 L663 674 L663 590 L897 590 L897 204 L660 204 Q651 113 617 60 Q738 10 963 -4 L943 -90 ZM156 389 Q127 339 78 274 L24 347 Q159 534 233 797 L316 775 Q283 657 238 551 L238 -102 L156 -102 L156 389 ZM583 361 L429 361 L429 278 L583 278 L583 361 ZM429 516 L429 433 L583 433 L583 516 L429 516 ZM815 516 L663 516 L663 433 L815 433 L815 516 ZM663 278 L815 278 L815 361 L663 361 L663 278 ZM544 100 Q570 137 578 204 L433 204 Q492 135 544 100 Z" /><glyph glyph-name="uni4FC3" unicode="&#x4fc3;" d="M483 345 Q476 253 465 198 Q508 56 609 26 L609 416 L380 416 L380 749 L890 749 L890 416 L694 416 L694 265 L931 265 L931 185 L694 185 L694 16 L965 16 L951 -67 L701 -67 Q510 -67 433 85 Q396 -11 317 -104 L245 -61 L245 -99 L160 -99 L160 398 Q119 333 75 278 L27 351 Q168 540 240 792 L322 770 Q287 655 245 560 L245 -61 Q384 102 399 352 L483 345 ZM465 666 L465 498 L804 498 L804 666 L465 666 Z" /><glyph glyph-name="uni4FD7" unicode="&#x4fd7;" d="M378 261 Q345 238 297 209 L251 283 Q475 414 577 586 L652 586 Q757 410 976 287 L930 213 Q884 239 851 263 L851 -102 L767 -102 L767 -48 L461 -48 L461 -102 L378 -102 L378 261 ZM157 400 Q123 346 79 288 L24 356 Q158 529 232 784 L314 762 Q281 654 241 562 L241 -95 L157 -95 L157 400 ZM461 214 L461 30 L767 30 L767 214 L461 214 ZM616 509 Q545 389 419 291 L813 291 Q687 387 616 509 ZM566 727 Q466 616 337 511 L285 578 Q398 662 509 783 L566 727 ZM886 517 Q746 645 653 724 L707 783 Q788 715 940 579 L886 517 Z" /><glyph glyph-name="uni4FDD" unicode="&#x4fdd;" d="M372 747 L879 747 L879 431 L372 431 L372 747 ZM586 191 Q482 56 303 -52 L260 18 Q454 121 552 252 L309 252 L309 327 L586 327 L586 407 L666 407 L666 327 L944 327 L944 252 L689 252 Q793 120 976 28 L926 -47 Q766 64 666 187 L666 -97 L586 -97 L586 191 ZM162 404 Q124 342 75 280 L24 354 Q169 549 236 791 L322 770 Q283 650 242 557 L242 -100 L162 -100 L162 404 ZM457 669 L457 509 L794 509 L794 669 L457 669 Z" /><glyph glyph-name="uni4FE1" unicode="&#x4fe1;" d="M359 -97 L359 235 L881 235 L881 -97 L796 -97 L796 -45 L444 -45 L444 -97 L359 -97 ZM158 403 Q124 347 81 290 L27 364 Q164 547 230 796 L313 773 Q282 662 241 566 L241 -99 L158 -99 L158 403 ZM957 607 L307 607 L307 685 L602 685 Q586 716 549 780 L634 805 L698 685 L957 685 L957 607 ZM444 160 L444 30 L796 30 L796 160 L444 160 ZM877 310 L362 310 L362 383 L877 383 L877 310 ZM877 458 L362 458 L362 530 L877 530 L877 458 Z" /><glyph glyph-name="uni4FEC" unicode="&#x4fec;" d="M496 294 L496 -95 L418 -95 L418 281 Q359 150 294 58 L252 141 Q351 273 417 449 L283 449 L283 529 L418 529 L418 652 Q327 637 300 634 L294 711 Q476 736 603 774 L615 696 Q563 681 496 667 L496 529 L626 529 L626 449 L496 449 L496 349 L521 376 L643 260 L590 199 L496 294 ZM871 -11 Q660 -39 585 -56 L555 22 Q588 40 599 78 Q683 370 744 779 L829 769 Q771 373 670 46 L853 64 Q800 285 776 370 L852 391 Q899 214 967 -67 L887 -86 L871 -11 ZM151 401 Q121 350 80 296 L27 367 Q152 533 223 792 L303 771 Q263 642 228 557 L228 -97 L151 -97 L151 401 Z" /><glyph glyph-name="uni4FEE" unicode="&#x4fee;" d="M943 340 Q772 387 672 445 Q562 381 394 330 L366 396 L366 67 L294 67 L294 661 L366 661 L366 550 Q496 658 566 807 L637 779 Q622 748 607 723 L893 723 L893 656 Q835 560 742 491 Q838 443 970 413 L943 340 ZM141 386 Q97 312 78 284 L19 340 Q153 535 221 796 L296 778 Q258 643 215 538 L215 -101 L141 -101 L141 386 ZM945 140 Q732 -23 389 -109 L359 -40 Q685 38 905 196 L945 140 ZM862 243 Q682 115 439 43 L403 107 Q640 177 822 300 L862 243 ZM781 342 Q617 238 453 185 L421 255 Q598 309 745 402 L781 342 ZM366 550 L366 401 Q508 442 605 490 Q556 528 509 585 Q462 532 412 490 L366 550 ZM555 642 Q601 579 673 530 Q751 582 799 654 L563 654 L555 642 Z" /><glyph glyph-name="uni4FEF" unicode="&#x4fef;" d="M494 314 Q464 272 441 245 L405 290 Q396 84 315 -85 L238 -53 Q331 121 331 388 L331 692 L618 692 Q596 736 568 788 L653 811 L711 692 L950 692 L950 616 L407 616 L407 362 L406 321 Q500 441 547 609 L621 588 Q597 512 567 445 L567 -92 L494 -92 L494 314 ZM152 403 Q109 331 69 277 L24 355 Q150 521 218 785 L303 767 Q269 652 229 557 L229 -98 L152 -98 L152 403 ZM861 594 L861 458 L954 458 L954 384 L861 384 L861 31 Q861 -36 835 -61 Q809 -87 739 -87 L648 -87 L634 -11 L716 -11 Q760 -11 773 1 Q787 14 787 54 L787 384 L593 384 L593 458 L787 458 L787 594 L861 594 ZM695 124 Q637 250 599 316 L663 348 L761 158 L695 124 Z" /><glyph glyph-name="uni4FF1" unicode="&#x4ff1;" d="M959 118 L277 118 L277 194 L380 194 L380 748 L860 748 L860 194 L959 194 L959 118 ZM152 396 Q119 339 79 286 L26 358 Q150 519 221 784 L303 768 Q275 659 234 561 L234 -100 L152 -100 L152 396 ZM566 53 Q459 -33 311 -108 L272 -36 Q399 18 516 113 L566 53 ZM908 -101 Q800 -32 670 44 L711 108 Q785 68 952 -32 L908 -101 ZM460 673 L460 606 L780 606 L780 673 L460 673 ZM460 261 L460 194 L780 194 L780 261 L460 261 ZM460 398 L460 332 L780 332 L780 398 L460 398 ZM460 535 L460 469 L780 469 L780 535 L460 535 Z" /><glyph glyph-name="uni500B" unicode="&#x500b;" d="M321 -100 L321 749 L899 749 L899 -100 L817 -100 L817 -54 L399 -54 L399 -100 L321 -100 ZM399 671 L399 24 L817 24 L817 671 L399 671 ZM476 370 L573 370 L573 479 L432 479 L432 550 L573 550 L573 646 L647 646 L647 550 L786 550 L786 479 L647 479 L647 370 L742 370 L742 114 L476 114 L476 370 ZM149 407 Q107 334 71 284 L31 373 Q145 540 217 797 L295 779 Q263 664 227 571 L227 -97 L149 -97 L149 407 ZM546 300 L546 184 L671 184 L671 300 L546 300 Z" /><glyph glyph-name="uni5011" unicode="&#x5011;" d="M768 -14 Q809 -14 822 -3 Q834 8 834 43 L834 377 L650 377 L650 754 L911 754 L911 21 Q911 -40 885 -64 Q859 -88 791 -88 L682 -88 L668 -14 L768 -14 ZM332 -92 L332 754 L593 754 L593 377 L408 377 L408 -92 L332 -92 ZM156 411 Q114 334 72 274 L27 352 Q153 536 226 797 L304 778 Q277 681 232 572 L232 -100 L156 -100 L156 411 ZM408 686 L408 598 L522 598 L522 686 L408 686 ZM720 686 L720 598 L834 598 L834 686 L720 686 ZM408 445 L522 445 L522 532 L408 532 L408 445 ZM720 532 L720 445 L834 445 L834 532 L720 532 Z" /><glyph glyph-name="uni5019" unicode="&#x5019;" d="M718 337 L714 236 L940 236 L940 163 L720 163 Q778 28 961 -29 L916 -101 Q746 -40 673 79 Q611 -26 400 -107 L355 -36 Q583 45 621 163 L399 163 L399 236 L631 236 Q632 262 632 337 L521 337 Q497 292 463 244 L401 284 Q464 369 509 490 L579 469 Q570 443 556 410 L901 410 L901 337 L718 337 ZM292 776 Q261 664 220 558 L220 -98 L145 -98 L145 394 Q114 337 78 278 L25 350 Q149 546 216 797 L292 776 ZM954 500 L405 500 L405 573 L753 573 L763 676 L464 676 L464 749 L850 749 L835 573 L954 573 L954 500 ZM300 51 L300 683 L375 683 L375 51 L300 51 Z" /><glyph glyph-name="uni501F" unicode="&#x501f;" d="M370 -99 L370 334 L866 334 L866 -97 L780 -97 L780 -53 L456 -53 L456 -99 L370 -99 ZM956 411 L283 411 L283 486 L448 486 L448 603 L326 603 L326 677 L448 677 L448 790 L531 790 L531 677 L703 677 L703 790 L787 790 L787 677 L925 677 L925 603 L787 603 L787 486 L956 486 L956 411 ZM158 406 Q119 338 79 284 L25 353 Q160 542 226 794 L310 776 Q273 655 240 575 L240 -100 L158 -100 L158 406 ZM456 261 L456 175 L780 175 L780 261 L456 261 ZM456 104 L456 19 L780 19 L780 104 L456 104 ZM531 603 L531 486 L703 486 L703 603 L531 603 Z" /><glyph glyph-name="uni503E" unicode="&#x503e;" d="M527 566 L659 566 Q673 626 682 677 L508 677 L508 748 L947 748 L947 677 L762 677 L737 566 L906 566 L906 119 L835 119 L835 497 L597 497 L597 120 L527 120 L527 566 ZM278 780 Q255 694 217 590 L217 -89 L141 -89 L141 410 Q111 347 70 275 L24 347 Q149 553 200 798 L278 780 ZM511 131 Q487 114 334 -3 L289 64 Q322 82 322 130 L322 778 L397 778 L397 547 L497 547 L497 469 L397 469 L397 146 L488 215 L511 131 ZM750 284 Q750 212 739 162 Q877 40 959 -37 L903 -94 Q833 -24 713 88 Q665 -8 497 -103 L455 -34 Q599 37 644 110 Q682 171 682 300 L682 443 L750 443 L750 284 Z" /><glyph glyph-name="uni5047" unicode="&#x5047;" d="M320 -95 L320 752 L592 752 L592 471 L398 471 L398 363 L580 363 L580 287 L398 287 L398 175 L597 175 L597 99 L398 99 L398 -95 L320 -95 ZM908 383 L908 306 Q871 177 795 88 Q857 34 967 -17 L924 -95 Q814 -39 741 33 Q658 -39 536 -101 L491 -31 Q616 30 690 92 Q627 178 593 298 L625 308 L594 308 L594 383 L908 383 ZM147 404 Q109 339 76 293 L28 369 Q147 539 212 791 L295 778 Q263 664 225 566 L225 -101 L147 -101 L147 404 ZM629 551 L820 551 L820 674 L630 674 L630 751 L897 751 L897 473 L629 473 L629 551 ZM667 308 Q693 209 743 144 Q803 213 832 308 L667 308 ZM398 675 L398 547 L515 547 L515 675 L398 675 Z" /><glyph glyph-name="uni505A" unicode="&#x505a;" d="M289 372 L386 372 L386 543 L260 543 L260 620 L386 620 L386 795 L463 795 L463 620 L589 620 L589 543 L463 543 L463 372 L559 372 L559 4 Q649 82 703 162 Q650 267 627 408 Q611 381 594 357 L540 418 Q650 597 684 802 L761 790 Q746 705 724 635 L961 635 L961 557 L892 557 Q869 305 792 163 Q856 62 972 -34 L919 -104 Q810 -7 746 89 Q680 -2 559 -107 L505 -40 Q529 -20 541 -11 L289 -11 L289 372 ZM132 400 Q101 342 71 295 L23 371 Q137 571 189 797 L269 776 Q244 676 209 577 L209 -99 L132 -99 L132 400 ZM361 295 L361 67 L487 67 L487 295 L361 295 ZM678 510 Q694 357 748 243 Q802 360 820 557 L697 557 L678 510 Z" /><glyph glyph-name="uni5065" unicode="&#x5065;" d="M512 709 L643 709 L643 795 L717 795 L717 709 L892 709 L892 574 L953 574 L953 510 L892 510 L892 374 L717 374 L717 302 L908 302 L908 240 L717 240 L717 170 L935 170 L935 106 L717 106 L717 20 L643 20 L643 106 L469 106 L469 170 L643 170 L643 240 L507 240 L507 302 L643 302 L643 374 L512 374 L512 436 L643 436 L643 510 L482 510 L482 574 L643 574 L643 647 L512 647 L512 709 ZM265 724 L479 724 L479 653 L344 453 L473 453 L473 380 Q451 198 404 101 Q487 2 647 2 L954 2 L941 -67 L640 -67 Q460 -67 366 31 Q333 -21 270 -102 L208 -51 Q280 32 318 95 Q271 173 238 306 L305 327 Q329 231 357 173 Q390 254 401 383 L259 383 L259 453 L395 654 L265 654 L265 724 ZM260 774 Q238 675 204 578 L204 -95 L130 -95 L130 399 Q97 334 68 287 L20 361 Q125 532 183 788 L260 774 ZM717 436 L819 436 L819 510 L717 510 L717 436 ZM819 647 L717 647 L717 574 L819 574 L819 647 Z" /><glyph glyph-name="uni5076" unicode="&#x5076;" d="M322 -88 L322 305 L572 305 L572 380 L353 380 L353 752 L873 752 L873 380 L649 380 L649 305 L906 305 L906 10 Q906 -45 882 -66 Q857 -89 792 -89 L701 -89 L688 -17 L762 -17 Q800 -17 814 -7 Q828 4 828 36 L828 232 L649 232 L649 124 L711 129 Q698 166 692 189 L756 207 Q787 125 815 22 L749 8 Q753 -2 733 60 Q543 47 443 35 L436 110 L572 119 L572 232 L399 232 L399 -88 L322 -88 ZM150 406 Q110 340 57 272 L20 361 Q153 540 226 794 L310 775 Q268 645 228 555 L228 -100 L150 -100 L150 406 ZM793 683 L649 683 L649 601 L793 601 L793 683 ZM649 450 L793 450 L793 532 L649 532 L649 450 ZM433 683 L433 601 L572 601 L572 683 L433 683 ZM433 532 L433 450 L572 450 L572 532 L433 532 Z" /><glyph glyph-name="uni5099" unicode="&#x5099;" d="M303 778 Q270 669 233 580 L233 263 Q354 343 430 465 L271 465 L271 538 L452 538 L452 630 L315 630 L315 702 L452 702 L452 795 L532 795 L532 702 L701 702 L701 795 L778 795 L778 702 L931 702 L931 630 L778 630 L778 538 L957 538 L957 465 L525 465 Q508 432 484 396 L885 396 L885 30 Q885 -39 863 -64 Q841 -88 783 -88 L700 -88 L687 -18 L751 -18 Q788 -18 799 -8 Q809 1 809 32 L809 60 L659 60 L659 -71 L583 -71 L583 60 L434 60 L434 -92 L358 -92 L358 256 Q314 216 266 182 L233 243 L233 -96 L153 -96 L153 413 Q115 344 66 277 L23 355 Q150 533 225 794 L303 778 ZM532 630 L532 538 L701 538 L701 630 L532 630 ZM809 325 L659 325 L659 259 L809 259 L809 325 ZM434 325 L434 259 L583 259 L583 325 L434 325 ZM659 192 L659 128 L809 128 L809 192 L659 192 ZM434 192 L434 128 L583 128 L583 192 L434 192 Z" /><glyph glyph-name="uni50A2" unicode="&#x50a2;" d="M326 520 L326 701 L600 701 Q589 722 556 778 L631 815 Q670 752 687 718 L650 701 L933 701 L933 520 L872 520 L872 471 L690 471 Q645 435 619 418 Q656 366 679 312 Q788 373 878 439 L921 378 Q886 354 800 298 Q861 114 976 26 L916 -29 Q793 78 731 255 L702 238 Q717 166 717 60 Q717 -28 687 -58 Q656 -88 567 -88 L470 -88 L456 -15 L544 -15 Q603 -15 621 4 Q640 23 640 84 Q640 116 637 146 Q519 39 309 -59 L272 11 Q487 102 622 230 L609 271 Q494 188 311 109 L283 183 Q459 249 577 335 Q568 353 551 375 Q462 323 324 270 L299 342 Q461 394 572 471 L392 471 L392 520 L326 520 ZM154 383 Q115 322 66 261 L22 341 Q157 510 238 788 L326 766 Q284 633 232 524 L232 -109 L154 -109 L154 383 ZM403 628 L403 545 L856 545 L856 628 L403 628 Z" /><glyph glyph-name="uni50A8" unicode="&#x50a8;" d="M553 229 Q521 206 476 178 L441 247 Q582 330 676 426 L466 426 L466 498 L627 498 L627 616 L507 616 L507 686 L627 686 L627 798 L700 798 L700 686 L813 686 L813 616 L700 616 L700 498 L740 498 Q822 602 875 738 L946 712 Q892 587 832 498 L957 498 L957 426 L777 426 Q733 376 688 336 L889 336 L889 -92 L817 -92 L817 -45 L624 -45 L624 -92 L553 -92 L553 229 ZM301 779 Q268 659 228 558 L228 -96 L153 -96 L153 400 Q113 327 73 274 L21 348 Q152 529 219 797 L301 779 ZM524 75 Q444 14 364 -56 L313 6 Q343 23 343 65 L343 422 L259 422 L259 502 L419 502 L419 90 L502 155 L524 75 ZM624 114 L624 24 L817 24 L817 114 L624 114 ZM624 268 L624 181 L817 181 L817 268 L624 268 ZM414 564 Q373 642 313 738 L375 775 L481 604 L414 564 Z" /><glyph glyph-name="uni50B2" unicode="&#x50b2;" d="M288 773 Q259 666 222 573 L222 -27 Q332 100 340 251 Q342 270 344 330 L252 330 L252 402 L411 402 L411 481 L288 481 L288 550 L411 550 L411 624 L280 624 L280 694 L411 694 L411 799 L486 799 L486 694 L627 694 L627 624 L486 624 L486 550 L594 550 L594 481 L486 481 L486 402 L598 402 L572 423 Q674 588 707 802 L782 789 Q765 710 743 636 L959 636 L959 560 L903 560 Q882 316 802 161 Q863 58 972 -39 L915 -99 Q818 -5 760 88 Q698 -9 592 -107 L540 -45 Q659 60 719 163 Q665 275 646 410 L627 379 L607 395 L607 330 L416 330 L413 262 L598 262 Q587 90 584 60 Q580 -3 554 -26 Q530 -48 470 -48 L388 -48 L376 18 L447 18 Q483 18 496 29 Q508 40 512 72 Q521 121 524 193 L406 193 Q385 42 276 -89 L222 -36 L222 -100 L146 -100 L146 413 Q108 344 66 286 L12 348 Q146 543 211 792 L288 773 ZM717 560 Q714 550 706 530 Q713 369 761 246 Q813 367 833 560 L717 560 Z" /><glyph glyph-name="uni50B3" unicode="&#x50b3;" d="M342 595 L578 595 L578 647 L312 647 L312 716 L578 716 L578 800 L652 800 L652 716 L938 716 L938 647 L652 647 L652 595 L890 595 L890 345 L833 345 Q874 300 935 224 L881 183 Q870 198 844 230 Q407 218 304 210 L299 277 Q340 275 578 283 L578 345 L342 345 L342 595 ZM159 417 Q119 350 74 287 L30 367 Q153 539 231 800 L308 781 Q275 665 239 580 L239 -97 L159 -97 L159 417 ZM805 214 L805 160 L956 160 L956 92 L805 92 L805 15 Q805 -44 781 -65 Q756 -87 686 -87 L574 -87 L561 -13 L660 -13 Q701 -13 714 -3 Q727 7 727 42 L727 92 L446 92 L566 19 L525 -43 Q440 14 378 52 L404 92 L275 92 L275 160 L727 160 L727 214 L805 214 ZM652 286 L793 290 L777 307 L824 345 L652 345 L652 286 ZM814 541 L652 541 L652 497 L814 497 L814 541 ZM418 541 L418 497 L578 497 L578 541 L418 541 ZM652 400 L814 400 L814 443 L652 443 L652 400 ZM418 443 L418 400 L578 400 L578 443 L418 443 Z" /><glyph glyph-name="uni50BE" unicode="&#x50be;" d="M640 579 Q651 622 659 663 L469 663 L469 736 L945 736 L945 663 L735 663 L726 622 Q720 594 716 579 L891 579 L891 94 L516 94 L516 579 L640 579 ZM280 778 Q250 653 214 560 L214 -93 L137 -93 L137 391 Q115 351 70 281 L30 366 Q142 538 202 790 L280 778 ZM496 129 Q443 95 327 4 L279 64 Q310 82 310 129 L310 756 L386 756 L386 543 L484 543 L484 463 L386 463 L386 145 L477 213 L496 129 ZM669 29 Q573 -43 449 -110 L414 -44 Q528 11 627 86 L669 29 ZM592 374 L592 300 L815 300 L815 374 L592 374 ZM592 160 L815 160 L815 233 L592 233 L592 160 ZM592 512 L592 440 L815 440 L815 512 L592 512 ZM923 -103 Q832 -36 732 29 L773 84 Q877 17 963 -44 L923 -103 Z" /><glyph glyph-name="uni50C5" unicode="&#x50c5;" d="M946 648 L810 648 L810 528 L652 528 L652 475 L889 475 L889 290 L652 290 L652 235 L910 235 L910 169 L652 169 L652 118 L891 118 L891 54 L652 54 L652 -3 L954 -3 L954 -70 L274 -70 L274 -3 L578 -3 L578 54 L348 54 L348 118 L578 118 L578 169 L326 169 L326 235 L578 235 L578 290 L341 290 L341 475 L578 475 L578 528 L422 528 L422 648 L308 648 L308 716 L422 716 L422 792 L502 792 L502 716 L728 716 L728 793 L810 793 L810 716 L946 716 L946 648 ZM164 428 Q116 344 66 278 L28 360 Q158 544 232 802 L310 786 Q278 676 240 584 L240 -98 L164 -98 L164 428 ZM502 594 L728 594 L728 648 L502 648 L502 594 ZM811 415 L652 415 L652 348 L811 348 L811 415 ZM421 415 L421 348 L578 348 L578 415 L421 415 Z" /><glyph glyph-name="uni512A" unicode="&#x512a;" d="M284 278 L284 405 L351 405 L351 652 L535 652 Q547 689 548 695 L310 695 L310 753 L930 753 L930 695 L639 695 Q630 671 625 652 L863 652 L863 405 L929 405 L929 278 L868 278 Q888 260 943 214 L903 164 Q856 209 790 266 L830 310 L854 290 L854 359 L605 359 L681 290 L640 251 Q610 282 557 330 L587 359 L358 359 L358 283 L388 316 L432 276 Q385 219 317 161 L274 206 Q310 235 353 278 L284 278 ZM940 -102 Q724 -72 607 -30 Q479 -76 275 -109 L254 -48 Q407 -27 522 6 Q464 35 411 75 Q356 37 291 7 L259 63 Q391 124 468 206 Q444 223 444 271 L444 338 L514 338 L514 284 Q514 260 522 252 Q530 244 551 244 L674 244 Q700 244 709 252 Q718 260 719 285 Q720 290 720 306 L721 328 L780 319 L776 262 Q774 224 753 209 Q733 194 685 194 L522 194 Q508 194 501 195 L531 178 L510 156 L857 156 L857 103 Q779 44 702 8 Q809 -18 961 -36 L940 -102 ZM288 781 Q257 665 223 571 L223 -98 L148 -98 L148 401 Q109 328 67 267 L28 349 Q137 507 210 792 L288 781 ZM431 522 L431 485 L785 485 L785 522 L431 522 ZM431 604 L431 567 L785 567 L785 604 L431 604 ZM431 442 L431 405 L785 405 L785 442 L431 442 ZM484 100 Q541 62 611 36 Q688 67 734 100 L484 100 Z" /><glyph glyph-name="uni513F" unicode="&#x513f;" d="M351 443 Q351 217 302 108 Q253 0 100 -116 L31 -43 Q177 61 221 153 Q264 243 264 443 L264 782 L351 782 L351 443 ZM943 219 Q935 41 936 55 Q932 -18 900 -44 Q868 -70 786 -70 L709 -70 Q629 -70 598 -42 Q566 -12 566 70 L566 781 L655 781 L655 86 Q655 44 669 30 Q683 16 722 16 L776 16 Q823 16 838 29 Q852 42 854 84 Q859 164 859 233 L943 219 Z" /><glyph glyph-name="uni5143" unicode="&#x5143;" d="M947 194 Q947 123 941 51 Q937 -17 906 -43 Q874 -68 793 -68 L695 -68 Q622 -68 592 -38 Q560 -7 560 68 L560 395 L383 395 L382 300 Q379 164 323 78 Q263 -14 106 -111 L45 -38 Q191 40 243 118 Q287 185 290 300 Q291 311 291 342 L292 395 L57 395 L57 480 L946 480 L946 395 L651 395 L651 88 Q651 47 666 33 Q680 19 721 19 L777 19 Q825 19 839 31 Q854 44 855 88 Q857 119 860 213 L947 194 ZM865 652 L138 652 L138 738 L865 738 L865 652 Z" /><glyph glyph-name="uni5145" unicode="&#x5145;" d="M939 161 Q939 99 933 39 Q929 -26 898 -51 Q864 -79 783 -79 L677 -79 Q607 -79 580 -54 Q551 -28 551 42 L551 317 L402 311 L399 270 Q388 123 322 42 Q257 -38 89 -116 L39 -39 Q187 26 242 90 Q298 154 309 273 L313 307 Q202 303 120 296 L100 379 Q139 386 165 407 Q257 485 356 595 L60 595 L60 680 L475 680 Q437 746 408 789 L485 826 Q556 715 565 702 L513 680 L926 680 L926 595 L468 595 Q358 468 265 389 L708 404 Q692 422 646 471 Q611 508 597 524 L663 572 Q774 458 896 321 L829 271 L782 325 L639 321 L639 61 Q639 27 653 15 Q667 3 707 3 L773 3 Q820 3 834 14 Q848 25 850 59 Q854 111 854 175 L939 161 Z" /><glyph glyph-name="uni5148" unicode="&#x5148;" d="M897 563 L560 563 L560 390 L945 390 L945 310 L659 310 L659 71 Q659 34 673 21 Q687 7 726 7 L779 7 Q826 7 842 21 Q857 33 859 69 Q858 57 862 183 L945 167 Q942 72 939 42 Q935 -29 904 -53 Q873 -77 790 -77 L696 -77 Q624 -77 598 -52 Q572 -27 572 45 L572 310 L416 310 Q414 294 414 289 Q404 134 342 52 Q281 -30 118 -112 L64 -29 Q214 36 266 100 Q319 163 326 290 L327 310 L52 310 L52 390 L474 390 L474 563 L256 563 Q219 483 169 405 L89 444 Q183 572 243 769 L328 750 Q309 689 291 643 L474 643 L474 800 L560 800 L560 643 L897 643 L897 563 Z" /><glyph glyph-name="uni5149" unicode="&#x5149;" d="M938 181 Q935 83 933 49 Q930 -24 898 -50 Q867 -75 785 -75 L682 -75 Q610 -75 583 -48 Q555 -21 555 52 L555 341 L395 341 Q394 334 394 322 Q385 156 328 69 Q267 -23 105 -106 L36 -33 Q191 40 244 109 Q300 181 304 324 Q304 334 305 341 L58 341 L58 426 L454 426 L454 795 L543 795 L543 426 L939 426 L939 341 L644 341 L644 77 Q644 41 659 28 Q673 15 712 15 L774 15 Q821 15 835 26 Q849 38 851 76 Q856 139 853 194 L938 181 ZM878 687 Q779 553 697 460 L628 514 Q716 610 807 738 L878 687 ZM296 462 Q196 595 119 684 L186 735 Q280 629 368 515 L296 462 Z" /><glyph glyph-name="uni514D" unicode="&#x514d;" d="M931 155 Q929 138 927 90 L923 20 Q921 -35 894 -55 Q867 -75 796 -75 L624 -75 Q557 -75 533 -52 Q507 -28 507 37 L506 223 Q466 111 372 35 Q280 -38 99 -108 L54 -28 Q347 75 415 223 L148 223 L148 465 Q117 441 82 417 L45 491 Q238 625 350 805 L424 770 Q405 740 385 713 L753 713 L753 642 L637 529 L864 529 L864 223 L587 223 L587 63 Q587 28 600 16 Q612 5 650 5 L773 5 Q819 5 832 15 Q845 26 846 61 Q849 95 851 171 L931 155 ZM545 454 Q540 363 526 297 L782 297 L782 454 L545 454 ZM230 297 L440 297 Q455 359 460 454 L230 454 L230 297 ZM329 639 Q284 583 224 529 L530 529 L644 639 L329 639 Z" /><glyph glyph-name="uni5152" unicode="&#x5152;" d="M934 167 Q931 71 929 41 Q925 -28 894 -52 Q865 -74 783 -74 L677 -74 Q607 -74 580 -49 Q552 -23 552 44 L552 261 L408 261 L407 248 Q400 110 336 38 Q274 -32 96 -106 L55 -33 Q209 26 262 84 Q312 139 319 250 Q319 256 320 261 L143 261 L143 708 Q326 737 462 786 L482 709 Q363 666 225 640 L225 534 L465 534 L465 460 L225 460 L225 335 L779 335 L779 460 L537 460 L537 534 L779 534 L779 654 L533 654 L533 728 L859 728 L859 261 L637 261 L637 64 Q637 27 649 16 Q661 4 700 4 L776 4 Q823 4 838 16 Q852 27 853 63 L856 186 L934 167 Z" /><glyph glyph-name="uni5165" unicode="&#x5165;" d="M899 -91 Q589 128 501 443 Q403 155 96 -91 L30 -18 Q411 264 459 641 Q444 673 375 673 L235 673 L235 761 L409 761 Q532 761 542 660 Q589 234 960 -15 L899 -91 Z" /><glyph glyph-name="uni5167" unicode="&#x5167;" d="M721 107 Q565 259 517 409 Q454 251 285 102 L227 164 Q405 310 469 513 L202 513 L202 -99 L118 -99 L118 595 L472 595 Q471 597 471 601 Q458 668 443 684 Q429 699 380 699 L252 699 L252 775 L380 775 Q467 775 502 737 Q534 703 552 602 L553 595 L884 595 L884 29 Q884 -46 856 -70 Q829 -94 747 -94 L617 -94 L601 -12 L722 -12 Q773 -12 787 0 Q800 11 800 53 L800 513 L570 513 Q613 328 781 169 L721 107 Z" /><glyph glyph-name="uni5168" unicode="&#x5168;" d="M838 171 L545 171 L545 19 L927 19 L927 -63 L74 -63 L74 19 L455 19 L455 171 L163 171 L163 253 L455 253 L455 390 L190 390 L190 446 Q146 421 75 384 L34 462 Q331 604 462 796 L539 796 Q671 600 965 461 L922 385 Q869 411 811 444 L811 390 L545 390 L545 253 L838 253 L838 171 ZM501 712 Q404 580 231 472 L766 472 Q600 578 501 712 Z" /><glyph glyph-name="uni5169" unicode="&#x5169;" d="M119 -87 L119 552 L460 552 L460 667 L56 667 L56 744 L944 744 L944 667 L540 667 L540 552 L883 552 L883 25 Q883 -37 855 -62 Q826 -88 755 -88 L652 -88 L638 -12 L728 -12 Q772 -12 788 1 Q803 13 803 49 L803 113 L745 87 L678 249 Q649 159 594 70 L540 108 L540 -70 L460 -70 L460 97 L402 73 Q372 157 338 240 Q309 154 253 66 L199 104 L199 -87 L119 -87 ZM199 115 Q269 221 300 334 L262 423 L328 447 Q393 296 460 127 L460 476 L199 476 L199 115 ZM803 476 L540 476 L540 119 Q606 215 640 339 L603 423 L667 448 Q737 294 803 131 L803 476 Z" /><glyph glyph-name="uni516B" unicode="&#x516b;" d="M407 766 Q392 435 337 274 Q281 110 112 -89 L35 -30 Q196 152 250 305 Q305 459 318 766 L407 766 ZM887 -91 Q713 100 651 277 Q589 453 578 786 L668 786 Q676 475 736 310 Q796 145 963 -27 L887 -91 Z" /><glyph glyph-name="uni516C" unicode="&#x516c;" d="M744 -13 Q329 -29 153 -52 L128 33 Q175 44 196 67 Q325 214 444 471 L528 439 Q414 196 286 44 L694 65 Q619 181 570 252 L640 297 Q744 148 870 -48 L797 -96 L744 -13 ZM903 301 Q665 474 560 764 L637 790 Q743 513 958 372 L903 301 ZM437 750 Q327 487 94 298 L40 367 Q260 538 357 777 L437 750 Z" /><glyph glyph-name="uni5171" unicode="&#x5171;" d="M947 219 L43 219 L43 304 L269 304 L269 539 L73 539 L73 623 L269 623 L269 803 L359 803 L359 623 L630 623 L630 803 L719 803 L719 623 L916 623 L916 539 L719 539 L719 304 L947 304 L947 219 ZM359 539 L359 304 L630 304 L630 539 L359 539 ZM876 -97 Q719 25 576 121 L630 190 Q814 63 933 -24 L876 -97 ZM417 123 Q261 -5 108 -101 L57 -26 Q195 51 360 190 L417 123 Z" /><glyph glyph-name="uni5173" unicode="&#x5173;" d="M903 -106 Q603 -20 495 187 Q400 11 92 -109 L47 -25 Q386 99 437 274 L62 274 L62 359 L448 359 L448 526 L109 526 L109 609 L333 609 L260 701 Q216 759 211 764 L284 810 L414 649 L352 609 L545 609 Q639 720 706 819 L786 773 Q733 701 656 609 L878 609 L878 526 L539 526 L539 359 L927 359 L927 274 L547 274 Q630 63 945 -19 L903 -106 Z" /><glyph glyph-name="uni5174" unicode="&#x5174;" d="M949 270 L50 270 L50 355 L949 355 L949 270 ZM862 -97 Q720 43 575 160 L639 226 Q783 110 929 -28 L862 -97 ZM415 164 Q287 23 124 -101 L64 -28 Q217 81 349 226 L415 164 ZM270 391 Q173 595 110 704 L188 742 Q248 632 352 432 L270 391 ZM891 707 Q820 556 723 385 L650 428 Q737 573 811 745 L891 707 ZM492 426 Q455 582 399 757 L484 778 Q518 674 580 446 L492 426 Z" /><glyph glyph-name="uni5176" unicode="&#x5176;" d="M958 129 L42 129 L42 205 L218 205 L218 619 L73 619 L73 694 L218 694 L218 795 L303 795 L303 694 L697 694 L697 795 L782 795 L782 694 L927 694 L927 619 L782 619 L782 205 L958 205 L958 129 ZM303 294 L303 205 L697 205 L697 294 L303 294 ZM303 619 L303 530 L697 530 L697 619 L303 619 ZM303 456 L303 368 L697 368 L697 456 L303 456 ZM416 41 Q259 -45 100 -112 L66 -37 Q214 17 378 112 L416 41 ZM891 -108 Q734 -26 577 38 L611 109 Q779 39 929 -36 L891 -108 Z" /><glyph glyph-name="uni5177" unicode="&#x5177;" d="M422 52 Q281 -35 89 -108 L57 -35 Q227 24 375 117 L44 117 L44 193 L188 193 L188 754 L812 754 L812 193 L955 193 L955 117 L380 117 L422 52 ZM273 262 L273 193 L726 193 L726 262 L273 262 ZM273 541 L273 473 L726 473 L726 541 L273 541 ZM273 680 L273 613 L726 613 L726 680 L273 680 ZM273 401 L273 334 L726 334 L726 401 L273 401 ZM897 -100 Q759 -33 572 42 L606 112 Q752 54 934 -25 L897 -100 Z" /><glyph glyph-name="uni5178" unicode="&#x5178;" d="M956 138 L46 138 L46 218 L141 218 L141 679 L354 679 L354 789 L436 789 L436 679 L569 679 L569 789 L649 789 L649 679 L863 679 L863 218 L956 218 L956 138 ZM425 47 Q274 -41 92 -117 L58 -41 Q244 34 385 118 L425 47 ZM898 -110 Q737 -26 573 42 L607 114 Q773 45 936 -37 L898 -110 ZM436 370 L436 218 L569 218 L569 370 L436 370 ZM649 370 L649 218 L780 218 L780 370 L649 370 ZM436 597 L436 448 L569 448 L569 597 L436 597 ZM224 370 L224 218 L354 218 L354 370 L224 370 ZM780 597 L649 597 L649 448 L780 448 L780 597 ZM224 597 L224 448 L354 448 L354 597 L224 597 Z" /><glyph glyph-name="uni517C" unicode="&#x517c;" d="M730 783 Q719 765 670 701 L921 701 L921 629 L622 629 L622 551 L834 551 L834 409 L944 409 L944 337 L834 337 L834 195 L656 195 Q772 66 950 -1 L911 -78 Q738 -2 622 122 L622 -105 L544 -105 L544 195 L405 195 L405 -105 L327 -105 L327 115 Q227 2 68 -86 L22 -10 Q199 76 298 195 L100 195 L100 267 L327 267 L327 337 L35 337 L35 409 L327 409 L327 479 L109 479 L109 551 L327 551 L327 629 L52 629 L52 701 L297 701 L232 780 L298 825 Q367 744 382 724 L347 701 L568 701 Q621 768 657 823 L730 783 ZM405 629 L405 551 L544 551 L544 629 L405 629 ZM405 337 L405 267 L544 267 L544 337 L405 337 ZM405 479 L405 409 L544 409 L544 479 L405 479 ZM756 479 L622 479 L622 409 L756 409 L756 479 ZM622 267 L756 267 L756 337 L622 337 L622 267 Z" /><glyph glyph-name="uni5185" unicode="&#x5185;" d="M726 126 Q665 191 498 358 Q440 236 267 109 L210 181 Q350 280 403 366 Q453 446 456 566 L203 566 L203 -92 L117 -92 L117 649 L457 649 L457 795 L544 795 L544 649 L884 649 L884 36 Q884 -39 856 -63 Q829 -87 747 -87 L617 -87 L601 -3 L721 -3 Q771 -3 785 9 Q798 20 798 62 L798 566 L544 566 Q543 501 529 444 Q613 366 786 193 L726 126 Z" /><glyph glyph-name="uni518A" unicode="&#x518a;" d="M350 -59 L350 332 L212 332 L212 -91 L128 -91 L128 332 L42 332 L42 410 L128 410 L128 765 L880 765 L880 410 L959 410 L959 332 L880 332 L880 35 Q880 -37 853 -63 Q827 -87 754 -87 L675 -87 L661 -9 L729 -9 Q771 -9 783 4 Q795 16 795 56 L795 332 L649 332 L649 -59 L569 -59 L569 332 L428 332 L428 -59 L350 -59 ZM795 687 L649 687 L649 410 L795 410 L795 687 ZM428 687 L428 410 L569 410 L569 687 L428 687 ZM212 687 L212 410 L350 410 L350 687 L212 687 Z" /><glyph glyph-name="uni518C" unicode="&#x518c;" d="M310 3 Q348 3 361 15 Q375 27 375 60 L375 335 L242 335 Q240 164 217 77 Q195 -8 128 -109 L50 -67 Q115 25 136 99 Q158 177 161 335 L42 335 L42 417 L162 417 L162 749 L455 749 L455 417 L546 417 L546 749 L850 749 L850 417 L959 417 L959 335 L850 335 L850 25 Q850 -41 825 -64 Q800 -87 729 -87 L638 -87 L622 -3 L705 -3 Q746 -3 759 9 Q770 20 770 55 L770 335 L628 335 Q626 62 520 -109 L440 -68 Q502 24 522 99 Q543 178 545 335 L455 335 L455 41 Q455 -23 427 -49 Q399 -75 330 -75 L243 -75 L229 3 L310 3 ZM628 669 L628 417 L770 417 L770 669 L628 669 ZM242 669 L242 417 L375 417 L375 669 L242 669 Z" /><glyph glyph-name="uni518D" unicode="&#x518d;" d="M958 131 L839 131 L839 32 Q839 -40 809 -65 Q780 -90 698 -90 L583 -90 L569 -6 L673 -6 Q724 -6 739 7 Q754 19 754 59 L754 131 L248 131 L248 -95 L163 -95 L163 131 L43 131 L43 208 L163 208 L163 571 L458 571 L458 665 L75 665 L75 740 L928 740 L928 665 L543 665 L543 571 L839 571 L839 208 L958 208 L958 131 ZM543 317 L543 208 L754 208 L754 317 L543 317 ZM248 317 L248 208 L458 208 L458 317 L248 317 ZM754 496 L543 496 L543 391 L754 391 L754 496 ZM248 496 L248 391 L458 391 L458 496 L248 496 Z" /><glyph glyph-name="uni5191" unicode="&#x5191;" d="M129 742 L460 742 L460 806 L538 806 L538 742 L870 742 L870 406 L129 406 L129 742 ZM178 -109 L178 358 L821 358 L821 17 Q821 -60 796 -86 Q771 -112 694 -112 L565 -112 L552 -37 L674 -37 Q716 -37 731 -24 Q745 -10 745 28 L745 283 L254 283 L254 -109 L178 -109 ZM701 157 L298 157 L298 230 L701 230 L701 157 ZM701 32 L298 32 L298 104 L701 104 L701 32 ZM792 671 L538 671 L538 608 L792 608 L792 671 ZM207 671 L207 608 L460 608 L460 671 L207 671 ZM538 478 L792 478 L792 540 L538 540 L538 478 ZM207 540 L207 478 L460 478 L460 540 L207 540 Z" /><glyph glyph-name="uni519B" unicode="&#x519b;" d="M486 -104 L486 42 L52 42 L52 119 L486 119 L486 236 L170 236 L170 312 Q212 361 280 465 L97 465 L97 541 L327 541 Q357 591 389 655 L471 629 Q437 563 424 541 L906 541 L906 465 L380 465 Q332 383 278 312 L486 312 L486 423 L572 423 L572 312 L869 312 L869 236 L572 236 L572 119 L952 119 L952 42 L572 42 L572 -104 L486 -104 ZM98 567 L98 746 L911 746 L911 567 L826 567 L826 671 L183 671 L183 567 L98 567 Z" /><glyph glyph-name="uni51B7" unicode="&#x51b7;" d="M732 -107 Q460 65 353 128 L398 198 Q464 160 581 88 Q713 222 752 264 L316 264 L316 341 L866 341 L866 262 Q767 153 654 43 Q736 -7 777 -33 L732 -107 ZM921 394 Q706 524 601 715 Q512 555 300 401 L245 472 Q458 614 559 802 L641 802 Q745 601 969 470 L921 394 ZM274 333 Q241 220 144 -38 L58 -12 Q126 164 190 356 L274 333 ZM198 475 Q128 613 61 734 L134 771 Q238 587 274 516 L198 475 ZM623 357 Q554 443 498 503 L560 554 Q583 529 687 410 L623 357 Z" /><glyph glyph-name="uni51C6" unicode="&#x51c6;" d="M952 -30 L440 -30 L440 -99 L355 -99 L355 442 Q316 380 275 330 L218 401 Q361 569 422 807 L511 794 Q495 725 462 647 L683 647 Q669 667 637 709 L591 771 L657 812 Q710 748 764 673 L725 647 L937 647 L937 572 L715 572 L715 449 L916 449 L916 376 L715 376 L715 254 L916 254 L916 180 L715 180 L715 46 L952 46 L952 -30 ZM269 307 Q222 172 149 -64 L61 -37 Q143 198 183 334 L269 307 ZM440 180 L440 46 L632 46 L632 180 L440 180 ZM199 475 Q138 602 68 728 L143 766 Q205 660 279 516 L199 475 ZM440 572 L440 449 L632 449 L632 572 L440 572 ZM440 376 L440 254 L632 254 L632 376 L440 376 Z" /><glyph glyph-name="uni51D1" unicode="&#x51d1;" d="M622 797 Q617 753 609 707 L898 707 L898 640 L597 640 Q593 618 583 576 L869 576 L869 509 L562 509 Q551 479 534 442 L926 442 L926 376 L739 376 Q817 275 955 221 L923 150 Q816 201 742 267 L742 240 L616 240 Q613 177 613 185 Q613 176 612 172 L845 172 L845 108 L602 108 Q599 97 595 88 Q767 22 903 -36 L871 -110 Q749 -51 559 28 Q489 -49 245 -107 L220 -32 Q477 25 517 108 L310 108 L310 172 L533 172 L535 187 Q537 211 537 240 L410 240 L410 273 Q339 204 234 140 L193 202 Q332 291 400 376 L238 376 L238 442 L444 442 Q464 477 476 509 L296 509 L296 576 L497 576 Q501 589 512 640 L266 640 L266 707 L523 707 Q532 757 535 798 L622 797 ZM226 353 Q194 214 119 -51 L36 -32 Q81 107 144 367 L226 353 ZM163 469 Q119 591 56 738 L130 764 Q196 619 241 497 L163 469 ZM708 300 Q677 332 648 376 L495 376 Q468 335 436 300 L708 300 Z" /><glyph glyph-name="uni51DD" unicode="&#x51dd;" d="M871 397 L787 397 L787 247 L933 247 L933 173 L787 173 L787 7 Q799 5 828 5 L967 5 L951 -71 L821 -71 Q665 -71 613 39 Q589 -25 534 -105 L468 -69 Q540 23 562 97 Q584 171 585 330 L651 329 Q649 228 641 163 Q660 64 717 30 L717 397 L554 397 L554 471 L727 471 Q655 551 603 603 L651 647 L736 560 Q821 658 840 679 L572 679 L572 754 L926 754 L926 673 L784 510 L805 489 L782 471 L939 471 L939 396 L900 299 L839 315 L871 397 ZM438 332 L434 238 L559 238 L559 166 L427 166 Q423 140 415 113 L436 137 Q529 48 537 39 L487 -16 L399 74 Q356 -16 233 -106 L172 -50 Q319 41 349 166 L219 166 L219 238 L360 238 Q363 278 365 332 L310 332 Q295 299 271 254 L213 284 Q266 377 291 472 L358 453 Q346 417 339 400 L545 400 L545 332 L438 332 ZM542 698 Q470 660 345 618 L345 584 Q345 561 353 553 Q360 545 381 545 L446 545 Q474 545 483 553 Q490 560 492 587 Q495 617 495 642 L559 629 Q557 619 555 595 Q553 567 552 562 Q548 514 529 498 Q510 481 457 481 L353 481 Q308 481 290 501 Q270 523 270 576 L270 798 L345 798 L345 684 Q465 730 516 759 L542 698 ZM217 360 Q154 118 115 -42 L39 -22 Q96 158 144 374 L217 360 ZM149 474 Q90 659 59 742 L127 765 Q193 584 221 497 L149 474 Z" /><glyph glyph-name="uni51E0" unicode="&#x51e0;" d="M952 215 Q952 135 946 33 Q943 -31 921 -53 Q900 -75 838 -75 L742 -75 Q681 -75 657 -52 Q631 -27 631 38 L631 650 L326 650 L326 422 Q326 210 285 112 Q246 18 110 -103 L38 -42 Q164 64 199 143 Q236 228 236 422 L236 739 L721 739 L721 67 Q721 32 729 23 Q738 13 774 13 L815 13 Q845 13 853 24 Q859 32 861 67 Q863 96 866 234 L952 215 Z" /><glyph glyph-name="uni51E1" unicode="&#x51e1;" d="M949 217 Q949 120 941 29 Q938 -31 912 -54 Q887 -76 825 -76 L753 -76 Q693 -76 667 -51 Q639 -24 639 44 L639 652 L298 652 L298 403 Q298 205 262 108 Q225 7 106 -106 L34 -50 Q144 53 177 138 Q208 221 208 403 L208 741 L730 741 L730 72 Q730 33 739 23 Q748 12 783 12 L807 12 Q841 12 851 23 Q861 33 862 65 L867 233 L949 217 ZM550 203 Q444 327 317 456 L378 514 Q507 385 617 264 L550 203 Z" /><glyph glyph-name="uni51ED" unicode="&#x51ed;" d="M878 706 Q810 695 662 677 L662 565 L944 565 L944 493 L662 493 L662 387 L908 387 L908 316 L337 316 L337 387 L577 387 L577 493 L299 493 L299 565 L577 565 L577 668 Q461 656 344 650 L339 720 Q634 737 870 776 L878 706 ZM942 146 L935 19 Q931 -37 904 -58 Q877 -79 808 -79 L718 -79 Q653 -79 629 -57 Q604 -35 604 24 L604 163 L352 163 L352 144 Q352 53 307 3 Q258 -52 109 -114 L65 -38 Q195 12 231 51 Q265 89 265 179 L265 239 L689 239 L689 51 Q689 18 699 8 Q709 -2 741 -2 L797 -2 Q835 -2 847 7 Q859 16 860 47 L866 164 L942 146 ZM329 778 Q296 706 259 649 L259 289 L175 289 L175 538 Q125 482 70 434 L32 511 Q171 619 256 805 L329 778 Z" /><glyph glyph-name="uni51EF" unicode="&#x51ef;" d="M963 194 Q963 119 956 7 Q953 -40 930 -60 Q909 -78 862 -78 L832 -78 Q752 -78 752 15 L752 661 L621 661 L621 400 Q621 182 596 94 Q570 3 473 -109 L400 -63 Q496 43 521 123 Q547 204 547 400 L547 741 L827 741 L827 35 Q827 16 850 9 L863 9 Q888 9 888 36 Q893 161 893 210 L963 194 ZM450 23 Q252 -27 107 -77 L73 -6 Q100 12 100 40 L100 273 L370 273 L370 372 L72 372 L72 448 L447 448 L447 197 L177 197 L177 25 L447 105 L450 23 ZM470 736 L470 516 L73 516 L73 736 L143 736 L143 592 L236 592 L236 800 L307 800 L307 592 L399 592 L399 736 L470 736 Z" /><glyph glyph-name="uni51F1" unicode="&#x51f1;" d="M454 136 Q443 118 386 34 L504 44 L502 -1 Q574 116 574 405 L574 749 L836 749 L836 36 Q836 16 858 9 L868 9 Q882 9 887 15 Q891 20 891 39 Q892 54 894 119 Q896 200 897 217 L965 203 Q965 111 959 12 Q958 -37 936 -57 Q915 -76 870 -76 L836 -76 Q797 -76 780 -55 Q763 -34 763 16 L763 667 L648 667 L648 404 Q648 192 627 100 Q605 3 527 -110 L456 -69 L491 -18 Q216 -39 44 -60 L35 4 Q55 5 297 26 L295 28 Q326 71 386 172 L454 136 ZM203 21 L119 138 L175 175 L99 175 L99 372 L480 372 L480 175 L184 175 Q225 124 264 64 L203 21 ZM494 751 L494 555 L86 555 L86 750 L160 750 L160 621 L252 621 L252 794 L326 794 L326 621 L421 621 L421 751 L494 751 ZM531 431 L48 431 L48 498 L531 498 L531 431 ZM173 308 L173 237 L406 237 L406 308 L173 308 Z" /><glyph glyph-name="uni51FA" unicode="&#x51fa;" d="M802 -97 L802 -55 L114 -55 L114 294 L201 294 L201 29 L458 29 L458 367 L143 367 L143 713 L229 713 L229 451 L458 451 L458 802 L543 802 L543 451 L773 451 L773 713 L859 713 L859 367 L543 367 L543 29 L802 29 L802 296 L889 296 L889 -97 L802 -97 Z" /><glyph glyph-name="uni51FD" unicode="&#x51fd;" d="M813 -105 L813 -71 L98 -71 L98 586 L185 586 L185 180 Q341 281 414 343 L463 289 L463 548 L674 667 L168 667 L168 745 L842 745 L842 675 L548 509 L548 305 L572 336 Q711 238 813 158 L765 97 Q646 191 548 264 L548 151 Q548 93 525 72 Q501 50 433 50 L337 50 L323 127 L405 127 Q442 127 453 137 Q463 146 463 176 L463 287 Q407 248 222 113 L185 168 L185 9 L813 9 L813 586 L900 586 L900 -105 L813 -105 ZM807 468 Q739 402 634 317 L581 377 Q669 443 751 525 L807 468 ZM371 333 Q284 424 213 490 L268 542 Q342 478 430 387 L371 333 Z" /><glyph glyph-name="uni5206" unicode="&#x5206;" d="M552 8 Q616 8 638 25 Q661 42 665 95 Q680 229 686 336 L401 336 L397 283 Q390 148 334 67 Q273 -21 112 -113 L46 -45 Q193 32 248 104 Q297 169 309 284 L314 336 L169 336 L169 404 Q114 359 87 340 L37 412 Q255 565 359 792 L441 762 Q351 566 187 420 L780 420 Q770 231 753 60 Q746 -17 706 -47 Q668 -76 577 -76 L432 -76 L416 8 L552 8 ZM921 334 Q657 500 551 779 L631 807 Q724 560 969 412 L921 334 Z" /><glyph glyph-name="uni520A" unicode="&#x520a;" d="M232 -95 L232 320 L41 320 L41 404 L232 404 L232 654 L78 654 L78 740 L497 740 L497 654 L319 654 L319 404 L523 404 L523 320 L319 320 L319 -95 L232 -95 ZM889 33 Q889 -34 860 -60 Q830 -87 747 -87 L622 -87 L606 -2 L733 -2 Q778 -2 791 13 Q802 25 802 67 L802 790 L889 790 L889 33 ZM577 113 L577 707 L662 707 L662 113 L577 113 Z" /><glyph glyph-name="uni5212" unicode="&#x5212;" d="M261 474 Q273 340 291 246 Q384 340 445 457 L512 416 Q426 266 314 156 Q333 94 362 53 Q395 6 417 6 Q448 6 461 73 Q476 134 483 188 L558 160 Q542 79 528 30 Q498 -89 417 -89 Q351 -89 288 12 Q268 45 248 97 Q175 38 71 -25 L28 48 Q138 111 222 182 Q194 295 180 460 L51 439 L41 519 L174 540 L171 601 Q165 731 163 797 L247 797 Q250 692 254 594 Q254 580 256 554 L546 601 L556 523 L261 474 ZM895 29 Q895 -37 872 -61 Q846 -87 772 -87 L664 -87 L648 -5 L751 -5 Q793 -5 805 7 Q817 19 817 58 L817 796 L895 796 L895 29 ZM616 125 L616 708 L694 708 L694 125 L616 125 ZM426 595 Q381 646 293 732 L339 778 Q417 710 478 646 L426 595 Z" /><glyph glyph-name="uni5219" unicode="&#x5219;" d="M104 160 L104 751 L515 751 L515 162 L437 162 L437 668 L182 668 L182 160 L104 160 ZM350 347 Q350 269 338 207 Q388 164 561 5 L501 -59 Q434 10 310 123 Q257 10 83 -99 L31 -31 Q177 56 224 136 Q270 214 270 366 L270 610 L350 610 L350 347 ZM886 44 Q886 -27 857 -54 Q829 -80 754 -80 L639 -80 L621 0 L734 0 Q778 0 793 14 Q808 27 808 65 L808 780 L886 780 L886 44 ZM620 130 L620 704 L695 704 L695 130 L620 130 Z" /><glyph glyph-name="uni521B" unicode="&#x521b;" d="M578 157 Q578 96 570 35 Q565 -29 535 -50 Q506 -71 424 -71 L267 -71 Q193 -71 164 -44 Q134 -15 134 61 L134 466 Q98 438 79 425 L28 487 Q221 633 318 815 L394 778 Q376 744 373 740 Q515 616 610 535 L552 471 Q432 582 330 672 Q258 571 153 483 L503 483 Q503 391 497 271 Q495 206 471 182 Q445 156 375 156 L283 156 L270 228 L353 228 Q396 228 409 240 Q420 251 422 290 Q427 370 427 406 L216 406 L216 84 Q216 34 229 20 Q242 6 291 6 L414 6 Q462 6 477 19 Q491 32 493 74 L498 173 L578 157 ZM902 31 Q902 -36 875 -60 Q847 -86 770 -86 L654 -86 L636 1 L747 1 Q791 1 806 14 Q820 27 820 66 L820 789 L902 789 L902 31 ZM628 143 L628 713 L710 713 L710 143 L628 143 Z" /><glyph glyph-name="uni521D" unicode="&#x521d;" d="M681 9 Q744 9 767 27 Q791 46 793 100 Q803 238 819 637 L619 637 Q618 588 614 482 Q604 264 558 150 Q513 41 375 -110 L302 -54 Q436 84 477 182 Q520 283 529 491 Q533 587 534 637 L401 637 L401 723 L909 723 Q884 131 880 65 Q875 -15 839 -46 Q802 -77 710 -77 L597 -77 L581 9 L681 9 ZM386 163 L262 258 L262 -98 L177 -98 L177 302 Q124 245 60 187 L32 270 Q184 402 272 560 L62 560 L62 644 L222 644 Q207 674 148 783 L222 819 Q258 757 298 675 L230 644 L370 644 L370 568 Q321 482 262 404 L262 347 L289 327 Q363 414 399 464 L457 420 Q397 338 348 284 L431 223 L386 163 Z" /><glyph glyph-name="uni5225" unicode="&#x5225;" d="M321 2 Q383 2 403 19 Q424 35 426 86 L434 252 L258 252 Q250 128 219 56 Q187 -17 103 -104 L37 -52 Q123 29 151 105 Q175 171 180 313 L184 443 L102 443 L102 751 L509 751 L509 443 L266 443 L262 329 L518 329 Q512 138 506 59 Q502 -13 466 -41 Q431 -70 348 -70 L254 -70 L241 2 L321 2 ZM887 37 Q887 -29 859 -55 Q829 -83 753 -83 L634 -83 L618 -6 L732 -6 Q775 -6 792 8 Q809 22 809 61 L809 785 L887 785 L887 37 ZM614 137 L614 704 L692 704 L692 137 L614 137 ZM184 676 L184 519 L427 519 L427 676 L184 676 Z" /><glyph glyph-name="uni5229" unicode="&#x5229;" d="M497 135 Q428 211 346 291 L346 -97 L261 -97 L261 292 Q193 167 85 56 L30 128 Q164 253 249 435 L60 435 L60 517 L261 517 L261 648 Q126 629 82 625 L73 705 Q303 724 512 770 L526 692 Q451 676 346 660 L346 517 L542 517 L542 435 L346 435 L346 314 L391 360 Q481 274 556 199 L497 135 ZM902 36 Q902 -34 871 -61 Q839 -89 757 -89 L629 -89 L611 -5 L735 -5 Q783 -5 800 10 Q816 24 816 65 L816 788 L902 788 L902 36 ZM596 117 L596 705 L682 705 L682 117 L596 117 Z" /><glyph glyph-name="uni522B" unicode="&#x522b;" d="M321 6 Q383 6 404 23 Q426 40 428 91 L434 252 L273 252 Q262 132 225 57 Q191 -14 104 -104 L35 -51 Q115 23 148 86 Q181 150 191 252 L52 252 L52 329 L197 329 Q201 397 201 443 L102 443 L102 751 L509 751 L509 443 L283 443 L279 329 L518 329 Q512 119 507 59 Q503 -13 467 -41 Q432 -70 348 -70 L254 -70 L240 6 L321 6 ZM887 33 Q887 -33 859 -60 Q829 -88 753 -88 L634 -88 L618 -5 L732 -5 Q776 -5 792 9 Q809 23 809 61 L809 785 L887 785 L887 33 ZM614 137 L614 704 L692 704 L692 137 L614 137 ZM184 676 L184 520 L426 520 L426 676 L184 676 Z" /><glyph glyph-name="uni5230" unicode="&#x5230;" d="M553 188 L356 188 L356 56 L580 76 L582 -7 Q308 -26 44 -54 L37 29 L272 48 L272 188 L74 188 L74 266 L272 266 L272 395 Q156 389 83 382 L64 455 Q86 464 92 469 Q149 526 233 659 L58 659 L58 739 L568 739 L568 659 L327 659 Q247 532 188 465 L435 477 L369 573 L430 614 Q489 532 583 395 L516 353 L482 406 L356 399 L356 266 L553 266 L553 188 ZM902 29 Q902 -39 874 -65 Q845 -91 770 -91 L648 -91 L630 -9 L743 -9 Q786 -9 802 4 Q818 18 818 56 L818 784 L902 784 L902 29 ZM622 118 L622 705 L704 705 L704 118 L622 118 Z" /><glyph glyph-name="uni5236" unicode="&#x5236;" d="M576 583 L378 583 L378 470 L597 470 L597 394 L378 394 L378 297 L567 297 L567 50 Q567 3 546 -16 Q524 -36 473 -36 L408 -36 L394 39 L446 39 Q473 39 483 47 Q492 55 492 79 L492 221 L378 221 L378 -109 L298 -109 L298 221 L179 221 L179 -42 L105 -42 L105 297 L298 297 L298 394 L52 394 L52 470 L298 470 L298 583 L175 583 Q156 529 134 486 L60 510 Q119 635 146 759 L223 748 Q216 716 199 658 L298 658 L298 792 L378 792 L378 658 L576 658 L576 583 ZM911 26 Q911 -41 884 -67 Q856 -94 782 -94 L663 -94 L645 -14 L757 -14 Q799 -14 815 2 Q831 18 831 56 L831 780 L911 780 L911 26 ZM654 108 L654 699 L734 699 L734 108 L654 108 Z" /><glyph glyph-name="uni523B" unicode="&#x523b;" d="M512 526 Q358 247 86 91 L43 157 Q213 252 309 358 Q141 348 102 344 L81 421 Q109 429 128 448 Q181 507 228 592 L57 592 L57 670 L312 670 L257 777 L333 809 Q358 765 400 685 L356 670 L591 670 L591 592 L321 592 Q267 496 211 433 L373 440 Q405 486 445 561 L512 526 ZM904 23 Q904 -44 878 -70 Q850 -98 777 -98 L661 -98 L643 -14 L753 -14 Q796 -14 810 0 Q824 13 824 52 L824 775 L904 775 L904 23 ZM547 -98 Q468 -22 363 67 Q257 -26 84 -115 L33 -44 Q347 103 508 355 L569 314 Q497 200 423 123 Q546 20 602 -30 L547 -98 ZM637 106 L637 688 L715 688 L715 106 L637 106 Z" /><glyph glyph-name="uni524D" unicode="&#x524d;" d="M118 -92 L118 518 L486 518 L486 16 Q486 -45 462 -68 Q437 -91 374 -91 L291 -91 L275 -14 L346 -14 Q383 -14 394 -4 Q404 5 404 37 L404 111 L201 111 L201 -92 L118 -92 ZM759 778 Q733 741 681 676 L947 676 L947 600 L47 600 L47 676 L302 676 L230 773 L301 821 L395 698 L357 676 L574 676 Q631 750 676 819 L759 778 ZM865 29 Q865 -39 839 -63 Q812 -88 734 -88 L615 -88 L599 -10 L713 -10 Q757 -10 770 1 Q782 12 782 50 L782 539 L865 539 L865 29 ZM588 79 L588 499 L664 499 L664 79 L588 79 ZM201 441 L201 350 L404 350 L404 441 L201 441 ZM201 276 L201 185 L404 185 L404 276 L201 276 Z" /><glyph glyph-name="uni5275" unicode="&#x5275;" d="M588 527 Q444 628 343 694 Q278 611 182 536 L342 536 Q325 561 288 624 L350 653 L416 551 L383 536 L558 536 L558 236 L216 236 Q214 211 208 180 L568 180 L568 -51 L274 -51 L274 -94 L197 -94 L197 129 Q169 36 86 -78 L28 -26 Q102 69 124 147 Q144 221 144 380 L144 508 Q92 472 65 456 L33 526 Q225 641 321 803 L405 785 L385 752 Q502 679 630 596 L588 527 ZM905 29 Q905 -36 878 -62 Q849 -88 775 -88 L663 -88 L647 -4 L754 -4 Q798 -4 814 9 Q829 22 829 59 L829 781 L905 781 L905 29 ZM659 120 L659 694 L734 694 L734 120 L659 120 ZM274 113 L274 17 L492 17 L492 113 L274 113 ZM220 470 L220 419 L482 419 L482 470 L220 470 ZM219 303 L482 303 L482 353 L220 353 L219 303 Z" /><glyph glyph-name="uni5283" unicode="&#x5283;" d="M102 733 L302 733 L302 800 L378 800 L378 733 L580 733 L580 644 L648 644 L648 589 L580 589 L580 498 L378 498 L378 461 L602 461 L602 407 L378 407 L378 368 L634 368 L634 314 L50 314 L50 368 L302 368 L302 407 L88 407 L88 461 L302 461 L302 498 L96 498 L96 553 L302 553 L302 589 L43 589 L43 644 L302 644 L302 678 L102 678 L102 733 ZM115 279 L573 279 L573 48 L115 48 L115 279 ZM907 25 Q907 -39 882 -63 Q856 -88 785 -88 L677 -88 L663 -13 L766 -13 Q808 -13 822 -1 Q836 11 836 46 L836 784 L907 784 L907 25 ZM676 116 L676 690 L745 690 L745 116 L676 116 ZM634 -50 L50 -66 L48 2 Q416 8 635 17 L634 -50 ZM190 140 L190 99 L310 99 L310 140 L190 140 ZM378 99 L497 99 L497 140 L378 140 L378 99 ZM190 228 L190 188 L310 188 L310 228 L190 228 ZM497 228 L378 228 L378 188 L497 188 L497 228 ZM378 553 L508 553 L508 589 L378 589 L378 553 ZM508 678 L378 678 L378 644 L508 644 L508 678 Z" /><glyph glyph-name="uni529B" unicode="&#x529b;" d="M466 798 Q466 762 459 603 L875 603 Q867 311 852 67 Q848 -17 806 -50 Q764 -83 665 -83 L505 -83 L487 6 L636 6 Q711 6 736 26 Q762 46 765 108 Q780 416 782 514 L455 514 Q443 271 375 149 Q306 26 103 -113 L37 -41 Q228 86 290 188 Q355 295 367 514 L74 514 L74 603 L371 603 Q375 739 378 798 L466 798 Z" /><glyph glyph-name="uni529E" unicode="&#x529e;" d="M890 141 Q856 205 769 363 Q760 176 752 61 Q746 -20 713 -50 Q677 -81 583 -81 L431 -81 L415 5 L549 5 Q616 5 638 23 Q660 41 664 98 Q683 367 688 544 L436 544 Q422 277 361 156 Q302 36 111 -112 L50 -42 Q219 80 279 200 Q336 315 350 544 L78 544 L78 628 L354 628 L360 801 L448 799 L441 628 L781 628 L771 408 L823 436 Q893 325 968 182 L890 141 ZM229 432 Q179 265 113 139 L33 179 Q108 321 149 464 L229 432 Z" /><glyph glyph-name="uni529F" unicode="&#x529f;" d="M614 603 L895 603 Q886 262 876 81 Q872 -12 836 -43 Q801 -73 700 -73 L590 -73 L574 11 L670 11 Q745 11 766 29 Q787 46 791 113 Q799 248 806 518 L610 518 Q600 259 556 148 Q509 29 354 -112 L281 -54 Q435 83 477 187 Q515 279 524 518 L410 518 L410 603 L527 603 L532 799 L618 799 L614 603 ZM439 152 Q246 109 53 54 L34 138 L191 176 L191 603 L56 603 L56 685 L406 685 L406 603 L277 603 L277 198 Q394 228 427 238 L439 152 Z" /><glyph glyph-name="uni52A0" unicode="&#x52a0;" d="M571 -83 L571 684 L908 684 L908 -83 L825 -83 L825 -4 L655 -4 L655 -83 L571 -83 ZM269 800 L266 630 L484 630 Q472 95 470 57 Q469 -19 437 -47 Q406 -74 324 -74 L238 -74 L220 15 L304 15 Q359 15 372 30 Q384 42 386 96 L398 546 L263 546 Q255 303 223 175 Q191 44 101 -106 L24 -62 Q109 78 140 199 Q170 318 178 546 L52 546 L52 630 L181 630 Q184 726 184 800 L269 800 ZM655 600 L655 79 L825 79 L825 600 L655 600 Z" /><glyph glyph-name="uni52A1" unicode="&#x52a1;" d="M945 299 Q665 350 504 424 Q324 344 64 286 L37 366 Q261 411 415 470 Q332 519 252 591 Q190 535 105 477 L59 535 Q239 658 343 814 L418 780 Q399 751 368 713 L845 713 L845 644 Q732 540 593 467 Q734 415 966 379 L945 299 ZM611 -10 Q674 -10 696 5 Q717 19 724 65 L741 187 L437 187 Q409 86 333 20 Q260 -44 100 -112 L52 -42 Q192 12 257 62 Q323 112 348 187 L95 187 L95 260 L364 260 Q371 306 376 357 L464 356 L451 260 L832 260 Q817 98 808 31 Q800 -32 765 -57 Q728 -83 639 -83 L470 -83 L456 -10 L611 -10 ZM309 643 Q391 558 501 505 Q635 567 720 643 L309 643 Z" /><glyph glyph-name="uni52A8" unicode="&#x52a8;" d="M677 613 L914 613 Q904 271 894 53 Q892 -18 860 -46 Q829 -73 751 -73 L633 -73 L615 12 L717 12 Q774 12 792 27 Q812 43 813 93 Q823 288 830 529 L674 529 Q665 260 634 149 Q599 21 485 -119 L409 -68 Q455 -14 482 25 L434 1 L422 32 Q186 15 83 -3 L53 82 Q79 93 97 126 Q147 217 203 392 L57 392 L57 476 L498 476 L498 392 L293 392 Q230 191 178 100 L390 114 Q375 152 316 294 L392 321 Q433 232 502 56 Q582 192 592 529 L463 529 L463 613 L594 613 L598 799 L680 799 L677 613 ZM466 644 L98 644 L98 726 L466 726 L466 644 Z" /><glyph glyph-name="uni52A9" unicode="&#x52a9;" d="M706 16 Q768 16 787 31 Q807 46 808 93 Q818 285 825 537 L676 537 Q674 489 674 476 Q666 237 621 123 Q579 13 448 -116 L382 -56 Q449 6 482 48 Q32 -26 52 -22 L41 64 Q74 68 120 76 L120 740 L455 740 L455 128 L488 133 Q510 137 513 137 L514 92 Q585 202 592 483 Q592 497 594 537 L499 537 L499 617 L595 617 L598 796 L681 796 Q681 742 678 617 L910 617 Q896 179 889 57 Q886 -15 853 -41 Q821 -66 738 -66 L637 -66 L623 16 L706 16 ZM200 88 Q333 109 375 115 L375 245 L200 245 L200 88 ZM200 660 L200 524 L375 524 L375 660 L200 660 ZM200 448 L200 320 L375 320 L375 448 L200 448 Z" /><glyph glyph-name="uni52BF" unicode="&#x52bf;" d="M710 352 Q644 387 579 418 Q542 358 447 292 L478 292 Q474 250 471 231 L853 231 Q844 102 836 39 Q829 -29 798 -54 Q765 -81 684 -81 L517 -81 L504 -3 L657 -3 Q709 -3 730 11 Q750 25 754 65 L765 159 L460 159 Q436 48 355 -11 Q275 -70 83 -117 L47 -39 Q217 2 281 41 Q348 82 367 159 L104 159 L104 231 L380 231 L386 292 L418 292 L370 335 Q475 399 508 451 L415 493 L445 555 L536 515 Q547 553 550 614 L451 614 L451 687 L551 687 Q551 763 552 794 L630 794 L628 687 L828 687 L828 561 Q828 442 842 394 Q851 364 864 364 Q881 364 889 405 Q900 447 908 495 L967 473 Q955 411 938 357 Q915 276 864 276 Q802 276 772 373 Q753 436 753 555 L753 614 L626 614 Q624 535 609 484 L744 422 L710 352 ZM427 617 L309 617 L309 543 L401 561 L408 492 L309 474 L309 374 Q309 321 287 301 Q264 282 202 282 L99 282 L86 350 L173 350 Q209 350 219 358 Q229 366 229 394 L229 458 Q104 435 57 424 L49 496 L229 528 L229 617 L67 617 L67 687 L229 687 L229 794 L309 794 L309 687 L427 687 L427 617 Z" /><glyph glyph-name="uni52CB" unicode="&#x52cb;" d="M710 796 Q710 774 706 606 L922 606 Q914 288 903 52 Q902 -19 869 -45 Q839 -70 760 -70 L665 -70 L652 8 L732 8 Q789 8 807 23 Q825 38 827 86 Q835 179 844 530 L704 530 Q702 490 702 476 Q694 245 663 140 Q630 29 524 -110 L452 -62 Q557 59 588 150 Q621 247 627 469 L628 530 L534 530 L534 606 L629 606 Q632 729 632 796 L710 796 ZM111 754 L484 754 L484 518 L111 518 L111 754 ZM92 121 L92 441 L504 441 L504 124 L428 124 L428 366 L167 366 L167 121 L92 121 ZM341 332 Q345 255 329 160 Q327 154 327 150 Q399 103 499 34 L456 -28 Q398 14 301 78 Q249 -13 68 -101 L34 -27 Q157 26 204 77 Q251 127 260 216 Q265 259 265 332 L341 332 ZM183 686 L183 586 L413 586 L413 686 L183 686 Z" /><glyph glyph-name="uni52D2" unicode="&#x52d2;" d="M451 794 L451 706 L552 706 L552 637 L451 637 L451 497 L337 497 L337 428 L501 428 L501 203 L337 203 L337 126 L537 126 L537 78 Q598 194 617 498 Q617 511 618 522 L524 522 L524 598 L620 598 L624 797 L704 797 L699 598 L922 598 L897 44 Q894 -26 863 -52 Q834 -76 758 -76 L655 -76 L637 9 L729 9 Q782 9 800 25 Q817 40 819 86 L839 522 L697 522 Q696 511 696 491 Q689 259 651 138 Q614 21 509 -110 L440 -60 Q491 0 524 55 L337 55 L337 -101 L260 -101 L260 55 L50 55 L50 126 L260 126 L260 203 L97 203 L97 428 L260 428 L260 497 L150 497 L150 637 L61 637 L61 706 L150 706 L150 794 L228 794 L228 706 L374 706 L374 794 L451 794 ZM228 556 L374 556 L374 637 L228 637 L228 556 ZM432 366 L337 366 L337 265 L432 265 L432 366 ZM166 366 L166 265 L260 265 L260 366 L166 366 Z" /><glyph glyph-name="uni52D5" unicode="&#x52d5;" d="M745 12 Q795 12 810 26 Q826 41 827 90 Q839 315 842 523 L724 523 Q719 276 690 157 Q657 23 558 -111 L494 -70 Q517 -40 530 -21 Q90 -47 51 -50 L47 20 L277 32 L277 99 L73 99 L73 160 L277 160 L277 217 L94 217 L94 497 L277 497 L277 554 L46 554 L46 618 L277 618 L277 678 Q164 670 82 667 L77 736 Q337 747 526 771 L534 701 Q474 694 348 683 L348 618 L555 618 L555 554 L348 554 L348 497 L530 497 L530 217 L348 217 L348 160 L543 160 L543 99 L348 99 L348 36 Q537 46 544 47 L543 -2 Q607 96 629 215 Q646 305 653 523 L573 523 L573 601 L656 601 L659 796 L732 796 L727 601 L915 601 Q912 397 899 56 Q898 -15 870 -41 Q843 -66 773 -66 L691 -66 L677 12 L745 12 ZM163 327 L163 277 L277 277 L277 327 L163 327 ZM163 435 L163 385 L277 385 L277 435 L163 435 ZM460 435 L348 435 L348 385 L460 385 L460 435 ZM348 277 L460 277 L460 327 L348 327 L348 277 Z" /><glyph glyph-name="uni52D9" unicode="&#x52d9;" d="M375 392 L303 392 L303 21 Q303 -41 279 -65 Q253 -89 185 -89 L93 -89 L80 -17 L164 -17 Q231 -17 231 48 L231 311 Q161 157 68 55 L24 116 Q116 214 191 392 L42 392 L42 462 L238 462 L107 605 L159 648 L244 558 Q263 578 301 620 Q338 662 346 670 L65 670 L65 742 L431 742 L431 658 L293 506 Q289 511 323 473 L308 462 L445 462 L445 393 L440 378 Q544 415 624 465 Q575 514 535 574 Q494 522 456 485 L405 539 Q530 659 590 808 L666 787 Q650 753 628 713 L899 713 L899 643 Q831 534 746 463 Q829 412 970 374 L936 301 Q776 350 684 416 Q587 351 452 304 L430 344 L393 223 L329 239 L375 392 ZM711 -11 Q758 -11 775 3 Q791 16 796 55 Q804 112 807 186 L644 186 Q608 16 388 -106 L337 -39 Q447 16 497 64 Q548 114 566 186 L426 186 L426 258 L576 258 L577 261 Q580 287 583 354 L661 354 Q659 310 654 258 L887 258 L879 145 Q873 49 871 31 Q867 -34 838 -58 Q809 -82 735 -82 L636 -82 L622 -11 L711 -11 ZM581 635 Q626 556 685 507 Q762 568 811 643 L585 643 L581 635 Z" /><glyph glyph-name="uni52DD" unicode="&#x52dd;" d="M700 795 Q686 675 671 605 L923 605 L923 538 L655 538 Q638 483 631 465 L946 465 L946 398 L784 398 Q852 307 975 245 L936 179 Q892 203 846 240 Q837 100 830 29 Q826 -30 800 -51 Q774 -72 705 -72 L598 -72 L587 -5 L678 -5 Q726 -5 741 6 Q755 17 758 52 Q766 143 768 176 L637 176 Q618 84 565 20 Q512 -43 398 -109 L353 -40 Q531 50 563 176 L444 176 L444 228 Q417 208 380 182 L346 235 L346 9 Q346 -44 326 -65 Q305 -85 251 -85 L186 -85 L172 -9 L225 -9 Q257 -9 266 0 Q274 8 274 39 L274 210 L173 210 Q167 32 101 -110 L29 -74 Q104 65 104 372 L104 746 L346 746 L346 250 Q463 327 512 398 L370 398 L370 465 L550 465 Q565 499 577 538 L390 538 L390 605 L595 605 Q613 687 626 798 L700 795 ZM656 347 Q655 328 647 242 L844 242 Q756 312 702 398 L598 398 Q551 316 461 242 L574 242 L584 349 L656 347 ZM175 671 L175 514 L274 514 L274 671 L175 671 ZM175 284 L274 284 L274 439 L175 439 L175 284 ZM897 740 Q847 669 795 609 L740 648 Q796 712 842 777 L897 740 ZM511 612 Q475 660 412 737 L465 776 Q526 704 565 654 L511 612 Z" /><glyph glyph-name="uni52FE" unicode="&#x52fe;" d="M656 8 Q723 8 751 30 Q778 52 782 108 Q794 225 803 598 L271 598 Q200 480 107 380 L38 436 Q188 594 276 809 L367 793 Q350 750 318 684 L894 684 Q879 158 872 73 Q868 -11 825 -45 Q783 -79 685 -79 L511 -79 L493 8 L656 8 ZM641 138 Q267 115 153 101 L127 188 Q167 198 189 224 Q285 340 391 558 L471 518 Q372 324 275 201 L592 219 Q523 331 484 388 L551 431 Q657 272 749 121 L677 77 L641 138 Z" /><glyph glyph-name="uni5305" unicode="&#x5305;" d="M663 181 Q723 181 740 195 Q757 209 759 261 Q760 278 764 442 L768 623 L275 623 Q241 563 200 509 L599 509 L599 193 L228 193 L228 76 Q228 27 246 13 Q262 0 316 0 L757 0 Q809 0 826 13 Q845 27 846 69 L854 168 L941 150 L928 23 Q920 -39 887 -60 Q854 -82 767 -82 L295 -82 Q212 -82 180 -55 Q145 -25 145 56 L145 442 Q121 415 96 390 L30 452 Q187 611 263 805 L352 778 Q333 733 318 703 L853 703 L844 236 Q841 158 805 129 Q769 99 676 99 L568 99 L552 181 L663 181 ZM228 427 L228 275 L517 275 L517 427 L228 427 Z" /><glyph glyph-name="uni5316" unicode="&#x5316;" d="M928 609 Q767 436 591 301 L591 86 Q591 46 607 32 Q622 18 663 18 L777 18 Q820 18 836 31 Q851 43 853 79 L859 237 L943 218 Q936 72 934 49 Q929 -17 899 -43 Q868 -69 791 -69 L642 -69 Q564 -69 534 -41 Q503 -12 503 66 L503 237 Q413 176 335 131 L291 209 Q400 272 503 347 L503 793 L591 793 L591 414 Q743 536 864 673 L928 609 ZM375 773 Q333 652 278 547 L278 -96 L190 -96 L190 400 Q133 316 72 247 L33 334 Q197 526 291 799 L375 773 Z" /><glyph glyph-name="uni5317" unicode="&#x5317;" d="M943 562 Q841 490 650 377 L650 79 Q650 43 662 33 Q673 22 709 22 L779 22 Q824 22 839 33 Q853 45 855 80 Q860 145 860 242 L951 221 Q951 188 944 58 Q940 -14 910 -39 Q881 -65 801 -65 L697 -65 Q617 -65 590 -38 Q562 -10 562 71 L562 797 L650 797 L650 478 Q791 561 891 637 L943 562 ZM317 90 Q175 28 75 -19 L41 68 Q154 111 317 187 L317 462 L68 462 L68 549 L317 549 L317 797 L405 797 L405 -91 L317 -91 L317 90 Z" /><glyph glyph-name="uni5319" unicode="&#x5319;" d="M199 246 Q192 184 186 145 Q231 53 296 26 L296 280 L49 280 L49 351 L556 351 L556 280 L371 280 L371 184 L534 184 L534 114 L371 114 L371 9 Q392 7 442 7 L955 7 L941 -73 L441 -73 Q334 -73 275 -48 Q208 -21 162 52 Q140 -16 86 -98 L19 -58 Q109 67 124 250 L199 246 ZM116 755 L488 755 L488 420 L116 420 L116 755 ZM918 339 Q914 264 908 200 Q903 141 876 118 Q848 96 779 96 L719 96 Q651 96 624 119 Q594 145 594 214 L594 774 L674 774 L674 510 Q777 578 861 654 L914 587 Q788 482 674 413 L674 228 Q674 197 685 187 Q696 176 730 176 L769 176 Q806 176 818 185 Q830 194 831 225 L838 355 L918 339 ZM199 489 L404 489 L404 555 L199 555 L199 489 ZM199 687 L199 621 L404 621 L404 687 L199 687 Z" /><glyph glyph-name="uni5320" unicode="&#x5320;" d="M949 -61 L128 -61 L128 753 L945 753 L945 670 L213 670 L213 23 L949 23 L949 -61 ZM650 324 L432 324 Q427 158 316 31 L248 81 Q315 157 332 212 Q349 265 349 392 L349 570 Q605 583 832 633 L852 559 Q647 513 433 499 L433 401 L937 401 L937 324 L735 324 L735 52 L650 52 L650 324 Z" /><glyph glyph-name="uni532F" unicode="&#x532f;" d="M887 222 L736 222 L736 145 L913 145 L913 81 L522 81 L522 25 L452 25 L452 380 Q429 339 405 307 L361 366 Q453 484 500 671 L572 652 Q557 609 537 558 L699 558 Q679 593 641 652 L700 682 Q727 645 765 580 L723 558 L900 558 L900 494 L736 494 L736 418 L887 418 L887 356 L736 356 L736 284 L887 284 L887 222 ZM940 -73 L116 -73 L116 756 L931 756 L931 684 L192 684 L192 0 L940 0 L940 -73 ZM389 271 Q303 66 294 37 L226 67 Q224 64 325 301 L389 271 ZM384 496 Q307 556 238 603 L279 659 Q360 602 424 553 L384 496 ZM335 328 Q266 383 195 433 L236 489 Q329 424 375 388 L335 328 ZM522 222 L522 145 L666 145 L666 222 L522 222 ZM522 494 L522 418 L666 418 L666 494 L522 494 ZM522 356 L522 284 L666 284 L666 356 L522 356 Z" /><glyph glyph-name="uni533A" unicode="&#x533a;" d="M947 -60 L124 -60 L124 747 L928 747 L928 662 L214 662 L214 25 L947 25 L947 -60 ZM831 584 Q742 468 633 354 Q755 236 871 122 L804 55 Q741 120 569 290 Q430 156 293 57 L236 130 Q372 226 504 353 Q366 487 280 566 L339 627 Q403 569 568 416 Q672 523 758 637 L831 584 Z" /><glyph glyph-name="uni533B" unicode="&#x533b;" d="M950 -61 L124 -61 L124 749 L938 749 L938 671 L206 671 L206 17 L950 17 L950 -61 ZM627 495 L624 376 L923 376 L923 301 L617 301 Q614 281 608 263 Q722 204 903 106 L858 35 Q756 94 575 196 Q505 95 288 23 L245 97 Q493 172 531 301 L242 301 L242 376 L543 376 Q545 418 545 495 L408 495 Q371 438 326 389 L260 433 Q361 541 411 666 L484 637 Q466 597 451 567 L875 567 L875 495 L627 495 Z" /><glyph glyph-name="uni5340" unicode="&#x5340;" d="M935 -64 L109 -64 L109 756 L918 756 L918 678 L191 678 L191 14 L935 14 L935 -64 ZM328 616 L817 616 L817 396 L328 396 L328 616 ZM607 333 L877 333 L877 86 L607 86 L607 333 ZM270 333 L539 333 L539 86 L270 86 L270 333 ZM412 550 L412 462 L733 462 L733 550 L412 550 ZM677 269 L677 152 L806 152 L806 269 L677 269 ZM342 269 L342 152 L469 152 L469 269 L342 269 Z" /><glyph glyph-name="uni5341" unicode="&#x5341;" d="M455 -97 L455 372 L53 372 L53 459 L455 459 L455 798 L545 798 L545 459 L948 459 L948 372 L545 372 L545 -97 L455 -97 Z" /><glyph glyph-name="uni5347" unicode="&#x5347;" d="M954 350 L748 350 L748 -97 L659 -97 L659 350 L373 350 Q368 182 318 87 Q267 -10 125 -116 L54 -49 Q195 50 239 129 Q280 202 282 350 L54 350 L54 434 L283 434 L283 638 Q183 623 98 612 L82 692 Q337 720 560 773 L580 695 Q498 675 374 654 L374 434 L659 434 L659 793 L748 793 L748 434 L954 434 L954 350 Z" /><glyph glyph-name="uni5348" unicode="&#x5348;" d="M948 258 L564 258 L564 -99 L471 -99 L471 258 L54 258 L54 342 L471 342 L471 589 L283 589 Q215 468 146 382 L71 442 Q213 618 284 817 L372 783 Q352 727 326 674 L888 674 L888 589 L564 589 L564 342 L948 342 L948 258 Z" /><glyph glyph-name="uni5349" unicode="&#x5349;" d="M958 217 L764 217 L764 -94 L676 -94 L676 217 L325 217 Q317 103 276 31 Q234 -44 130 -124 L64 -58 Q158 12 194 71 Q229 127 236 217 L41 217 L41 302 L239 302 L239 494 L329 494 L329 302 L676 302 L676 492 L764 492 L764 302 L958 302 L958 217 ZM909 576 L545 576 L545 385 L457 385 L457 576 L91 576 L91 662 L457 662 L457 802 L545 802 L545 662 L909 662 L909 576 Z" /><glyph glyph-name="uni534A" unicode="&#x534a;" d="M948 143 L543 143 L543 -96 L460 -96 L460 143 L53 143 L53 223 L460 223 L460 362 L96 362 L96 442 L460 442 L460 798 L543 798 L543 442 L906 442 L906 362 L543 362 L543 223 L948 223 L948 143 ZM313 480 Q222 593 123 698 L185 754 Q278 657 382 537 L313 480 ZM877 699 Q845 660 683 479 L617 533 Q715 635 809 753 L877 699 Z" /><glyph glyph-name="uni534E" unicode="&#x534e;" d="M906 672 Q763 578 598 509 L598 441 Q598 405 613 391 Q627 377 662 377 L776 377 Q818 377 833 391 Q848 404 850 440 Q853 503 853 527 L931 511 Q928 438 926 413 Q922 346 893 322 Q865 300 790 300 L625 300 Q564 300 539 324 Q511 350 511 415 L511 475 Q424 443 338 418 L310 495 Q423 528 511 562 L511 794 L598 794 L598 598 Q736 659 865 743 L906 672 ZM458 -106 L458 106 L54 106 L54 190 L458 190 L458 297 L546 297 L546 190 L949 190 L949 106 L546 106 L546 -106 L458 -106 ZM385 772 Q339 690 295 631 L295 277 L209 277 L209 531 Q155 475 76 412 L39 485 Q200 620 310 804 L385 772 Z" /><glyph glyph-name="uni5353" unicode="&#x5353;" d="M165 571 L439 571 L439 800 L526 800 L526 720 L913 720 L913 648 L526 648 L526 571 L837 571 L837 210 L544 210 L544 127 L948 127 L948 54 L544 54 L544 -100 L458 -100 L458 54 L54 54 L54 127 L458 127 L458 210 L165 210 L165 571 ZM251 499 L251 425 L750 425 L750 499 L251 499 ZM251 282 L750 282 L750 356 L251 356 L251 282 Z" /><glyph glyph-name="uni5354" unicode="&#x5354;" d="M436 4 Q475 4 487 14 Q500 24 502 57 Q507 98 513 242 L442 242 Q423 45 285 -105 L225 -59 Q353 67 372 242 L275 242 L275 317 L378 317 Q380 344 380 392 Q365 384 343 376 L297 446 Q397 479 446 517 Q498 558 517 624 L342 624 L342 699 L529 699 Q535 746 535 795 L615 794 Q615 779 610 699 L883 699 Q883 650 871 522 Q865 457 835 435 Q804 412 723 412 L588 412 L574 487 L689 487 Q746 487 764 497 Q781 507 785 542 Q793 592 794 624 L599 624 Q566 480 388 396 L452 396 L448 317 L589 317 Q584 122 576 31 Q572 -28 549 -48 Q526 -68 466 -68 L399 -68 L387 4 L436 4 ZM142 -96 L142 471 L43 471 L43 553 L142 553 L142 794 L220 794 L220 553 L319 553 L319 471 L220 471 L220 -96 L142 -96 ZM767 -1 Q806 -1 818 10 Q828 20 833 55 Q843 128 843 242 L758 242 Q739 34 609 -109 L547 -66 Q619 5 648 70 Q676 133 686 242 L616 242 L616 317 L692 317 Q695 361 695 395 L768 395 Q768 373 764 317 L920 317 L906 27 Q903 -34 881 -55 Q859 -74 799 -74 L722 -74 L708 -1 L767 -1 Z" /><glyph glyph-name="uni5355" unicode="&#x5355;" d="M944 67 L543 67 L543 -102 L458 -102 L458 67 L57 67 L57 145 L458 145 L458 242 L148 242 L148 670 L328 670 Q251 763 241 774 L303 819 Q388 727 419 690 L392 670 L571 670 Q644 754 688 814 L762 778 Q737 743 676 670 L853 670 L853 242 L543 242 L543 145 L944 145 L944 67 ZM543 317 L768 317 L768 419 L543 419 L543 317 ZM233 595 L233 493 L458 493 L458 595 L233 595 ZM233 419 L233 317 L458 317 L458 419 L233 419 ZM768 595 L543 595 L543 493 L768 493 L768 595 Z" /><glyph glyph-name="uni5356" unicode="&#x5356;" d="M637 324 Q634 251 621 198 L945 198 L945 127 L594 127 Q588 115 584 110 Q919 -18 936 -25 L899 -97 Q703 -14 534 50 Q426 -47 89 -107 L66 -29 Q414 29 494 127 L51 127 L51 198 L357 198 Q247 263 151 313 L188 372 Q331 297 408 251 L376 198 L532 198 Q548 248 551 334 L555 454 L641 454 L637 324 ZM450 306 Q363 357 239 420 L268 476 L81 476 L81 547 L459 547 L459 641 L125 641 L125 712 L459 712 L459 801 L543 801 L543 712 L888 712 L888 641 L543 641 L543 547 L917 547 L917 476 L827 327 L754 353 L831 476 L282 476 Q380 429 486 373 L450 306 Z" /><glyph glyph-name="uni5357" unicode="&#x5357;" d="M107 -87 L107 531 L453 531 L453 622 L47 622 L47 699 L453 699 L453 802 L539 802 L539 699 L943 699 L943 622 L539 622 L539 531 L882 531 L882 30 Q882 -40 858 -64 Q835 -87 768 -87 L642 -87 L628 -11 L738 -11 Q778 -11 788 -1 Q798 10 798 48 L798 456 L191 456 L191 -87 L107 -87 ZM454 -69 L454 103 L226 103 L226 169 L454 169 L454 252 L248 252 L248 319 L375 319 Q324 388 303 411 L361 453 Q443 356 456 337 L431 319 L524 319 Q585 395 621 451 L687 413 Q659 372 616 319 L741 319 L741 252 L536 252 L536 169 L763 169 L763 103 L536 103 L536 -69 L454 -69 Z" /><glyph glyph-name="uni535A" unicode="&#x535a;" d="M345 214 L345 569 L582 569 L582 631 L319 631 L319 699 L582 699 L582 798 L655 798 L655 699 L791 699 L750 733 Q720 759 712 765 L756 815 Q811 771 868 727 L844 699 L945 699 L945 631 L655 631 L655 569 L890 569 L890 214 L819 214 L819 180 L958 180 L958 110 L819 110 L819 19 Q819 -45 794 -67 Q768 -89 693 -89 L584 -89 L571 -17 L670 -17 Q716 -17 730 -5 Q743 6 743 42 L743 110 L450 110 Q509 67 570 20 L524 -40 Q453 20 385 68 L417 110 L278 110 L278 180 L743 180 L743 235 L813 235 L813 264 L655 264 L655 221 L582 221 L582 264 L421 264 L421 214 L345 214 ZM320 475 L223 475 L223 -96 L147 -96 L147 475 L45 475 L45 560 L147 560 L147 796 L223 796 L223 560 L320 560 L320 475 ZM421 386 L421 324 L582 324 L582 386 L421 386 ZM421 507 L421 446 L582 446 L582 507 L421 507 ZM655 386 L655 324 L813 324 L813 386 L655 386 ZM813 507 L655 507 L655 446 L813 446 L813 507 Z" /><glyph glyph-name="uni5367" unicode="&#x5367;" d="M567 -62 L84 -62 L84 752 L558 752 L558 668 L386 668 L386 518 L516 518 L516 193 L386 193 L386 20 L567 20 L567 -62 ZM915 244 Q762 376 714 415 L714 -99 L626 -99 L626 793 L714 793 L714 462 L744 501 Q840 427 968 319 L915 244 ZM432 440 L170 440 L170 271 L432 271 L432 440 ZM170 193 L170 20 L303 20 L303 193 L170 193 ZM170 668 L170 518 L303 518 L303 668 L170 668 Z" /><glyph glyph-name="uni536B" unicode="&#x536b;" d="M648 305 Q710 305 734 324 Q757 343 759 395 Q769 578 769 642 L451 642 L451 37 L954 37 L954 -52 L47 -52 L47 37 L358 37 L358 642 L106 642 L106 731 L865 731 L858 542 Q853 381 851 354 Q848 277 808 246 Q768 215 675 215 L539 215 L521 305 L648 305 Z" /><glyph glyph-name="uni5373" unicode="&#x5373;" d="M458 -16 Q443 9 402 73 Q186 -19 112 -55 L70 16 Q103 34 103 73 L103 750 L474 750 L474 296 L180 296 L180 64 L358 141 L296 235 L362 272 L530 27 L458 -16 ZM561 -95 L561 731 L902 731 L902 163 Q902 99 874 73 Q847 48 782 48 L685 48 L669 132 L748 132 Q792 132 807 146 Q819 158 819 193 L819 646 L643 646 L643 -95 L561 -95 ZM180 676 L180 558 L396 558 L396 676 L180 676 ZM180 370 L396 370 L396 486 L180 486 L180 370 Z" /><glyph glyph-name="uni5374" unicode="&#x5374;" d="M491 -47 Q471 -11 459 13 Q196 -3 71 -20 L48 67 Q76 75 94 97 Q147 166 216 321 L43 321 L43 405 L260 405 L260 561 L81 561 L81 645 L260 645 L260 803 L345 803 L345 645 L526 645 L526 561 L345 561 L345 405 L556 405 L556 321 L307 321 Q238 170 170 77 L418 89 L338 235 L409 277 Q482 153 567 -2 L491 -47 ZM587 -103 L587 726 L934 726 L934 151 Q934 84 906 58 Q879 34 809 34 L719 34 L701 118 L774 118 Q821 118 836 130 Q850 143 850 183 L850 639 L671 639 L671 -103 L587 -103 Z" /><glyph glyph-name="uni537B" unicode="&#x537b;" d="M132 276 L70 228 L32 299 Q217 432 297 591 L371 566 Q366 554 354 530 Q450 449 567 348 L517 284 Q427 366 312 463 Q252 379 154 295 L495 295 L495 -24 L215 -24 L215 -81 L132 -81 L132 276 ZM597 -101 L597 723 L915 723 L915 154 Q915 90 887 65 Q861 41 795 41 L710 41 L691 127 L767 127 Q807 127 820 139 Q833 151 833 188 L833 640 L679 640 L679 -101 L597 -101 ZM215 217 L215 54 L413 54 L413 217 L215 217 ZM299 731 Q207 607 104 511 L44 567 Q156 666 231 775 L299 731 ZM508 547 Q413 655 336 728 L395 779 Q471 708 570 603 L508 547 Z" /><glyph glyph-name="uni5385" unicode="&#x5385;" d="M950 658 L238 658 L238 487 Q238 231 217 123 Q195 16 121 -108 L34 -64 Q107 53 127 151 Q147 248 147 489 L147 745 L950 745 L950 658 ZM958 430 L695 430 L695 44 Q695 -32 665 -58 Q635 -85 548 -85 L416 -85 L398 4 L526 4 Q575 4 591 17 Q606 30 606 71 L606 430 L279 430 L279 517 L958 517 L958 430 Z" /><glyph glyph-name="uni539A" unicode="&#x539a;" d="M308 635 L883 635 L883 358 L308 358 L308 635 ZM301 310 L898 310 L898 246 L661 157 L958 157 L958 91 L648 91 L648 16 Q648 -48 625 -69 Q602 -90 530 -90 L397 -90 L383 -19 L501 -19 Q542 -19 553 -10 Q564 -2 564 28 L564 91 L231 91 L231 157 L564 157 L564 182 L733 244 L301 244 L301 310 ZM950 683 L224 683 L224 493 Q224 241 201 129 Q180 28 107 -100 L29 -57 Q101 59 120 160 Q139 254 139 487 L139 756 L950 756 L950 683 ZM391 418 L799 418 L799 467 L391 467 L391 418 ZM391 574 L391 526 L799 526 L799 574 L391 574 Z" /><glyph glyph-name="uni539F" unicode="&#x539f;" d="M637 664 Q624 618 611 584 L882 584 L882 223 L657 223 L657 21 Q657 -42 630 -65 Q603 -88 531 -88 L425 -88 L409 -10 L497 -10 Q541 -10 556 3 Q570 16 570 51 L570 223 L326 223 L326 584 L516 584 Q536 632 547 674 L231 674 L231 424 Q231 79 111 -112 L34 -56 Q104 56 125 148 Q145 237 145 421 L145 752 L955 752 L955 674 L582 674 L637 664 ZM408 515 L408 439 L802 439 L802 515 L408 515 ZM408 293 L802 293 L802 369 L408 369 L408 293 ZM471 144 Q394 36 269 -78 L212 -16 Q326 83 404 190 L471 144 ZM909 -64 Q818 28 710 132 L767 184 Q855 103 968 -8 L909 -64 Z" /><glyph glyph-name="uni53A6" unicode="&#x53a6;" d="M529 542 L544 585 L247 585 L247 643 L941 643 L941 585 L625 585 L609 542 L868 542 L868 225 L449 225 L486 202 L469 181 L872 181 L872 126 Q786 57 693 15 Q807 -16 956 -32 L944 -102 Q731 -69 602 -20 Q471 -66 226 -107 L212 -39 Q367 -19 509 20 Q448 51 381 98 Q328 59 231 7 L201 64 Q341 138 415 225 L316 225 L316 542 L529 542 ZM952 683 L221 683 L221 422 Q221 86 105 -115 L34 -76 Q141 103 141 419 L141 751 L952 751 L952 683 ZM391 487 L391 447 L793 447 L793 487 L391 487 ZM391 402 L391 363 L793 363 L793 402 L391 402 ZM391 280 L793 280 L793 318 L391 318 L391 280 ZM439 126 Q513 77 596 47 Q707 86 764 126 L439 126 Z" /><glyph glyph-name="uni53A8" unicode="&#x53a8;" d="M942 667 L210 667 L210 377 Q210 91 108 -105 L30 -66 Q127 113 127 370 L127 745 L942 745 L942 667 ZM876 631 L876 486 L960 486 L960 404 L876 404 L876 24 Q876 -43 850 -66 Q824 -88 748 -88 L663 -88 L649 -4 L727 -4 Q771 -4 785 9 Q798 20 798 56 L798 404 L624 404 L624 486 L798 486 L798 631 L876 631 ZM275 439 L587 439 L587 205 L275 205 L275 439 ZM582 167 Q554 110 516 40 Q620 49 631 51 L630 -21 L212 -61 L206 11 L428 31 Q471 110 513 202 L582 167 ZM617 509 L252 509 L252 587 L617 587 L617 509 ZM345 371 L345 273 L516 273 L516 371 L345 371 ZM708 125 Q630 290 611 328 L677 355 L775 157 L708 125 ZM349 30 Q320 97 280 170 L342 199 L413 65 L349 30 Z" /><glyph glyph-name="uni53C8" unicode="&#x53c8;" d="M835 739 L835 652 Q735 338 572 183 Q712 76 960 -12 L925 -106 Q649 1 500 121 Q356 12 78 -97 L34 -9 Q294 94 427 188 Q283 336 185 624 L269 652 L107 652 L107 739 L835 739 ZM269 652 Q368 377 501 246 Q646 376 739 652 L269 652 Z" /><glyph glyph-name="uni53CA" unicode="&#x53ca;" d="M201 -31 Q411 47 535 138 Q403 260 333 420 Q302 144 107 -94 L33 -42 Q147 89 196 207 Q245 327 255 498 L259 575 Q261 636 263 663 L99 663 L99 746 L782 746 L782 662 L666 497 L863 497 L863 417 Q784 247 667 137 Q784 52 964 -19 L913 -102 Q721 -14 601 81 Q467 -21 246 -109 L201 -31 ZM345 607 Q423 348 600 191 Q699 283 767 417 L556 417 L556 488 L675 663 L348 663 L345 607 Z" /><glyph glyph-name="uni53CB" unicode="&#x53cb;" d="M421 798 Q416 734 409 674 L953 674 L953 590 L396 590 Q383 511 372 469 L847 469 L847 389 Q773 224 650 117 Q773 36 961 -20 L923 -108 Q707 -32 579 62 Q451 -26 228 -111 L182 -27 Q382 40 509 121 Q407 215 340 356 Q257 102 87 -86 L18 -19 Q240 220 302 590 L66 590 L66 674 L314 674 Q322 731 327 802 L421 798 ZM414 389 Q483 254 579 171 Q692 261 755 389 L414 389 Z" /><glyph glyph-name="uni53CC" unicode="&#x53cc;" d="M897 734 L897 649 Q846 361 732 198 Q816 87 976 -30 L918 -104 Q763 16 677 127 Q581 16 392 -114 L334 -40 Q529 84 626 199 Q519 365 480 631 L562 645 Q599 416 681 274 Q768 414 810 649 L475 649 L475 734 L897 734 ZM300 190 Q226 64 92 -85 L30 -15 Q170 135 247 279 Q163 418 77 551 L145 594 Q210 495 289 369 Q339 488 364 648 L63 648 L63 734 L450 734 L450 648 Q416 425 346 278 L453 104 L382 52 L300 190 Z" /><glyph glyph-name="uni53CD" unicode="&#x53cd;" d="M925 -109 Q719 -36 584 60 Q458 -27 231 -110 L181 -25 Q386 40 510 120 Q388 230 299 398 L341 425 L259 425 Q258 227 230 122 Q202 17 116 -109 L33 -58 Q121 64 147 158 Q172 251 172 446 L172 706 Q535 717 885 768 L901 682 Q604 642 259 624 L259 511 L865 511 L865 425 Q782 231 657 118 Q788 32 968 -19 L925 -109 ZM379 425 Q461 275 583 173 Q701 272 763 425 L379 425 Z" /><glyph glyph-name="uni53D1" unicode="&#x53d1;" d="M916 -115 Q699 -48 565 45 Q441 -32 206 -108 L169 -25 Q376 36 493 101 Q406 178 345 283 Q262 108 81 -72 L19 -2 Q256 221 338 528 L104 528 L104 599 Q132 682 152 783 L236 765 Q209 648 195 606 L357 606 Q373 679 387 797 L475 791 Q464 700 446 606 L937 606 L937 528 L430 528 Q414 464 397 413 L828 413 L828 334 Q747 186 643 100 Q764 26 952 -27 L916 -115 ZM413 333 Q476 225 570 150 Q671 225 728 333 L413 333 ZM781 634 Q686 691 602 737 L645 807 Q736 758 823 706 L781 634 Z" /><glyph glyph-name="uni53D6" unicode="&#x53d6;" d="M553 93 Q522 89 463 79 L463 -102 L383 -102 L383 66 Q195 36 46 9 L39 92 Q63 94 128 105 L128 678 L67 678 L67 756 L525 756 L525 678 L463 678 L463 161 L549 177 L553 93 ZM917 -84 Q788 23 720 114 Q649 20 520 -88 L465 -20 Q599 84 671 185 Q577 345 546 614 L624 624 Q648 405 720 266 Q787 395 826 628 L540 628 L540 711 L911 711 L911 628 Q863 343 769 187 Q842 85 973 -14 L917 -84 ZM383 147 L383 266 L210 266 L210 118 L383 147 ZM210 678 L210 545 L383 545 L383 678 L210 678 ZM210 470 L210 341 L383 341 L383 470 L210 470 Z" /><glyph glyph-name="uni53D7" unicode="&#x53d7;" d="M88 506 L254 506 Q222 561 178 630 L236 660 L113 656 L103 731 Q554 744 868 777 L886 700 Q761 690 767 690 L836 660 Q793 583 739 506 L911 506 L911 306 L835 306 L835 433 L165 433 L165 306 L88 306 L88 506 ZM798 331 L798 257 Q708 144 588 72 Q731 15 956 -18 L928 -100 Q658 -52 499 25 Q346 -48 71 -105 L43 -23 Q274 19 411 75 Q307 143 230 244 L246 257 L199 257 L199 331 L798 331 ZM528 506 L698 506 L659 527 Q726 622 763 690 Q634 680 502 673 L582 532 L528 506 ZM322 257 Q392 172 496 114 Q601 170 677 257 L322 257 ZM287 506 L504 506 Q470 573 427 643 L486 672 L250 661 Q292 599 335 529 L287 506 Z" /><glyph glyph-name="uni53D8" unicode="&#x53d8;" d="M808 327 L808 255 Q719 133 594 60 Q729 10 958 -29 L930 -112 Q661 -59 502 13 Q347 -56 70 -114 L42 -36 Q266 4 411 62 Q295 133 217 244 L233 253 L127 253 L127 327 L808 327 ZM570 364 L570 616 L433 616 L433 364 L353 364 L353 616 L70 616 L70 692 L472 692 Q455 728 421 785 L507 819 Q544 751 566 702 L537 692 L932 692 L932 616 L650 616 L650 364 L570 364 ZM314 253 Q394 158 500 102 Q624 168 693 253 L314 253 ZM312 521 Q213 411 82 322 L36 388 Q165 474 258 573 L312 521 ZM918 338 Q798 437 691 514 L741 573 Q800 531 966 405 L918 338 Z" /><glyph glyph-name="uni53E0" unicode="&#x53e0;" d="M941 -80 L50 -80 L50 -18 L187 -18 L187 253 L804 253 L804 -18 L941 -18 L941 -80 ZM496 616 Q325 582 117 561 L104 613 Q210 620 348 639 L170 667 L182 713 L502 665 Q609 686 713 718 L135 718 L135 772 L845 772 L845 716 Q739 676 627 646 L857 609 L847 558 L496 616 ZM298 410 Q204 376 80 350 L58 400 Q133 414 213 435 L113 465 L128 505 L90 505 L90 557 L492 557 L492 507 Q449 473 376 441 Q436 424 480 409 L461 359 L298 410 ZM920 350 Q880 362 702 412 Q615 381 522 363 L500 409 Q561 422 612 436 L516 461 L529 505 L518 505 L518 557 L902 557 L902 505 Q851 470 783 442 L933 402 L920 350 ZM82 203 L82 348 L909 348 L909 203 L836 203 L836 293 L155 293 L155 203 L82 203 ZM261 24 L261 -18 L731 -18 L731 24 L261 24 ZM261 200 L261 160 L731 160 L731 200 L261 200 ZM261 110 L261 72 L731 72 L731 110 L261 110 ZM540 505 Q597 492 705 463 Q764 483 806 505 L540 505 ZM153 505 L303 462 Q351 479 396 505 L153 505 Z" /><glyph glyph-name="uni53E3" unicode="&#x53e3;" d="M138 -86 L138 708 L862 708 L862 -81 L773 -81 L773 4 L227 4 L227 -86 L138 -86 ZM227 618 L227 94 L773 94 L773 618 L227 618 Z" /><glyph glyph-name="uni53E4" unicode="&#x53e4;" d="M172 -103 L172 368 L456 368 L456 553 L58 553 L58 636 L456 636 L456 794 L545 794 L545 636 L943 636 L943 553 L545 553 L545 368 L828 368 L828 -103 L742 -103 L742 -40 L258 -40 L258 -103 L172 -103 ZM258 284 L258 44 L742 44 L742 284 L258 284 Z" /><glyph glyph-name="uni53E6" unicode="&#x53e6;" d="M648 2 Q716 2 738 19 Q758 35 763 87 Q772 173 775 231 L421 231 Q401 118 333 46 Q260 -32 89 -110 L44 -35 Q196 32 259 91 Q317 145 335 231 L59 231 L59 311 L347 311 Q347 319 348 323 Q354 385 355 423 L157 423 L157 757 L844 757 L844 423 L439 423 L432 316 Q432 313 431 311 L866 311 Q859 190 845 50 Q838 -23 800 -52 Q761 -82 670 -82 L503 -82 L487 2 L648 2 ZM243 677 L243 503 L758 503 L758 677 L243 677 Z" /><glyph glyph-name="uni53EF" unicode="&#x53ef;" d="M158 47 L158 521 L577 521 L577 123 L240 123 L240 47 L158 47 ZM959 659 L827 659 L827 53 Q827 -31 796 -58 Q765 -86 670 -86 L534 -86 L518 -3 L651 -3 Q708 -3 725 11 Q742 26 742 76 L742 659 L45 659 L45 741 L959 741 L959 659 ZM240 441 L240 203 L495 203 L495 441 L240 441 Z" /><glyph glyph-name="uni53F0" unicode="&#x53f0;" d="M162 -101 L162 314 L836 314 L836 -101 L749 -101 L749 -51 L249 -51 L249 -101 L162 -101 ZM866 374 L838 404 Q819 426 806 439 Q246 423 94 410 L72 495 Q132 505 149 518 Q308 637 431 815 L507 771 Q375 596 260 505 L729 520 Q703 547 592 658 L652 711 Q825 541 928 428 L866 374 ZM249 231 L249 32 L749 32 L749 231 L249 231 Z" /><glyph glyph-name="uni53F2" unicode="&#x53f2;" d="M123 665 L460 665 L460 796 L545 796 L545 665 L878 665 L878 303 L545 303 Q545 164 492 88 Q646 13 949 -6 L929 -93 Q597 -65 429 25 Q330 -47 78 -110 L46 -26 Q257 16 351 74 Q264 136 174 246 L243 300 Q333 189 416 133 Q460 191 460 303 L123 303 L123 665 ZM209 585 L209 385 L460 385 L460 585 L209 585 ZM793 585 L545 585 L545 385 L793 385 L793 585 Z" /><glyph glyph-name="uni53F3" unicode="&#x53f3;" d="M547 785 Q531 727 508 668 L949 668 L949 583 L472 583 Q420 476 352 389 L860 389 L860 -92 L772 -92 L772 -29 L333 -29 L333 -92 L246 -92 L246 265 Q171 189 72 109 L28 198 Q251 355 368 583 L67 583 L67 668 L406 668 Q431 731 449 799 L547 785 ZM333 303 L333 56 L772 56 L772 303 L333 303 Z" /><glyph glyph-name="uni53F7" unicode="&#x53f7;" d="M175 755 L825 755 L825 487 L175 487 L175 755 ZM579 -3 Q652 -3 674 11 Q696 25 700 77 Q709 134 710 165 L187 165 L224 331 L46 331 L46 405 L956 405 L956 331 L321 331 L301 238 L813 238 Q803 102 797 58 Q788 -30 750 -58 Q713 -86 604 -86 L390 -86 L374 -3 L579 -3 ZM266 682 L266 560 L735 560 L735 682 L266 682 Z" /><glyph glyph-name="uni53F8" unicode="&#x53f8;" d="M153 -28 L153 380 L641 380 L641 41 L242 41 L242 -28 L153 -28 ZM716 -4 Q767 -4 783 10 Q799 24 799 69 L799 666 L117 666 L117 750 L887 750 L887 34 Q887 -34 858 -61 Q828 -88 752 -88 L599 -88 L583 -4 L716 -4 ZM242 298 L242 123 L552 123 L552 298 L242 298 ZM738 481 L68 481 L68 561 L738 561 L738 481 Z" /><glyph glyph-name="uni5403" unicode="&#x5403;" d="M646 781 Q622 721 600 675 L944 675 L944 592 L556 592 Q516 524 475 470 L843 470 L843 390 Q537 94 537 42 Q537 13 574 13 L787 13 Q826 13 838 24 Q850 35 852 70 L855 187 L940 169 L933 38 Q928 -24 900 -46 Q871 -69 797 -69 L545 -69 Q499 -69 468 -45 Q436 -19 436 23 Q436 72 491 144 Q548 218 719 388 L473 388 L473 467 L440 426 L376 489 L376 70 L178 70 L178 -7 L96 -7 L96 714 L376 714 L376 495 Q482 618 560 809 L646 781 ZM178 631 L178 154 L296 154 L296 631 L178 631 Z" /><glyph glyph-name="uni5404" unicode="&#x5404;" d="M931 286 Q671 335 505 412 Q318 325 64 272 L32 356 Q235 391 412 461 Q325 514 249 582 Q175 515 102 464 L52 528 Q230 649 339 811 L426 785 Q407 757 381 724 L840 724 L840 649 Q737 540 596 459 Q739 405 958 372 L931 286 ZM178 -96 L178 278 L819 278 L819 -96 L734 -96 L734 -42 L263 -42 L263 -96 L178 -96 ZM263 202 L263 34 L734 34 L734 202 L263 202 ZM309 641 Q399 554 502 501 Q643 570 722 649 L316 649 L309 641 Z" /><glyph glyph-name="uni5408" unicode="&#x5408;" d="M171 -92 L171 305 L825 305 L825 -93 L738 -93 L738 -44 L260 -44 L260 -92 L171 -92 ZM246 419 L246 476 Q161 419 70 376 L31 461 Q328 594 462 799 L538 799 Q675 592 969 462 L926 379 Q831 425 750 479 L750 419 L246 419 ZM260 227 L260 34 L738 34 L738 227 L260 227 ZM500 712 Q417 598 275 497 L724 497 Q586 593 500 712 Z" /><glyph glyph-name="uni540A" unicode="&#x540a;" d="M163 772 L822 772 L822 467 L533 467 L533 356 L883 356 L883 98 Q883 34 856 11 Q827 -13 747 -13 L643 -13 L627 69 L723 69 Q769 69 783 81 Q796 92 796 125 L796 273 L533 273 L533 -83 L451 -83 L451 273 L193 273 L193 -15 L107 -15 L107 356 L451 356 L451 467 L163 467 L163 772 ZM247 697 L247 540 L737 540 L737 697 L247 697 Z" /><glyph glyph-name="uni540C" unicode="&#x540c;" d="M98 -91 L98 745 L891 745 L891 35 Q891 -38 863 -63 Q836 -87 759 -87 L642 -87 L626 -9 L732 -9 Q777 -9 791 4 Q805 17 805 56 L805 667 L183 667 L183 -91 L98 -91 ZM300 383 L688 383 L688 65 L300 65 L300 383 ZM377 310 L377 137 L611 137 L611 310 L377 310 ZM746 483 L243 483 L243 557 L746 557 L746 483 Z" /><glyph glyph-name="uni540D" unicode="&#x540d;" d="M240 224 Q143 190 68 169 L36 245 Q520 378 756 621 L385 621 L332 571 Q415 511 476 465 L417 403 L267 517 Q192 459 134 424 L80 494 Q294 620 438 810 L518 778 Q489 737 457 699 L873 699 L873 621 Q708 434 458 314 L871 314 L871 -94 L787 -94 L787 -41 L324 -41 L324 -94 L240 -94 L240 224 ZM324 236 L324 36 L787 36 L787 236 L324 236 Z" /><glyph glyph-name="uni540E" unicode="&#x540e;" d="M304 -97 L304 305 L853 305 L853 -97 L769 -97 L769 -35 L388 -35 L388 -97 L304 -97 ZM884 690 Q635 656 240 639 L240 513 L938 513 L938 436 L240 436 Q237 123 99 -88 L24 -36 Q107 84 133 188 Q158 285 158 476 L158 719 Q543 726 863 774 L884 690 ZM388 229 L388 42 L769 42 L769 229 L388 229 Z" /><glyph glyph-name="uni5411" unicode="&#x5411;" d="M526 803 Q514 770 474 679 L887 679 L887 29 Q887 -35 860 -57 Q832 -80 757 -80 L634 -80 L618 4 L733 4 Q777 4 789 15 Q800 25 800 59 L800 596 L188 596 L188 -82 L101 -82 L101 679 L367 679 Q406 764 424 819 L526 803 ZM303 469 L684 469 L684 89 L303 89 L303 469 ZM388 387 L388 171 L600 171 L600 387 L388 387 Z" /><glyph glyph-name="uni5415" unicode="&#x5415;" d="M122 -89 L122 314 L866 314 L866 -89 L779 -89 L779 -39 L209 -39 L209 -89 L122 -89 ZM167 762 L821 762 L821 432 L167 432 L167 762 ZM209 231 L209 44 L779 44 L779 231 L209 231 ZM253 684 L253 510 L736 510 L736 684 L253 684 Z" /><glyph glyph-name="uni5426" unicode="&#x5426;" d="M171 -87 L171 299 L831 299 L831 -87 L745 -87 L745 -35 L256 -35 L256 -87 L171 -87 ZM600 668 Q561 625 516 584 L543 584 L543 329 L457 329 L457 534 Q309 419 88 323 L51 408 Q324 515 483 668 L92 668 L92 746 L909 746 L909 668 L600 668 ZM256 219 L256 43 L745 43 L745 219 L256 219 ZM912 335 Q778 413 575 519 L612 590 Q727 535 951 412 L912 335 Z" /><glyph glyph-name="uni5427" unicode="&#x5427;" d="M936 187 L929 48 Q927 -20 895 -47 Q864 -73 788 -73 L541 -73 Q467 -73 437 -42 Q405 -10 405 70 L405 744 L892 744 L892 311 L488 311 L488 90 Q488 41 505 24 Q520 9 567 9 L768 9 Q816 9 833 23 Q850 37 851 78 L854 203 L936 187 ZM86 28 L86 710 L337 710 L337 99 L162 99 L162 28 L86 28 ZM162 630 L162 183 L262 183 L262 630 L162 630 ZM810 662 L686 662 L686 395 L810 395 L810 662 ZM488 662 L488 395 L609 395 L609 662 L488 662 Z" /><glyph glyph-name="uni542B" unicode="&#x542b;" d="M577 295 Q593 310 627 346 L675 395 L199 395 L199 468 L525 468 Q455 546 412 588 L469 639 Q526 586 587 517 L533 468 L785 468 L785 395 L653 263 L834 263 L834 -90 L748 -90 L748 -39 L256 -39 L256 -90 L170 -90 L170 263 L614 263 L577 295 ZM926 454 Q648 563 503 736 Q360 567 76 447 L39 527 Q313 633 465 808 L542 808 Q699 630 962 534 L926 454 ZM256 189 L256 35 L748 35 L748 189 L256 189 Z" /><glyph glyph-name="uni5434" unicode="&#x5434;" d="M542 330 L539 236 L931 236 L931 164 L551 164 Q653 26 957 -14 L929 -101 Q613 -43 498 102 Q415 -23 84 -101 L47 -16 Q374 40 433 164 L67 164 L67 236 L451 236 L454 330 L112 330 L112 401 L887 401 L887 330 L542 330 ZM163 758 L836 758 L836 484 L163 484 L163 758 ZM248 682 L248 560 L751 560 L751 682 L248 682 Z" /><glyph glyph-name="uni5448" unicode="&#x5448;" d="M938 -60 L63 -60 L63 16 L460 16 L460 127 L140 127 L140 203 L460 203 L460 309 L104 309 L104 385 L900 385 L900 309 L544 309 L544 203 L864 203 L864 127 L544 127 L544 16 L938 16 L938 -60 ZM166 749 L837 749 L837 467 L166 467 L166 749 ZM251 673 L251 543 L752 543 L752 673 L251 673 Z" /><glyph glyph-name="uni544E" unicode="&#x544e;" d="M901 -105 Q673 38 605 362 L506 362 Q501 200 465 96 Q433 5 350 -110 L278 -62 Q367 58 396 145 Q429 246 429 427 L429 742 L892 742 L892 362 L689 362 Q742 83 947 -35 L901 -105 ZM90 46 L90 726 L343 726 L343 123 L168 123 L168 46 L90 46 ZM507 664 L507 440 L812 440 L812 664 L507 664 ZM168 646 L168 203 L265 203 L265 646 L168 646 Z" /><glyph glyph-name="uni5458" unicode="&#x5458;" d="M191 759 L811 759 L811 508 L191 508 L191 759 ZM159 102 L159 425 L842 425 L842 107 L756 107 L756 347 L246 347 L246 102 L159 102 ZM550 308 Q545 231 527 158 L525 149 Q757 55 930 -22 L890 -104 Q684 -7 486 76 Q390 -42 89 -106 L61 -23 Q258 15 344 65 Q430 115 446 201 Q455 247 462 308 L550 308 ZM280 684 L280 582 L722 582 L722 684 L280 684 Z" /><glyph glyph-name="uni5468" unicode="&#x5468;" d="M732 -14 Q781 -14 795 -2 Q808 9 808 49 L808 680 L226 680 L226 390 Q226 194 207 101 Q187 6 121 -104 L39 -63 Q105 43 124 131 Q143 220 143 420 L143 755 L891 755 L891 37 Q891 -36 862 -61 Q834 -87 754 -87 L642 -87 L628 -14 L732 -14 ZM321 270 L705 270 L705 15 L321 15 L321 270 ZM770 347 L258 347 L258 416 L474 416 L474 509 L292 509 L292 577 L474 577 L474 658 L554 658 L554 577 L735 577 L735 509 L554 509 L554 416 L770 416 L770 347 ZM399 197 L399 88 L628 88 L628 197 L399 197 Z" /><glyph glyph-name="uni5473" unicode="&#x5473;" d="M892 580 L673 580 L673 423 L934 423 L934 341 L699 341 Q790 177 983 37 L924 -27 Q769 90 673 256 L673 -97 L593 -97 L593 250 Q508 93 344 -35 L284 26 Q482 176 565 341 L371 341 L371 423 L593 423 L593 580 L410 580 L410 662 L593 662 L593 797 L673 797 L673 662 L892 662 L892 580 ZM82 14 L82 694 L346 694 L346 86 L162 86 L162 14 L82 14 ZM162 612 L162 168 L268 168 L268 612 L162 612 Z" /><glyph glyph-name="uni5475" unicode="&#x5475;" d="M94 -12 L94 701 L344 701 L344 66 L168 66 L168 -12 L94 -12 ZM959 651 L877 651 L877 48 Q877 -32 848 -59 Q818 -88 730 -88 L601 -88 L587 -8 L707 -8 Q761 -8 777 6 Q793 21 793 70 L793 651 L387 651 L387 729 L959 729 L959 651 ZM423 528 L693 528 L693 135 L423 135 L423 528 ZM168 624 L168 143 L270 143 L270 624 L168 624 ZM497 454 L497 210 L619 210 L619 454 L497 454 Z" /><glyph glyph-name="uni547D" unicode="&#x547d;" d="M235 467 L235 531 Q151 482 67 442 L29 525 Q308 645 458 805 L540 805 Q693 644 971 524 L932 442 Q834 488 762 532 L762 467 L235 467 ZM129 -43 L129 376 L434 376 L434 19 L209 19 L209 -43 L129 -43 ZM520 -101 L520 380 L875 380 L875 124 Q875 53 848 28 Q821 3 747 3 L662 3 L646 83 L718 83 Q764 83 779 96 Q792 107 792 144 L792 303 L602 303 L602 -101 L520 -101 ZM500 731 Q407 636 260 547 L738 547 Q588 640 500 731 ZM209 299 L209 96 L354 96 L354 299 L209 299 Z" /><glyph glyph-name="uni548C" unicode="&#x548c;" d="M517 -72 L517 706 L904 706 L904 -66 L821 -66 L821 4 L601 4 L601 -72 L517 -72 ZM438 164 Q376 230 311 297 L311 -100 L228 -100 L228 305 Q154 162 74 72 L32 155 Q143 281 221 447 L53 447 L53 530 L228 530 L228 656 Q132 641 74 634 L66 712 Q285 740 447 782 L461 704 Q413 691 311 671 L311 530 L482 530 L482 447 L311 447 L311 351 L339 378 Q432 290 496 223 L438 164 ZM601 618 L601 92 L821 92 L821 618 L601 618 Z" /><glyph glyph-name="uni5496" unicode="&#x5496;" d="M674 -84 L674 691 L911 691 L911 -84 L838 -84 L838 1 L747 1 L747 -84 L674 -84 ZM81 -23 L81 691 L303 691 L303 53 L154 53 L154 -23 L81 -23 ZM464 625 L618 625 L606 29 Q604 -32 580 -54 Q558 -75 497 -75 L431 -75 L417 0 L471 0 Q509 0 521 11 Q533 23 534 61 Q544 491 544 545 L464 545 L464 495 Q459 250 428 127 Q402 25 321 -112 L252 -72 Q330 54 355 155 Q382 265 387 498 Q387 523 388 545 L333 545 L333 625 L389 625 L390 797 L464 797 L464 625 ZM747 609 L747 81 L838 81 L838 609 L747 609 ZM154 611 L154 135 L230 135 L230 611 L154 611 Z" /><glyph glyph-name="uni54AB" unicode="&#x54ab;" d="M946 -77 Q633 -79 486 17 Q328 119 286 376 L224 376 Q223 204 201 114 Q179 25 110 -97 L36 -55 Q108 62 126 145 Q142 222 142 426 L142 751 L479 751 L479 376 L364 376 Q402 149 547 70 Q670 2 960 5 L946 -77 ZM565 741 L888 741 L888 362 L565 362 L565 741 ZM642 664 L642 440 L811 440 L811 664 L642 664 ZM224 669 L224 458 L397 458 L397 669 L224 669 ZM888 71 Q801 211 748 284 L814 326 Q926 161 957 113 L888 71 ZM704 289 Q650 187 565 78 L499 121 Q576 213 635 325 L704 289 Z" /><glyph glyph-name="uni54C1" unicode="&#x54c1;" d="M176 764 L813 764 L813 439 L176 439 L176 764 ZM536 -79 L536 339 L902 339 L902 -79 L822 -79 L822 -24 L618 -24 L618 -79 L536 -79 ZM88 -79 L88 339 L443 339 L443 -79 L363 -79 L363 -24 L170 -24 L170 -79 L88 -79 ZM263 686 L263 517 L727 517 L727 686 L263 686 ZM618 262 L618 54 L822 54 L822 262 L618 262 ZM170 262 L170 54 L363 54 L363 262 L170 262 Z" /><glyph glyph-name="uni54CD" unicode="&#x54cd;" d="M690 803 Q678 758 652 685 L907 685 L907 30 Q907 -33 882 -56 Q857 -78 789 -78 L686 -78 L672 0 L767 0 Q807 0 819 10 Q831 21 831 55 L831 610 L457 610 L457 -82 L380 -82 L380 685 L563 685 Q578 726 604 817 L690 803 ZM81 -2 L81 706 L315 706 L315 74 L154 74 L154 -2 L81 -2 ZM534 491 L752 491 L752 99 L534 99 L534 491 ZM154 629 L154 150 L243 150 L243 629 L154 629 ZM598 419 L598 171 L686 171 L686 419 L598 419 Z" /><glyph glyph-name="uni54E1" unicode="&#x54e1;" d="M165 490 L839 490 L839 86 L165 86 L165 490 ZM206 759 L798 759 L798 551 L206 551 L206 759 ZM290 691 L290 619 L715 619 L715 691 L290 691 ZM427 4 Q280 -63 76 -116 L53 -38 Q234 4 397 77 L427 4 ZM927 -116 Q711 -42 579 -1 L605 72 Q784 20 954 -40 L927 -116 ZM250 316 L250 260 L755 260 L755 316 L250 316 ZM250 146 L755 146 L755 201 L250 201 L250 146 ZM250 430 L250 375 L755 375 L755 430 L250 430 Z" /><glyph glyph-name="uni552F" unicode="&#x552f;" d="M954 -30 L511 -30 L511 -99 L431 -99 L431 440 Q404 394 374 353 L342 379 L342 67 L165 67 L165 -18 L90 -18 L90 693 L342 693 L342 454 Q440 602 490 804 L572 791 Q555 718 527 647 L721 647 Q677 719 643 770 L707 808 Q746 752 799 667 L763 647 L942 647 L942 572 L756 572 L756 449 L922 449 L922 374 L756 374 L756 253 L922 253 L922 179 L756 179 L756 46 L954 46 L954 -30 ZM165 616 L165 144 L266 144 L266 616 L165 616 ZM511 179 L511 46 L678 46 L678 179 L511 179 ZM511 572 L511 449 L678 449 L678 572 L511 572 ZM511 374 L511 253 L678 253 L678 374 L511 374 Z" /><glyph glyph-name="uni5546" unicode="&#x5546;" d="M121 -89 L121 513 L339 513 Q306 557 270 601 L315 628 L55 628 L55 704 L472 704 L431 790 L520 810 Q554 742 571 704 L946 704 L946 628 L673 628 L728 597 Q708 565 666 513 L883 513 L883 31 Q883 -39 855 -64 Q828 -88 755 -88 L637 -88 L623 -14 L733 -14 Q775 -14 790 2 Q805 16 805 54 L805 437 L199 437 L199 -89 L121 -89 ZM456 376 Q411 331 343 274 L664 274 L550 373 L604 426 Q693 360 799 259 L746 201 L686 255 L686 6 L315 6 L315 250 L251 200 L205 259 Q325 346 402 428 L456 376 ZM389 201 L389 79 L612 79 L612 201 L389 201 ZM396 513 L562 513 Q611 571 649 628 L350 628 Q391 577 426 532 L396 513 Z" /><glyph glyph-name="uni5561" unicode="&#x5561;" d="M91 -8 L91 689 L333 689 L333 71 L167 71 L167 -8 L91 -8 ZM691 -99 L691 790 L769 790 L769 645 L940 645 L940 561 L769 561 L769 411 L927 411 L927 327 L769 327 L769 174 L959 174 L959 88 L769 88 L769 -99 L691 -99 ZM512 -96 L512 88 L353 88 L353 174 L512 174 L512 327 L377 327 L377 411 L512 411 L512 560 L375 560 L375 645 L512 645 L512 783 L590 783 L590 -96 L512 -96 ZM167 605 L167 155 L257 155 L257 605 L167 605 Z" /><glyph glyph-name="uni5584" unicode="&#x5584;" d="M749 770 L690 698 L915 698 L915 630 L542 630 L542 568 L880 568 L880 501 L542 501 L542 440 L937 440 L937 372 L772 372 L809 346 Q784 313 753 278 L949 278 L949 209 L48 209 L48 278 L247 278 Q231 299 188 347 L219 372 L61 372 L61 440 L457 440 L457 501 L119 501 L119 568 L457 568 L457 630 L83 630 L83 698 L314 698 L255 767 L319 817 Q390 737 402 721 L374 698 L582 698 Q639 758 680 814 L749 770 ZM157 -99 L157 150 L841 150 L841 -99 L756 -99 L756 -66 L242 -66 L242 -99 L157 -99 ZM242 84 L242 1 L756 1 L756 84 L242 84 ZM659 278 Q705 328 737 372 L542 372 L542 278 L659 278 ZM295 278 L457 278 L457 372 L265 372 Q306 325 324 303 L295 278 Z" /><glyph glyph-name="uni559C" unicode="&#x559c;" d="M725 289 Q716 276 687 238 L957 238 L957 171 L41 171 L41 238 L318 238 Q304 259 280 291 L313 312 L176 312 L176 486 L825 486 L825 312 L688 312 L725 289 ZM167 -104 L167 123 L832 123 L832 -104 L750 -104 L750 -64 L249 -64 L249 -104 L167 -104 ZM889 532 L110 532 L110 596 L458 596 L458 650 L61 650 L61 718 L458 718 L458 798 L542 798 L542 718 L938 718 L938 650 L542 650 L542 596 L889 596 L889 532 ZM249 63 L249 -3 L750 -3 L750 63 L249 63 ZM256 427 L256 371 L743 371 L743 427 L256 427 ZM382 238 L586 238 Q617 276 643 312 L359 312 L404 251 L382 238 Z" /><glyph glyph-name="uni55A7" unicode="&#x55a7;" d="M89 -20 L89 689 L324 689 L324 56 L165 56 L165 -20 L89 -20 ZM411 406 L867 406 L867 79 L411 79 L411 406 ZM366 512 L366 703 L610 703 L578 792 L656 810 Q668 781 695 703 L926 703 L926 512 L862 512 L862 473 L427 473 L427 512 L366 512 ZM948 -64 L319 -64 L319 9 L948 9 L948 -64 ZM165 614 L165 132 L248 132 L248 614 L165 614 ZM440 630 L440 545 L852 545 L852 630 L440 630 ZM485 148 L793 148 L793 209 L485 209 L485 148 ZM485 336 L485 275 L793 275 L793 336 L485 336 Z" /><glyph glyph-name="uni55AE" unicode="&#x55ae;" d="M166 492 L834 492 L834 164 L542 164 L542 95 L950 95 L950 28 L542 28 L542 -102 L457 -102 L457 28 L50 28 L50 95 L457 95 L457 164 L166 164 L166 492 ZM537 760 L875 760 L875 545 L537 545 L537 760 ZM125 760 L458 760 L458 545 L125 545 L125 760 ZM752 428 L542 428 L542 360 L752 360 L752 428 ZM542 228 L752 228 L752 296 L542 296 L542 228 ZM620 694 L620 611 L792 611 L792 694 L620 694 ZM248 296 L248 228 L457 228 L457 296 L248 296 ZM248 428 L248 360 L457 360 L457 428 L248 428 ZM208 694 L208 611 L375 611 L375 694 L208 694 Z" /><glyph glyph-name="uni5609" unicode="&#x5609;" d="M725 335 L688 291 L957 291 L957 231 L42 231 L42 291 L317 291 L275 335 L317 357 L169 357 L169 509 L830 509 L830 357 L687 357 L725 335 ZM889 555 L110 555 L110 615 L456 615 L456 666 L61 666 L61 726 L456 726 L456 799 L544 799 L544 726 L939 726 L939 666 L544 666 L544 615 L889 615 L889 555 ZM560 -93 L560 173 L886 173 L886 -91 L811 -91 L811 -47 L635 -47 L635 -93 L560 -93 ZM293 214 Q294 218 288 172 L497 172 L485 15 Q480 -44 457 -65 Q432 -87 366 -87 L272 -87 L260 -20 L342 -20 Q379 -20 392 -9 Q407 2 409 34 L415 103 L282 103 Q271 31 226 -17 Q184 -63 89 -113 L41 -51 Q123 -10 156 19 Q192 52 204 103 L72 103 L72 172 L212 172 L213 214 L293 214 ZM254 454 L254 409 L745 409 L745 454 L254 454 ZM635 111 L635 14 L811 14 L811 111 L635 111 ZM357 357 L414 291 L586 291 Q619 326 644 357 L357 357 Z" /><glyph glyph-name="uni56A3" unicode="&#x56a3;" d="M164 249 L164 409 L430 409 L454 467 L63 467 L63 529 L938 529 L938 467 L544 467 L520 409 L837 409 L837 250 L757 250 L757 348 L242 348 L242 249 L164 249 ZM544 -95 L544 137 L884 137 L884 -95 L806 -95 L806 -61 L622 -61 L622 -95 L544 -95 ZM118 -95 L118 137 L452 137 L452 -95 L375 -95 L375 -61 L195 -61 L195 -95 L118 -95 ZM547 776 L887 776 L887 573 L547 573 L547 776 ZM115 776 L451 776 L451 573 L115 573 L115 776 ZM555 331 Q545 304 535 288 Q840 222 951 195 L924 129 Q633 203 488 235 Q399 168 70 135 L52 205 Q295 230 375 256 Q443 279 467 335 L555 331 ZM623 716 L623 633 L809 633 L809 716 L623 716 ZM192 716 L192 633 L375 633 L375 716 L192 716 ZM622 76 L622 0 L806 0 L806 76 L622 76 ZM195 76 L195 0 L375 0 L375 76 L195 76 Z" /><glyph glyph-name="uni56B4" unicode="&#x56b4;" d="M528 0 L528 -104 L464 -104 L464 -6 Q251 -31 178 -42 L171 26 L253 34 L253 303 L199 303 L199 361 L435 361 L446 400 L245 400 L245 457 L529 457 L506 361 L578 361 L578 303 L528 303 L528 65 L594 74 L596 8 L528 0 ZM739 465 Q727 427 710 385 L933 385 L933 321 L871 321 Q843 176 786 85 Q851 18 949 -32 L906 -100 Q809 -39 745 28 Q688 -37 580 -105 L538 -46 Q647 23 699 84 Q651 149 624 225 Q613 209 589 179 L546 231 Q628 337 670 477 L739 465 ZM944 490 L188 490 L188 283 Q188 56 107 -110 L35 -75 Q113 67 113 277 L113 556 L944 556 L944 490 ZM549 763 L881 763 L881 593 L549 593 L549 763 ZM150 763 L474 763 L474 593 L150 593 L150 763 ZM671 301 Q693 210 740 141 Q781 212 801 321 L681 321 L671 301 ZM625 705 L625 651 L805 651 L805 705 L625 705 ZM225 705 L225 651 L398 651 L398 705 L225 705 ZM464 58 L464 99 L319 99 L319 41 L464 58 ZM319 303 L319 257 L464 257 L464 303 L319 303 ZM319 200 L319 156 L464 156 L464 200 L319 200 Z" /><glyph glyph-name="uni56DB" unicode="&#x56db;" d="M106 -93 L106 720 L894 720 L894 -93 L808 -93 L808 -21 L191 -21 L191 -93 L106 -93 ZM199 223 Q290 293 318 348 Q344 402 344 515 L344 638 L191 638 L191 63 L808 63 L808 221 L699 221 Q626 221 596 247 Q564 275 564 345 L564 638 L428 638 L428 512 Q428 383 394 314 Q362 249 263 167 L199 223 ZM648 375 Q648 332 662 318 Q677 304 723 304 L808 304 L808 638 L648 638 L648 375 Z" /><glyph glyph-name="uni56DE" unicode="&#x56de;" d="M95 -92 L95 753 L892 753 L892 -92 L805 -92 L805 -33 L183 -33 L183 -92 L95 -92 ZM183 666 L183 53 L805 53 L805 666 L183 666 ZM305 541 L682 541 L682 178 L305 178 L305 541 ZM381 465 L381 254 L606 254 L606 465 L381 465 Z" /><glyph glyph-name="uni56E0" unicode="&#x56e0;" d="M104 -100 L104 753 L897 753 L897 -100 L810 -100 L810 -47 L191 -47 L191 -100 L104 -100 ZM191 669 L191 37 L810 37 L810 669 L191 669 ZM543 642 Q543 591 538 506 L760 506 L760 424 L530 424 L527 396 Q525 380 523 374 Q621 282 761 145 L702 79 Q624 160 495 289 Q440 179 273 76 L225 149 Q338 212 386 270 Q439 332 448 424 L239 424 L239 506 L454 506 Q458 579 458 642 L543 642 Z" /><glyph glyph-name="uni56E2" unicode="&#x56e2;" d="M97 -104 L97 758 L903 758 L903 -104 L816 -104 L816 -54 L185 -54 L185 -104 L97 -104 ZM185 674 L185 30 L816 30 L816 674 L185 674 ZM506 154 Q550 154 562 165 Q575 176 575 215 L575 418 Q455 250 251 128 L200 197 Q404 309 515 465 L231 465 L231 545 L575 545 L575 647 L657 647 L657 545 L775 545 L775 465 L657 465 L657 186 Q657 122 627 98 Q597 74 520 74 L416 74 L400 154 L506 154 Z" /><glyph glyph-name="uni56ED" unicode="&#x56ed;" d="M95 -101 L95 758 L907 758 L907 -101 L820 -101 L820 -52 L182 -52 L182 -101 L95 -101 ZM182 680 L182 28 L820 28 L820 680 L182 680 ZM772 176 Q771 128 749 108 Q727 89 675 89 L612 89 Q567 89 548 109 Q529 129 529 181 L529 347 L424 347 Q420 231 380 166 Q345 110 253 49 L203 117 Q286 163 315 210 Q345 257 348 347 L221 347 L221 417 L780 417 L780 347 L602 347 L602 194 Q602 171 610 164 Q617 157 640 157 L661 157 Q689 157 696 165 Q703 172 705 202 Q707 226 707 281 L775 272 L772 176 ZM733 514 L268 514 L268 585 L733 585 L733 514 Z" /><glyph glyph-name="uni56F4" unicode="&#x56f4;" d="M103 -104 L103 755 L899 755 L899 -104 L815 -104 L815 -55 L188 -55 L188 -104 L103 -104 ZM188 678 L188 22 L815 22 L815 678 L188 678 ZM426 44 L426 242 L229 242 L229 308 L426 308 L426 382 L264 382 L264 446 L426 446 L426 519 L236 519 L236 586 L426 586 L426 661 L504 661 L504 586 L760 586 L760 519 L504 519 L504 446 L735 446 L735 382 L504 382 L504 308 L744 308 Q741 235 735 174 Q730 124 706 104 Q681 84 625 84 L539 84 L528 150 L597 150 Q634 150 646 156 Q659 163 661 182 L667 242 L504 242 L504 44 L426 44 Z" /><glyph glyph-name="uni56FD" unicode="&#x56fd;" d="M98 -102 L98 757 L906 757 L906 -103 L819 -103 L819 -51 L184 -51 L184 -102 L98 -102 ZM184 680 L184 27 L819 27 L819 680 L184 680 ZM779 110 L222 110 L222 183 L455 183 L455 336 L261 336 L261 408 L455 408 L455 524 L247 524 L247 596 L755 596 L755 524 L537 524 L537 408 L744 408 L744 336 L641 336 Q689 280 730 228 L676 186 Q641 235 587 299 L637 336 L537 336 L537 183 L779 183 L779 110 Z" /><glyph glyph-name="uni56FE" unicode="&#x56fe;" d="M99 -106 L99 754 L900 754 L900 -106 L822 -106 L822 -54 L177 -54 L177 -106 L99 -106 ZM177 681 L177 19 L822 19 L822 681 L177 681 ZM787 266 Q610 311 500 367 Q443 338 363 308 L647 249 L638 188 Q431 233 346 250 L354 305 Q291 283 213 260 L186 324 Q332 363 432 406 Q379 440 326 493 Q281 448 237 415 L197 465 Q312 556 386 678 L450 653 Q424 611 409 590 L732 590 L732 531 Q652 455 567 403 Q653 368 814 334 L787 266 ZM682 44 Q377 107 272 126 L281 187 Q471 151 693 105 L682 44 ZM372 531 Q424 477 497 437 Q578 480 631 531 L372 531 Z" /><glyph glyph-name="uni5708" unicode="&#x5708;" d="M94 -102 L94 760 L908 760 L908 -102 L826 -102 L826 -66 L177 -66 L177 -102 L94 -102 ZM738 628 Q704 589 654 543 L772 543 L772 483 L497 483 Q489 461 474 433 L794 433 L794 372 L653 372 Q714 305 826 262 L826 688 L177 688 L177 6 L826 6 L826 255 L797 202 Q721 236 652 290 L648 225 Q644 187 625 172 Q605 157 554 157 L453 157 L444 213 L538 213 Q565 213 573 218 Q583 223 584 239 L585 260 L385 260 L385 158 Q385 130 396 121 Q406 112 436 112 L603 112 Q640 112 651 121 Q662 130 664 160 L667 205 L738 192 L733 131 Q728 81 707 65 Q686 48 626 48 L406 48 Q354 48 334 67 Q313 86 313 135 L313 253 Q257 212 211 186 L181 252 Q285 308 345 372 L206 372 L206 433 L393 433 Q410 459 420 483 L227 483 L227 543 L350 543 L264 630 L309 671 Q337 646 407 576 L372 543 L443 543 Q463 609 476 683 L546 674 Q536 617 515 543 L623 543 L593 573 Q644 618 692 670 L738 628 ZM619 319 Q590 347 570 372 L435 372 Q422 354 389 319 L619 319 Z" /><glyph glyph-name="uni570B" unicode="&#x570b;" d="M99 -99 L99 762 L904 762 L904 -98 L824 -98 L824 -57 L179 -57 L179 -99 L99 -99 ZM179 690 L179 15 L824 15 L824 690 L179 690 ZM808 235 Q793 157 779 113 Q757 36 697 36 Q650 36 614 94 Q598 122 593 133 Q538 76 466 28 L423 87 Q460 109 499 140 Q363 123 216 99 L209 165 Q331 176 509 204 L515 153 Q551 185 566 202 Q542 280 531 402 L521 511 L211 511 L211 572 L517 572 L511 669 L580 672 Q584 607 587 572 L690 572 Q667 594 619 636 L663 680 Q707 645 754 602 L726 572 L790 572 L790 511 L591 511 L597 425 Q604 337 619 269 Q673 349 715 483 L775 461 Q723 296 642 190 Q651 168 661 149 Q677 117 697 117 Q719 117 728 164 L747 255 L808 235 ZM248 457 L484 457 L484 241 L248 241 L248 457 ZM312 395 L312 301 L420 301 L420 395 L312 395 Z" /><glyph glyph-name="uni570D" unicode="&#x570d;" d="M103 -99 L103 758 L899 758 L899 -99 L819 -99 L819 -59 L183 -59 L183 -99 L103 -99 ZM183 688 L183 11 L819 11 L819 688 L183 688 ZM282 431 L722 431 L722 286 L551 286 L551 253 L773 253 L773 199 L551 199 L551 138 L776 138 L776 84 L551 84 L551 26 L483 26 L483 84 L254 84 L254 137 L284 190 L346 182 L323 138 L483 138 L483 199 L228 199 L228 253 L483 253 L483 286 L282 286 L282 431 ZM780 463 L223 463 L223 517 L357 517 L373 569 L266 569 L266 625 L390 625 L406 678 L475 666 L462 625 L693 625 L693 517 L780 517 L780 463 ZM354 377 L354 340 L649 340 L649 377 L354 377 ZM445 569 L429 517 L624 517 L624 569 L445 569 Z" /><glyph glyph-name="uni5712" unicode="&#x5712;" d="M100 -105 L100 757 L903 757 L903 -105 L819 -105 L819 -61 L185 -61 L185 -105 L100 -105 ZM185 682 L185 14 L819 14 L819 682 L185 682 ZM778 216 Q762 204 667 141 L793 81 L764 28 L524 143 L524 38 L454 38 L454 188 Q353 104 230 51 L196 111 Q319 158 420 244 L281 244 L281 401 L722 401 L722 252 L738 265 L778 216 ZM748 548 L540 548 L540 500 L786 500 L786 434 L220 434 L220 500 L462 500 L462 548 L255 548 L255 612 L462 612 L462 663 L540 663 L540 612 L748 612 L748 548 ZM352 347 L352 298 L650 298 L650 347 L352 347 ZM603 171 Q666 209 712 244 L524 244 L524 197 L528 205 L603 171 Z" /><glyph glyph-name="uni5716" unicode="&#x5716;" d="M101 -95 L101 756 L896 756 L896 -95 L820 -95 L820 -52 L177 -52 L177 -95 L101 -95 ZM177 684 L177 20 L820 20 L820 684 L177 684 ZM283 646 L717 646 L717 502 L536 502 L536 465 L800 465 L800 401 L536 401 L536 363 L745 363 L745 60 L254 60 L254 363 L465 363 L465 401 L199 401 L199 465 L465 465 L465 502 L283 502 L283 646 ZM326 303 L326 120 L673 120 L673 303 L326 303 ZM389 273 L613 273 L613 150 L389 150 L389 273 ZM354 595 L354 553 L645 553 L645 595 L354 595 ZM442 232 L442 192 L561 192 L561 232 L442 232 Z" /><glyph glyph-name="uni5718" unicode="&#x5718;" d="M100 -102 L100 758 L899 758 L899 -102 L824 -102 L824 -60 L175 -60 L175 -102 L100 -102 ZM175 690 L175 4 L824 4 L824 690 L175 690 ZM247 538 L465 538 L465 572 L214 572 L214 625 L465 625 L465 674 L533 674 L533 625 L786 625 L786 572 L533 572 L533 538 L751 538 L751 342 L705 342 L804 264 L760 220 L720 255 L208 243 L206 297 Q290 297 465 300 L465 342 L247 342 L247 538 ZM680 243 L680 207 L788 207 L788 153 L680 153 L680 108 Q680 60 661 43 Q642 26 587 26 L494 26 L484 81 L566 81 Q599 81 609 89 Q618 97 618 122 L618 153 L350 153 Q379 139 460 97 L434 47 Q367 86 292 124 L306 153 L212 153 L212 207 L618 207 L618 243 L680 243 ZM689 492 L533 492 L533 461 L689 461 L689 492 ZM533 388 L689 388 L689 419 L533 419 L533 388 ZM311 492 L311 461 L465 461 L465 492 L311 492 ZM311 419 L311 388 L465 388 L465 419 L311 419 ZM533 301 L660 304 L640 320 L663 342 L533 342 L533 301 Z" /><glyph glyph-name="uni5728" unicode="&#x5728;" d="M475 792 Q457 735 436 684 L935 684 L935 602 L401 602 Q346 482 270 380 L270 -98 L185 -98 L185 279 Q130 221 73 171 L21 244 Q195 387 304 602 L50 602 L50 684 L343 684 Q367 741 390 812 L475 792 ZM896 294 L659 294 L659 46 L934 46 L934 -36 L300 -36 L300 46 L575 46 L575 294 L344 294 L344 374 L575 374 L575 536 L659 536 L659 374 L896 374 L896 294 Z" /><glyph glyph-name="uni5730" unicode="&#x5730;" d="M372 95 Q275 63 57 -23 L35 53 Q55 58 166 99 L166 446 L50 446 L50 526 L166 526 L166 777 L246 777 L246 526 L347 526 L347 453 L401 471 L401 709 L483 709 L483 498 L600 536 L600 795 L680 795 L680 562 L895 633 L883 274 Q881 215 859 195 Q835 173 771 173 L714 173 L698 255 L733 255 Q775 255 788 265 Q801 275 802 310 Q800 291 810 523 L680 480 L680 93 L600 93 L600 453 L483 414 L483 86 Q483 36 494 21 Q507 5 551 5 L768 5 Q829 5 847 19 Q863 32 865 75 Q868 108 870 179 L953 163 Q953 106 947 34 Q943 -29 912 -51 Q882 -73 802 -73 L540 -73 Q462 -73 433 -48 Q401 -22 401 51 L401 387 L317 359 L296 437 L323 446 L246 446 L246 128 Q356 169 360 171 L372 95 Z" /><glyph glyph-name="uni573A" unicode="&#x573a;" d="M709 12 Q760 12 778 26 Q796 41 800 85 Q811 210 822 391 L725 391 Q700 220 641 110 Q580 -2 456 -103 L387 -52 Q505 41 562 139 Q618 234 649 391 L546 391 Q488 153 285 -3 L224 49 Q277 89 325 138 Q110 67 53 45 L35 127 Q57 132 164 166 L164 485 L53 485 L53 565 L164 565 L164 801 L248 801 L248 565 L358 565 L358 485 L248 485 L248 193 Q326 218 339 223 L345 160 Q430 258 469 391 L351 391 L351 460 L698 664 L390 664 L390 744 L850 744 L850 661 L513 467 L907 467 Q894 204 882 57 Q877 -17 844 -44 Q811 -70 727 -70 L619 -70 L605 12 L709 12 Z" /><glyph glyph-name="uni5740" unicode="&#x5740;" d="M921 427 L728 427 L728 37 L954 37 L954 -49 L279 -49 L279 37 L415 37 L415 615 L502 615 L502 37 L640 37 L640 799 L728 799 L728 512 L921 512 L921 427 ZM368 465 L254 465 L254 149 L364 185 L378 104 Q156 27 48 1 L32 83 Q45 85 168 123 L168 465 L56 465 L56 553 L168 553 L168 792 L254 792 L254 553 L368 553 L368 465 Z" /><glyph glyph-name="uni5747" unicode="&#x5747;" d="M704 6 Q768 6 789 22 Q812 39 813 91 Q831 408 826 580 L538 580 Q495 494 454 434 L381 475 Q475 619 535 804 L620 783 Q601 721 577 666 L916 666 L898 51 Q896 -24 862 -52 Q828 -81 738 -81 L605 -81 L586 6 L704 6 ZM394 119 Q220 58 67 -2 L46 84 Q93 99 188 133 L188 455 L69 455 L69 542 L188 542 L188 785 L276 785 L276 542 L378 542 L378 455 L276 455 L276 164 L383 203 L394 119 ZM806 258 Q601 162 432 73 L403 156 Q566 219 781 340 L806 258 ZM627 316 Q574 367 483 452 L533 509 Q612 444 684 373 L627 316 Z" /><glyph glyph-name="uni574A" unicode="&#x574a;" d="M666 15 Q723 15 744 31 Q764 47 768 94 Q782 220 782 350 L561 350 Q530 70 342 -109 L271 -50 Q403 80 439 172 Q474 259 484 470 L489 579 L359 579 L359 665 L627 665 L569 790 L654 811 L722 665 L955 665 L955 579 L575 579 Q574 529 570 459 Q569 451 569 436 L874 436 Q854 41 856 66 Q851 -17 818 -44 Q786 -71 698 -71 L583 -71 L567 15 L666 15 ZM389 461 L265 461 L265 190 L393 226 L405 137 Q335 120 50 37 L36 129 Q101 145 180 167 L180 461 L53 461 L53 549 L180 549 L180 794 L265 794 L265 549 L389 549 L389 461 Z" /><glyph glyph-name="uni5750" unicode="&#x5750;" d="M864 173 L543 173 L543 15 L940 15 L940 -65 L60 -65 L60 15 L457 15 L457 173 L136 173 L136 251 L457 251 L457 789 L543 789 L543 251 L864 251 L864 173 ZM376 323 Q343 372 248 493 Q199 392 116 290 L50 345 Q193 517 232 725 L317 712 Q302 635 280 572 Q366 477 442 376 L376 323 ZM887 311 Q792 428 735 495 Q692 407 624 322 L563 376 Q684 532 725 726 L808 712 Q790 636 768 573 Q873 458 951 369 L887 311 Z" /><glyph glyph-name="uni575A" unicode="&#x575a;" d="M863 147 L541 147 L541 16 L946 16 L946 -61 L56 -61 L56 16 L461 16 L461 147 L138 147 L138 224 L461 224 L461 307 L541 307 L541 224 L863 224 L863 147 ZM888 743 L888 667 Q833 545 725 458 Q818 403 959 373 L925 296 Q756 341 657 411 Q568 355 438 310 L403 382 Q514 417 592 464 Q527 527 463 624 L524 663 Q587 566 656 507 Q741 570 796 667 L431 667 L431 743 L888 743 ZM307 290 L307 788 L383 788 L383 290 L307 290 ZM115 318 L115 746 L191 746 L191 318 L115 318 Z" /><glyph glyph-name="uni5782" unicode="&#x5782;" d="M924 500 L778 500 L778 384 L955 384 L955 309 L778 309 L778 190 L924 190 L924 118 L541 118 L541 7 L891 7 L891 -65 L108 -65 L108 7 L458 7 L458 118 L76 118 L76 190 L222 190 L222 309 L44 309 L44 384 L222 384 L222 500 L76 500 L76 573 L458 573 L458 666 Q262 655 122 652 L114 724 Q485 732 854 767 L868 694 Q719 680 541 670 L541 573 L924 573 L924 500 ZM304 309 L304 190 L458 190 L458 309 L304 309 ZM541 309 L541 190 L695 190 L695 309 L541 309 ZM304 500 L304 384 L458 384 L458 500 L304 500 ZM541 500 L541 384 L695 384 L695 500 L541 500 Z" /><glyph glyph-name="uni578B" unicode="&#x578b;" d="M396 448 L262 448 Q249 317 134 210 L67 258 Q168 355 181 448 L58 448 L58 522 L186 522 L186 669 L84 669 L84 744 L578 744 L578 669 L476 669 L476 522 L599 522 L599 448 L476 448 L476 268 L396 268 L396 448 ZM948 -72 L54 -72 L54 5 L463 5 L463 120 L151 120 L151 195 L463 195 L463 259 L548 259 L548 195 L853 195 L853 120 L548 120 L548 5 L948 5 L948 -72 ZM890 382 Q890 318 864 294 Q837 269 763 269 L673 269 L659 344 L738 344 Q779 344 793 356 Q808 368 808 403 L808 780 L890 780 L890 382 ZM624 381 L624 728 L704 728 L704 381 L624 381 ZM266 522 L396 522 L396 669 L266 669 L266 522 Z" /><glyph glyph-name="uni57AB" unicode="&#x57ab;" d="M852 109 L540 109 L540 -4 L938 -4 L938 -79 L60 -79 L60 -4 L458 -4 L458 109 L146 109 L146 184 L458 184 L458 268 L415 236 L359 295 Q470 364 508 424 Q450 456 413 474 L445 538 L536 491 Q547 533 550 600 L455 600 L455 675 L551 675 L551 791 L628 791 L628 675 L825 675 L825 542 Q825 444 837 380 Q846 339 862 339 Q877 339 889 380 Q897 408 907 464 L966 442 Q953 373 939 332 Q915 249 862 249 Q796 249 770 353 Q753 423 753 539 L753 600 L627 600 Q626 517 606 455 L724 392 L687 322 L574 387 Q538 331 466 274 L540 274 L540 184 L852 184 L852 109 ZM424 602 L297 602 L297 517 L398 534 L400 461 Q365 456 297 445 L297 343 Q297 282 278 262 Q258 241 195 241 L81 241 L68 314 L163 314 Q200 314 210 323 Q219 332 219 364 L219 432 Q117 416 57 405 L52 481 Q133 492 219 505 L219 602 L66 602 L66 676 L219 676 L219 791 L297 791 L297 676 L424 676 L424 602 Z" /><glyph glyph-name="uni57CE" unicode="&#x57ce;" d="M968 160 Q962 98 950 35 Q926 -91 855 -91 Q793 -91 745 11 Q733 36 720 72 Q659 -10 569 -93 L512 -39 Q625 60 693 162 Q650 329 628 563 L421 563 L421 427 L597 427 Q592 227 586 118 Q584 59 560 34 Q534 9 471 9 L422 9 L406 91 L449 91 Q490 91 502 103 Q513 115 515 156 Q523 231 523 347 L421 347 Q418 86 288 -106 L212 -70 Q291 39 316 133 Q339 219 339 391 L339 641 L622 641 L611 802 L693 802 L700 641 L939 641 L939 563 L705 563 Q720 380 747 253 Q800 356 837 491 L908 472 Q848 272 773 150 Q791 92 807 54 Q830 2 855 2 Q873 2 885 74 Q893 110 900 180 L968 160 ZM219 471 L219 175 L299 202 L305 119 Q182 86 42 33 L29 117 Q77 129 141 149 L141 471 L44 471 L44 549 L141 549 L141 788 L219 788 L219 549 L309 549 L309 471 L219 471 ZM839 645 Q777 717 737 756 L790 804 Q830 768 895 696 L839 645 Z" /><glyph glyph-name="uni57DF" unicode="&#x57df;" d="M959 151 Q951 81 942 31 Q920 -94 846 -94 Q779 -94 735 10 Q728 25 714 69 Q643 -17 547 -91 L489 -27 Q555 22 591 54 Q413 10 288 -25 L270 59 Q316 68 599 137 L609 70 Q651 110 692 160 Q659 323 648 573 L337 573 L337 648 L645 648 Q644 715 644 801 L724 802 L726 648 L949 648 L949 573 L727 573 Q731 390 753 252 Q807 350 852 502 L923 479 Q865 287 773 149 Q787 92 804 52 Q824 7 846 7 Q864 7 876 77 Q883 120 889 172 L959 151 ZM341 474 L242 474 L242 161 L342 192 L353 108 Q197 72 57 20 L39 103 Q71 111 162 137 L162 474 L58 474 L58 552 L162 552 L162 786 L242 786 L242 552 L341 552 L341 474 ZM359 478 L599 478 L599 193 L359 193 L359 478 ZM429 406 L429 265 L529 265 L529 406 L429 406 ZM866 654 Q817 706 756 764 L802 812 Q851 770 916 705 L866 654 Z" /><glyph glyph-name="uni57FA" unicode="&#x57fa;" d="M928 40 Q724 130 617 272 L380 272 Q281 130 70 32 L33 105 Q201 175 286 272 L48 272 L48 340 L224 340 L224 647 L81 647 L81 714 L224 714 L224 788 L307 788 L307 714 L691 714 L691 788 L774 788 L774 714 L918 714 L918 647 L774 647 L774 340 L952 340 L952 272 L711 272 Q794 178 965 112 L928 40 ZM735 79 L541 79 L541 -8 L910 -8 L910 -78 L87 -78 L87 -8 L458 -8 L458 79 L260 79 L260 147 L458 147 L458 235 L541 235 L541 147 L735 147 L735 79 ZM307 400 L307 340 L691 340 L691 400 L307 400 ZM307 647 L307 588 L691 588 L691 647 L307 647 ZM307 522 L307 464 L691 464 L691 522 L307 522 Z" /><glyph glyph-name="uni5802" unicode="&#x5802;" d="M933 -80 L68 -80 L68 -7 L460 -7 L460 86 L150 86 L150 159 L460 159 L460 243 L203 243 L203 468 L799 468 L799 243 L544 243 L544 159 L852 159 L852 86 L544 86 L544 -7 L933 -7 L933 -80 ZM832 746 Q786 692 721 625 L911 625 L911 415 L828 415 L828 550 L174 550 L174 415 L91 415 L91 625 L282 625 Q205 707 169 740 L226 794 Q299 726 354 665 L312 625 L459 625 L459 798 L543 798 L543 625 L692 625 L648 662 Q700 709 772 792 L832 746 ZM285 399 L285 313 L715 313 L715 399 L285 399 Z" /><glyph glyph-name="uni5805" unicode="&#x5805;" d="M492 259 L97 259 L97 752 L498 752 L498 681 L374 681 L374 608 L490 608 L490 404 L374 404 L374 330 L492 330 L492 259 ZM901 739 L901 659 Q852 512 761 415 Q830 359 958 307 L919 232 Q787 293 707 364 Q640 309 538 256 L496 328 Q582 367 649 422 Q576 506 526 640 L564 659 L517 659 L517 739 L901 739 ZM945 -62 L55 -62 L55 11 L458 11 L458 106 L137 106 L137 178 L458 178 L458 247 L542 247 L542 178 L862 178 L862 106 L542 106 L542 11 L945 11 L945 -62 ZM595 659 Q645 540 703 472 Q780 552 819 659 L595 659 ZM418 544 L173 544 L173 470 L418 470 L418 544 ZM173 404 L173 330 L303 330 L303 404 L173 404 ZM173 681 L173 608 L302 608 L302 681 L173 681 Z" /><glyph glyph-name="uni5821" unicode="&#x5821;" d="M367 767 L867 767 L867 547 L655 547 L655 477 L939 477 L939 409 L709 409 Q815 321 967 280 L932 208 Q769 272 655 376 L655 210 L577 210 L577 374 Q481 275 306 204 L272 271 Q428 321 526 409 L298 409 L298 477 L577 477 L577 547 L367 547 L367 767 ZM867 95 L540 95 L540 -3 L938 -3 L938 -72 L61 -72 L61 -3 L460 -3 L460 95 L132 95 L132 163 L460 163 L460 233 L540 233 L540 163 L867 163 L867 95 ZM165 527 Q122 471 68 419 L25 489 Q161 620 238 813 L310 778 Q279 704 243 643 L243 207 L165 207 L165 527 ZM451 699 L451 615 L782 615 L782 699 L451 699 Z" /><glyph glyph-name="uni5831" unicode="&#x5831;" d="M506 750 L904 750 L897 596 Q895 540 869 519 Q844 498 783 498 L655 498 L641 572 L762 572 Q799 572 809 582 Q818 591 820 625 L824 674 L583 674 L583 430 L917 430 L917 355 Q885 216 800 102 Q862 33 964 -29 L918 -98 Q817 -24 753 45 Q697 -19 613 -84 L583 -48 L583 -103 L506 -103 L506 750 ZM422 428 Q402 382 363 312 L462 312 L462 238 L303 238 L303 138 L480 138 L480 63 L303 63 L303 -100 L223 -100 L223 63 L40 63 L40 138 L223 138 L223 238 L64 238 L64 312 L166 312 Q136 372 104 428 L152 447 L46 447 L46 522 L223 522 L223 622 L79 622 L79 696 L223 696 L223 795 L301 795 L301 696 L449 696 L449 622 L301 622 L301 522 L480 522 L480 447 L367 447 L422 428 ZM707 101 Q633 203 600 341 L645 354 L583 354 L583 -9 Q662 51 707 101 ZM671 354 Q700 241 754 160 Q813 243 840 354 L671 354 ZM278 312 Q325 398 347 447 L176 447 Q194 417 238 336 L183 312 L278 312 Z" /><glyph glyph-name="uni5834" unicode="&#x5834;" d="M724 -5 Q773 -5 789 7 Q805 19 809 55 Q823 147 827 214 L752 214 Q706 24 511 -111 L456 -59 Q561 10 607 65 Q653 122 680 214 L598 214 Q518 49 308 -70 L257 -14 Q447 86 517 214 L428 214 Q389 175 359 150 L353 156 L357 80 Q159 32 51 -4 L38 79 Q66 83 169 110 L169 463 L56 463 L56 543 L169 543 L169 795 L246 795 L246 543 L352 543 L352 463 L246 463 L246 129 Q336 152 351 157 L303 203 Q385 260 442 339 L323 339 L323 409 L958 409 L958 339 L530 339 Q512 310 490 284 L909 284 L886 26 Q880 -34 849 -56 Q819 -78 747 -78 L660 -78 L647 -5 L724 -5 ZM400 758 L866 758 L866 462 L400 462 L400 758 ZM474 697 L474 640 L790 640 L790 697 L474 697 ZM474 523 L790 523 L790 579 L474 579 L474 523 Z" /><glyph glyph-name="uni586B" unicode="&#x586b;" d="M935 652 L667 652 L667 590 L868 590 L868 144 L960 144 L960 83 L328 83 L328 116 L55 7 L32 84 Q51 90 165 134 L165 463 L56 463 L56 545 L165 545 L165 785 L243 785 L243 545 L344 545 L344 463 L243 463 L243 164 L322 197 L335 144 L391 144 L391 590 L587 590 L587 652 L342 652 L342 718 L587 718 L587 798 L667 798 L667 718 L935 718 L935 652 ZM575 15 Q474 -49 314 -112 L280 -44 Q422 3 536 77 L575 15 ZM921 -105 Q824 -55 678 10 L708 72 Q822 23 957 -38 L921 -105 ZM468 530 L468 476 L791 476 L791 530 L468 530 ZM468 197 L468 144 L791 144 L791 197 L468 197 ZM468 308 L468 255 L791 255 L791 308 L468 308 ZM468 418 L468 366 L791 366 L791 418 L468 418 Z" /><glyph glyph-name="uni5883" unicode="&#x5883;" d="M959 120 L955 9 Q953 -45 931 -63 Q909 -82 848 -82 L754 -82 Q705 -82 684 -63 Q662 -42 662 7 L662 138 L562 138 L562 132 Q558 37 490 -19 Q432 -67 289 -113 L252 -42 Q376 -8 428 34 Q475 72 480 131 Q480 135 481 138 L372 138 L372 436 L873 436 L873 138 L737 138 L737 32 Q737 4 747 -6 Q756 -16 783 -16 L834 -16 Q865 -16 875 -6 Q885 3 886 31 Q890 71 890 133 L959 120 ZM955 497 L342 497 L342 561 L497 561 L452 638 L494 658 L349 658 L349 720 L595 720 Q581 755 558 800 L643 822 Q673 759 689 720 L923 720 L923 658 L760 658 L810 635 Q796 609 767 561 L955 561 L955 497 ZM344 109 Q247 88 52 17 L36 99 L155 134 L155 471 L53 471 L53 551 L155 551 L155 802 L232 802 L232 551 L321 551 L321 471 L232 471 L232 159 Q303 181 334 192 L344 109 ZM447 200 L798 200 L798 256 L447 256 L447 200 ZM447 372 L447 317 L798 317 L798 372 L447 372 ZM585 561 L681 561 Q710 607 736 658 L527 658 L585 561 Z" /><glyph glyph-name="uni5885" unicode="&#x5885;" d="M550 232 Q417 228 63 206 L61 270 Q109 270 280 279 L280 341 L95 341 L95 401 L280 401 L280 458 L106 458 L106 759 L523 759 L523 458 L348 458 L348 401 L534 401 L534 341 L348 341 L348 283 Q506 292 548 296 L550 232 ZM865 77 L543 77 L543 -13 L935 -13 L935 -80 L67 -80 L67 -13 L459 -13 L459 77 L137 77 L137 143 L459 143 L459 207 L543 207 L543 143 L865 143 L865 77 ZM878 450 L772 450 L772 283 Q772 236 749 219 Q725 203 660 203 L580 203 L568 270 L649 270 Q684 270 694 278 Q703 285 703 310 L703 450 L545 450 L545 514 L709 514 Q674 545 591 613 L633 661 Q682 622 728 583 Q785 635 836 686 L567 686 L567 747 L922 747 L922 673 Q877 628 779 540 L791 529 L778 514 L947 514 L947 450 L890 313 L828 336 L878 450 ZM455 698 L348 698 L348 637 L455 637 L455 698 ZM348 519 L455 519 L455 580 L348 580 L348 519 ZM173 698 L173 637 L280 637 L280 698 L173 698 ZM173 580 L173 519 L280 519 L280 580 L173 580 Z" /><glyph glyph-name="uni588A" unicode="&#x588a;" d="M487 651 L330 651 L330 594 L516 594 L516 532 L405 532 L442 511 Q417 475 399 451 L504 451 L504 390 L333 390 L333 331 L506 331 L506 294 Q561 354 582 415 L502 469 L537 526 Q576 500 600 485 Q608 536 609 601 L523 601 L523 673 L609 673 Q609 760 610 794 L682 794 Q680 732 680 673 L846 673 L846 514 Q846 399 857 333 Q864 297 873 297 Q888 297 896 341 Q902 376 910 435 L966 417 Q953 327 939 275 Q920 200 873 200 Q812 200 791 307 Q778 376 778 503 L778 601 L679 601 Q676 501 663 444 Q717 408 777 366 L737 304 Q688 341 641 373 Q608 289 526 212 L543 212 L543 160 L856 160 L856 93 L543 93 L543 4 L940 4 L940 -65 L62 -65 L62 4 L459 4 L459 93 L146 93 L146 160 L459 160 L459 212 L503 212 L457 248 L482 270 L333 270 L333 193 L255 193 L255 270 L58 270 L58 331 L255 331 L255 390 L80 390 L80 451 L187 451 Q159 491 140 514 L166 532 L51 532 L51 594 L252 594 L252 651 L94 651 L94 713 L252 713 L252 796 L330 796 L330 713 L487 713 L487 651 ZM325 451 Q364 502 383 532 L206 532 L255 466 L230 451 L325 451 Z" /><glyph glyph-name="uni589E" unicode="&#x589e;" d="M836 771 Q812 732 776 684 L911 684 L911 355 L355 355 L355 684 L498 684 Q457 742 433 772 L500 813 L581 703 L550 684 L678 684 Q730 754 765 809 L836 771 ZM394 -101 L394 292 L871 292 L871 -101 L795 -101 L795 -58 L470 -58 L470 -101 L394 -101 ZM357 102 Q180 54 57 7 L36 84 Q52 88 162 123 L162 467 L54 467 L54 545 L162 545 L162 794 L238 794 L238 545 L338 545 L338 467 L238 467 L238 147 Q273 158 312 172 Q323 175 337 180 L351 185 L357 102 ZM840 613 L667 613 L667 426 L840 426 L840 613 ZM426 613 L426 426 L598 426 L598 613 L426 613 ZM470 223 L470 151 L795 151 L795 223 L470 223 ZM470 83 L470 11 L795 11 L795 83 L470 83 ZM519 436 Q473 521 441 561 L498 600 Q584 462 576 476 L519 436 ZM823 562 Q791 512 737 439 L682 478 Q715 520 768 598 L823 562 Z" /><glyph glyph-name="uni58EB" unicode="&#x58eb;" d="M953 431 L547 431 L547 38 L888 38 L888 -47 L111 -47 L111 38 L453 38 L453 431 L47 431 L47 516 L453 516 L453 796 L547 796 L547 516 L953 516 L953 431 Z" /><glyph glyph-name="uni58EE" unicode="&#x58ee;" d="M960 433 L719 433 L719 42 L932 42 L932 -42 L409 -42 L409 42 L632 42 L632 433 L391 433 L391 517 L632 517 L632 795 L719 795 L719 517 L960 517 L960 433 ZM264 236 Q165 166 68 93 L36 185 Q50 194 264 342 L264 797 L351 797 L351 -95 L264 -95 L264 236 ZM179 380 Q128 498 60 639 L132 671 Q217 496 252 415 L179 380 Z" /><glyph glyph-name="uni58EF" unicode="&#x58ef;" d="M334 253 L221 253 Q220 237 220 206 Q221 28 107 -108 L34 -64 Q101 13 122 70 Q141 123 141 219 L142 253 L48 253 L48 335 L334 335 L334 453 L117 453 L117 748 L199 748 L199 535 L334 535 L334 795 L419 795 L419 -92 L334 -92 L334 253 ZM956 429 L747 429 L747 43 L932 43 L932 -44 L469 -44 L469 43 L662 43 L662 429 L452 429 L452 516 L662 516 L662 794 L747 794 L747 516 L956 516 L956 429 Z" /><glyph glyph-name="uni58F0" unicode="&#x58f0;" d="M766 136 L237 136 Q223 10 107 -122 L36 -66 Q110 11 134 76 Q155 131 155 228 L155 399 L853 399 L853 86 L766 86 L766 136 ZM869 474 L134 474 L134 545 L457 545 L457 637 L58 637 L58 708 L457 708 L457 805 L543 805 L543 708 L941 708 L941 637 L543 637 L543 545 L869 545 L869 474 ZM766 327 L544 327 L544 207 L766 207 L766 327 ZM241 327 L241 207 L460 207 L460 327 L241 327 Z" /><glyph glyph-name="uni58F9" unicode="&#x58f9;" d="M721 57 Q690 18 670 -4 L940 -4 L940 -72 L58 -72 L58 -4 L327 -4 Q297 31 275 53 L320 87 L190 87 L190 272 L808 272 L808 87 L670 87 L721 57 ZM923 652 L545 652 L545 602 L871 602 L871 538 L127 538 L127 602 L454 602 L454 652 L76 652 L76 720 L454 720 L454 799 L545 799 L545 720 L923 720 L923 652 ZM88 333 L88 494 L910 494 L910 331 L822 331 L822 427 L176 427 L176 333 L88 333 ZM278 212 L278 146 L719 146 L719 212 L278 212 ZM747 322 L250 322 L250 379 L747 379 L747 322 ZM570 -4 Q611 41 645 87 L341 87 Q371 56 421 -4 L570 -4 Z" /><glyph glyph-name="uni5904" unicode="&#x5904;" d="M722 -71 Q442 -71 302 78 Q227 -13 106 -112 L37 -50 Q166 50 246 149 Q187 241 149 366 Q119 310 83 257 L29 324 Q156 512 215 792 L299 779 Q285 716 264 645 L512 645 L512 557 Q471 319 355 149 Q478 17 740 17 L963 17 L942 -71 L722 -71 ZM917 298 Q789 398 702 461 L702 51 L615 51 L615 789 L702 789 L702 563 L957 380 L917 298 ZM234 557 Q222 523 202 476 Q240 320 300 223 Q391 364 426 557 L234 557 Z" /><glyph glyph-name="uni5907" unicode="&#x5907;" d="M156 -107 L156 323 L841 323 L841 -107 L756 -107 L756 -61 L240 -61 L240 -107 L156 -107 ZM939 316 Q658 360 493 432 Q310 359 60 316 L36 393 Q248 430 398 482 Q325 525 260 587 Q185 517 107 464 L54 531 Q229 648 338 812 L429 789 Q410 759 381 722 L846 722 L846 639 Q736 547 597 478 Q730 432 963 400 L939 316 ZM318 647 L317 646 Q398 568 497 520 Q624 574 720 647 L318 647 ZM240 250 L240 166 L457 166 L457 250 L240 250 ZM240 96 L240 12 L457 12 L457 96 L240 96 ZM756 250 L540 250 L540 166 L756 166 L756 250 ZM540 96 L540 12 L756 12 L756 96 L540 96 Z" /><glyph glyph-name="uni590D" unicode="&#x590d;" d="M260 648 Q233 611 210 584 L836 584 L836 278 L340 278 L386 258 L351 220 L856 220 L856 156 Q753 80 632 29 Q764 -3 949 -22 L933 -100 Q700 -66 530 -9 Q362 -65 83 -109 L60 -38 Q267 -11 425 32 Q329 74 251 127 Q181 70 82 18 L42 84 Q206 170 296 278 L175 278 L175 543 Q136 501 90 458 L36 525 Q178 648 259 806 L337 771 L307 719 L922 719 L922 648 L260 648 ZM261 340 L749 340 L749 403 L261 403 L261 340 ZM261 520 L261 459 L749 459 L749 520 L261 520 ZM319 156 Q406 101 523 61 Q653 105 730 156 L319 156 Z" /><glyph glyph-name="uni5916" unicode="&#x5916;" d="M336 777 Q315 699 295 646 L534 646 L534 562 Q497 356 399 201 Q307 55 120 -105 L58 -34 Q237 111 324 245 Q409 375 448 562 L263 562 Q234 491 200 428 L347 329 L296 253 Q235 299 157 353 Q128 306 92 257 L32 324 Q180 534 248 798 L336 777 ZM911 252 Q777 361 696 425 L696 -99 L613 -99 L613 795 L696 795 L696 530 Q850 417 964 325 L911 252 Z" /><glyph glyph-name="uni591A" unicode="&#x591a;" d="M608 415 Q579 381 542 348 L917 348 L917 275 Q778 132 616 52 Q425 -43 96 -113 L53 -37 Q594 76 801 275 L457 275 Q425 251 395 231 L532 154 L474 95 Q392 146 323 186 Q241 139 131 89 L88 157 Q355 269 512 423 Q335 353 97 302 L60 373 Q526 465 765 640 L394 640 L348 607 L471 542 L415 486 Q352 524 276 563 Q208 523 140 491 L92 557 Q333 668 475 815 L550 779 Q518 742 486 714 L890 714 L890 640 Q750 524 556 442 L608 415 Z" /><glyph glyph-name="uni591C" unicode="&#x591c;" d="M921 -97 Q729 -30 614 47 Q503 -32 315 -108 L270 -32 Q443 32 546 99 Q460 175 400 284 Q358 228 318 183 L261 241 Q402 401 484 605 L562 582 Q547 544 531 511 L877 511 L877 434 Q807 219 682 102 Q793 35 961 -17 L921 -97 ZM941 613 L66 613 L66 690 L470 690 Q453 729 421 788 L505 820 Q555 723 564 704 L529 690 L941 690 L941 613 ZM334 576 Q302 500 257 425 L257 -101 L174 -101 L174 303 Q124 240 70 185 L31 260 Q172 408 257 602 L334 576 ZM494 434 Q467 384 447 353 Q510 230 614 149 Q733 251 792 434 L494 434 ZM654 234 Q590 306 526 370 L576 421 L707 288 L654 234 Z" /><glyph glyph-name="uni5927" unicode="&#x5927;" d="M545 797 L545 561 L931 561 L931 475 L543 475 L542 462 Q611 162 957 -19 L902 -102 Q605 68 505 311 Q415 85 106 -105 L50 -20 Q424 182 451 475 L69 475 L69 561 L453 561 L453 797 L545 797 Z" /><glyph glyph-name="uni5929" unicode="&#x5929;" d="M876 651 L540 651 L540 449 L931 449 L931 365 L550 365 Q633 112 955 -23 L907 -112 Q593 44 503 258 Q412 43 99 -112 L47 -28 Q397 134 443 365 L64 365 L64 449 L450 449 L450 651 L119 651 L119 733 L876 733 L876 651 Z" /><glyph glyph-name="uni592A" unicode="&#x592a;" d="M543 796 L543 586 L931 586 L931 499 L547 499 Q577 360 689 221 Q803 79 965 -16 L908 -98 Q623 78 501 370 Q397 96 91 -101 L34 -24 Q392 198 443 499 L69 499 L69 586 L451 586 L451 796 L543 796 ZM524 -61 Q472 2 362 123 L422 178 Q505 91 588 -6 L524 -61 Z" /><glyph glyph-name="uni592B" unicode="&#x592b;" d="M543 565 L542 403 L933 403 L933 319 L550 319 Q629 101 955 -24 L909 -111 Q603 14 500 231 Q402 24 98 -112 L44 -32 Q385 114 440 319 L66 319 L66 403 L452 403 L454 565 L121 565 L121 648 L454 648 Q454 757 455 797 L545 797 Q544 757 544 648 L877 648 L877 565 L543 565 Z" /><glyph glyph-name="uni592E" unicode="&#x592e;" d="M543 782 L543 637 L844 637 L844 328 L955 328 L955 243 L559 243 Q641 61 956 -25 L911 -109 Q602 -6 504 172 Q422 14 94 -116 L48 -31 Q386 85 440 243 L43 243 L43 328 L154 328 L154 637 L455 637 L455 782 L543 782 ZM239 552 L239 328 L455 328 L455 552 L239 552 ZM758 552 L543 552 L543 333 L542 328 L758 328 L758 552 Z" /><glyph glyph-name="uni5931" unicode="&#x5931;" d="M554 545 Q553 467 553 381 L553 374 L930 374 L930 289 L563 289 Q647 84 949 -24 L899 -109 Q612 6 509 206 Q409 10 110 -113 L58 -30 Q381 100 444 289 L68 289 L68 374 L460 375 Q463 425 464 545 L247 545 Q211 467 168 401 L91 442 Q185 579 236 766 L321 745 Q304 685 282 629 L464 629 L466 797 L557 797 Q555 707 555 629 L883 629 L883 545 L554 545 Z" /><glyph glyph-name="uni5934" unicode="&#x5934;" d="M653 791 Q649 539 647 499 Q642 377 629 303 L943 303 L943 223 L607 223 Q599 198 584 171 L945 -11 L904 -93 Q738 2 538 104 Q433 -12 85 -105 L55 -19 Q268 35 362 83 Q467 137 510 223 L59 223 L59 303 L537 303 Q555 376 560 510 Q562 548 566 791 L653 791 ZM380 321 Q263 400 111 489 L153 561 Q312 469 426 394 L380 321 ZM439 520 Q392 553 183 686 L226 757 Q359 679 487 593 L439 520 Z" /><glyph glyph-name="uni594F" unicode="&#x594f;" d="M518 712 L889 712 L889 643 L502 643 Q494 607 484 578 L848 578 L848 510 L459 510 Q447 480 428 445 L925 445 L925 377 L683 377 Q785 270 957 211 L922 136 Q788 188 687 273 L687 238 L530 238 L527 177 L526 174 L824 174 L824 106 L514 106 L508 88 Q615 55 882 -34 L848 -116 Q658 -38 468 27 Q390 -52 121 -109 L100 -33 Q380 23 422 106 L153 106 L153 174 L440 174 Q441 176 441 179 L441 183 Q443 198 445 238 L288 238 L288 274 Q201 201 54 126 L24 198 Q199 286 284 377 L53 377 L53 445 L338 445 Q358 474 374 510 L129 510 L129 578 L401 578 Q411 607 419 643 L88 643 L88 712 L434 712 L452 803 L535 799 L518 712 ZM652 304 Q615 338 585 377 L385 377 Q359 341 320 304 L652 304 Z" /><glyph glyph-name="uni5956" unicode="&#x5956;" d="M537 247 L916 247 L916 172 L541 172 Q622 47 953 -20 L915 -104 Q593 -26 493 105 Q406 -18 76 -107 L35 -23 Q371 50 430 172 L71 172 L71 247 L447 247 L447 301 L455 301 L415 365 Q719 463 828 627 L568 627 Q559 616 539 594 L656 511 L611 457 L491 544 Q461 517 424 486 L374 547 Q506 651 594 809 L670 779 Q647 737 621 699 L922 699 L922 615 Q801 418 472 301 L537 301 L537 247 ZM289 446 L74 342 L45 418 Q87 431 289 532 L289 788 L372 788 L372 298 L289 298 L289 446 ZM197 545 Q145 628 77 718 L139 759 Q185 699 264 585 L197 545 Z" /><glyph glyph-name="uni5957" unicode="&#x5957;" d="M535 788 Q515 741 497 709 L928 709 L928 638 L668 638 Q783 522 965 471 L938 393 Q849 421 760 473 L302 473 L302 419 L803 419 L803 355 L302 355 L302 300 L803 300 L803 238 L302 238 L302 182 L945 182 L945 113 L703 113 Q824 11 885 -44 L832 -105 Q802 -77 766 -45 Q355 -57 144 -72 L120 3 Q159 8 182 22 Q243 58 309 113 L54 113 L54 182 L219 182 L219 455 Q150 420 65 386 L36 462 Q238 535 341 638 L72 638 L72 709 L399 709 Q429 753 455 814 L535 788 ZM430 113 Q368 60 292 11 L684 26 Q693 18 620 79 L653 113 L430 113 ZM659 542 Q601 589 562 638 L450 638 Q413 588 356 542 L659 542 Z" /><glyph glyph-name="uni5962" unicode="&#x5962;" d="M938 427 Q689 495 552 650 L444 650 Q383 578 299 523 L432 523 L432 600 L516 600 L516 523 L654 523 L654 459 L516 459 L516 387 L561 387 Q630 433 717 509 L774 461 Q723 415 686 387 L939 387 L939 321 L593 321 Q526 278 455 246 L808 246 L808 -99 L725 -99 L725 -60 L304 -60 L304 -99 L222 -99 L222 155 Q160 134 65 106 L41 177 Q313 253 448 321 L68 321 L68 387 L432 387 L432 459 L272 459 L272 506 Q187 455 74 411 L38 481 Q241 551 343 650 L74 650 L74 719 L401 719 Q430 758 457 813 L535 788 Q521 759 495 719 L928 719 L928 650 L651 650 Q762 548 965 497 L938 427 ZM304 63 L304 1 L725 1 L725 63 L304 63 ZM306 185 Q305 184 304 184 L304 124 L725 124 L725 185 L306 185 Z" /><glyph glyph-name="uni5965" unicode="&#x5965;" d="M544 246 L544 193 L946 193 L946 124 L552 124 Q655 13 954 -28 L926 -104 Q630 -59 502 67 Q408 -40 74 -107 L47 -32 Q386 26 443 124 L53 124 L53 193 L458 193 L458 246 L544 246 ZM136 722 L395 722 Q412 768 425 811 L516 802 Q504 759 490 722 L864 722 L864 229 L786 229 L786 650 L213 650 L213 229 L136 229 L136 722 ZM464 365 Q391 289 266 230 L234 291 Q367 350 434 417 L250 417 L250 479 L464 479 L464 629 L537 629 L537 479 L750 479 L750 417 L537 417 L537 267 L464 267 L464 365 ZM714 237 Q627 302 541 356 L578 406 Q638 369 753 291 L714 237 ZM385 485 Q365 506 273 594 L315 637 Q376 586 429 530 L385 485 ZM727 593 Q673 537 612 485 L569 527 Q599 554 681 636 L727 593 Z" /><glyph glyph-name="uni5967" unicode="&#x5967;" d="M541 185 L931 185 L931 114 L562 114 Q665 13 954 -28 L926 -104 Q628 -60 501 69 Q409 -41 74 -107 L50 -29 Q371 26 433 114 L69 114 L69 185 L455 185 L457 237 L544 237 L541 185 ZM722 525 Q680 489 632 454 L750 454 L750 388 L584 388 L770 285 L730 227 Q601 305 540 337 L576 388 L537 388 L537 271 L464 271 L464 347 Q387 281 267 234 L233 300 Q351 339 417 388 L250 388 L250 454 L371 454 L295 516 L329 547 Q309 546 275 546 L270 611 Q499 611 710 640 L719 575 Q607 563 537 558 L537 454 L596 454 L564 485 Q602 513 674 570 L722 525 ZM136 722 L397 722 Q414 768 427 811 L514 802 Q502 759 488 722 L864 722 L864 229 L788 229 L788 658 L212 658 L212 229 L136 229 L136 722 ZM402 454 L464 454 L464 553 Q385 549 352 548 Q395 517 430 483 L402 454 Z" /><glyph glyph-name="uni5973" unicode="&#x5973;" d="M873 -108 Q725 -20 538 78 Q404 -14 84 -106 L43 -19 Q317 51 444 127 Q290 205 184 253 Q244 369 296 509 L48 509 L48 596 L327 596 Q367 719 387 809 L479 790 Q452 687 423 596 L960 596 L960 509 L789 509 Q732 257 614 140 Q745 74 926 -24 L873 -108 ZM525 186 Q643 289 697 509 L393 509 Q344 376 304 291 Q403 247 525 186 Z" /><glyph glyph-name="uni597D" unicode="&#x597d;" d="M161 625 Q175 735 180 803 L265 797 Q256 709 244 625 L433 625 L433 543 Q398 277 337 158 L472 50 L414 -21 L290 85 Q231 5 97 -98 L31 -37 Q162 60 223 140 Q145 202 85 246 Q125 392 148 539 L55 539 L55 625 L161 625 ZM963 305 L736 305 L736 33 Q736 -34 709 -59 Q681 -84 606 -84 L502 -84 L484 1 L581 1 Q623 1 637 13 Q650 25 650 62 L650 305 L431 305 L431 391 L650 391 L650 505 L817 652 L474 652 L474 737 L931 737 L931 653 L736 476 L736 391 L963 391 L963 305 ZM176 282 Q224 247 268 212 Q325 325 353 539 L231 539 Q207 393 176 282 Z" /><glyph glyph-name="uni5982" unicode="&#x5982;" d="M544 -82 L544 684 L900 684 L900 -77 L818 -77 L818 0 L627 0 L627 -82 L544 -82 ZM460 -56 Q414 -16 310 68 Q242 -10 102 -111 L36 -51 Q179 44 246 117 Q204 149 95 227 Q139 373 166 536 L56 536 L56 621 L178 621 Q191 713 198 802 L285 794 Q277 716 265 621 L471 621 L471 542 Q440 261 361 136 Q396 110 519 15 L460 -56 ZM627 601 L627 86 L818 86 L818 601 L627 601 ZM252 536 Q226 383 191 261 L297 184 Q363 292 387 536 L252 536 Z" /><glyph glyph-name="uni5987" unicode="&#x5987;" d="M404 -9 L299 78 Q246 11 118 -101 L49 -44 Q179 64 233 131 Q156 193 86 239 Q124 375 152 536 L58 536 L58 619 L165 619 Q177 696 187 797 L272 793 Q263 705 251 619 L443 619 L443 539 Q418 276 349 153 L460 66 L404 -9 ZM813 -90 L813 -35 L460 -35 L460 50 L813 50 L813 310 L489 310 L489 395 L813 395 L813 634 L465 634 L465 720 L901 720 L901 -90 L813 -90 ZM238 536 Q216 408 184 274 Q260 221 282 204 Q341 309 363 536 L238 536 Z" /><glyph glyph-name="uni5999" unicode="&#x5999;" d="M154 614 Q165 697 173 803 L256 795 Q251 721 237 614 L407 614 L407 534 Q381 273 323 155 L426 67 L371 -9 L277 78 Q222 0 102 -107 L36 -52 Q158 49 214 133 Q142 195 86 241 Q118 362 143 534 L53 534 L53 614 L154 614 ZM898 300 Q743 34 385 -116 L344 -33 Q690 103 828 353 L898 300 ZM626 219 L626 800 L711 800 L711 219 L626 219 ZM593 651 Q536 438 468 262 L391 290 Q468 477 516 673 L593 651 ZM175 277 Q221 241 257 211 Q312 332 331 534 L225 534 Q203 391 175 277 ZM897 311 Q856 407 743 649 L813 679 Q850 607 970 347 L897 311 Z" /><glyph glyph-name="uni59A5" unicode="&#x59a5;" d="M870 -102 Q710 -36 530 31 Q381 -46 80 -99 L54 -15 Q298 22 425 69 Q314 111 183 156 Q232 222 272 288 L49 288 L49 365 L317 365 Q353 432 374 481 L457 457 Q439 415 413 365 L941 365 L941 288 L767 288 Q714 161 614 84 Q736 40 907 -26 L870 -102 ZM256 441 Q183 548 140 609 L210 653 Q176 651 93 649 L88 729 Q515 735 881 779 L895 702 Q610 670 212 653 Q241 616 330 489 L256 441 ZM524 117 Q624 177 673 288 L372 288 Q335 225 310 191 Q412 157 524 117 ZM861 631 Q809 544 720 426 L649 478 Q731 583 790 677 L861 631 ZM510 455 Q457 555 410 628 L486 667 Q540 579 586 495 L510 455 Z" /><glyph glyph-name="uni59CB" unicode="&#x59cb;" d="M374 -37 Q344 -8 262 65 Q211 -10 103 -113 L45 -57 Q153 41 202 117 Q132 177 70 225 Q109 382 131 537 L43 537 L43 619 L143 619 Q150 678 160 796 L242 791 Q231 678 223 619 L394 619 L394 537 Q368 266 304 138 Q368 84 426 33 L374 -37 ZM451 -100 L451 307 L896 307 L896 -101 L811 -101 L811 -48 L535 -48 L535 -100 L451 -100 ZM851 429 Q605 420 417 404 L399 481 Q425 491 445 514 Q533 621 616 806 L696 777 Q621 607 527 494 L807 507 Q764 584 721 657 L790 694 Q839 617 956 414 L882 373 L851 429 ZM535 230 L535 30 L811 30 L811 230 L535 230 ZM213 537 Q192 391 159 259 L242 190 Q289 294 312 537 L213 537 Z" /><glyph glyph-name="uni59D3" unicode="&#x59d3;" d="M556 733 Q547 666 535 604 L650 604 L650 795 L734 795 L734 604 L940 604 L940 518 L734 518 L734 329 L918 329 L918 245 L734 245 L734 30 L957 30 L957 -56 L405 -56 L405 30 L650 30 L650 245 L443 245 L443 329 L650 329 L650 518 L517 518 Q493 426 469 356 L389 381 Q451 548 478 742 L556 733 ZM258 76 Q204 -5 96 -109 L36 -49 Q150 62 197 130 Q132 187 69 235 Q101 365 127 533 L46 533 L46 615 L138 615 Q148 697 157 805 L240 800 Q235 738 219 615 L381 615 L381 536 Q360 275 302 154 Q365 100 415 55 L359 -16 L258 76 ZM207 533 Q179 355 159 272 L240 206 Q286 306 308 533 L207 533 Z" /><glyph glyph-name="uni59FF" unicode="&#x59ff;" d="M870 -104 Q714 -50 545 4 Q403 -60 91 -104 L67 -22 Q314 8 427 41 L197 111 Q239 158 275 210 L53 210 L53 286 L323 286 Q336 309 350 336 L280 315 L243 385 Q524 457 547 571 L557 614 L642 614 L631 553 Q701 443 955 391 L923 315 Q683 372 597 480 Q544 406 395 351 L451 337 Q441 313 426 286 L945 286 L945 210 L756 210 Q707 112 632 55 Q867 -19 906 -32 L870 -104 ZM745 553 L814 634 L453 634 Q410 571 350 514 L288 562 Q394 663 459 808 L541 792 Q519 742 498 706 L914 706 L914 644 L818 525 L745 553 ZM534 85 Q608 126 654 210 L383 210 Q358 170 335 143 Q395 127 534 85 ZM304 503 L98 327 L53 399 L256 563 L304 503 ZM255 587 Q199 635 83 724 L133 788 Q128 791 306 656 L255 587 Z" /><glyph glyph-name="uni5A01" unicode="&#x5a01;" d="M954 169 Q948 110 937 42 Q918 -88 839 -88 Q775 -88 712 24 Q701 42 692 64 Q640 -5 554 -86 L493 -30 Q594 62 658 155 Q610 308 583 581 L196 581 L196 392 Q196 86 98 -104 L18 -65 Q113 106 113 394 L113 659 L576 659 Q568 762 567 802 L651 802 Q652 772 659 659 L796 659 Q748 722 710 763 L768 804 Q820 746 868 686 L832 659 L934 659 L934 581 L664 581 Q680 385 714 249 Q770 362 804 522 L886 502 Q838 293 746 143 Q765 92 785 54 Q811 5 839 5 Q863 5 872 82 Q878 115 885 190 L954 169 ZM306 336 Q320 385 329 428 L230 428 L230 499 L568 499 L568 428 L408 428 Q400 393 383 336 L558 336 L558 262 Q533 156 479 89 Q486 85 541 48 L496 -18 Q483 -7 424 34 Q355 -23 220 -84 L179 -16 Q297 33 361 77 Q309 111 240 153 Q260 195 284 266 L210 266 L210 336 L306 336 ZM362 266 Q345 212 331 182 Q350 171 420 127 Q463 177 485 266 L362 266 Z" /><glyph glyph-name="uni5A1B" unicode="&#x5a1b;" d="M484 680 L484 408 L913 408 L913 225 L967 225 L967 154 L688 154 Q759 16 946 -39 L911 -117 Q736 -55 647 77 Q589 -46 377 -116 L347 -40 Q558 20 591 154 L369 154 L369 225 L600 225 L602 337 L410 337 L410 680 L484 680 ZM145 620 Q155 711 160 802 L235 800 Q227 704 217 620 L357 620 L357 547 Q328 276 281 162 Q340 101 382 56 L326 0 Q284 46 243 88 Q202 18 103 -88 L48 -33 Q144 62 189 143 Q153 180 74 256 Q110 394 134 547 L50 547 L50 620 L145 620 ZM548 775 L891 775 L891 500 L548 500 L548 775 ZM622 703 L622 572 L817 572 L817 703 L622 703 ZM223 220 Q261 323 283 547 L207 547 Q190 432 157 283 L223 220 ZM679 244 Q679 231 678 225 L843 225 L843 337 L680 337 Q679 304 679 244 Z" /><glyph glyph-name="uni5A31" unicode="&#x5a31;" d="M255 82 Q201 -1 91 -108 L34 -50 Q146 49 196 134 Q136 187 74 237 Q104 360 128 537 L46 537 L46 617 L138 617 Q149 708 156 796 L232 792 Q228 725 216 617 L377 617 L377 538 Q356 278 294 151 L405 57 L354 -7 L255 82 ZM694 336 L693 247 L692 238 L944 238 L944 166 L705 166 Q776 30 963 -27 L928 -105 Q746 -39 659 97 Q594 -29 368 -104 L338 -28 Q561 35 601 166 L377 166 L377 238 L615 238 Q615 251 616 258 L619 336 L410 336 L410 407 L913 407 L913 336 L694 336 ZM436 754 L884 754 L884 491 L436 491 L436 754 ZM518 682 L518 562 L804 562 L804 682 L518 682 ZM207 537 Q187 382 160 265 L232 204 Q284 323 303 537 L207 537 Z" /><glyph glyph-name="uni5A66" unicode="&#x5a66;" d="M334 -29 Q259 51 232 78 Q190 12 86 -99 L27 -42 Q128 51 179 131 Q120 188 73 231 Q105 372 126 534 L46 534 L46 616 L135 616 Q145 706 150 796 L225 793 Q221 715 211 616 L353 616 L353 536 Q331 276 272 150 Q346 77 392 27 L334 -29 ZM366 264 L366 407 L936 407 L936 264 L862 264 L862 335 L683 335 L683 248 L874 248 L874 63 Q874 11 853 -9 Q832 -28 776 -28 L720 -28 L709 40 L754 40 Q785 40 792 47 Q799 53 799 79 L799 180 L683 180 L683 -98 L608 -98 L608 180 L494 180 L494 -26 L420 -26 L420 248 L608 248 L608 335 L441 335 L441 264 L366 264 ZM409 759 L882 759 L882 455 L396 455 L396 522 L808 522 L808 574 L429 574 L429 640 L808 640 L808 692 L409 692 L409 759 ZM202 534 Q183 382 155 265 L218 204 Q264 311 284 534 L202 534 Z" /><glyph glyph-name="uni5A74" unicode="&#x5a74;" d="M882 -117 Q784 -86 540 -12 Q398 -71 85 -114 L64 -41 Q297 -14 426 22 L199 89 Q238 125 283 183 L59 183 L59 252 L333 252 Q348 273 377 320 L453 295 L427 252 L941 252 L941 183 L770 183 Q714 88 634 36 Q782 -5 912 -48 L882 -117 ZM526 439 L526 757 L879 757 L879 441 L805 441 L805 687 L600 687 L600 439 L526 439 ZM119 440 L119 757 L464 757 L464 441 L390 441 L390 685 L193 685 L193 440 L119 440 ZM743 546 Q743 497 730 458 L921 326 L877 266 Q749 361 700 396 Q651 325 529 272 L490 338 Q594 375 637 431 Q672 477 672 549 L672 649 L743 649 L743 546 ZM327 537 Q327 503 319 468 Q347 453 409 417 L494 369 L457 305 Q343 376 292 405 Q242 322 107 261 L69 327 Q174 365 218 419 Q255 466 255 538 L255 645 L327 645 L327 537 ZM540 63 Q630 107 681 183 L383 183 Q357 146 332 118 Q440 91 540 63 Z" /></font>
</defs>
</svg>
