<?xml version="1.0" standalone="no"?><!DOCTYPE svg PUBLIC "-//W3C//DTD SVG 1.1//EN" "http://www.w3.org/Graphics/SVG/1.1/DTD/svg11.dtd" ><svg xmlns="http://www.w3.org/2000/svg"><metadata></metadata><defs><font id="fonteditor" horiz-adv-x="270"><font-face font-family="QpN­Ñ-{" font-weight="400" font-stretch="normal" units-per-em="256" panose-1="2 0 0 0 0 0 0 0 0 0" ascent="263" descent="-93" x-height="0" bbox="-18 -68 269 225" underline-thickness="12" underline-position="-60" unicode-range="U+0021-ff1b" /><missing-glyph horiz-adv-x="89" d="M8 0 L8 170 L73 170 L73 0 L8 0 ZM16 8 L65 8 L65 162 L16 162 L16 8 Z" /><glyph glyph-name="exclam" unicode="!" d="M61 -12 L28 -12 L28 20 L61 20 L61 -12 ZM62 193 L57 46 L32 46 L27 193 L62 193 Z" /><glyph glyph-name="quotedbl" unicode="&quot;" d="M43 197 L38 122 L18 122 L14 197 L43 197 ZM92 197 L88 122 L67 122 L63 197 L92 197 Z" /><glyph glyph-name="ampersand" unicode="&amp;" d="M211 5 L190 -14 Q188 -12 176 -2 Q162 7 155 13 Q126 -15 80 -15 Q14 -13 12 39 Q13 80 62 100 Q38 127 39 148 Q42 194 94 196 Q145 194 148 151 Q150 112 101 96 Q111 86 140 61 Q149 53 153 49 Q164 71 166 97 L192 90 Q189 62 172 34 Q180 28 196 16 Q206 9 211 5 ZM42 42 Q43 7 83 6 Q115 6 137 29 Q124 41 98 66 Q83 79 77 85 Q42 70 42 42 ZM94 176 Q68 174 66 148 Q66 133 87 111 Q123 126 121 150 Q120 176 94 176 Z" /><glyph glyph-name="quotesingle" unicode="&#39;" d="M42 196 L38 122 L18 122 L13 196 L42 196 Z" /><glyph glyph-name="parenleft" unicode="(" d="M92 -50 L67 -50 Q18 2 18 83 Q19 164 67 218 L92 218 Q44 160 45 83 Q44 7 92 -50 Z" /><glyph glyph-name="parenright" unicode=")" d="M10 218 L35 218 Q83 163 84 83 Q84 1 35 -50 L10 -50 Q58 7 57 83 Q58 158 10 218 Z" /><glyph glyph-name="asterisk" unicode="*" d="M111 149 L72 143 L101 113 L81 99 L60 135 L39 99 L20 114 L48 143 L9 149 L16 173 L52 157 L48 197 L73 197 L67 156 L105 173 L111 149 Z" /><glyph glyph-name="comma" unicode="," d="M27 -64 L18 -52 Q43 -37 43 -11 L23 -11 L23 25 L60 25 Q60 16 60 -6 Q61 -45 27 -64 Z" /><glyph glyph-name="hyphen" unicode="-" d="M157 78 L17 78 L17 100 L157 100 L157 78 Z" /><glyph glyph-name="period" unicode="." d="M62 25 L62 -11 L25 -11 L25 25 L62 25 Z" /><glyph glyph-name="slash" unicode="/" d="M0 -24 L56 201 L79 201 L23 -24 L0 -24 Z" /><glyph glyph-name="zero" unicode="0" d="M86 196 Q158 195 159 90 Q159 -16 86 -15 Q13 -14 12 90 Q14 193 86 196 ZM86 7 Q127 6 127 89 Q128 174 86 172 Q45 173 45 89 Q45 6 86 7 Z" /><glyph glyph-name="one" unicode="1" d="M70 -12 L70 148 Q47 126 7 109 Q7 123 7 136 Q59 160 77 195 L100 195 L100 -12 L70 -12 Z" /><glyph glyph-name="two" unicode="2" d="M46 12 L152 12 L152 -11 L9 -11 L9 6 Q30 45 73 78 Q124 114 120 136 Q119 170 82 171 Q49 171 40 132 L12 141 Q27 196 87 196 Q148 194 152 139 Q157 103 103 68 Q65 42 46 12 Z" /><glyph glyph-name="three" unicode="3" d="M10 38 L41 45 Q48 7 84 7 Q124 8 125 46 Q125 81 76 81 Q64 81 57 81 L57 105 Q64 105 72 105 Q118 105 119 140 Q118 172 84 173 Q50 173 44 136 L14 143 Q27 196 86 196 Q147 194 151 143 Q150 106 110 95 Q154 86 157 44 Q154 -13 84 -15 Q23 -16 10 38 Z" /><glyph glyph-name="four" unicode="4" d="M132 57 L159 57 L159 34 L132 34 L132 -12 L104 -12 L104 34 L4 34 L4 53 L104 195 L132 195 L132 57 ZM34 57 L104 57 L104 138 Q104 139 104 148 Q105 159 105 161 Q105 161 105 160 Q105 159 103 157 Q102 154 101 153 Q101 152 99 150 Q96 145 95 143 Q94 141 90 136 Q78 119 70 108 Q69 106 66 103 Q64 99 62 97 Q53 85 39 65 Q35 58 34 57 Z" /><glyph glyph-name="five" unicode="5" d="M11 39 L41 46 Q48 7 85 7 Q125 10 127 53 Q126 98 84 99 Q57 98 44 79 L20 80 L29 192 L147 192 L147 166 L55 166 L49 105 Q66 121 92 121 Q155 119 158 55 Q156 -13 86 -15 Q25 -15 11 39 Z" /><glyph glyph-name="six" unicode="6" d="M154 147 L125 141 Q118 174 89 173 Q42 173 41 92 Q57 120 94 120 Q154 116 158 55 Q154 -12 88 -15 Q10 -16 11 86 Q12 195 89 196 Q140 195 154 147 ZM87 7 Q126 9 128 52 Q126 95 88 97 Q46 95 43 57 Q45 9 87 7 Z" /><glyph glyph-name="seven" unicode="7" d="M80 -12 L47 -12 Q58 74 121 166 L13 166 L13 191 L156 191 L156 170 Q88 79 80 -12 Z" /><glyph glyph-name="eight" unicode="8" d="M55 95 Q21 106 19 141 Q24 193 87 196 Q148 193 154 141 Q153 104 116 94 Q159 84 161 42 Q160 -14 84 -15 Q14 -13 12 42 Q15 83 55 95 ZM87 6 Q128 7 129 42 Q128 77 85 82 Q46 78 44 43 Q45 7 87 6 ZM87 174 Q53 172 51 141 Q51 110 87 106 Q121 111 122 140 Q121 173 87 174 Z" /><glyph glyph-name="nine" unicode="9" d="M16 32 L44 38 Q53 7 81 7 Q128 6 129 87 Q111 60 75 59 Q15 62 12 125 Q16 193 82 196 Q159 198 158 94 Q158 -16 80 -15 Q28 -15 16 32 ZM127 122 Q126 171 83 172 Q44 170 42 127 Q44 84 82 82 Q124 84 127 122 Z" /><glyph glyph-name="colon" unicode=":" d="M61 -9 L25 -9 L25 27 L61 27 L61 -9 ZM61 97 L25 97 L25 135 L61 135 L61 97 Z" /><glyph glyph-name="semicolon" unicode=";" d="M62 135 L62 97 L25 97 L25 135 L62 135 ZM29 -62 L20 -50 Q45 -35 45 -10 L25 -10 L25 26 L62 26 Q62 17 62 -4 Q64 -43 29 -62 Z" /><glyph glyph-name="less" unicode="&lt;" d="M161 0 L16 79 L16 100 L161 179 L161 151 L44 90 L161 29 L161 0 Z" /><glyph glyph-name="equal" unicode="=" d="M156 110 L15 110 L15 132 L156 132 L156 110 ZM156 47 L15 47 L15 69 L156 69 L156 47 Z" /><glyph glyph-name="greater" unicode="&gt;" d="M16 151 L16 179 L160 100 L160 79 L16 0 L16 29 L132 90 L16 151 Z" /><glyph glyph-name="at" unicode="@" d="M214 -8 L224 -21 Q187 -61 127 -60 Q14 -55 10 63 Q19 189 131 197 Q235 192 241 85 Q238 2 179 -1 Q149 0 151 32 Q150 32 150 31 Q141 0 108 -1 Q67 0 66 57 Q71 132 125 138 Q151 137 156 113 Q156 114 158 135 L180 135 Q173 61 171 44 Q167 12 184 15 Q217 20 219 83 Q215 172 131 176 Q40 168 33 62 Q36 -36 129 -40 Q182 -39 214 -8 ZM100 100 Q89 84 89 55 Q89 16 115 16 Q128 16 140 31 Q148 42 151 60 Q153 72 153 83 Q153 114 128 116 Q111 116 100 100 Z" /><glyph glyph-name="A" unicode="a" d="M119 193 L201 -12 L167 -12 L146 43 L55 43 L34 -12 L0 -12 L82 193 L119 193 ZM100 166 Q97 157 94 148 Q93 146 63 68 L138 68 Q108 146 107 148 Q107 149 106 152 Q101 164 100 166 Z" /><glyph glyph-name="B" unicode="b" d="M115 -12 L22 -12 L22 193 L110 193 Q175 191 179 144 Q178 105 137 96 Q137 96 137 95 Q184 87 188 46 Q188 -12 115 -12 ZM108 81 L53 81 L53 11 L110 11 Q154 11 154 48 Q152 80 108 81 ZM104 169 L53 169 L53 106 L104 106 Q145 107 146 139 Q145 169 104 169 Z" /><glyph glyph-name="C" unicode="c" d="M196 135 L165 127 Q153 167 111 169 Q52 165 48 90 Q51 15 110 10 Q158 11 168 62 L199 53 Q184 -15 110 -15 Q19 -10 14 89 Q19 190 111 196 Q175 194 196 135 Z" /><glyph glyph-name="D" unicode="d" d="M91 -12 L22 -12 L22 193 L90 193 Q193 191 195 91 Q197 -14 91 -12 ZM89 167 L53 167 L53 12 L89 12 Q162 12 162 91 Q160 165 89 167 Z" /><glyph glyph-name="E" unicode="e" d="M179 -12 L22 -12 L22 193 L175 193 L175 167 L54 167 L54 106 L168 106 L168 80 L54 80 L54 13 L179 13 L179 -12 Z" /><glyph glyph-name="F" unicode="f" d="M165 167 L54 167 L54 103 L151 103 L151 78 L54 78 L54 -12 L22 -12 L22 193 L165 193 L165 167 Z" /><glyph glyph-name="G" unicode="g" d="M207 101 L207 25 Q186 -14 117 -15 Q20 -10 15 90 Q20 191 113 196 Q184 195 206 141 L176 130 Q161 169 113 169 Q53 163 48 90 Q52 15 117 10 Q160 11 178 35 L178 75 L111 75 L111 101 L207 101 Z" /><glyph glyph-name="H" unicode="h" d="M195 -12 L163 -12 L163 79 L54 79 L54 -12 L23 -12 L23 193 L54 193 L54 106 L163 106 L163 193 L195 193 L195 -12 Z" /><glyph glyph-name="I" unicode="i" d="M24 -12 L24 193 L55 193 L55 -12 L24 -12 Z" /><glyph glyph-name="J" unicode="j" d="M112 193 L143 193 L143 58 Q144 -16 78 -15 Q16 -16 9 49 L39 57 Q41 9 77 10 Q113 9 112 59 L112 193 Z" /><glyph glyph-name="K" unicode="k" d="M205 -12 L164 -12 L94 86 L53 45 L53 -12 L22 -12 L22 193 L53 193 L53 84 L158 193 L199 193 L113 106 L205 -12 Z" /><glyph glyph-name="L" unicode="l" d="M162 -12 L22 -12 L22 193 L53 193 L53 12 L162 12 L162 -12 Z" /><glyph glyph-name="M" unicode="m" d="M110 -12 L45 168 L45 -12 L15 -12 L15 193 L66 193 L125 22 L181 193 L233 193 L233 -12 L202 -12 L201 168 Q195 145 140 -12 L110 -12 Z" /><glyph glyph-name="N" unicode="n" d="M24 193 L61 193 L166 25 L166 193 L196 193 L196 -12 L160 -12 L54 157 L54 -12 L24 -12 L24 193 Z" /><glyph glyph-name="O" unicode="o" d="M114 196 Q207 190 214 89 Q209 -10 113 -15 Q17 -10 13 89 Q18 191 114 196 ZM112 10 Q176 13 179 89 Q176 164 113 169 Q50 164 46 89 Q49 15 112 10 Z" /><glyph glyph-name="P" unicode="p" d="M106 65 L54 65 L54 -12 L22 -12 L22 193 L109 193 Q178 190 182 131 Q181 66 106 65 ZM102 168 L54 168 L54 90 L102 90 Q148 91 149 130 Q147 167 102 168 Z" /><glyph glyph-name="Q" unicode="q" d="M141 -11 L189 -58 L154 -68 L108 -14 Q16 -7 12 89 Q16 192 113 196 Q205 189 212 89 Q210 9 141 -11 ZM44 89 Q47 15 110 11 Q176 14 178 89 Q175 164 111 169 Q48 164 44 89 Z" /><glyph glyph-name="R" unicode="r" d="M204 -12 L164 -12 L101 73 L54 73 L54 -12 L23 -12 L23 193 L118 193 Q187 191 191 134 Q191 82 134 75 L204 -12 ZM54 168 L54 98 L111 98 Q159 98 158 133 Q158 168 111 168 L54 168 Z" /><glyph glyph-name="S" unicode="s" d="M13 50 L45 57 Q52 8 102 8 Q146 9 148 43 Q151 66 107 78 Q103 80 90 83 Q86 84 84 84 Q17 98 21 141 Q25 193 94 196 Q164 197 176 140 L145 133 Q138 170 96 170 Q57 169 54 141 Q51 118 102 108 Q122 103 132 100 Q183 84 182 44 Q180 -13 103 -15 Q26 -17 13 50 Z" /><glyph glyph-name="T" unicode="t" d="M178 167 L108 167 L108 -12 L77 -12 L77 167 L6 167 L6 193 L178 193 L178 167 Z" /><glyph glyph-name="U" unicode="u" d="M22 74 L22 193 L54 193 L54 74 Q54 9 109 10 Q164 10 164 75 L164 193 L196 193 L196 75 Q196 -15 108 -15 Q22 -15 22 74 Z" /><glyph glyph-name="V" unicode="v" d="M119 -12 L84 -12 L2 193 L36 193 Q100 19 103 15 Q104 20 166 193 L201 193 L119 -12 Z" /><glyph glyph-name="W" unicode="w" d="M2 193 L35 193 Q63 70 69 40 Q70 37 74 22 Q77 34 79 41 Q88 72 119 193 L153 193 Q191 44 194 36 Q195 31 198 18 Q200 29 201 33 Q202 39 236 193 L269 193 L215 -12 L182 -12 Q141 141 139 146 Q138 149 136 160 Q135 151 134 147 Q133 143 90 -12 L55 -12 L2 193 Z" /><glyph glyph-name="X" unicode="x" d="M122 91 L201 -12 L161 -12 L101 74 L40 -12 L2 -12 L81 92 L9 193 L48 193 L102 108 L156 193 L194 193 L122 91 Z" /><glyph glyph-name="Y" unicode="y" d="M1 193 L37 193 Q63 155 91 112 Q92 111 96 104 Q100 98 101 96 Q106 104 111 111 Q115 118 164 193 L200 193 L115 72 L115 -12 L84 -12 L84 72 L1 193 Z" /><glyph glyph-name="Z" unicode="z" d="M179 -12 L6 -12 L6 9 L134 167 L17 167 L17 193 L175 193 L175 169 L45 12 L179 12 L179 -12 Z" /><glyph glyph-name="bracketleft" unicode="[" d="M86 -46 L19 -46 L19 216 L86 216 L86 196 L45 196 L45 -26 L86 -26 L86 -46 Z" /><glyph glyph-name="backslash" unicode="\" d="M57 -24 L0 201 L23 201 L80 -24 L57 -24 Z" /><glyph glyph-name="bracketright" unicode="]" d="M4 -26 L45 -26 L45 196 L4 196 L4 216 L71 216 L71 -46 L4 -46 L4 -26 Z" /><glyph glyph-name="underscore" unicode="_" d="M177 -58 L0 -58 L0 -36 L177 -36 L177 -58 Z" /><glyph glyph-name="a" unicode="a" d="M160 -11 L131 -11 Q125 -3 123 14 Q105 -14 59 -15 Q13 -13 11 26 Q11 66 66 73 Q114 80 122 89 Q124 120 86 118 Q51 118 45 91 L16 96 Q27 141 86 140 Q155 142 152 81 Q152 54 152 20 Q152 2 160 -11 ZM124 51 L124 70 Q112 59 80 55 Q40 50 41 27 Q40 5 72 6 Q120 9 124 51 Z" /><glyph glyph-name="b" unicode="b" d="M49 12 L49 -11 L18 -11 L18 200 L49 200 L49 111 Q65 140 99 140 Q157 137 159 63 Q158 -14 98 -15 Q64 -15 49 12 ZM48 72 L48 54 Q50 9 88 7 Q129 7 129 63 Q127 114 88 116 Q51 111 48 72 Z" /><glyph glyph-name="c" unicode="c" d="M155 93 L124 87 Q114 113 87 115 Q44 113 43 61 Q44 9 87 8 Q120 9 125 42 L157 38 Q144 -17 86 -15 Q13 -13 11 61 Q13 138 86 140 Q138 138 155 93 Z" /><glyph glyph-name="d" unicode="d" d="M120 200 L151 200 L151 -11 L120 -11 L120 12 Q107 -15 70 -15 Q11 -11 9 59 Q10 139 74 140 Q108 138 120 111 L120 200 ZM121 58 L121 73 Q117 111 81 116 Q41 114 40 61 Q41 8 81 7 Q120 8 121 58 Z" /><glyph glyph-name="e" unicode="e" d="M128 34 L160 29 Q144 -15 87 -15 Q13 -12 10 60 Q13 137 84 140 Q158 139 159 60 Q159 55 159 52 L41 52 Q43 9 87 6 Q120 7 128 34 ZM41 73 L129 73 Q127 116 86 118 Q44 116 41 73 Z" /><glyph glyph-name="f" unicode="f" d="M56 155 L56 136 L89 136 L89 113 L56 113 L56 -11 L26 -11 L26 113 L0 113 L0 136 L26 136 L26 155 Q24 204 70 202 Q90 202 104 197 L95 175 Q87 179 78 179 Q55 180 56 155 Z" /><glyph glyph-name="g" unicode="g" d="M122 136 L152 136 L152 9 Q156 -71 77 -67 Q24 -66 14 -27 L43 -25 Q53 -43 80 -44 Q122 -44 122 0 L122 19 Q109 -6 71 -6 Q10 -4 9 66 Q11 138 74 140 Q108 139 122 115 L122 136 ZM122 62 L122 75 Q120 114 83 116 Q41 115 40 66 Q41 16 81 15 Q121 16 122 62 Z" /><glyph glyph-name="h" unicode="h" d="M153 -11 L123 -11 L123 76 Q123 116 89 116 Q51 114 49 71 L49 -11 L19 -11 L19 200 L49 200 L49 110 Q67 139 100 140 Q154 141 153 81 L153 -11 Z" /><glyph glyph-name="i" unicode="i" d="M18 -11 L18 136 L49 136 L49 -11 L18 -11 ZM18 164 L18 195 L49 195 L49 164 L18 164 Z" /><glyph glyph-name="j" unicode="j" d="M-18 -61 L-13 -41 Q-6 -44 3 -44 Q21 -45 21 -22 L21 136 L51 136 L51 -23 Q53 -70 10 -68 Q-4 -68 -18 -61 ZM21 164 L21 195 L51 195 L51 164 L21 164 Z" /><glyph glyph-name="k" unicode="k" d="M97 79 L162 -11 L125 -11 L77 60 L49 34 L49 -11 L18 -11 L18 200 L49 200 L49 68 L118 136 L157 136 L97 79 Z" /><glyph glyph-name="l" unicode="l" d="M18 -11 L18 200 L49 200 L49 -11 L18 -11 Z" /><glyph glyph-name="m" unicode="m" d="M238 -11 L207 -11 L207 76 Q208 117 177 116 Q145 114 143 75 L143 -11 L112 -11 L112 77 Q113 117 82 116 Q50 115 48 74 L48 -11 L18 -11 L18 136 L48 136 L48 110 Q64 139 96 140 Q132 140 140 108 Q154 139 189 140 Q238 140 238 81 L238 -11 Z" /><glyph glyph-name="n" unicode="n" d="M153 -12 L123 -12 L123 76 Q123 116 89 115 Q54 113 49 74 L49 -12 L19 -12 L19 136 L49 136 L49 110 Q67 138 100 140 Q154 141 153 80 L153 -12 Z" /><glyph glyph-name="o" unicode="o" d="M86 139 Q156 136 159 61 Q157 -13 84 -15 Q14 -11 10 60 Q13 136 86 139 ZM85 7 Q127 8 128 61 Q126 112 85 115 Q42 114 41 61 Q42 9 85 7 Z" /><glyph glyph-name="p" unicode="p" d="M49 9 L49 -66 L18 -66 L18 136 L49 136 L49 111 Q62 139 99 139 Q156 136 159 63 Q158 -14 98 -15 Q64 -14 49 9 ZM48 71 L48 54 Q49 9 88 7 Q128 7 128 62 Q127 114 87 115 Q50 113 48 71 Z" /><glyph glyph-name="q" unicode="q" d="M121 136 L151 136 L151 -66 L121 -66 L121 9 Q106 -14 70 -15 Q13 -12 10 59 Q11 137 74 139 Q107 138 121 111 L121 136 ZM121 56 L121 72 Q118 112 82 115 Q42 114 41 59 Q41 8 81 7 Q120 8 121 56 Z" /><glyph glyph-name="r" unicode="r" d="M46 65 L46 -11 L16 -11 L16 136 L46 136 L46 108 Q57 139 85 140 Q98 140 112 132 L101 105 Q93 112 80 112 Q47 110 46 65 Z" /><glyph glyph-name="s" unicode="s" d="M138 100 L108 96 Q102 118 75 118 Q46 118 46 97 Q44 82 79 76 Q90 73 102 70 Q146 60 144 28 Q143 -14 81 -15 Q18 -18 9 29 L39 34 Q46 5 79 6 Q112 6 113 29 Q115 44 83 51 Q80 51 73 53 Q64 55 60 56 Q13 67 14 96 Q17 138 73 140 Q127 141 138 100 Z" /><glyph glyph-name="t" unicode="t" d="M57 191 L57 136 L90 136 L90 113 L57 113 L57 29 Q56 6 75 7 Q83 7 89 10 L94 -7 Q84 -15 65 -15 Q26 -16 27 24 L27 113 L3 113 L3 136 L27 136 L27 183 L57 191 Z" /><glyph glyph-name="u" unicode="u" d="M152 -11 L122 -11 L122 14 Q106 -14 73 -15 Q18 -15 18 43 L18 136 L48 136 L48 46 Q48 7 83 7 Q119 10 122 50 L122 136 L152 136 L152 -11 Z" /><glyph glyph-name="v" unicode="v" d="M152 136 L93 -11 L59 -11 L2 136 L35 136 Q70 32 72 26 Q72 24 74 19 Q76 11 77 9 Q77 14 82 26 Q84 33 120 136 L152 136 Z" /><glyph glyph-name="w" unicode="w" d="M230 136 L178 -11 L145 -11 Q119 91 119 95 Q116 104 115 110 Q115 108 114 102 Q113 96 113 95 Q112 90 83 -11 L51 -11 L1 136 L32 136 Q64 28 65 24 Q66 15 68 11 Q70 17 71 24 Q72 28 100 136 L130 136 Q157 29 158 25 Q159 24 160 17 Q162 12 162 11 Q165 19 166 25 Q168 31 199 136 L230 136 Z" /><glyph glyph-name="x" unicode="x" d="M155 136 L101 63 L159 -11 L124 -11 L81 50 L36 -11 L1 -11 L60 63 L7 136 L40 136 L81 75 L121 136 L155 136 Z" /><glyph glyph-name="y" unicode="y" d="M65 -6 L3 136 L36 136 L73 37 L80 18 L86 37 L120 136 L153 136 Q100 7 89 -18 Q70 -72 39 -68 Q20 -68 12 -63 L10 -41 Q20 -45 29 -45 Q48 -46 56 -27 Q58 -23 65 -6 Z" /><glyph glyph-name="z" unicode="z" d="M141 -11 L5 -11 L5 7 L98 113 L12 113 L12 136 L137 136 L137 117 L42 10 L141 10 L141 -11 Z" /><glyph glyph-name="braceleft" unicode="{" d="M62 173 L62 123 Q63 91 37 83 Q63 74 62 43 L62 -4 Q62 -19 69 -24 Q77 -31 96 -31 L96 -50 Q63 -50 49 -39 Q37 -30 37 -5 L37 45 Q37 73 7 74 L7 92 Q37 92 37 122 L37 172 Q37 197 50 208 Q63 218 96 218 L96 199 Q63 199 62 173 Z" /><glyph glyph-name="braceright" unicode="}" d="M41 123 L41 173 Q40 198 6 199 L6 218 Q41 218 53 208 Q66 197 66 172 L66 122 Q66 92 95 92 L95 74 Q65 73 66 45 L66 -5 Q66 -30 53 -39 Q40 -50 6 -50 L6 -31 Q27 -31 35 -23 Q41 -17 41 -4 L41 43 Q40 74 66 83 Q40 91 41 123 Z" /><glyph glyph-name="egrave" unicode="è" d="M99 200 L133 200 L155 163 L134 163 L99 200 ZM170 34 L203 29 Q187 -15 130 -15 Q56 -12 53 60 Q56 137 127 140 Q201 139 202 60 Q202 55 202 52 L84 52 Q86 8 129 6 Q163 7 170 34 ZM84 73 L171 73 Q169 116 128 118 Q87 115 84 73 Z" /><glyph glyph-name="eacute" unicode="é" d="M141 163 L106 163 L141 200 L162 200 L141 163 ZM170 34 L203 29 Q187 -15 130 -15 Q56 -12 53 60 Q56 137 127 140 Q201 139 202 60 Q202 55 202 52 L84 52 Q86 8 129 6 Q163 7 170 34 ZM84 73 L171 73 Q169 116 128 118 Q87 115 84 73 Z" /><glyph glyph-name="endash" unicode="&#x2013;" d="M79 94 L79 86 L177 86 L177 94 L79 94 Z" /><glyph glyph-name="emdash" unicode="&#x2014;" d="M0 97 L257 97 L257 77 L0 77 L0 97 Z" /><glyph glyph-name="quoteright" unicode="&#x2019;" d="M51 123 L42 135 Q67 150 67 176 L47 176 L47 214 L84 214 Q84 204 84 181 Q85 142 51 123 Z" /><glyph glyph-name="quotedblleft" unicode="&#x201c;" d="M214 162 L234 162 L234 124 L197 124 L197 157 Q196 196 230 214 L239 203 Q214 186 214 162 ZM147 124 L147 157 Q146 196 179 214 L188 203 Q162 186 164 162 L184 162 L184 124 L147 124 Z" /><glyph glyph-name="quotedblright" unicode="&#x201d;" d="M59 212 L59 180 Q60 142 26 122 L17 134 Q42 149 42 175 L22 175 L22 212 L59 212 ZM109 212 L109 180 Q111 141 77 122 L67 134 Q92 149 92 175 L72 175 L72 212 L109 212 Z" /><glyph glyph-name="uni3001" unicode="&#x3001;" d="M111 -2 L91 -22 L37 37 L56 54 L111 -2 Z" /><glyph glyph-name="uni3002" unicode="&#x3002;" d="M37 15 Q40 53 78 56 Q115 53 118 15 Q114 -19 78 -23 Q41 -20 37 15 ZM53 15 Q55 -5 78 -7 Q100 -5 102 15 Q100 38 78 40 Q55 38 53 15 Z" /><glyph glyph-name="uni300A" unicode="&#x300a;" d="M166 216 L116 89 L166 -35 L144 -35 L94 89 L144 216 L166 216 ZM210 216 L160 89 L210 -35 L187 -35 L137 89 L187 216 L210 216 Z" /><glyph glyph-name="uni300B" unicode="&#x300b;" d="M113 216 L162 89 L112 -35 L90 -35 L140 89 L90 216 L113 216 ZM69 216 L119 89 L69 -35 L47 -35 L97 89 L47 216 L69 216 Z" /><glyph glyph-name="uni300C" unicode="&#x300c;" d="M115 -33 L115 214 L178 214 L178 195 L139 195 L139 -33 L115 -33 Z" /><glyph glyph-name="uni300D" unicode="&#x300d;" d="M140 -33 L77 -33 L77 -14 L116 -14 L116 214 L140 214 L140 -33 Z" /><glyph glyph-name="uni33A1" unicode="&#x33a1;" d="M23 1 L23 134 L41 134 L42 115 Q55 137 77 137 Q97 137 108 118 Q109 117 109 116 Q125 138 145 137 Q180 134 181 93 L181 1 L162 1 L162 87 Q162 118 140 118 Q114 115 112 81 L112 1 L92 1 L92 93 Q91 118 73 118 Q43 115 42 73 L42 1 L23 1 ZM191 190 L175 190 Q177 223 205 225 Q231 223 233 198 Q233 182 218 172 Q216 171 213 168 Q200 159 195 152 L233 152 L233 137 L174 137 Q172 158 199 176 Q200 177 202 178 Q216 187 216 197 Q215 209 204 210 Q192 209 191 190 Z" /><glyph glyph-name="uni4E00" unicode="&#x4e00;" d="M6 80 L6 110 L249 110 L249 80 L6 80 Z" /><glyph glyph-name="uni4E07" unicode="&#x4e07;" d="M11 167 L11 193 L246 193 L246 167 L107 167 Q106 145 104 122 L219 122 Q217 80 214 23 Q212 -23 166 -22 Q148 -23 118 -23 Q116 -9 113 3 Q130 2 155 2 Q185 0 185 31 Q187 46 189 90 Q189 87 189 96 L102 96 Q95 17 29 -29 Q15 -15 7 -8 Q73 35 74 114 Q77 140 78 167 L11 167 Z" /><glyph glyph-name="uni4E09" unicode="&#x4e09;" d="M24 161 L24 189 L231 189 L231 161 L24 161 ZM9 -11 L9 15 L247 15 L247 -11 L9 -11 ZM36 77 L36 105 L220 105 L220 77 L36 77 Z" /><glyph glyph-name="uni4E0A" unicode="&#x4e0a;" d="M9 -15 L9 10 L101 10 L101 208 L132 208 L132 136 L228 136 L228 109 L132 109 L132 10 L247 10 L247 -15 L9 -15 Z" /><glyph glyph-name="uni4E0B" unicode="&#x4e0b;" d="M9 167 L9 194 L247 194 L247 167 L133 167 L133 106 L149 126 Q189 103 236 72 L217 47 Q196 61 160 85 Q142 98 133 104 L133 -27 L102 -27 L102 167 L9 167 Z" /><glyph glyph-name="uni4E0D" unicode="&#x4e0d;" d="M15 165 L15 192 L244 192 L244 165 L156 165 Q141 141 126 120 L142 120 L142 -28 L112 -28 L112 103 Q80 65 24 28 Q14 44 6 52 Q89 105 122 165 L15 165 ZM228 33 Q184 70 151 94 L169 113 Q210 85 249 56 L228 33 Z" /><glyph glyph-name="uni4E0E" unicode="&#x4e0e;" d="M118 -25 Q117 -12 112 2 Q136 1 162 1 Q197 0 197 27 Q201 60 201 93 L40 93 L50 210 L79 210 L76 177 L245 177 L245 151 L74 151 L71 118 L232 118 Q231 96 227 44 Q226 30 226 23 Q226 -26 172 -25 Q143 -25 118 -25 ZM7 35 L7 61 L181 61 L181 35 L7 35 Z" /><glyph glyph-name="uni4E13" unicode="&#x4e13;" d="M21 158 L21 182 L90 182 Q98 199 102 212 L134 210 L122 182 L235 182 L235 158 L111 158 Q105 145 99 131 L249 131 L249 108 L88 108 Q85 103 80 94 Q76 86 74 82 L225 82 L225 55 L162 8 L202 -5 L187 -31 Q110 1 43 26 L56 48 Q69 44 96 33 Q120 25 133 20 L188 59 L43 59 L43 82 Q45 86 51 96 Q55 104 57 108 L7 108 L7 131 L68 131 Q74 145 80 158 L21 158 Z" /><glyph glyph-name="uni4E14" unicode="&#x4e14;" d="M7 -18 L7 5 L38 5 L38 197 L218 197 L218 5 L249 5 L249 -18 L7 -18 ZM67 46 L67 5 L189 5 L189 46 L67 46 ZM67 173 L67 133 L189 133 L189 173 L67 173 ZM67 109 L67 69 L189 69 L189 109 L67 109 Z" /><glyph glyph-name="uni4E16" unicode="&#x4e16;" d="M9 126 L9 152 L37 152 L37 198 L64 198 L64 152 L106 152 L106 208 L133 208 L133 152 L188 152 L188 208 L215 208 L215 152 L247 152 L247 126 L215 126 L215 42 L106 42 L106 126 L64 126 L64 5 L242 5 L242 -18 L37 -18 L37 126 L9 126 ZM133 126 L133 67 L188 67 L188 126 L133 126 Z" /><glyph glyph-name="uni4E1A" unicode="&#x4e1a;" d="M9 -16 L9 9 L81 9 L81 207 L109 207 L109 9 L147 9 L147 207 L174 207 L174 9 L247 9 L247 -16 L9 -16 ZM202 51 L177 62 Q192 94 218 163 L243 154 Q219 92 202 51 ZM51 51 Q32 107 14 155 L38 163 Q64 96 76 60 L51 51 Z" /><glyph glyph-name="uni4E1C" unicode="&#x4e1c;" d="M10 152 L10 177 L74 177 Q78 184 85 199 Q89 207 91 211 L122 207 Q119 202 114 192 Q109 182 106 177 L246 177 L246 152 L92 152 Q76 123 59 97 L122 97 L122 139 L151 139 L151 97 L236 97 L236 72 L151 72 L151 12 Q154 -26 114 -26 Q110 -26 99 -26 Q85 -27 79 -27 Q78 -19 74 -2 Q73 0 73 0 Q88 0 103 0 Q124 -1 122 18 L122 72 L27 72 L27 99 Q45 124 60 152 L10 152 ZM25 -18 Q16 -9 5 0 Q43 34 63 58 L85 42 Q64 17 25 -18 ZM231 -15 Q208 5 169 38 L188 56 Q212 37 251 4 L231 -15 Z" /><glyph glyph-name="uni4E24" unicode="&#x4e24;" d="M65 10 Q56 19 47 27 L47 -26 L21 -26 L21 141 L81 141 Q81 156 81 172 L8 172 L8 196 L248 196 L248 172 L176 172 L175 141 L234 141 L234 9 Q236 -24 202 -24 Q184 -24 166 -25 Q165 -21 164 -13 Q162 -4 161 0 Q167 0 177 -1 Q186 -1 190 -1 Q209 -2 208 13 L208 42 L194 24 Q193 26 190 29 Q173 49 163 59 Q154 34 129 3 Q120 12 109 20 Q148 62 148 118 L106 118 Q105 104 103 92 Q118 80 132 67 L118 46 L97 67 Q87 39 65 10 ZM47 118 L47 30 Q80 67 81 118 L47 118 ZM208 118 L173 118 Q173 100 170 86 Q195 61 208 47 L208 118 ZM107 172 L107 141 L150 141 L150 172 L107 172 Z" /><glyph glyph-name="uni4E25" unicode="&#x4e25;" d="M12 174 L12 198 L247 198 L247 174 L172 174 L172 110 L246 110 L246 87 L54 87 L54 68 Q56 8 28 -30 Q18 -23 5 -15 Q29 13 27 68 L27 110 L89 110 L89 174 L12 174 ZM114 174 L114 110 L147 110 L147 174 L114 174 ZM202 116 L183 131 Q196 145 213 168 L234 155 Q223 140 202 116 ZM56 118 Q49 128 33 149 Q30 154 28 156 L48 169 Q52 163 61 152 Q72 139 77 132 L56 118 Z" /><glyph glyph-name="uni4E26" unicode="&#x4e26;" d="M15 144 L15 168 L81 168 Q77 173 66 186 Q58 197 54 201 L78 211 Q91 198 109 178 L89 168 L147 168 Q167 196 177 211 L205 202 Q201 196 190 183 Q183 173 179 168 L240 168 L240 144 L174 144 L174 4 L247 4 L247 -19 L9 -19 L9 4 L82 4 L82 144 L15 144 ZM108 144 L108 4 L147 4 L147 144 L108 144 ZM201 25 L177 35 Q198 72 217 123 L241 114 Q220 64 201 25 ZM51 26 Q37 63 15 114 L38 123 Q59 76 76 36 L51 26 Z" /><glyph glyph-name="uni4E2A" unicode="&#x4e2a;" d="M232 86 Q165 122 129 174 Q91 120 23 81 Q22 83 18 88 Q9 102 6 107 Q87 151 119 211 L151 208 Q148 202 144 197 Q182 144 250 112 Q243 104 232 86 ZM113 -29 L113 119 L143 119 L143 -29 L113 -29 Z" /><glyph glyph-name="uni4E2D" unicode="&#x4e2d;" d="M20 39 L20 163 L113 163 L113 211 L142 211 L142 163 L235 163 L235 40 L207 40 L207 53 L142 53 L142 -30 L113 -30 L113 53 L48 53 L48 39 L20 39 ZM207 137 L142 137 L142 79 L207 79 L207 137 ZM48 137 L48 79 L113 79 L113 137 L48 137 Z" /><glyph glyph-name="uni4E30" unicode="&#x4e30;" d="M18 149 L18 175 L113 175 L113 210 L142 210 L142 175 L237 175 L237 149 L142 149 L142 113 L223 113 L223 88 L142 88 L142 51 L246 51 L246 26 L142 26 L142 -29 L113 -29 L113 26 L9 26 L9 51 L113 51 L113 88 L32 88 L32 113 L113 113 L113 149 L18 149 Z" /><glyph glyph-name="uni4E34" unicode="&#x4e34;" d="M108 -28 L108 100 L239 100 L239 -28 L216 -28 L216 -12 L131 -12 L131 -28 L108 -28 ZM60 -29 L60 210 L85 210 L85 -29 L60 -29 ZM111 111 Q109 113 104 117 Q95 126 90 129 Q124 163 139 211 L166 206 Q161 191 153 176 L248 176 L248 152 L140 152 Q129 132 111 111 ZM17 -6 L17 185 L39 185 L39 -6 L17 -6 ZM216 77 L184 77 L184 9 L216 9 L216 77 ZM131 77 L131 9 L162 9 L162 77 L131 77 ZM186 103 Q169 120 151 136 L168 151 Q174 146 187 136 Q199 125 205 120 L186 103 Z" /><glyph glyph-name="uni4E3A" unicode="&#x4e3a;" d="M30 -30 Q28 -28 25 -24 Q15 -12 9 -6 Q94 44 99 125 L15 125 L15 151 L102 151 Q105 180 105 211 L135 211 Q133 170 131 151 L236 151 Q235 134 233 91 Q231 43 230 25 Q229 -23 181 -23 Q158 -24 132 -24 Q129 -8 125 4 Q149 2 170 2 Q202 0 202 33 Q202 42 203 63 Q205 106 206 125 L129 125 Q121 26 30 -30 ZM165 39 Q155 51 136 71 Q130 78 127 81 L146 97 Q168 77 186 59 L165 39 ZM64 155 Q49 174 30 192 L50 208 Q56 203 68 191 Q80 180 86 174 L64 155 Z" /><glyph glyph-name="uni4E3B" unicode="&#x4e3b;" d="M20 141 L20 167 L236 167 L236 141 L142 141 L142 90 L225 90 L225 64 L142 64 L142 8 L246 8 L246 -17 L10 -17 L10 8 L114 8 L114 64 L31 64 L31 90 L114 90 L114 141 L20 141 ZM121 167 Q113 189 105 205 L134 211 Q140 198 150 174 L121 167 Z" /><glyph glyph-name="uni4E3D" unicode="&#x4e3d;" d="M71 39 Q68 46 62 59 Q58 67 45 94 L45 -29 L21 -29 L21 151 L115 151 L115 5 Q117 -25 86 -25 Q74 -25 60 -25 Q60 -24 60 -22 Q59 -15 56 -1 Q60 -2 78 -2 Q93 -3 92 9 L92 127 L45 127 L45 95 L63 103 Q79 73 90 47 L71 39 ZM138 -29 L138 151 L235 151 L235 3 Q237 -26 206 -25 Q195 -25 179 -25 Q178 -15 175 -3 Q187 -4 198 -4 Q212 -4 211 7 L211 127 L162 127 L162 -29 L138 -29 ZM8 173 L8 198 L247 198 L247 173 L8 173 ZM190 40 Q186 50 177 69 Q169 88 164 98 L182 105 Q191 88 208 53 Q206 56 210 48 L190 40 Z" /><glyph glyph-name="uni4E45" unicode="&#x4e45;" d="M230 -27 Q170 5 140 60 Q103 11 26 -29 Q24 -26 18 -18 Q10 -7 7 -3 Q122 49 153 148 L84 148 Q66 117 40 90 Q27 103 19 110 Q64 156 82 210 L112 206 Q106 189 98 174 L185 174 L185 148 Q174 113 156 84 Q186 26 249 0 Q246 -3 240 -13 Q233 -23 230 -27 Z" /><glyph glyph-name="uni4E49" unicode="&#x4e49;" d="M231 -26 Q161 -4 128 24 Q92 -4 24 -29 Q23 -27 20 -22 Q13 -11 7 -2 Q69 15 107 44 Q63 92 35 182 L62 192 Q85 109 128 63 Q174 113 191 194 L219 186 Q197 94 150 44 Q184 17 248 0 Q244 -4 236 -18 Q232 -24 231 -26 ZM126 143 Q112 178 100 202 L124 211 Q134 194 152 153 L126 143 Z" /><glyph glyph-name="uni4E4B" unicode="&#x4e4b;" d="M241 -20 Q194 -20 172 -20 Q147 -20 126 -19 Q81 -17 56 10 Q52 15 47 10 Q38 2 18 -21 Q32 -3 16 -23 L5 6 Q19 22 34 34 Q44 44 53 44 Q57 44 60 43 Q132 85 190 140 L24 140 L24 166 L119 166 Q118 168 116 172 Q107 195 102 205 L133 210 Q135 206 138 196 Q147 176 150 166 L228 166 L228 138 Q161 72 80 25 Q98 5 132 5 Q169 4 249 6 Q244 -7 241 -20 Z" /><glyph glyph-name="uni4E50" unicode="&#x4e50;" d="M23 79 L36 192 Q121 192 219 201 L228 176 Q127 168 61 167 L54 104 L118 104 L118 153 L146 153 L146 104 L237 104 L237 79 L146 79 L146 11 Q148 -26 112 -25 Q102 -26 77 -26 Q76 -19 71 0 Q88 0 102 0 Q119 0 118 17 L118 79 L23 79 ZM28 -16 Q17 -6 6 0 Q34 28 62 68 L86 54 Q54 10 28 -16 ZM226 -15 Q219 -7 204 11 Q180 40 169 53 L190 67 Q202 54 225 27 Q242 8 249 0 L226 -15 Z" /><glyph glyph-name="uni4E5F" unicode="&#x4e5f;" d="M114 25 L114 120 L65 108 L65 27 Q63 1 89 3 L191 3 Q217 2 218 20 Q222 36 223 53 Q230 51 243 48 Q248 47 250 46 Q247 23 243 6 Q238 -22 198 -21 L81 -21 Q36 -22 37 20 L37 101 L10 95 L6 120 L37 127 L37 183 L65 183 L65 134 L114 145 L114 211 L142 211 L142 152 L227 171 Q225 110 223 88 Q222 46 187 47 Q172 47 158 47 Q157 59 152 73 Q156 72 178 72 Q197 70 197 92 Q199 117 199 140 L142 126 L142 25 L114 25 Z" /><glyph glyph-name="uni4E66" unicode="&#x4e66;" d="M228 147 L207 163 L202 94 L239 94 Q238 82 239 86 Q237 47 236 33 Q235 -4 196 -3 Q185 -4 156 -4 Q153 10 151 20 Q156 20 167 20 Q179 19 185 19 Q208 18 208 38 Q210 54 210 69 L122 69 L122 -29 L94 -29 L94 69 L8 69 L8 94 L94 94 L94 141 L24 141 L24 166 L94 166 L94 210 L122 210 L122 166 L203 166 Q195 173 178 184 Q174 186 173 187 L190 206 Q218 188 245 168 L228 147 ZM178 141 L122 141 L122 94 L175 94 L178 141 Z" /><glyph glyph-name="uni4E70" unicode="&#x4e70;" d="M9 45 L9 70 L134 70 Q134 72 135 75 Q135 77 135 78 Q141 117 141 163 L169 163 Q168 105 163 77 Q162 74 162 70 L246 70 L246 45 L156 45 Q156 44 155 42 Q154 39 153 38 Q162 34 182 25 Q227 5 243 -1 L228 -26 Q200 -11 153 11 Q144 15 140 17 Q115 -12 27 -30 Q22 -16 13 -3 Q112 10 126 45 L9 45 ZM219 119 Q217 119 213 121 Q199 124 193 125 L211 174 L18 174 L18 198 L239 198 L239 175 L219 119 ZM84 73 Q59 90 26 108 L39 127 Q79 106 98 94 L84 73 ZM108 115 Q90 126 55 146 Q52 147 51 148 L64 167 Q86 156 122 136 L108 115 Z" /><glyph glyph-name="uni4E86" unicode="&#x4e86;" d="M61 -24 Q58 -9 55 3 Q60 3 74 3 Q89 2 96 2 Q120 1 118 25 L118 117 L197 170 L17 170 L17 195 L236 195 L236 165 L148 104 L148 17 Q150 -23 108 -23 Q91 -24 61 -24 Z" /><glyph glyph-name="uni4E88" unicode="&#x4e88;" d="M220 30 L193 39 L209 84 L144 84 L144 16 Q146 -26 106 -25 Q92 -26 62 -26 Q61 -19 58 -8 Q57 -2 56 0 Q67 0 93 0 Q117 -1 115 23 L115 84 L11 84 L11 109 L119 109 Q89 130 58 150 L76 168 Q108 146 126 135 L183 173 L31 173 L31 198 L222 198 L222 168 L148 120 L150 118 L141 109 L240 109 L240 84 L220 30 Z" /><glyph glyph-name="uni4E89" unicode="&#x4e89;" d="M30 33 L30 54 L110 54 L110 79 L7 79 L7 101 L110 101 L110 125 L40 125 L40 138 Q32 132 23 126 Q21 128 18 132 Q16 136 7 145 Q53 177 78 212 L108 209 Q106 206 102 200 Q97 194 95 191 L193 191 L193 172 L169 147 L221 147 L221 101 L249 101 L249 79 L221 79 L221 19 L195 19 L195 33 L137 33 L137 12 Q139 -26 101 -25 Q86 -26 62 -26 Q60 -12 57 0 Q69 -1 90 -1 Q111 -3 110 17 L110 33 L30 33 ZM158 170 L76 170 Q69 163 54 149 Q64 159 51 147 L137 147 L158 170 ZM137 79 L137 54 L195 54 L195 79 L137 79 ZM195 125 L137 125 L137 101 L195 101 L195 125 Z" /><glyph glyph-name="uni4E8B" unicode="&#x4e8b;" d="M8 173 L8 191 L114 191 L114 211 L141 211 L141 191 L248 191 L248 173 L141 173 L141 159 L221 159 L221 111 L141 111 L141 97 L226 97 L226 65 L249 65 L249 47 L226 47 L226 1 L201 1 L201 14 L141 14 L141 9 Q143 -25 108 -25 Q97 -26 69 -26 Q67 -13 64 -4 Q81 -4 97 -4 Q116 -6 114 12 L114 14 L22 14 L22 30 L114 30 L114 47 L8 47 L8 65 L114 65 L114 81 L23 81 L23 97 L114 97 L114 111 L34 111 L34 159 L114 159 L114 173 L8 173 ZM201 81 L141 81 L141 65 L201 65 L201 81 ZM141 47 L141 30 L201 30 L201 47 L141 47 ZM196 143 L141 143 L141 127 L196 127 L196 143 ZM60 143 L60 127 L114 127 L114 143 L60 143 Z" /><glyph glyph-name="uni4E8C" unicode="&#x4e8c;" d="M29 152 L29 181 L226 181 L226 152 L29 152 ZM11 -3 L11 24 L244 24 L244 -3 L11 -3 Z" /><glyph glyph-name="uni4E8E" unicode="&#x4e8e;" d="M28 169 L28 195 L228 195 L228 169 L146 169 L146 111 L247 111 L247 84 L146 84 L146 13 Q148 -26 109 -25 Q104 -25 87 -26 Q70 -26 64 -26 Q63 -22 62 -15 Q62 -10 59 1 Q77 1 97 1 Q118 0 116 21 L116 84 L8 84 L8 111 L116 111 L116 169 L28 169 Z" /><glyph glyph-name="uni4E91" unicode="&#x4e91;" d="M9 94 L9 121 L248 121 L248 94 L128 94 Q103 59 66 16 Q99 16 181 20 Q165 43 148 62 L171 76 Q186 59 217 20 Q233 0 240 -7 L215 -23 L200 -3 Q166 -4 92 -8 Q76 -9 68 -9 Q49 -10 35 -13 L22 14 Q35 21 48 36 Q72 64 91 94 L9 94 ZM30 168 L30 195 L225 195 L225 168 L30 168 Z" /><glyph glyph-name="uni4E94" unicode="&#x4e94;" d="M16 171 L16 197 L239 197 L239 171 L119 171 L109 115 L211 115 L211 7 L249 7 L249 -17 L7 -17 L7 7 L60 7 L74 89 L22 89 L22 115 L79 115 L89 171 L16 171 ZM183 89 L104 89 L89 7 L183 7 L183 89 Z" /><glyph glyph-name="uni4E9A" unicode="&#x4e9a;" d="M15 170 L15 196 L241 196 L241 170 L173 170 L173 8 L247 8 L247 -16 L8 -16 L8 8 L82 8 L82 170 L15 170 ZM109 170 L109 8 L146 8 L146 170 L109 170 ZM200 37 L177 48 Q198 91 219 145 L243 135 Q240 128 235 115 Q211 59 200 37 ZM51 38 Q40 72 14 136 L37 145 Q61 87 76 47 L51 38 Z" /><glyph glyph-name="uni4E9E" unicode="&#x4e9e;" d="M15 174 L15 198 L241 198 L241 174 L176 174 L176 136 L231 136 L231 47 L176 47 L176 4 L248 4 L248 -18 L8 -18 L8 4 L79 4 L79 47 L25 47 L25 136 L79 136 L79 174 L15 174 ZM204 113 L150 113 L150 174 L105 174 L105 113 L51 113 L51 70 L105 70 L105 4 L150 4 L150 70 L204 70 L204 113 Z" /><glyph glyph-name="uni4EA4" unicode="&#x4ea4;" d="M232 -28 Q163 -12 128 12 Q92 -12 21 -29 L9 -2 Q75 10 106 30 Q84 52 65 86 L89 98 Q109 65 128 48 Q149 67 163 100 L189 88 Q171 52 150 31 Q181 9 247 0 Q243 -6 238 -17 Q234 -24 232 -28 ZM11 152 L11 178 L117 178 Q111 194 105 206 L136 210 Q139 205 145 191 Q148 183 150 179 L146 178 L245 178 L245 152 L11 152 ZM27 72 Q17 87 10 96 Q52 118 87 148 L106 127 Q65 95 27 72 ZM227 76 Q189 103 150 127 L167 148 Q189 135 229 110 Q240 103 245 100 L227 76 Z" /><glyph glyph-name="uni4EA6" unicode="&#x4ea6;" d="M12 146 L12 172 L120 172 Q115 187 107 207 L138 211 Q140 205 144 194 Q149 180 151 172 L247 172 L247 146 L179 146 L179 12 Q180 -24 146 -23 Q130 -24 110 -24 Q110 -23 109 -20 Q106 -4 103 2 Q116 1 134 1 Q153 0 151 19 L151 146 L111 146 Q111 138 110 124 Q110 113 110 108 Q112 12 38 -31 Q36 -29 31 -24 Q23 -15 17 -10 Q56 14 68 38 Q81 61 82 108 Q83 114 83 127 Q84 140 84 146 L12 146 ZM226 36 Q214 60 191 103 Q192 101 188 108 L210 119 Q228 92 250 50 L226 36 ZM28 38 Q16 45 4 51 Q21 78 37 120 L62 110 Q43 65 28 38 Z" /><glyph glyph-name="uni4EA7" unicode="&#x4ea7;" d="M29 -29 Q26 -27 21 -23 Q10 -16 5 -12 Q33 18 31 73 L31 111 L88 111 Q84 117 76 128 Q67 139 63 144 L85 157 Q86 155 89 152 Q99 140 113 122 L94 111 L149 111 Q161 128 177 156 L203 144 Q193 129 179 111 L241 111 L241 87 L59 87 L59 71 Q61 11 29 -29 ZM14 159 L14 184 L122 184 Q120 190 116 202 Q115 205 114 207 L145 211 Q146 205 150 193 Q152 187 153 184 L247 184 L247 159 L14 159 Z" /><glyph glyph-name="uni4EAB" unicode="&#x4eab;" d="M7 17 L7 38 L119 38 L119 45 L171 60 L28 60 L28 80 L219 80 L219 60 L154 38 L248 38 L248 17 L146 17 L146 3 Q146 -26 116 -27 Q97 -27 73 -27 Q72 -22 70 -12 Q69 -7 68 -4 Q86 -5 103 -5 Q120 -6 119 7 L119 17 L7 17 ZM39 95 L39 151 L215 151 L215 95 L39 95 ZM9 165 L9 187 L116 187 Q114 192 111 202 Q110 206 109 208 L138 211 Q143 199 146 187 L247 187 L247 165 L9 165 ZM65 131 L65 114 L189 114 L189 131 L65 131 Z" /><glyph glyph-name="uni4EAC" unicode="&#x4eac;" d="M37 56 L37 135 L220 135 L220 56 L146 56 L146 7 Q148 -25 114 -26 Q109 -26 98 -27 Q88 -27 82 -27 Q81 -13 76 -1 Q79 -1 85 -1 Q96 -2 103 -1 Q120 -2 119 12 L119 56 L37 56 ZM9 157 L9 181 L117 181 Q116 186 112 195 Q109 204 107 208 L138 211 Q139 208 141 202 Q143 198 148 181 L247 181 L247 157 L9 157 ZM65 112 L65 79 L193 79 L193 112 L65 112 ZM22 -17 Q20 -14 15 -6 Q10 1 7 4 Q49 26 73 45 L90 26 Q71 12 31 -11 Q25 -15 22 -17 ZM231 -15 Q211 -2 173 18 Q168 21 165 23 L180 43 Q220 21 246 6 L231 -15 Z" /><glyph glyph-name="uni4EAE" unicode="&#x4eae;" d="M45 101 L45 154 L210 154 L210 101 L45 101 ZM22 -30 Q20 -28 17 -22 Q11 -12 8 -8 Q76 0 69 35 L69 50 L178 50 L178 9 Q177 -2 191 -1 L207 -1 Q220 -2 222 9 Q224 18 225 32 Q240 26 249 25 Q248 9 245 0 Q240 -23 211 -22 L181 -22 Q151 -23 152 4 L152 30 L95 30 L94 25 Q96 -18 22 -30 ZM14 45 L14 86 L242 86 L242 45 L217 45 L217 66 L39 66 L39 45 L14 45 ZM10 168 L10 190 L115 190 L109 209 L139 212 L145 190 L246 190 L246 168 L10 168 ZM72 136 L72 119 L184 119 L184 136 L72 136 Z" /><glyph glyph-name="uni4EB2" unicode="&#x4eb2;" d="M8 100 L8 123 L78 123 Q67 140 58 153 L84 161 Q89 153 99 138 Q105 128 108 124 L104 123 L149 123 Q155 132 165 148 Q171 157 174 161 L200 153 Q199 152 197 148 Q186 132 179 123 L248 123 L248 100 L144 100 L144 72 L236 72 L236 49 L144 49 L144 12 Q147 -26 108 -25 Q95 -26 77 -26 Q76 -14 71 0 Q81 -1 99 -1 Q118 -2 117 15 L117 49 L19 49 L19 72 L117 72 L117 100 L8 100 ZM19 162 L19 184 L117 184 L109 208 L140 211 L148 184 L236 184 L236 162 L19 162 ZM25 -17 Q20 -8 10 3 Q42 23 71 45 L89 27 Q56 2 25 -17 ZM227 -16 Q214 -7 183 12 Q169 20 163 24 L179 43 Q210 25 243 3 L227 -16 Z" /><glyph glyph-name="uni4EBA" unicode="&#x4eba;" d="M228 -24 Q143 21 128 106 Q113 22 26 -27 Q18 -14 7 -2 Q103 47 110 148 Q112 172 112 208 L142 208 Q141 205 141 190 Q140 178 140 172 Q149 42 248 1 Q235 -13 228 -24 Z" /><glyph glyph-name="uni4EC1" unicode="&#x4ec1;" d="M14 61 Q11 78 5 96 Q43 149 61 210 L88 202 Q83 188 70 160 Q67 153 66 150 L66 -29 L40 -29 L40 101 Q37 97 32 88 Q27 80 14 61 ZM87 -10 L87 16 L249 16 L249 -10 L87 -10 ZM100 153 L100 180 L238 180 L238 153 L100 153 Z" /><glyph glyph-name="uni4EC5" unicode="&#x4ec5;" d="M233 -26 Q189 -3 162 23 Q140 0 87 -29 Q85 -26 78 -17 Q72 -8 69 -4 Q117 17 143 44 Q110 86 94 163 L114 167 L88 167 L88 193 L234 193 L234 169 Q216 85 180 44 Q203 20 250 -1 Q242 -12 233 -26 ZM12 66 Q11 73 8 87 Q6 97 5 102 Q37 145 58 210 L84 203 Q74 175 62 148 L62 -28 L36 -28 L36 101 Q24 83 12 66 ZM206 167 L119 167 Q135 99 162 64 Q191 100 206 167 Z" /><glyph glyph-name="uni4ECA" unicode="&#x4eca;" d="M236 95 Q166 132 129 180 Q91 134 17 92 Q11 105 4 118 Q85 158 118 212 L151 209 L144 199 Q186 150 250 122 Q248 116 241 105 Q238 98 236 95 ZM145 -31 Q140 -26 126 -18 Q123 -16 121 -15 L180 52 L33 52 L33 78 L215 78 L215 52 L145 -31 ZM130 85 Q122 98 103 122 Q101 125 100 126 L120 141 Q123 138 128 131 Q145 111 153 101 L130 85 Z" /><glyph glyph-name="uni4ECB" unicode="&#x4ecb;" d="M233 89 Q164 126 129 176 Q91 127 22 86 Q18 91 9 106 Q7 109 6 111 Q79 149 118 210 L150 208 Q147 202 144 198 Q180 147 250 115 Q244 107 233 89 ZM45 -31 Q42 -28 35 -21 Q27 -14 23 -10 Q70 15 67 77 Q68 86 68 108 L96 108 Q96 105 96 96 Q95 83 95 77 Q98 4 45 -31 ZM158 -27 L158 109 L186 109 L186 -27 L158 -27 Z" /><glyph glyph-name="uni4ECE" unicode="&#x4ece;" d="M103 -29 Q100 -26 95 -21 Q86 -12 81 -7 Q149 49 151 141 Q153 181 153 208 L181 208 Q181 201 181 185 Q180 167 180 158 Q187 48 250 -1 Q247 -5 241 -14 Q234 -22 231 -26 Q180 22 168 89 Q159 25 103 -29 ZM114 56 L78 99 Q71 32 29 -26 Q17 -14 5 -5 Q51 48 53 141 Q54 157 55 187 Q56 200 56 208 L84 208 Q84 195 83 174 Q82 149 81 133 Q92 121 115 96 Q127 84 133 78 L114 56 Z" /><glyph glyph-name="uni4ED5" unicode="&#x4ed5;" d="M84 110 L84 136 L153 136 L153 207 L180 207 L180 136 L249 136 L249 110 L180 110 L180 7 L244 7 L244 -16 L89 -16 L89 7 L153 7 L153 110 L84 110 ZM12 61 Q9 79 5 97 Q41 144 64 210 L91 202 Q81 175 66 148 L66 -28 L40 -28 L40 101 Q27 80 12 61 Z" /><glyph glyph-name="uni4ED6" unicode="&#x4ed6;" d="M150 22 L150 119 L116 109 L116 21 Q114 -1 138 0 L195 0 Q218 0 221 17 Q224 31 226 45 Q238 41 250 36 Q247 16 243 1 Q237 -23 202 -22 L127 -22 Q89 -23 90 13 L90 102 L73 98 L69 123 L90 129 L90 184 L116 184 L116 135 L150 144 L150 209 L175 209 L175 151 L237 168 Q235 106 234 83 Q233 50 210 50 Q201 48 186 48 Q185 54 183 65 Q182 70 181 72 Q188 72 197 72 Q209 71 210 87 Q211 103 211 136 L175 126 L175 22 L150 22 ZM12 63 Q11 69 9 80 Q7 91 5 97 Q35 145 54 210 L80 203 Q71 176 60 150 L60 -28 L35 -28 L35 99 Q32 94 25 84 Q17 69 12 63 Z" /><glyph glyph-name="uni4ED8" unicode="&#x4ed8;" d="M83 131 L83 157 L186 157 L186 208 L214 208 L214 157 L246 157 L246 131 L214 131 L214 11 Q215 -26 178 -25 Q167 -26 137 -26 Q135 -13 132 0 Q138 0 150 0 Q161 0 166 0 Q187 -1 186 18 L186 131 L83 131 ZM13 65 Q10 83 6 100 Q41 151 59 210 L87 203 Q78 175 65 148 L65 -29 L38 -29 L38 100 Q26 81 13 65 ZM133 38 Q112 69 90 96 L110 110 Q135 83 156 55 L133 38 Z" /><glyph glyph-name="uni4EE3" unicode="&#x4ee3;" d="M82 99 L79 126 L131 132 Q131 141 129 162 Q128 193 127 210 L155 210 Q155 171 158 135 L243 145 L246 119 L160 108 Q165 52 179 23 Q191 0 205 0 Q217 0 219 16 Q219 18 220 21 Q224 41 225 49 Q228 48 233 46 Q244 42 249 40 Q248 27 242 4 Q234 -28 207 -27 Q174 -27 156 9 Q139 40 133 105 L82 99 ZM39 -28 L39 102 Q27 83 12 65 Q8 82 5 98 Q41 150 60 209 L88 201 Q78 174 66 149 L66 -28 L39 -28 ZM212 150 Q211 151 208 154 Q186 174 172 185 L190 202 Q217 181 231 168 L212 150 Z" /><glyph glyph-name="uni4EE4" unicode="&#x4ee4;" d="M163 -31 Q135 -13 78 18 Q62 28 54 32 L70 51 L128 19 L182 66 L32 66 L32 90 L219 90 L219 63 L153 5 Q155 4 159 2 Q174 -4 181 -9 L163 -31 ZM236 98 Q164 133 129 180 Q88 132 17 95 Q11 108 4 121 Q83 158 118 212 L151 209 Q150 208 149 206 Q145 202 144 199 Q187 149 251 124 Q247 118 240 104 Q237 100 236 98 ZM131 93 Q128 96 122 103 Q107 122 99 131 L120 145 Q124 141 131 133 Q146 117 153 109 L131 93 Z" /><glyph glyph-name="uni4EE5" unicode="&#x4ee5;" d="M228 -23 Q225 -19 219 -11 Q206 5 185 30 Q164 0 109 -30 Q100 -17 90 -6 Q190 35 186 135 Q187 154 187 204 L216 204 Q216 181 214 142 Q214 137 214 134 Q211 83 199 56 Q214 41 242 8 Q248 1 251 -1 L228 -23 ZM32 -17 L13 5 Q24 16 23 33 L23 201 L52 201 L52 33 Q83 53 113 76 Q115 56 119 45 Q97 30 50 -1 Q41 -8 32 -17 ZM119 132 Q103 165 83 196 L106 209 Q127 176 145 146 L119 132 Z" /><glyph glyph-name="uni4EEC" unicode="&#x4eec;" d="M161 -27 Q161 -25 160 -21 Q157 -5 155 0 Q172 0 189 0 Q212 -1 210 20 L210 166 L156 166 L156 192 L238 192 L238 13 Q239 -25 203 -26 Q174 -26 161 -27 ZM12 63 L6 101 Q36 151 52 209 L79 202 Q74 185 62 156 Q61 152 60 151 L60 -29 L34 -29 L34 98 Q29 91 20 76 Q15 67 12 63 ZM92 -26 L92 149 L120 149 L120 -26 L92 -26 ZM121 156 Q108 176 93 195 L115 209 Q125 196 145 172 L121 156 Z" /><glyph glyph-name="uni4EF0" unicode="&#x4ef0;" d="M153 -28 L153 185 Q131 175 111 169 L111 37 Q115 39 127 45 Q139 51 145 54 Q145 33 146 26 Q123 16 107 6 Q103 4 97 0 Q94 -1 92 -2 L78 15 Q86 26 86 35 L86 187 Q112 194 140 207 L153 189 L239 189 L239 38 Q240 8 212 6 Q204 5 189 5 Q186 15 183 30 Q192 29 200 29 Q215 29 214 43 L214 165 L179 165 L179 -28 L153 -28 ZM33 -28 L33 97 Q24 79 13 63 Q13 64 12 67 Q8 87 6 98 Q34 146 50 211 L77 205 Q68 176 58 149 L58 -28 L33 -28 Z" /><glyph glyph-name="uni4EF6" unicode="&#x4ef6;" d="M102 89 Q96 92 82 97 Q79 98 77 99 Q96 135 108 193 L134 188 Q131 171 126 156 L160 156 L160 210 L187 210 L187 156 L242 156 L242 130 L187 130 L187 76 L250 76 L250 49 L187 49 L187 -29 L160 -29 L160 49 L77 49 L77 76 L160 76 L160 130 L118 130 Q111 109 102 89 ZM12 62 Q9 82 6 98 Q35 143 55 209 L81 202 Q73 175 62 151 L62 -28 L36 -28 L36 99 Q26 80 12 62 Z" /><glyph glyph-name="uni4EFB" unicode="&#x4efb;" d="M97 161 Q95 175 92 187 Q164 190 236 197 L242 172 Q214 169 182 167 L182 101 L250 101 L250 75 L182 75 L182 7 L244 7 L244 -16 L90 -16 L90 7 L155 7 L155 75 L84 75 L84 101 L155 101 L155 165 Q126 162 97 161 ZM13 65 Q10 82 5 98 Q39 147 58 210 L86 202 Q75 171 65 151 L65 -29 L39 -29 L39 101 Q38 99 35 95 Q26 82 13 65 Z" /><glyph glyph-name="uni4EFD" unicode="&#x4efd;" d="M143 -24 Q142 -12 137 0 Q154 0 166 0 Q189 0 189 20 Q191 56 191 83 L145 83 Q145 11 90 -29 Q80 -19 70 -9 Q120 22 118 83 L97 83 L97 105 Q90 98 82 90 Q80 94 76 101 Q72 110 69 115 Q106 147 126 202 L151 194 Q130 141 99 108 L219 108 Q217 39 215 14 Q215 -23 176 -24 Q161 -24 143 -24 ZM13 66 Q9 84 6 102 Q37 147 57 209 L84 202 Q74 172 60 145 L60 -28 L34 -28 L34 98 Q30 91 21 78 Q16 70 13 66 ZM239 95 Q184 136 165 199 L189 207 Q209 151 249 123 Q248 119 245 112 Q241 101 239 95 Z" /><glyph glyph-name="uni4EFF" unicode="&#x4eff;" d="M83 145 L83 170 L154 170 Q148 193 143 206 L173 210 Q175 204 178 192 Q183 177 185 170 L249 170 L249 145 L144 145 L143 111 L233 111 Q231 55 229 20 Q229 -22 188 -22 Q177 -23 153 -23 Q151 -9 147 2 Q166 2 180 2 Q202 0 202 25 Q205 51 205 87 L142 87 Q142 18 95 -29 Q83 -20 71 -12 Q118 30 116 97 L118 145 L83 145 ZM14 63 Q13 70 9 85 Q7 92 6 96 Q39 145 58 209 L85 201 Q76 174 65 150 L65 -28 L39 -28 L39 99 Q27 81 14 63 Z" /><glyph glyph-name="uni4F01" unicode="&#x4f01;" d="M14 -18 L14 5 L48 5 L48 97 L76 97 L76 5 L122 5 L122 133 L149 133 L149 84 L217 84 L217 60 L149 60 L149 5 L240 5 L240 -18 L14 -18 ZM234 102 Q164 135 130 181 Q94 135 22 98 Q20 102 14 110 Q9 119 6 122 Q88 161 118 211 L150 209 Q149 208 148 205 Q146 203 145 201 Q179 155 250 127 Q241 114 234 102 Z" /><glyph glyph-name="uni4F11" unicode="&#x4f11;" d="M80 132 L80 158 L146 158 L146 209 L173 209 L173 158 L242 158 L242 132 L177 132 Q199 67 249 28 Q246 24 240 15 Q235 8 232 4 Q191 43 173 89 L173 -28 L146 -28 L146 89 Q125 41 84 1 Q81 6 73 16 Q68 22 66 25 Q121 70 142 132 L80 132 ZM12 66 Q9 86 6 102 Q41 151 58 211 L84 204 Q75 175 62 149 L62 -28 L36 -28 L36 100 Q26 83 12 66 Z" /><glyph glyph-name="uni4F17" unicode="&#x4f17;" d="M234 103 Q162 136 130 180 Q92 134 22 100 Q17 110 7 124 Q89 161 119 212 L151 209 L145 200 Q181 155 249 129 Q245 124 238 110 Q235 105 234 103 ZM230 -26 Q183 10 173 52 Q163 7 112 -29 Q105 -21 92 -8 Q153 30 156 90 Q157 96 157 107 Q158 117 158 123 L184 123 Q184 108 183 102 Q192 33 250 -3 Q246 -7 237 -17 Q232 -23 230 -26 ZM118 29 Q102 45 86 60 Q75 10 26 -26 Q24 -24 20 -20 Q11 -10 6 -6 Q59 31 63 85 Q65 99 67 121 L94 121 Q94 117 93 110 Q92 96 91 88 Q114 70 135 50 L118 29 Z" /><glyph glyph-name="uni4F18" unicode="&#x4f18;" d="M77 121 L77 147 L125 147 Q126 178 126 209 L153 209 Q153 197 152 175 Q152 156 152 147 L243 147 L243 121 L150 121 Q148 30 87 -29 Q77 -19 66 -8 Q122 43 123 121 L77 121 ZM12 66 Q9 86 6 102 Q40 151 59 210 L86 201 Q76 172 62 145 L62 -28 L36 -28 L36 99 Q24 83 12 66 ZM189 -21 Q157 -22 158 9 L158 118 L185 118 L185 15 Q184 2 196 3 L206 3 Q218 3 220 17 Q220 19 221 24 Q223 44 224 56 Q227 55 234 52 Q245 49 249 47 Q246 22 243 5 Q237 -21 209 -21 L189 -21 ZM209 154 Q189 171 171 185 L188 203 Q209 188 227 173 L209 154 Z" /><glyph glyph-name="uni4F1A" unicode="&#x4f1a;" d="M233 102 Q222 108 202 119 Q196 123 193 125 L193 102 L62 102 L62 123 Q43 111 21 99 Q18 106 8 120 Q7 122 6 123 Q82 160 119 212 L151 209 L145 201 Q181 154 249 127 Q241 115 233 102 ZM14 49 L14 74 L241 74 L241 49 L119 49 Q96 25 75 3 Q82 3 96 4 Q146 5 174 7 L152 30 L171 45 Q181 35 202 14 Q221 -3 230 -12 L209 -30 Q202 -21 194 -14 Q148 -14 76 -19 Q58 -20 45 -23 L32 1 Q45 7 54 16 Q66 27 85 49 L14 49 ZM130 181 Q101 149 67 127 L190 127 Q153 150 130 181 Z" /><glyph glyph-name="uni4F20" unicode="&#x4f20;" d="M88 154 L88 177 L133 177 Q135 183 137 194 Q140 205 141 210 L169 208 Q166 194 161 177 L241 177 L241 154 L154 154 Q152 147 148 133 Q147 128 146 126 L249 126 L249 103 L140 103 L132 77 L235 77 L235 52 L186 6 L219 -7 L204 -30 Q172 -13 117 11 Q100 19 91 23 L104 44 L162 18 L201 55 L104 55 L104 77 L112 103 L77 103 L77 126 L119 126 L127 154 L88 154 ZM13 63 Q12 69 9 83 Q7 92 6 96 Q39 147 55 210 L81 203 Q74 176 63 151 L63 -28 L37 -28 L37 99 Q27 80 13 63 Z" /><glyph glyph-name="uni4F34" unicode="&#x4f34;" d="M86 93 L86 118 L149 118 L149 210 L176 210 L176 118 L240 118 L240 93 L176 93 L176 59 L249 59 L249 34 L176 34 L176 -29 L149 -29 L149 34 L77 34 L77 59 L149 59 L149 93 L86 93 ZM12 64 Q11 68 10 76 Q7 92 6 100 Q38 146 58 211 L84 203 Q75 176 63 149 L63 -28 L37 -28 L37 100 Q25 81 12 64 ZM211 129 L189 141 Q202 158 219 189 L242 178 Q235 166 219 141 Q214 133 211 129 ZM112 130 Q99 154 84 178 L106 189 Q121 165 135 142 L112 130 Z" /><glyph glyph-name="uni4F38" unicode="&#x4f38;" d="M149 -29 L149 33 L111 33 L111 19 L86 19 L86 169 L149 169 L149 209 L175 209 L175 169 L238 169 L238 19 L212 19 L212 33 L175 33 L175 -29 L149 -29 ZM34 -28 L34 95 Q24 79 12 63 Q11 72 8 85 Q7 94 6 98 Q37 148 55 210 L81 204 Q72 173 59 145 L59 -28 L34 -28 ZM212 146 L175 146 L175 111 L212 111 L212 146 ZM175 90 L175 56 L212 56 L212 90 L175 90 ZM111 146 L111 111 L149 111 L149 146 L111 146 ZM111 90 L111 56 L149 56 L149 90 L111 90 Z" /><glyph glyph-name="uni4F46" unicode="&#x4f46;" d="M94 39 L94 197 L233 197 L233 39 L94 39 ZM13 63 Q12 71 9 85 Q7 95 6 100 Q38 153 54 209 L81 202 Q80 199 78 194 Q67 162 60 146 L60 -28 L33 -28 L33 95 Q24 78 13 63 ZM76 -16 L76 8 L249 8 L249 -16 L76 -16 ZM121 105 L121 63 L206 63 L206 105 L121 105 ZM121 173 L121 130 L206 130 L206 173 L121 173 Z" /><glyph glyph-name="uni4F48" unicode="&#x4f48;" d="M84 153 L84 177 L128 177 Q134 193 140 211 L167 207 Q161 191 155 177 L248 177 L248 153 L145 153 Q135 130 121 109 L155 109 L155 141 L180 141 L180 109 L239 109 L239 29 Q239 0 214 0 Q204 0 192 0 Q192 3 190 10 Q189 19 188 23 Q196 23 204 23 Q214 22 214 35 L214 86 L180 86 L180 -29 L155 -29 L155 86 L122 86 L122 -1 L97 -1 L97 76 Q95 74 91 69 Q87 64 74 50 Q72 56 66 71 Q65 75 64 77 Q101 115 118 153 L84 153 ZM13 69 Q12 73 10 81 Q9 88 5 103 Q38 148 58 210 L84 204 Q74 175 61 148 L61 -28 L36 -28 L36 103 Q25 86 13 69 Z" /><glyph glyph-name="uni4F4D" unicode="&#x4f4d;" d="M14 64 Q13 68 11 76 Q9 83 6 99 Q36 144 56 211 L83 202 Q74 176 63 152 L63 -29 L37 -29 L37 100 Q26 82 14 64 ZM77 -18 L77 5 L162 5 Q185 70 202 129 L230 121 Q219 87 195 21 Q191 10 189 5 L249 5 L249 -18 L77 -18 ZM82 142 L82 167 L153 167 L140 207 L170 210 L183 167 L244 167 L244 142 L82 142 ZM124 22 Q112 69 94 121 L120 129 Q125 113 136 79 Q146 45 151 29 L124 22 Z" /><glyph glyph-name="uni4F4E" unicode="&#x4f4e;" d="M96 -20 L80 0 Q91 8 90 26 L90 191 Q166 194 235 201 L242 177 Q233 176 216 175 Q196 173 186 172 Q186 144 188 116 L247 116 L247 93 L189 93 Q194 39 208 13 Q214 4 219 4 Q225 5 225 12 Q227 21 229 45 Q241 40 251 37 Q251 34 250 29 Q248 4 245 -2 Q240 -24 219 -24 Q198 -24 185 2 Q166 34 163 93 L116 93 L116 18 Q142 32 156 39 Q157 35 158 27 Q159 18 159 14 L151 10 Q164 -4 174 -18 L152 -29 Q147 -23 138 -9 Q133 -2 131 0 Q121 -3 113 -9 Q104 -14 96 -20 ZM36 -28 L36 101 Q30 90 15 70 Q13 67 12 66 Q10 73 8 86 Q6 95 5 99 Q39 146 58 210 L83 203 Q74 174 61 147 L61 -28 L36 -28 ZM162 116 Q161 125 161 143 Q160 161 160 170 Q153 170 138 169 Q124 168 116 167 L116 116 L162 116 Z" /><glyph glyph-name="uni4F4F" unicode="&#x4f4f;" d="M88 141 L88 166 L157 166 Q156 169 153 178 Q147 197 144 206 L172 210 Q173 206 176 198 Q183 179 185 171 L160 166 L243 166 L243 141 L180 141 L180 90 L237 90 L237 65 L180 65 L180 7 L249 7 L249 -16 L82 -16 L82 7 L152 7 L152 65 L95 65 L95 90 L152 90 L152 141 L88 141 ZM14 63 Q10 81 5 97 Q43 152 61 210 L89 204 Q78 176 66 150 L66 -29 L40 -29 L40 101 Q28 83 14 63 Z" /><glyph glyph-name="uni4F53" unicode="&#x4f53;" d="M79 139 L79 163 L142 163 L142 210 L168 210 L168 163 L239 163 L239 139 L179 139 Q203 79 249 41 Q248 37 243 28 Q238 19 236 14 Q188 60 168 116 L168 38 L205 38 L205 15 L168 15 L168 -28 L142 -28 L142 15 L105 15 L105 38 L142 38 L142 115 Q121 57 76 10 Q73 17 65 32 Q62 36 61 38 Q108 77 131 139 L79 139 ZM35 -28 L35 97 Q24 81 12 64 Q11 73 7 89 Q6 96 5 99 Q36 145 55 210 L82 203 Q72 172 60 146 L60 -28 L35 -28 Z" /><glyph glyph-name="uni4F55" unicode="&#x4f55;" d="M86 168 L86 193 L249 193 L249 168 L230 168 L230 14 Q232 -24 193 -24 Q182 -25 152 -25 Q151 -17 148 -3 Q147 0 147 0 Q154 0 166 0 Q177 0 182 0 Q205 -2 203 18 L203 168 L86 168 ZM91 31 L91 139 L175 139 L175 31 L91 31 ZM12 67 Q9 85 5 102 Q37 150 56 210 L82 203 Q73 177 63 154 L63 -28 L37 -28 L37 104 Q26 85 12 67 ZM114 117 L114 54 L151 54 L151 117 L114 117 Z" /><glyph glyph-name="uni4F59" unicode="&#x4f59;" d="M234 109 Q213 117 197 126 L197 110 L145 110 L145 81 L240 81 L240 56 L145 56 L145 8 Q148 -27 110 -27 Q105 -27 95 -28 Q85 -28 79 -28 Q78 -25 77 -18 Q75 -7 73 -1 Q82 -2 100 -2 Q118 -3 117 13 L117 56 L16 56 L16 81 L117 81 L117 110 L59 110 L59 126 Q42 116 21 106 Q14 120 6 131 Q88 164 119 212 L151 209 L145 201 Q183 154 249 135 Q247 131 242 122 Q237 114 234 109 ZM129 182 Q106 155 72 134 L185 134 Q153 154 129 182 ZM27 -20 Q20 -10 10 0 Q42 21 69 49 L88 31 Q71 14 38 -11 Q31 -17 27 -20 ZM227 -18 Q204 1 165 29 L182 47 Q215 25 244 2 L227 -18 Z" /><glyph glyph-name="uni4F5B" unicode="&#x4f5b;" d="M86 -29 L67 -9 Q109 14 112 49 L69 49 L76 124 L118 124 L118 155 L75 155 L75 177 L115 177 L115 209 L140 209 L140 177 L165 177 L165 209 L190 209 L190 177 L234 177 L234 102 L190 102 L190 72 L244 72 Q244 46 242 22 Q242 -2 217 -2 Q215 -2 209 -2 Q203 -3 200 -3 Q199 0 198 7 Q196 14 195 17 Q201 17 209 17 Q221 17 220 28 Q221 34 221 49 L190 49 L190 -25 L165 -25 L165 49 L138 49 Q134 3 86 -29 ZM31 -28 L31 98 Q22 82 12 65 Q11 73 7 90 Q6 97 5 100 Q32 147 48 210 L73 205 Q69 183 55 149 L55 -28 L31 -28 ZM140 155 L140 124 L165 124 L165 155 L140 155 ZM212 155 L187 155 L187 124 L212 124 L212 155 ZM140 88 Q140 79 140 72 L165 72 L165 102 L140 102 L140 88 ZM117 72 L118 102 L96 102 L93 72 L117 72 Z" /><glyph glyph-name="uni4F5C" unicode="&#x4f5c;" d="M93 92 Q84 101 74 112 Q105 151 123 211 L151 206 Q148 199 143 185 Q140 177 138 173 L249 173 L249 148 L166 148 L166 111 L235 111 L235 86 L166 86 L166 48 L242 48 L242 24 L166 24 L166 -28 L140 -28 L140 148 L127 148 Q112 117 93 92 ZM14 63 Q12 72 8 89 Q7 93 6 95 Q39 146 58 211 L84 204 Q76 178 65 152 L65 -28 L39 -28 L39 101 Q27 81 14 63 Z" /><glyph glyph-name="uni4F73" unicode="&#x4f73;" d="M92 38 L92 62 L150 62 L150 87 L178 87 L178 62 L237 62 L237 38 L178 38 L178 3 L248 3 L248 -19 L80 -19 L80 3 L150 3 L150 38 L92 38 ZM93 152 L93 176 L150 176 L150 208 L178 208 L178 176 L235 176 L235 152 L178 152 L178 120 L244 120 L244 96 L84 96 L84 120 L150 120 L150 152 L93 152 ZM14 68 Q13 74 10 85 Q8 96 6 101 Q39 150 60 210 L87 204 Q76 174 64 149 L64 -29 L38 -29 L38 101 Q35 97 30 90 Q20 75 14 68 Z" /><glyph glyph-name="uni4F7F" unicode="&#x4f7f;" d="M236 -26 Q170 -19 140 -2 Q119 -17 82 -30 Q80 -28 75 -21 Q69 -12 65 -7 Q99 1 117 11 Q101 24 88 43 L106 56 Q119 39 135 27 Q144 40 146 61 L84 61 L84 137 L148 137 L148 159 L78 159 L78 182 L148 182 L148 210 L175 210 L175 182 L247 182 L247 159 L174 159 L174 137 L238 137 L238 56 L212 56 L212 61 L172 61 Q169 30 157 14 Q185 1 247 -1 Q241 -14 236 -26 ZM33 -28 L33 96 Q24 79 12 64 Q11 72 8 85 Q7 94 6 99 Q37 151 52 210 L78 204 Q70 174 58 146 L58 -28 L33 -28 ZM174 89 Q174 86 174 83 L212 83 L212 116 L174 116 L174 89 ZM147 83 Q147 84 147 86 Q148 88 148 90 L148 116 L110 116 L110 83 L147 83 Z" /><glyph glyph-name="uni4F86" unicode="&#x4f86;" d="M12 159 L12 183 L114 183 L114 211 L142 211 L142 183 L244 183 L244 159 L142 159 L142 86 Q181 34 250 11 Q241 -1 236 -13 Q174 11 142 53 L142 -29 L114 -29 L114 53 Q80 11 21 -15 Q14 -3 6 8 Q75 34 114 86 L114 159 L12 159 ZM87 73 Q77 85 60 101 Q48 81 29 61 Q21 70 12 79 Q44 109 55 150 L80 147 Q79 141 74 129 Q72 124 71 122 Q85 111 104 93 L87 73 ZM226 66 Q222 70 214 78 Q199 94 190 102 Q181 89 169 75 Q160 84 151 92 Q176 115 185 150 L210 147 Q207 134 201 122 Q211 114 229 98 Q238 90 243 86 L226 66 Z" /><glyph glyph-name="uni4F9B" unicode="&#x4f9b;" d="M81 136 L81 160 L111 160 L111 209 L137 209 L137 160 L184 160 L184 209 L210 209 L210 160 L240 160 L240 136 L210 136 L210 73 L248 73 L248 49 L73 49 L73 73 L111 73 L111 136 L81 136 ZM12 67 Q11 73 9 85 Q7 98 6 103 Q38 150 55 210 L82 203 Q73 175 61 150 L61 -29 L35 -29 L35 100 Q24 84 12 67 ZM137 136 L137 73 L184 73 L184 136 L137 136 ZM92 -29 Q85 -21 71 -10 Q94 6 126 42 L148 27 Q121 -1 92 -29 ZM227 -28 Q201 -1 172 26 L192 42 Q202 33 220 16 Q238 0 248 -9 L227 -28 Z" /><glyph glyph-name="uni4F9D" unicode="&#x4f9d;" d="M73 33 Q70 37 63 47 Q62 48 61 49 L61 -28 L36 -28 L36 100 Q25 83 13 66 Q12 72 9 86 Q7 95 6 99 Q39 148 56 210 L82 202 Q73 174 61 147 L61 56 Q112 94 137 145 L77 145 L77 169 L151 169 Q147 179 137 200 Q138 198 135 205 L161 211 Q164 206 170 193 Q176 179 178 174 L163 169 L247 169 L247 145 L169 145 Q175 112 184 87 Q209 107 226 121 L242 102 Q222 86 194 67 Q212 32 250 5 Q242 -2 232 -16 Q168 27 151 122 Q146 111 132 92 Q131 90 130 89 L133 89 L133 8 Q155 18 170 27 Q172 12 173 2 Q164 -1 145 -11 Q133 -17 129 -19 Q120 -23 113 -29 L98 -8 Q108 1 108 16 L108 64 Q93 48 73 33 Z" /><glyph glyph-name="uni4FBF" unicode="&#x4fbf;" d="M214 44 L214 49 L171 49 Q166 24 156 10 Q182 0 249 -2 Q243 -12 238 -26 Q165 -19 137 -5 Q117 -18 81 -30 Q80 -28 77 -24 Q71 -14 67 -9 Q70 -8 76 -6 Q105 1 114 7 Q101 17 86 35 L104 49 Q121 30 134 22 Q143 33 146 49 L86 49 L86 156 L149 156 L149 176 L82 176 L82 198 L246 198 L246 176 L174 176 L174 156 L237 156 L237 44 L214 44 ZM12 62 Q9 80 5 96 Q37 147 52 210 L78 203 Q69 175 59 149 L59 -29 L35 -29 L35 98 Q32 93 25 83 Q17 68 12 62 ZM173 81 Q173 75 173 70 L214 70 L214 93 L173 93 L173 81 ZM148 70 Q149 76 149 82 L149 93 L109 93 L109 70 L148 70 ZM214 135 L174 135 L174 112 L214 112 L214 135 ZM109 135 L109 112 L149 112 L149 135 L109 135 Z" /><glyph glyph-name="uni4FC3" unicode="&#x4fc3;" d="M92 106 L92 197 L231 197 L231 106 L178 106 L178 70 L240 70 L240 47 L178 47 L178 3 Q209 3 251 3 Q248 -4 243 -20 Q192 -20 172 -19 Q128 -17 109 15 Q103 -4 83 -30 L63 -11 Q95 20 95 85 L120 84 Q120 80 119 72 Q118 56 117 48 Q130 16 152 7 L152 106 L92 106 ZM12 62 Q11 67 10 76 Q7 89 6 97 Q39 146 56 210 L82 203 Q73 172 59 142 L59 -29 L34 -29 L34 94 Q24 77 12 62 ZM118 174 L118 130 L205 130 L205 174 L118 174 Z" /><glyph glyph-name="uni4FD7" unicode="&#x4fd7;" d="M94 -29 L94 67 L79 58 Q78 60 75 65 Q72 70 65 80 Q125 111 150 159 L176 156 L171 146 Q198 106 249 84 Q246 78 240 67 Q237 63 236 61 Q229 64 221 69 L221 -29 L196 -29 L196 -14 L121 -14 L121 -29 L94 -29 ZM33 -29 L33 100 Q27 90 14 72 Q12 68 11 67 Q10 71 9 81 Q6 95 5 101 Q37 148 56 210 L83 203 Q71 173 58 146 L58 -29 L33 -29 ZM121 51 L121 8 L196 8 L196 51 L121 51 ZM158 126 Q139 98 105 74 L212 74 Q178 95 158 126 ZM227 135 Q202 160 167 190 L185 206 Q225 174 246 154 L227 135 ZM92 132 L74 150 Q101 174 127 205 L148 190 Q119 156 92 132 Z" /><glyph glyph-name="uni4FDD" unicode="&#x4fdd;" d="M90 113 L90 200 L230 200 L230 113 L173 113 L173 85 L248 85 L248 61 L188 61 Q206 31 250 10 Q248 7 243 -1 Q238 -9 236 -12 Q191 13 173 50 L173 -28 L146 -28 L146 49 Q123 8 80 -15 Q70 0 64 5 Q107 28 130 61 L70 61 L70 85 L146 85 L146 113 L90 113 ZM34 -28 L34 97 Q24 81 12 64 Q11 70 9 79 Q7 92 6 98 Q35 149 51 210 L77 203 Q70 175 59 149 L59 -28 L34 -28 ZM116 176 L116 136 L205 136 L205 176 L116 176 Z" /><glyph glyph-name="uni4FE1" unicode="&#x4fe1;" d="M90 -28 L90 60 L234 60 L234 -28 L209 -28 L209 -15 L115 -15 L115 -28 L90 -28 ZM34 -28 L34 99 Q24 81 12 65 Q9 81 6 99 Q35 145 53 210 L79 203 Q71 175 59 148 L59 -28 L34 -28 ZM78 158 L78 182 L150 182 L141 207 L170 210 L180 182 L248 182 L248 158 L78 158 ZM89 119 L89 140 L235 140 L235 119 L89 119 ZM89 79 L89 100 L235 100 L235 79 L89 79 ZM115 38 L115 5 L209 5 L209 38 L115 38 Z" /><glyph glyph-name="uni4FEC" unicode="&#x4fec;" d="M144 47 L125 67 L125 -28 L102 -28 L102 68 Q90 35 72 13 Q71 16 67 24 Q63 35 61 40 Q85 67 100 112 L68 112 L68 136 L102 136 L102 171 Q90 169 76 169 Q75 173 73 181 Q72 190 71 192 Q74 192 80 193 Q127 196 150 199 L155 177 Q145 175 128 173 Q126 173 125 173 L125 136 L157 136 L157 112 L125 112 L125 93 L126 95 Q143 82 155 69 Q154 66 151 61 Q150 57 144 47 ZM227 -26 L223 -5 Q188 -7 171 -10 Q163 -10 153 -14 L141 6 Q151 18 154 33 Q176 119 187 205 L214 201 Q191 80 173 14 L217 17 Q216 20 214 27 Q209 53 197 93 L219 100 Q222 89 221 92 Q242 12 250 -19 L227 -26 ZM31 -28 L31 99 Q22 83 12 66 Q11 71 7 90 Q6 98 5 101 Q33 149 47 210 L72 206 Q64 176 55 150 L55 -28 L31 -28 Z" /><glyph glyph-name="uni4FEE" unicode="&#x4fee;" d="M242 92 Q199 103 176 115 Q145 99 109 88 Q102 102 98 109 Q133 118 155 129 Q143 139 132 151 Q123 141 113 130 Q111 132 108 136 Q102 143 98 148 Q128 177 142 210 L168 207 Q164 198 159 189 L234 189 L234 168 Q219 146 197 129 Q218 120 250 115 Q245 103 242 92 ZM31 -28 L31 99 Q22 81 13 66 Q9 84 6 100 Q31 145 47 210 L72 206 Q66 178 55 152 L55 -28 L31 -28 ZM72 11 L72 170 L95 170 L95 11 L72 11 ZM105 -29 Q103 -24 97 -13 Q96 -9 95 -8 Q178 8 233 47 L247 29 Q191 -9 105 -29 ZM119 12 Q112 26 108 32 Q171 50 215 79 L228 63 Q178 31 119 12 ZM119 52 Q114 62 108 71 Q157 84 190 106 L204 91 Q160 66 119 52 ZM206 168 L145 168 Q159 152 175 140 Q193 152 206 168 Z" /><glyph glyph-name="uni4FEF" unicode="&#x4fef;" d="M113 56 Q107 61 101 67 Q99 12 78 -27 Q75 -24 69 -17 Q62 -10 59 -7 Q70 14 74 34 Q77 53 77 95 L77 182 L153 182 L146 208 L174 211 Q174 209 176 205 Q179 190 181 182 L248 182 L248 159 L101 159 L101 95 Q101 86 101 79 Q125 110 139 156 L163 148 Q161 144 158 136 Q155 127 146 109 L146 -28 L122 -28 L122 69 L113 56 ZM30 -29 L30 96 Q23 81 12 65 Q11 73 6 94 Q5 98 5 100 Q35 155 47 211 L73 205 Q64 175 54 148 L54 -29 L30 -29 ZM158 95 L158 118 L205 118 L205 151 L228 151 L228 118 L248 118 L248 95 L228 95 L228 10 Q230 -25 196 -25 Q188 -26 169 -26 Q168 -14 164 -1 Q171 -2 187 -2 Q206 -3 205 15 L205 95 L158 95 ZM177 30 Q173 38 166 52 Q159 67 155 73 L173 82 Q177 75 184 61 Q192 47 195 40 L177 30 Z" /><glyph glyph-name="uni4FF1" unicode="&#x4ff1;" d="M70 26 L70 47 L91 47 L91 199 L228 199 L228 47 L249 47 L249 26 L70 26 ZM35 -28 L35 100 Q25 83 11 65 Q10 82 5 99 Q37 148 54 210 L80 203 Q71 176 60 150 L60 -28 L35 -28 ZM116 67 L116 47 L202 47 L202 67 L116 67 ZM116 179 L116 159 L202 159 L202 179 L116 179 ZM116 104 L116 84 L202 84 L202 104 L116 104 ZM116 142 L116 122 L202 122 L202 142 L116 142 ZM84 -30 L71 -9 Q103 3 132 24 L147 6 Q142 3 133 -1 Q103 -21 84 -30 ZM234 -29 Q195 -4 172 6 L185 24 Q197 18 218 6 Q237 -3 247 -8 L234 -29 Z" /><glyph glyph-name="uni500B" unicode="&#x500b;" d="M76 -29 L76 197 L240 197 L240 -29 L216 -29 L216 -17 L100 -17 L100 -29 L76 -29 ZM100 174 L100 4 L216 4 L216 174 L100 174 ZM110 123 L110 143 L147 143 L147 166 L169 166 L169 143 L206 143 L206 123 L169 123 L169 98 L197 98 L197 25 L119 25 L119 98 L147 98 L147 123 L110 123 ZM30 -29 L30 95 Q28 92 24 85 Q16 71 12 65 Q11 68 10 74 Q7 92 6 100 Q30 144 45 210 L70 205 Q64 177 53 149 L53 -29 L30 -29 ZM139 78 L139 45 L176 45 L176 78 L139 78 Z" /><glyph glyph-name="uni5011" unicode="&#x5011;" d="M173 -27 Q172 -18 168 -3 Q179 -4 200 -4 Q219 -5 218 12 L218 90 L169 90 L169 200 L242 200 L242 6 Q243 -26 210 -26 Q192 -27 173 -27 ZM81 -28 L81 200 L153 200 L153 90 L104 90 L104 -28 L81 -28 ZM13 65 Q12 73 7 94 Q6 98 6 100 Q34 148 49 209 L74 204 Q66 176 57 150 L57 -29 L33 -29 L33 98 Q24 82 13 65 ZM189 136 L189 110 L218 110 L218 136 L189 136 ZM189 179 L189 153 L218 153 L218 179 L189 179 ZM104 110 L133 110 L133 136 L104 136 L104 110 ZM104 179 L104 153 L133 153 L133 179 L104 179 Z" /><glyph glyph-name="uni5019" unicode="&#x5019;" d="M120 64 Q113 69 100 76 Q121 100 128 127 L151 124 L146 109 L238 109 L238 87 L188 87 Q188 82 187 71 Q187 63 187 59 L248 59 L248 37 L191 37 Q208 6 251 -5 Q243 -16 237 -27 Q191 -9 176 21 Q165 -9 102 -30 Q97 -21 89 -8 Q152 10 158 37 L101 37 L101 59 L162 59 Q163 72 163 87 L136 87 Q129 75 120 64 ZM30 -29 L30 98 Q28 94 23 87 Q15 73 11 66 Q10 74 6 95 Q5 100 5 102 Q32 149 46 211 L71 206 Q63 176 54 150 L54 -29 L30 -29 ZM104 132 L104 153 L196 153 L198 179 L115 179 L115 200 L223 200 L220 153 L247 153 L247 132 L104 132 ZM72 14 L72 175 L94 175 L94 14 L72 14 Z" /><glyph glyph-name="uni501F" unicode="&#x501f;" d="M90 -29 L90 89 L231 89 L231 -29 L205 -29 L205 -15 L116 -15 L116 -29 L90 -29 ZM82 158 L82 180 L112 180 L112 209 L138 209 L138 180 L183 180 L183 209 L209 209 L209 180 L241 180 L241 158 L209 158 L209 130 L248 130 L248 108 L74 108 L74 130 L112 130 L112 158 L82 158 ZM34 -29 L34 97 Q24 80 13 65 Q13 67 12 70 Q8 83 6 98 Q36 147 52 210 L79 204 Q71 175 59 148 L59 -29 L34 -29 ZM116 26 L116 4 L205 4 L205 26 L116 26 ZM116 67 L116 45 L205 45 L205 67 L116 67 ZM138 158 L138 130 L183 130 L183 158 L138 158 Z" /><glyph glyph-name="uni503E" unicode="&#x503e;" d="M123 176 L123 199 L247 199 L247 176 L197 176 L190 151 L240 151 L240 28 L218 28 L218 128 L154 128 L154 27 L132 27 L132 151 L166 151 L172 176 L123 176 ZM13 67 Q12 75 8 91 Q7 96 6 99 Q31 146 47 211 L70 206 Q64 179 55 153 L55 -28 L31 -28 L31 98 Q22 82 13 67 ZM83 -4 L68 15 Q76 21 76 39 L76 204 L99 204 L99 142 L121 142 L121 119 L99 119 L99 33 Q108 39 124 47 Q124 28 125 22 Q121 20 113 15 Q102 8 98 6 Q97 5 95 4 Q89 1 83 -4 ZM233 -27 Q225 -19 207 -1 Q193 11 186 18 Q172 -7 126 -30 Q119 -20 111 -9 Q152 8 163 26 Q176 43 175 83 L175 115 L197 115 L197 83 Q197 59 193 41 Q200 35 215 21 Q240 0 250 -7 L233 -27 Z" /><glyph glyph-name="uni5047" unicode="&#x5047;" d="M76 -29 L76 199 L152 199 L152 116 L100 116 L100 91 L145 91 L145 69 L100 69 L100 44 L148 44 L148 21 L100 21 L100 -29 L76 -29 ZM238 -27 Q212 -13 196 1 Q177 -15 145 -30 Q140 -21 131 -9 Q166 5 180 18 Q164 39 155 76 L162 78 L152 78 L152 101 L238 101 L238 80 Q229 41 211 18 Q227 3 251 -5 Q249 -8 246 -14 Q240 -23 238 -27 ZM31 -29 L31 100 Q22 82 13 66 Q12 71 10 80 Q7 93 5 99 Q30 144 44 210 L68 204 Q62 181 54 157 L54 -29 L31 -29 ZM163 118 L163 140 L213 140 L213 175 L163 175 L163 198 L236 198 L236 118 L163 118 ZM100 176 L100 139 L130 139 L130 176 L100 176 ZM214 78 L177 78 Q184 53 196 35 Q208 53 214 78 Z" /><glyph glyph-name="uni505A" unicode="&#x505a;" d="M236 -26 Q213 -7 198 11 Q179 -12 156 -30 Q153 -24 144 -12 Q142 -9 141 -8 Q169 12 185 35 Q170 64 166 105 Q164 101 160 95 Q157 91 156 89 Q150 103 145 113 Q169 154 180 210 L206 206 Q200 185 193 165 L249 165 L249 142 L237 142 Q231 70 212 34 Q227 15 250 -2 Q241 -13 236 -26 ZM66 139 L66 163 L98 163 L98 209 L123 209 L123 163 L153 163 L153 139 L123 139 L123 98 L147 98 L147 1 L95 1 L95 -12 L72 -12 L72 98 L98 98 L98 139 L66 139 ZM30 -28 L30 100 Q26 91 15 73 Q13 70 12 68 Q11 74 9 85 Q6 97 5 102 Q30 149 46 210 L71 205 Q63 178 54 154 L54 -28 L30 -28 ZM198 60 Q211 87 214 142 L184 142 L183 141 Q188 85 198 60 ZM95 76 L95 23 L125 23 L125 76 L95 76 Z" /><glyph glyph-name="uni5065" unicode="&#x5065;" d="M124 133 L124 152 L167 152 L167 170 L134 170 L134 188 L167 188 L167 210 L190 210 L190 188 L234 188 L234 152 L248 152 L248 133 L234 133 L234 97 L190 97 L190 81 L237 81 L237 62 L190 62 L190 45 L241 45 L241 26 L190 26 L190 1 L167 1 L167 26 L125 26 L125 45 L167 45 L167 62 L130 62 L130 81 L167 81 L167 97 L133 97 L133 116 L167 116 L167 133 L124 133 ZM29 -28 L29 98 Q27 93 21 83 Q16 73 13 68 Q10 84 5 100 Q30 145 45 210 L69 206 Q61 177 52 151 L52 -28 L29 -28 ZM190 116 L213 116 L213 133 L190 133 L190 116 ZM213 170 L190 170 L190 152 L213 152 L213 170 ZM107 23 Q124 3 167 1 Q183 0 201 0 Q218 0 249 0 Q246 -8 242 -22 Q209 -22 172 -20 Q119 -18 97 2 Q85 -12 69 -29 Q68 -27 65 -23 Q59 -14 56 -8 Q73 6 81 21 Q70 36 60 71 L78 82 Q83 61 91 44 Q97 59 100 94 L65 94 L65 117 L99 167 L69 167 L69 189 L123 189 L123 166 L90 116 L122 116 L122 106 Q119 52 107 23 Z" /><glyph glyph-name="uni5076" unicode="&#x5076;" d="M89 99 L89 198 L233 198 L233 99 L173 99 L173 80 L242 80 L242 2 Q244 -25 215 -25 Q206 -26 183 -26 Q182 -24 181 -18 Q179 -10 177 -5 Q182 -6 204 -6 Q219 -6 218 5 L218 59 L169 59 L169 31 L188 33 Q187 36 185 42 Q184 46 183 48 L198 51 Q203 41 210 19 Q213 12 214 8 L197 4 L194 15 Q185 14 165 13 Q130 10 115 9 L112 29 Q118 30 131 30 Q143 31 149 31 L149 59 L104 59 L104 -29 L81 -29 L81 80 L149 80 L149 99 L89 99 ZM13 68 Q8 87 5 102 Q35 148 53 211 L79 204 Q78 200 75 192 Q65 164 58 150 L58 -29 L34 -29 L34 102 Q24 84 13 68 ZM209 180 L173 180 L173 157 L209 157 L209 180 ZM173 140 L173 117 L209 117 L209 140 L173 140 ZM114 180 L114 157 L149 157 L149 180 L114 180 ZM114 140 L114 117 L149 117 L149 140 L114 140 Z" /><glyph glyph-name="uni5099" unicode="&#x5099;" d="M153 -19 L153 12 L115 12 L115 -28 L92 -28 L92 65 Q81 54 74 48 Q66 64 62 70 Q93 95 110 124 L74 124 L74 145 L116 145 L116 165 L83 165 L83 186 L116 186 L116 209 L141 209 L141 186 L184 186 L184 209 L209 209 L209 186 L241 186 L241 165 L209 165 L209 145 L249 145 L249 124 L136 124 Q134 120 129 111 Q127 108 126 107 L238 107 L238 5 Q239 -24 215 -24 Q209 -25 191 -25 Q190 -22 189 -15 Q187 -9 186 -5 Q195 -5 202 -5 Q216 -6 215 8 L215 12 L176 12 L176 -19 L153 -19 ZM12 63 Q11 73 8 88 Q7 94 6 97 Q37 150 52 211 L78 205 Q70 176 58 150 L58 -28 L34 -28 L34 98 Q29 89 18 72 Q14 66 12 63 ZM141 165 L141 145 L184 145 L184 165 L141 165 ZM176 49 L176 29 L215 29 L215 49 L176 49 ZM215 87 L176 87 L176 67 L215 67 L215 87 ZM115 49 L115 29 L153 29 L153 49 L115 49 ZM115 87 L115 67 L153 67 L153 87 L115 87 Z" /><glyph glyph-name="uni50A2" unicode="&#x50a2;" d="M90 119 L90 140 L232 140 L232 119 L178 119 Q173 116 165 110 Q159 106 156 104 Q166 91 173 78 Q207 96 226 109 L239 91 Q233 88 221 81 Q214 77 211 75 Q220 31 251 8 Q247 4 240 -4 Q236 -9 234 -11 Q200 18 192 65 L179 58 Q185 39 184 13 Q185 -26 149 -26 Q145 -26 135 -27 Q126 -27 121 -27 Q119 -18 116 -4 Q128 -5 142 -5 Q161 -6 161 15 Q161 24 161 31 Q129 5 78 -14 Q77 -12 75 -8 Q70 1 67 4 Q118 21 157 53 Q156 57 153 64 Q152 66 152 67 Q120 43 80 28 Q75 37 69 48 Q113 61 143 83 Q142 86 139 91 Q138 92 137 93 Q112 80 81 70 Q76 79 70 90 Q115 100 145 119 L90 119 ZM12 64 Q9 83 6 99 Q36 150 51 211 L77 204 Q75 199 73 191 Q64 165 59 152 L59 -29 L34 -29 L34 99 Q29 90 18 73 Q14 67 12 64 ZM81 142 L81 184 L151 184 Q150 188 147 196 Q145 204 143 208 L172 211 Q172 210 173 208 Q177 193 179 184 L243 184 L243 143 L218 143 L218 163 L105 163 L105 142 L81 142 Z" /><glyph glyph-name="uni50A8" unicode="&#x50a8;" d="M127 161 L127 182 L156 182 L156 210 L179 210 L179 182 L208 182 L208 161 L179 161 L179 133 L188 133 Q211 159 227 190 L247 179 Q232 154 217 133 L248 133 L248 112 L198 112 Q188 102 176 91 L233 91 L233 -28 L210 -28 L210 -14 L161 -14 L161 -28 L137 -28 L137 63 Q128 57 118 51 Q117 54 114 60 Q111 69 109 73 Q142 90 167 112 L117 112 L117 133 L156 133 L156 161 L127 161 ZM30 -29 L30 99 Q23 82 12 67 Q10 82 5 102 Q29 142 45 211 L70 207 Q64 179 54 152 L54 -29 L30 -29 ZM86 -19 L72 0 Q79 6 79 17 L79 108 L62 108 L62 133 L102 133 L102 22 Q106 25 113 30 Q120 36 123 38 Q124 24 127 13 Q112 2 99 -7 Q93 -12 86 -19 ZM94 148 Q90 158 80 179 Q76 189 74 194 L95 201 Q106 180 116 157 L94 148 ZM161 70 L161 47 L210 47 L210 70 L161 70 ZM161 28 L161 5 L210 5 L210 28 L161 28 Z" /><glyph glyph-name="uni50B2" unicode="&#x50b2;" d="M160 -28 Q154 -19 146 -10 Q139 -19 123 -20 Q113 -20 102 -20 Q100 -1 98 1 Q99 1 102 1 Q112 0 116 1 Q130 0 130 15 Q130 18 130 30 Q131 43 131 47 L104 47 Q102 4 73 -28 Q70 -25 65 -18 Q59 -12 56 -8 Q83 21 81 67 Q82 75 82 86 L64 86 L64 106 L101 106 L101 125 L72 125 L72 145 L101 145 L101 163 L68 163 L68 183 L101 183 L101 210 L125 210 L125 183 L158 183 L158 163 L125 163 L125 145 L152 145 L152 125 L125 125 L125 106 L159 106 L159 86 L106 86 Q106 83 105 76 Q105 70 105 68 L154 68 Q154 37 152 9 Q152 2 150 -2 Q174 17 187 38 Q175 64 169 106 L168 103 Q165 106 159 111 Q152 116 149 118 Q172 158 184 211 L208 207 Q203 186 197 168 L249 168 L249 145 L238 145 Q232 73 214 37 Q228 16 250 -1 Q247 -9 238 -23 Q237 -26 236 -27 Q214 -6 200 14 Q184 -6 160 -28 ZM30 -29 L30 98 Q27 91 19 78 Q14 70 12 66 Q11 73 7 90 Q6 98 5 101 Q30 147 45 211 L70 207 Q64 178 54 152 L54 -29 L30 -29 ZM188 145 Q188 144 187 143 Q187 141 186 140 Q189 92 200 64 Q214 95 215 145 L188 145 Z" /><glyph glyph-name="uni50B3" unicode="&#x50b3;" d="M231 44 Q230 46 228 49 Q225 53 224 54 Q217 54 200 53 Q112 51 73 51 L71 70 Q92 70 147 70 L147 84 L82 84 L82 160 L147 160 L147 174 L77 174 L77 193 L147 193 L147 209 L170 209 L170 193 L245 193 L245 174 L170 174 L170 160 L235 160 L235 84 L224 84 Q237 69 249 54 L231 44 ZM33 -28 L33 100 Q24 82 13 65 Q12 70 10 80 Q8 94 7 100 Q34 150 49 211 L74 206 Q66 178 57 152 L57 -28 L33 -28 ZM68 17 L68 36 L190 36 L190 48 L214 48 L214 36 L249 36 L249 17 L214 17 L214 1 Q215 -27 185 -27 Q170 -27 155 -27 Q154 -23 151 -12 Q150 -9 149 -7 Q162 -7 177 -7 Q191 -8 190 3 L190 17 L112 17 Q116 14 124 8 Q135 0 140 -2 L124 -18 Q108 -4 92 7 L103 17 L68 17 ZM170 116 L170 101 L212 101 L212 116 L170 116 ZM212 144 L170 144 L170 129 L212 129 L212 144 ZM106 116 L106 101 L147 101 L147 116 L106 116 ZM106 144 L106 129 L147 129 L147 144 L106 144 ZM170 70 L212 71 L203 82 L207 84 L170 84 L170 70 Z" /><glyph glyph-name="uni50BE" unicode="&#x50be;" d="M122 178 L122 199 L248 199 L248 178 L195 178 L190 156 L238 156 L238 19 L131 19 L131 156 L166 156 L170 178 L122 178 ZM13 68 Q12 73 9 84 Q6 95 5 100 Q31 145 47 211 L70 206 Q63 179 54 154 L54 -28 L31 -28 L31 100 Q22 83 13 68 ZM84 -2 L69 17 Q76 25 76 40 L76 204 L99 204 L99 142 L122 142 L122 118 L99 118 L99 36 L123 54 Q123 48 124 37 Q124 30 124 28 Q113 20 99 9 Q95 7 89 1 Q86 -1 84 -2 ZM126 -30 Q124 -28 119 -21 Q113 -14 111 -11 Q145 5 160 15 L176 0 Q154 -15 126 -30 ZM154 136 L154 116 L215 116 L215 136 L154 136 ZM154 60 L154 40 L215 40 L215 60 L154 60 ZM154 98 L154 78 L215 78 L215 98 L154 98 ZM236 -30 Q215 -15 191 0 L205 14 Q207 13 212 10 Q240 -3 250 -11 L236 -30 Z" /><glyph glyph-name="uni50C5" unicode="&#x50c5;" d="M76 172 L76 191 L104 191 L104 210 L129 210 L129 191 L188 191 L188 210 L213 210 L213 191 L248 191 L248 172 L213 172 L213 141 L171 141 L171 127 L237 127 L237 75 L171 75 L171 60 L237 60 L237 43 L171 43 L171 28 L231 28 L231 13 L171 13 L171 -1 L249 -1 L249 -20 L69 -20 L69 -1 L146 -1 L146 13 L86 13 L86 28 L146 28 L146 43 L80 43 L80 60 L146 60 L146 75 L80 75 L80 127 L146 127 L146 141 L104 141 L104 172 L76 172 ZM13 67 Q12 75 8 92 Q7 99 6 102 Q32 145 49 211 L74 206 Q67 178 57 154 L57 -28 L33 -28 L33 101 Q29 94 21 80 Q16 72 13 67 ZM129 172 L129 156 L188 156 L188 172 L129 172 ZM213 110 L171 110 L171 92 L213 92 L213 110 ZM104 110 L104 92 L146 92 L146 110 L104 110 Z" /><glyph glyph-name="uni512A" unicode="&#x512a;" d="M79 183 L79 200 L246 200 L246 183 L160 183 L156 172 L228 172 L228 104 L244 104 L244 74 L225 74 Q236 63 245 52 L228 41 Q219 55 206 69 L221 78 L221 88 L161 88 Q170 82 178 75 L163 64 Q152 75 144 81 L154 88 L95 88 L95 77 L112 69 Q100 53 87 38 Q80 44 72 49 Q73 50 74 51 Q87 67 93 74 L73 74 L73 104 L89 104 L89 172 L131 172 L134 183 L79 183 ZM70 -30 Q69 -28 67 -23 Q64 -15 62 -12 Q107 -7 132 -2 Q117 3 105 13 Q104 13 103 12 Q90 2 80 -1 L67 13 Q97 27 118 50 L122 49 Q115 54 115 67 L115 82 L136 82 L136 70 Q135 60 147 61 L172 61 Q182 61 184 68 Q184 69 185 72 Q186 76 187 80 Q189 79 192 78 Q202 74 207 72 Q206 70 205 66 Q203 61 202 59 Q198 45 178 46 L139 46 Q138 44 135 41 Q132 37 130 35 L222 35 L222 18 Q206 5 187 -2 Q212 -7 248 -8 Q241 -22 239 -27 Q187 -23 159 -13 Q128 -24 70 -30 ZM33 -29 L33 101 Q23 85 12 67 Q11 75 8 87 Q6 96 5 101 Q38 155 51 211 L76 204 Q68 176 56 150 L56 -29 L33 -29 ZM114 159 L114 148 L203 148 L203 159 L114 159 ZM114 137 L114 126 L203 126 L203 137 L114 137 ZM114 115 L114 104 L203 104 L203 115 L114 115 ZM196 21 L124 21 Q140 10 158 4 Q179 10 196 21 Z" /><glyph glyph-name="uni513F" unicode="&#x513f;" d="M29 -27 Q18 -16 7 -5 Q42 21 53 48 Q65 75 65 128 L65 206 L93 206 L93 123 Q99 24 29 -27 ZM182 -20 Q141 -22 143 19 L143 207 L172 207 L172 22 Q171 4 187 5 L198 5 Q216 4 218 23 Q218 27 219 37 Q221 56 222 67 Q226 66 234 64 Q244 62 249 61 Q247 31 243 8 Q239 -21 200 -20 L182 -20 Z" /><glyph glyph-name="uni5143" unicode="&#x5143;" d="M10 99 L10 125 L246 125 L246 99 L171 99 L171 19 Q170 1 187 2 L198 2 Q215 1 218 19 Q221 43 222 55 Q227 52 240 48 Q246 46 249 45 Q248 41 247 33 Q245 16 243 8 Q239 -22 201 -21 L178 -21 Q143 -21 143 12 L143 99 L102 99 Q102 96 101 91 Q101 87 101 85 Q104 7 26 -29 Q20 -19 8 -5 Q76 24 73 87 Q73 92 73 99 L10 99 ZM32 170 L32 197 L224 197 L224 170 L32 170 Z" /><glyph glyph-name="uni5145" unicode="&#x5145;" d="M11 155 L11 180 L118 180 Q117 183 115 189 Q111 202 109 207 L140 210 Q141 205 146 191 Q148 183 149 180 L246 180 L246 155 L130 155 Q96 121 71 100 L180 103 Q176 108 166 117 Q157 126 152 130 L170 144 Q205 114 241 81 L220 63 L204 79 L169 78 L169 16 Q168 -1 186 0 L200 0 Q218 0 220 14 Q223 31 224 42 Q237 37 249 32 Q248 13 243 0 Q238 -24 205 -23 L175 -23 Q141 -24 142 8 L142 78 L108 77 Q113 -2 24 -29 Q21 -24 14 -14 Q10 -8 8 -5 Q52 9 65 25 Q80 40 80 75 Q75 75 69 75 Q46 73 39 71 L26 97 Q40 103 50 113 Q72 130 94 155 L11 155 Z" /><glyph glyph-name="uni5148" unicode="&#x5148;" d="M41 109 Q30 117 18 124 Q45 158 58 204 L85 200 Q79 182 73 167 L120 167 L120 210 L148 210 L148 167 L232 167 L232 142 L148 142 L148 100 L247 100 L247 74 L172 74 L172 16 Q171 0 187 1 L205 1 Q220 1 221 15 Q224 29 225 46 Q227 45 230 44 Q244 39 250 37 Q249 17 245 4 Q240 -23 208 -22 L177 -22 Q143 -23 144 9 L144 74 L102 74 Q102 71 102 68 Q102 1 24 -29 Q16 -18 7 -4 Q74 15 74 68 Q74 71 74 74 L10 74 L10 100 L120 100 L120 142 L61 142 Q53 124 41 109 Z" /><glyph glyph-name="uni5149" unicode="&#x5149;" d="M9 86 L9 111 L114 111 L114 210 L142 210 L142 111 L248 111 L248 86 L171 86 L171 16 Q171 0 187 0 L204 0 Q219 0 220 15 Q223 27 224 50 Q238 43 250 40 Q250 39 250 36 Q247 14 244 2 Q239 -24 207 -23 L179 -23 Q144 -23 144 10 L144 86 L101 86 L101 76 Q101 2 24 -29 Q20 -24 12 -13 Q8 -8 6 -5 Q73 17 73 77 Q73 78 73 81 Q74 84 74 86 L9 86 ZM184 125 L165 143 Q190 168 211 195 L232 179 Q218 160 184 125 ZM68 126 Q39 161 23 178 L43 194 Q65 171 89 144 L68 126 Z" /><glyph glyph-name="uni514D" unicode="&#x514d;" d="M25 -31 Q24 -30 22 -26 Q13 -12 8 -6 Q81 15 101 56 L32 56 L32 122 L23 115 Q22 117 19 121 Q16 126 7 137 Q55 169 81 211 L111 207 Q105 197 99 189 L193 189 L193 169 L165 141 L221 141 L221 56 L129 56 Q128 52 125 47 L151 47 L151 14 Q149 -1 169 0 L200 0 Q217 -1 219 13 Q219 15 220 19 Q222 34 223 42 Q227 41 236 38 Q245 35 248 34 Q248 32 247 30 Q245 9 242 0 Q237 -24 206 -23 L159 -23 Q124 -24 125 7 L125 46 Q104 0 25 -31 ZM196 119 L141 119 Q139 96 136 82 L135 78 L196 78 L196 119 ZM58 119 L58 78 L109 78 Q109 79 110 81 Q110 83 110 83 Q114 100 114 119 L58 119 ZM158 167 L81 167 Q70 153 55 141 L132 141 L158 167 Z" /><glyph glyph-name="uni5152" unicode="&#x5152;" d="M139 119 L139 141 L200 141 L200 173 L139 173 L139 196 L228 196 L228 63 L169 63 L169 16 Q168 0 185 0 L200 0 Q220 0 221 14 Q222 19 223 34 Q223 31 224 39 Q238 35 250 30 Q247 12 244 0 Q239 -24 206 -23 L174 -23 Q141 -24 142 7 L142 63 L107 63 Q111 -1 23 -29 Q18 -19 7 -5 Q84 15 80 63 L28 63 L28 194 Q75 198 113 208 L122 184 Q80 175 55 173 L55 141 L117 141 L117 119 L55 119 L55 86 L200 86 L200 119 L139 119 Z" /><glyph glyph-name="uni5165" unicode="&#x5165;" d="M226 -24 Q164 22 129 113 L128 114 Q102 31 25 -25 Q23 -23 20 -18 Q16 -13 6 0 Q87 53 110 148 Q93 177 71 194 L94 209 Q126 183 156 118 Q190 38 249 1 Q238 -10 226 -24 Z" /><glyph glyph-name="uni5167" unicode="&#x5167;" d="M26 -26 L26 165 L112 165 Q108 186 101 206 L128 209 Q134 189 139 165 L230 165 L230 14 Q231 -22 193 -24 Q171 -24 151 -24 Q150 -17 146 -1 Q145 1 145 2 Q158 1 182 1 Q203 0 202 21 L202 140 L144 140 Q154 82 197 52 Q187 41 178 29 Q146 56 131 91 Q111 54 77 26 Q75 29 67 38 Q60 45 58 48 Q98 76 119 127 Q118 129 118 134 Q117 138 117 140 L54 140 L54 -26 L26 -26 Z" /><glyph glyph-name="uni5168" unicode="&#x5168;" d="M234 102 Q215 112 200 121 L200 98 L142 98 L142 66 L217 66 L217 41 L142 41 L142 6 L240 6 L240 -18 L16 -18 L16 6 L113 6 L113 41 L38 41 L38 66 L113 66 L113 98 L56 98 L56 120 Q40 109 20 100 Q14 110 5 123 Q83 162 117 212 L148 209 L144 202 Q184 154 249 127 Q248 126 247 123 Q238 108 234 102 ZM129 183 Q102 150 60 123 L197 123 Q156 148 129 183 Z" /><glyph glyph-name="uni5169" unicode="&#x5169;" d="M97 16 Q86 49 80 64 Q73 37 57 13 Q52 19 46 25 L46 -26 L20 -26 L20 148 L114 148 L114 174 L8 174 L8 198 L248 198 L248 174 L141 174 L141 148 L236 148 L236 9 Q237 -25 203 -24 Q199 -24 187 -24 Q174 -25 168 -25 Q166 -13 163 0 Q180 -1 193 -1 Q211 -2 210 13 L210 125 L141 125 L141 33 Q158 61 166 90 Q165 95 160 105 Q159 110 158 112 L177 115 Q194 74 209 27 L192 17 L176 65 Q166 36 154 16 L141 29 L141 -22 L114 -22 L114 125 L46 125 L46 32 Q63 59 71 90 L63 112 L81 115 Q94 85 114 27 L97 16 Z" /><glyph glyph-name="uni516B" unicode="&#x516b;" d="M28 -25 Q16 -14 6 -2 Q64 49 72 137 Q75 161 76 198 L104 196 Q104 195 104 192 Q102 153 100 139 Q93 38 28 -25 ZM228 -24 Q157 36 151 142 Q147 180 147 201 L174 201 Q176 167 179 141 Q186 47 250 0 Q240 -9 228 -24 Z" /><glyph glyph-name="uni516C" unicode="&#x516c;" d="M212 -29 L196 -8 Q104 -12 67 -15 Q50 -15 38 -18 L26 6 Q38 14 48 24 Q85 69 113 119 L140 105 Q109 58 70 9 Q139 13 178 14 Q171 24 156 44 Q148 55 144 60 L165 74 Q191 41 236 -13 L212 -29 ZM233 84 Q171 125 144 196 L169 206 Q195 142 250 110 Q248 106 242 97 Q236 88 233 84 ZM24 80 Q15 93 5 104 Q58 142 86 202 L112 192 Q81 126 24 80 Z" /><glyph glyph-name="uni5171" unicode="&#x5171;" d="M15 138 L15 164 L64 164 L64 209 L92 209 L92 164 L163 164 L163 209 L191 209 L191 164 L240 164 L240 138 L191 138 L191 77 L249 77 L249 52 L7 52 L7 77 L64 77 L64 138 L15 138 ZM92 138 L92 77 L163 77 L163 138 L92 138 ZM28 -28 Q20 -15 10 -5 Q46 12 91 42 L111 22 Q61 -10 28 -28 ZM223 -27 Q204 -14 165 9 Q151 18 144 22 L162 42 Q169 38 181 31 Q220 9 241 -4 L223 -27 Z" /><glyph glyph-name="uni5173" unicode="&#x5173;" d="M25 136 L25 161 L79 161 Q66 179 50 198 L73 210 Q90 192 107 169 L90 161 L144 161 Q157 177 178 211 L206 199 Q190 179 175 161 L231 161 L231 136 L141 136 Q141 108 140 96 L244 96 L244 71 L144 71 Q164 14 248 -1 Q244 -6 238 -17 Q233 -24 231 -27 Q148 -2 127 48 Q115 2 26 -29 Q19 -19 8 -5 Q102 21 108 71 L12 71 L12 96 L111 96 Q113 113 113 136 L25 136 Z" /><glyph glyph-name="uni5174" unicode="&#x5174;" d="M8 71 L8 97 L248 97 L248 71 L8 71 ZM223 -26 Q207 -11 171 20 Q155 34 147 41 L166 60 Q186 43 222 12 Q236 0 243 -5 L223 -26 ZM31 -28 Q21 -16 12 -7 Q51 20 87 59 L109 41 Q74 6 31 -28 ZM192 110 L168 123 Q189 153 212 195 L237 184 Q216 146 192 110 ZM123 120 Q113 158 101 199 L127 206 L151 126 L123 120 ZM60 110 Q43 144 22 180 L46 192 Q53 180 67 157 Q79 136 86 124 L60 110 Z" /><glyph glyph-name="uni5176" unicode="&#x5176;" d="M12 160 L12 183 L46 183 L46 210 L73 210 L73 183 L182 183 L182 210 L209 210 L209 183 L244 183 L244 160 L209 160 L209 50 L249 50 L249 27 L7 27 L7 50 L46 50 L46 160 L12 160 ZM73 73 L73 50 L182 50 L182 73 L73 73 ZM73 116 L73 94 L182 94 L182 116 L73 116 ZM73 160 L73 137 L182 137 L182 160 L73 160 ZM19 -30 Q17 -23 10 -11 Q8 -8 8 -7 Q50 4 94 23 L108 2 Q62 -17 19 -30 ZM236 -29 Q231 -27 221 -23 Q172 -4 148 2 L159 23 Q195 11 247 -6 L236 -29 Z" /><glyph glyph-name="uni5177" unicode="&#x5177;" d="M7 21 L7 43 L37 43 L37 200 L219 200 L219 43 L249 43 L249 21 L7 21 ZM63 63 L63 43 L193 43 L193 63 L63 63 ZM63 179 L63 158 L193 158 L193 179 L63 179 ZM63 140 L63 120 L193 120 L193 140 L63 140 ZM63 102 L63 81 L193 81 L193 102 L63 102 ZM23 -30 Q22 -27 18 -20 Q14 -11 12 -7 Q60 2 98 18 L110 0 Q64 -18 23 -30 ZM234 -28 Q184 -12 145 -1 L155 16 Q185 9 234 -3 Q241 -5 244 -6 L234 -28 Z" /><glyph glyph-name="uni5178" unicode="&#x5178;" d="M10 29 L10 52 L30 52 L30 181 L87 181 L87 210 L112 210 L112 181 L144 181 L144 210 L169 210 L169 181 L226 181 L226 52 L246 52 L246 29 L10 29 ZM234 -29 Q198 -13 147 2 L157 23 Q177 16 212 5 Q233 -1 244 -5 L234 -29 ZM22 -29 Q21 -27 19 -23 Q18 -18 12 -6 Q49 4 95 24 L107 2 Q59 -16 22 -29 ZM169 94 L169 52 L201 52 L201 94 L169 94 ZM201 158 L169 158 L169 116 L201 116 L201 158 ZM55 94 L55 52 L87 52 L87 94 L55 94 ZM112 94 L112 52 L144 52 L144 94 L112 94 ZM112 158 L112 116 L144 116 L144 158 L112 158 ZM55 158 L55 116 L87 116 L87 158 L55 158 Z" /><glyph glyph-name="uni517C" unicode="&#x517c;" d="M9 165 L9 186 L74 186 Q72 188 68 193 Q60 202 57 206 L85 211 Q90 206 106 186 L143 186 Q148 192 157 205 Q160 209 161 211 L190 207 Q188 205 185 200 Q178 190 175 186 L247 186 L247 165 L163 165 L163 146 L223 146 L223 106 L248 106 L248 84 L223 84 L223 44 L166 44 Q194 15 245 0 Q242 -4 234 -17 Q233 -20 232 -21 Q186 -4 163 19 L163 -29 L138 -29 L138 44 L105 44 L105 -29 L80 -29 L80 17 Q61 -3 19 -22 Q13 -11 5 0 Q56 16 79 44 L22 44 L22 64 L80 64 L80 84 L8 84 L8 106 L80 106 L80 126 L25 126 L25 146 L80 146 L80 165 L9 165 ZM163 64 L199 64 L199 84 L163 84 L163 64 ZM199 126 L163 126 L163 106 L199 106 L199 126 ZM105 84 L105 64 L138 64 L138 84 L105 84 ZM105 126 L105 106 L138 106 L138 126 L105 126 ZM105 165 L105 146 L138 146 L138 165 L105 165 Z" /><glyph glyph-name="uni5185" unicode="&#x5185;" d="M73 27 Q68 34 54 49 Q118 81 115 142 L52 142 L52 -26 L25 -26 L25 168 L115 168 Q115 186 115 209 L144 209 Q144 186 143 168 L231 168 L231 14 Q232 -23 195 -24 Q172 -24 152 -24 Q150 -7 146 2 Q165 1 183 1 Q204 0 203 21 L203 142 L142 142 Q142 121 137 105 Q141 102 148 96 Q185 67 201 52 L180 31 Q161 50 127 80 Q115 56 73 27 Z" /><glyph glyph-name="uni518A" unicode="&#x518a;" d="M7 83 L7 108 L26 108 L26 199 L230 199 L230 108 L249 108 L249 83 L230 83 L230 10 Q232 -24 196 -24 Q192 -24 184 -25 Q178 -25 175 -25 Q175 -22 173 -15 Q171 -6 170 0 L170 -11 L144 -11 L144 83 L111 83 L111 -15 L86 -15 L86 83 L53 83 L53 -26 L26 -26 L26 83 L7 83 ZM186 0 Q205 -1 203 15 L203 83 L170 83 L170 0 Q179 0 186 0 ZM203 175 L170 175 L170 108 L203 108 L203 175 ZM53 175 L53 108 L86 108 L86 175 L53 175 ZM111 175 L111 108 L144 108 L144 175 L111 175 Z" /><glyph glyph-name="uni518C" unicode="&#x518c;" d="M138 -29 Q135 -27 128 -21 Q121 -15 118 -12 Q141 21 140 84 L114 84 L114 10 Q115 -18 88 -19 Q78 -20 62 -20 Q60 -7 57 3 Q67 3 76 3 Q91 2 90 16 L90 84 L56 84 Q57 12 29 -30 Q19 -20 8 -11 Q32 23 30 84 L7 84 L7 110 L31 110 L31 199 L114 199 L114 110 L140 110 L140 199 L226 199 L226 110 L248 110 L248 84 L226 84 L226 4 Q226 -22 199 -23 Q187 -24 171 -24 Q171 -20 169 -13 Q168 -4 167 0 Q178 0 188 0 Q202 0 201 12 L201 84 L165 84 Q166 11 138 -29 ZM165 176 L165 110 L201 110 L201 176 L165 176 ZM56 176 L56 110 L90 110 L90 176 L56 176 Z" /><glyph glyph-name="uni518D" unicode="&#x518d;" d="M14 175 L14 198 L242 198 L242 175 L141 175 L141 152 L221 152 L221 54 L248 54 L248 30 L221 30 L221 8 Q223 -24 187 -24 Q176 -25 150 -25 Q149 -18 146 -5 Q145 -2 145 0 Q150 0 161 0 Q172 -1 178 -1 Q196 -2 195 13 L195 30 L60 30 L60 -27 L34 -27 L34 30 L7 30 L7 54 L34 54 L34 152 L115 152 L115 175 L14 175 ZM141 81 L141 54 L195 54 L195 81 L141 81 ZM60 81 L60 54 L115 54 L115 81 L60 81 ZM195 130 L141 130 L141 103 L195 103 L195 130 ZM60 130 L60 103 L115 103 L115 130 L60 130 Z" /><glyph glyph-name="uni5191" unicode="&#x5191;" d="M25 106 L25 191 L115 191 L115 211 L141 211 L141 191 L231 191 L231 106 L25 106 ZM35 -27 L35 91 L221 91 L221 4 Q222 -26 188 -26 Q171 -26 147 -26 Q146 -23 144 -16 Q142 -9 141 -6 Q148 -6 161 -7 Q172 -7 177 -7 Q196 -8 195 7 L195 74 L61 74 L61 -27 L35 -27 ZM74 42 L74 58 L182 58 L182 42 L74 42 ZM74 10 L74 26 L182 26 L182 10 L74 10 ZM50 173 L50 156 L115 156 L115 173 L50 173 ZM205 173 L141 173 L141 156 L205 156 L205 173 ZM50 141 L50 124 L115 124 L115 141 L50 141 ZM141 141 L141 124 L205 124 L205 141 L141 141 Z" /><glyph glyph-name="uni519B" unicode="&#x519b;" d="M17 120 L17 143 L81 143 Q90 157 97 170 L127 168 Q120 155 112 143 L238 143 L238 120 L96 120 Q81 99 67 79 L124 79 L124 109 L151 109 L151 79 L229 79 L229 56 L151 56 L151 28 L248 28 L248 5 L151 5 L151 -29 L124 -29 L124 5 L8 5 L8 28 L124 28 L124 56 L36 56 L36 79 Q51 99 65 120 L17 120 ZM17 155 L17 199 L241 199 L241 155 L215 155 L215 176 L44 176 L44 155 L17 155 Z" /><glyph glyph-name="uni51B7" unicode="&#x51b7;" d="M188 -31 Q151 -8 95 24 Q89 27 86 29 L102 48 Q108 45 121 37 Q141 26 151 20 L196 63 L77 63 L77 87 L230 87 L230 62 L174 6 Q179 3 189 -2 Q199 -7 204 -10 L188 -31 ZM237 104 Q185 133 156 179 Q124 135 71 102 Q65 115 57 127 Q115 159 144 211 L175 209 Q174 207 172 203 Q171 202 170 201 Q201 153 251 129 Q249 126 247 121 Q244 116 237 104 ZM35 -18 L8 -8 Q23 36 39 93 Q51 89 65 84 Q53 46 35 -18 ZM42 126 Q38 133 31 148 Q18 174 11 186 L34 196 Q51 169 67 137 L42 126 ZM156 94 Q149 104 134 125 Q130 129 129 131 L150 143 Q164 128 179 106 L156 94 Z" /><glyph glyph-name="uni51C6" unicode="&#x51c6;" d="M86 -29 L86 114 Q77 102 66 90 Q64 98 58 114 Q57 116 57 117 Q91 159 109 211 L137 206 Q128 185 119 167 L171 167 Q162 187 154 203 L180 208 Q186 198 196 177 Q198 172 199 169 L188 167 L246 167 L246 145 L189 145 L189 114 L243 114 L243 92 L189 92 L189 61 L243 61 L243 39 L189 39 L189 8 L248 8 L248 -12 L113 -12 L113 -29 L86 -29 ZM36 -17 L9 -7 Q24 39 38 91 Q47 88 64 83 Q46 22 36 -17 ZM39 122 Q36 129 30 144 Q18 174 12 188 L36 197 Q41 186 51 165 Q60 143 65 132 L39 122 ZM113 39 L113 8 L163 8 L163 39 L113 39 ZM113 92 L113 61 L163 61 L163 92 L113 92 ZM113 145 L113 114 L163 114 L163 145 L113 145 Z" /><glyph glyph-name="uni51D1" unicode="&#x51d1;" d="M72 168 L72 188 L137 188 Q139 199 140 211 L165 211 Q165 198 163 188 L237 188 L237 168 L160 168 Q159 161 157 153 L230 153 L230 135 L151 135 Q148 126 145 119 L245 119 L245 99 L196 99 Q212 77 250 63 L239 41 Q206 56 191 72 L191 62 L162 62 Q162 52 161 44 L223 44 L223 25 L157 25 L156 22 Q174 16 211 1 Q227 -5 235 -8 L223 -29 Q220 -27 213 -24 Q171 -4 147 4 Q131 -18 70 -30 Q69 -27 65 -21 Q60 -12 58 -8 Q126 3 133 25 L76 25 L76 44 L137 44 Q137 46 137 52 Q138 58 138 62 L109 62 L109 72 Q91 56 66 39 Q59 53 53 60 Q89 82 103 99 L65 99 L65 119 L117 119 Q122 126 125 135 L79 135 L79 153 L131 153 Q133 161 134 168 L72 168 ZM32 -9 L6 0 Q18 34 34 97 Q38 95 52 90 Q57 89 59 88 Q57 79 51 59 Q38 11 32 -9 ZM37 124 Q33 135 22 161 Q14 179 11 187 L34 195 Q52 157 62 133 L37 124 ZM184 80 Q180 85 173 94 Q171 97 170 99 L133 99 Q129 94 120 82 Q119 81 118 80 L184 80 Z" /><glyph glyph-name="uni51DD" unicode="&#x51dd;" d="M144 -30 Q140 -25 130 -16 Q131 -17 127 -14 Q149 10 150 56 Q150 68 150 82 L170 81 Q170 69 170 56 L169 40 Q177 18 186 9 L186 102 L144 102 L144 123 L187 123 Q172 140 155 153 L170 167 Q182 157 193 146 L220 175 L150 175 L150 197 L243 197 L243 170 L209 132 L201 123 L246 123 L246 102 L239 77 L221 80 L228 102 L208 102 L208 62 L242 62 L242 41 L208 41 L208 1 Q220 0 250 0 Q247 -9 245 -22 Q217 -22 200 -18 Q177 -16 164 8 Q158 -9 144 -30 ZM52 37 L52 58 L89 58 Q90 70 90 84 L78 84 Q76 81 73 74 Q69 68 67 64 Q58 70 49 76 Q64 97 71 121 L92 118 Q91 116 90 111 Q88 107 87 104 L135 104 L135 84 L112 84 Q111 70 111 58 L138 58 L138 37 L108 37 Q108 34 107 30 L139 6 L126 -13 Q114 -1 99 10 Q89 -9 61 -28 Q53 -18 45 -10 Q80 9 86 37 L52 37 ZM87 124 Q61 123 62 152 L62 208 L84 208 L84 183 Q105 188 130 198 L138 178 Q132 176 120 173 Q97 166 84 163 L84 157 Q83 142 96 143 L106 143 Q118 143 120 154 Q121 156 121 161 Q122 165 122 168 Q127 166 137 162 Q140 161 141 161 Q140 150 137 143 Q133 124 111 124 L87 124 ZM28 -12 L5 -4 Q15 36 26 97 Q30 95 45 91 Q48 90 49 90 Q44 67 36 25 Q30 0 28 -12 ZM30 125 Q28 130 25 139 Q19 158 7 187 L29 194 Q41 166 52 133 L30 125 Z" /><glyph glyph-name="uni51E0" unicode="&#x51e0;" d="M28 -27 Q25 -23 18 -16 Q11 -8 7 -4 Q37 21 46 45 Q55 67 55 117 L55 198 L185 198 L185 23 Q184 5 199 6 L206 6 Q219 5 221 20 Q222 31 224 61 Q238 56 250 53 Q249 40 247 16 Q246 11 246 9 Q241 -20 208 -19 L190 -19 Q156 -20 157 17 L157 172 L83 172 L83 109 Q87 19 28 -27 Z" /><glyph glyph-name="uni51E1" unicode="&#x51e1;" d="M26 -28 Q18 -19 7 -4 Q32 18 40 42 Q48 65 48 115 L48 198 L189 198 L189 20 Q189 3 201 4 L207 4 Q220 3 222 18 Q223 27 223 24 Q225 46 226 56 Q238 52 251 49 Q248 25 245 6 Q241 -22 210 -21 L194 -21 Q161 -21 161 14 L161 173 L76 173 L76 106 Q80 16 26 -28 ZM126 55 Q107 84 83 111 L104 126 Q123 106 150 73 L126 55 Z" /><glyph glyph-name="uni51ED" unicode="&#x51ed;" d="M93 172 Q91 179 89 192 Q89 194 89 195 Q161 196 225 201 L229 179 Q202 178 173 176 L173 148 L247 148 L247 126 L173 126 L173 100 L235 100 L235 78 L86 78 L86 100 L146 100 L146 126 L76 126 L76 148 L146 148 L146 174 Q129 174 96 172 Q120 174 93 172 ZM23 -30 Q21 -27 18 -22 Q11 -11 8 -6 Q70 2 65 43 L65 58 L181 58 L181 12 Q180 0 193 0 L205 0 Q218 0 219 12 Q222 23 223 40 Q231 38 245 34 Q248 33 249 33 Q246 14 242 0 Q236 -23 209 -23 L183 -23 Q152 -24 153 7 L153 36 L91 36 L91 31 Q94 -12 23 -30 ZM38 71 L38 137 Q34 133 26 125 Q18 116 14 112 Q13 117 9 128 Q7 137 6 140 Q39 172 59 211 L83 198 Q74 183 63 168 L63 71 L38 71 Z" /><glyph glyph-name="uni51EF" unicode="&#x51ef;" d="M125 -30 Q120 -23 107 -10 Q127 13 132 33 Q137 53 137 104 L137 198 L217 198 L217 9 Q217 1 222 1 L224 1 Q231 1 232 11 Q232 22 234 56 Q243 53 251 51 Q251 46 250 36 Q249 15 248 5 Q247 -22 223 -21 L216 -21 Q192 -22 193 3 L193 174 L162 174 L162 105 Q162 49 155 24 Q148 -1 125 -30 ZM25 -23 L12 -2 Q20 5 20 18 L20 65 L92 65 L92 91 L12 91 L12 113 L116 113 L116 43 L44 43 L44 6 Q85 14 113 18 Q113 14 112 8 Q111 0 111 -4 Q96 -6 64 -12 Q54 -14 49 -15 Q36 -18 25 -23 ZM14 132 L14 197 L35 197 L35 153 L56 153 L56 211 L78 211 L78 153 L99 153 L99 197 L120 197 L120 132 L14 132 Z" /><glyph glyph-name="uni51F1" unicode="&#x51f1;" d="M10 -18 L7 4 Q18 4 41 6 Q25 4 44 6 L28 31 L49 37 Q52 32 59 20 Q64 11 66 8 L63 7 Q66 7 72 8 Q77 8 79 8 Q87 23 94 38 L115 33 Q112 27 106 16 Q103 12 102 10 Q116 10 130 12 L128 3 Q147 28 145 97 L145 198 L218 198 L218 8 Q218 1 224 1 L226 1 Q231 0 232 9 Q233 23 235 56 Q239 55 246 53 Q250 51 251 51 Q251 27 248 5 Q247 -23 224 -22 L218 -22 Q195 -22 195 2 L195 174 L168 174 L168 98 Q168 47 162 22 Q157 -2 138 -29 Q137 -27 133 -22 Q126 -14 123 -10 Q61 -13 10 -18 ZM20 39 L20 101 L124 101 L124 39 L20 39 ZM16 154 L16 199 L37 199 L37 174 L61 174 L61 209 L82 209 L82 174 L106 174 L106 199 L127 199 L127 154 L16 154 ZM9 118 L9 138 L134 138 L134 118 L9 118 ZM42 81 L42 59 L101 59 L101 81 L42 81 Z" /><glyph glyph-name="uni51FA" unicode="&#x51fa;" d="M30 97 L30 187 L57 187 L57 123 L113 123 L113 209 L142 209 L142 123 L198 123 L198 187 L226 187 L226 97 L142 97 L142 7 L207 7 L207 72 L234 72 L234 -26 L207 -26 L207 -16 L21 -16 L21 72 L48 72 L48 7 L113 7 L113 97 L30 97 Z" /><glyph glyph-name="uni51FD" unicode="&#x51fd;" d="M58 42 L45 63 L45 3 L211 3 L211 147 L237 147 L237 -29 L211 -29 L211 -18 L18 -18 L18 147 L45 147 L45 63 Q72 79 101 97 Q106 88 115 77 Q83 58 58 42 ZM85 15 Q84 20 82 30 Q81 35 80 38 Q91 38 103 38 Q119 37 118 51 L118 150 L174 176 L39 176 L39 200 L215 200 L215 174 L144 137 L144 46 Q146 15 113 15 Q101 15 85 15 ZM196 39 Q173 58 146 77 L161 94 Q188 77 211 59 L196 39 ZM92 100 Q74 117 54 133 L70 149 Q77 144 90 134 Q103 124 110 118 L92 100 ZM168 97 L152 113 Q176 132 191 146 L208 130 Q190 115 168 97 Z" /><glyph glyph-name="uni5206" unicode="&#x5206;" d="M28 -30 Q18 -16 11 -7 Q72 15 78 64 Q80 73 80 84 L42 84 L42 106 Q32 97 20 88 Q19 90 16 94 Q9 108 5 114 Q59 150 88 208 L113 197 Q84 141 46 109 L207 109 Q206 95 205 62 Q203 33 203 21 Q202 -24 155 -23 Q132 -23 116 -23 Q114 -8 111 2 Q117 2 129 2 Q144 1 151 1 Q175 0 176 26 Q178 58 178 84 L108 84 Q108 80 107 73 Q106 65 105 61 Q101 1 28 -30 ZM234 89 Q169 131 143 201 L167 211 Q194 145 250 116 Q246 108 234 89 Z" /><glyph glyph-name="uni520A" unicode="&#x520a;" d="M14 170 L14 196 L129 196 L129 170 L85 170 L85 105 L134 105 L134 80 L85 80 L85 -26 L58 -26 L58 80 L8 80 L8 105 L58 105 L58 170 L14 170 ZM163 -25 Q162 -12 158 1 Q174 0 192 0 Q213 -1 211 19 L211 207 L238 207 L238 12 Q240 -24 205 -24 Q198 -24 183 -25 Q169 -25 163 -25 ZM149 31 L149 181 L175 181 L175 31 L149 31 Z" /><glyph glyph-name="uni5212" unicode="&#x5212;" d="M12 113 L9 137 L44 142 Q43 174 41 210 L68 210 Q68 177 70 145 L143 155 L145 132 L71 121 Q73 90 77 65 Q98 84 118 113 L140 100 Q112 62 84 38 Q90 23 99 9 Q105 0 113 0 Q120 0 123 11 Q128 25 131 44 Q140 39 154 34 Q148 7 143 -3 Q135 -27 114 -27 Q91 -28 78 -3 Q69 7 63 21 Q45 7 19 -4 Q17 -1 13 4 Q8 13 5 18 Q35 33 55 47 Q49 70 46 118 L12 113 ZM168 -26 Q167 -23 166 -17 Q164 -5 162 0 Q179 0 193 0 Q212 0 211 16 L211 209 L237 209 L237 8 Q239 -24 204 -25 Q188 -25 168 -26 ZM158 36 L158 183 L183 183 L183 36 L158 36 ZM114 159 Q107 165 90 179 Q83 184 80 187 L95 203 Q115 190 130 178 L114 159 Z" /><glyph glyph-name="uni5219" unicode="&#x5219;" d="M19 42 L19 199 L134 199 L134 42 L111 42 L111 174 L43 174 L43 42 L19 42 ZM166 -25 Q164 -13 161 0 Q178 0 194 0 Q212 -1 210 16 L210 208 L236 208 L236 8 Q238 -24 203 -24 L166 -25 ZM23 -29 Q20 -26 13 -17 Q8 -12 6 -9 Q42 11 53 30 Q64 49 64 92 Q65 117 65 158 L90 158 Q90 143 89 121 Q89 102 89 92 Q89 64 85 47 Q92 41 108 27 Q138 3 147 -4 L129 -24 Q121 -16 95 8 Q82 19 77 24 Q67 -2 23 -29 ZM160 35 L160 183 L185 183 L185 35 L160 35 Z" /><glyph glyph-name="uni521B" unicode="&#x521b;" d="M135 123 L133 124 Q133 98 131 70 Q130 39 100 38 L72 37 Q71 42 68 55 Q67 59 67 61 Q81 60 91 60 Q106 59 108 76 Q108 79 108 86 Q109 97 109 102 L54 102 L54 17 Q53 0 71 0 L103 0 Q120 0 123 13 Q123 15 124 19 Q125 22 127 37 Q129 36 134 35 Q140 32 152 29 Q151 21 147 7 Q146 2 145 0 Q139 -23 107 -22 L65 -22 Q28 -23 29 13 L29 116 Q28 115 25 113 Q23 111 16 106 Q11 119 5 130 Q51 162 74 211 L101 209 Q100 207 99 204 Q97 200 96 198 Q113 183 140 155 Q149 146 153 142 L135 123 ZM170 -25 Q168 -13 165 0 Q181 0 196 0 Q213 0 212 16 L212 210 L238 210 L238 9 Q240 -24 206 -25 Q188 -25 170 -25 ZM159 32 L159 183 L184 183 L184 32 L159 32 ZM84 178 Q66 149 39 125 L133 125 Q125 135 109 152 Q93 169 84 178 Z" /><glyph glyph-name="uni521D" unicode="&#x521d;" d="M158 -22 Q156 -5 153 4 Q163 3 187 3 Q208 2 208 24 Q211 122 211 166 L165 166 Q165 157 164 141 Q164 128 164 122 Q164 18 102 -29 Q93 -20 81 -10 Q138 30 137 121 Q138 132 138 166 L103 166 L103 190 L239 190 Q239 177 239 181 Q236 53 234 19 Q234 -21 196 -21 Q177 -22 158 -22 ZM100 39 Q82 54 66 69 L66 -28 L40 -28 L40 67 Q28 55 13 42 Q10 56 5 70 Q43 97 63 139 L13 139 L13 163 L53 163 Q42 185 33 200 L55 210 Q61 202 71 184 Q75 177 77 173 L55 163 L91 163 L91 141 Q79 116 66 97 L66 95 L76 87 Q88 103 99 118 L117 104 Q110 95 94 78 Q93 76 92 75 L114 57 L100 39 Z" /><glyph glyph-name="uni5225" unicode="&#x5225;" d="M20 113 L20 199 L134 199 L134 113 L20 113 ZM25 -29 Q23 -27 18 -23 Q10 -15 4 -11 Q39 18 40 69 Q40 87 40 106 L66 106 Q66 95 66 86 L136 86 Q135 74 134 44 Q133 22 133 12 Q133 -23 97 -23 L66 -24 Q65 -19 64 -8 Q62 -2 62 0 Q75 0 87 0 Q108 -1 108 19 Q109 34 109 62 L65 62 Q64 7 25 -29 ZM162 -25 Q160 -12 157 1 Q173 0 191 0 Q212 0 210 17 L210 209 L237 209 L237 9 Q239 -24 202 -24 Q184 -25 162 -25 ZM159 32 L159 182 L184 182 L184 32 L159 32 ZM46 175 L46 136 L109 136 L109 175 L46 175 Z" /><glyph glyph-name="uni5229" unicode="&#x5229;" d="M9 110 L9 135 L61 135 L61 172 Q55 172 44 171 Q24 169 15 169 Q15 170 15 171 Q13 186 11 193 Q79 197 128 202 L133 178 Q127 178 113 176 Q96 175 87 174 L87 135 L137 135 L137 110 L87 110 L87 82 L95 90 Q130 62 141 51 L123 32 Q111 44 87 66 L87 -28 L61 -28 L61 68 Q44 34 14 4 Q13 13 6 38 Q40 67 58 110 L9 110 ZM164 -25 Q164 -23 163 -19 Q161 -5 158 1 Q168 0 195 0 Q211 0 210 17 L210 208 L236 208 L236 9 Q237 -22 205 -24 Q201 -24 186 -24 Q170 -25 164 -25 ZM150 31 L150 181 L175 181 L175 31 L150 31 Z" /><glyph glyph-name="uni522B" unicode="&#x522b;" d="M20 113 L20 199 L134 199 L134 113 L20 113 ZM66 -24 Q65 -19 64 -8 Q62 -2 62 0 Q77 0 88 0 Q109 -1 109 19 Q110 34 110 62 L72 62 Q70 8 25 -29 Q22 -26 14 -20 Q8 -13 4 -10 Q45 19 47 62 L11 62 L11 86 L48 86 L49 106 L74 106 L74 86 L137 86 Q136 74 135 44 Q134 22 134 12 Q135 -23 97 -23 L66 -24 ZM162 -25 Q160 -12 157 1 Q173 0 191 0 Q212 0 210 17 L210 209 L237 209 L237 9 Q239 -24 202 -24 Q184 -25 162 -25 ZM159 32 L159 182 L184 182 L184 32 L159 32 ZM46 175 L46 136 L109 136 L109 175 L46 175 Z" /><glyph glyph-name="uni5230" unicode="&#x5230;" d="M10 174 L10 198 L145 198 L145 174 L80 174 Q79 172 76 168 Q58 140 47 126 Q58 127 82 128 Q97 129 105 129 Q99 140 90 152 L110 163 Q112 159 117 152 Q139 120 148 105 L127 92 Q122 100 119 107 Q64 105 42 103 Q37 103 27 101 Q22 100 20 100 L11 123 Q18 127 22 131 Q37 150 51 174 L10 174 ZM13 47 L13 71 L64 71 L64 96 L90 96 L90 71 L140 71 L140 47 L90 47 L90 11 L146 17 Q145 9 145 -6 Q129 -8 97 -11 Q42 -17 11 -21 L7 4 Q23 5 58 8 Q34 6 64 9 L64 47 L13 47 ZM168 -25 Q166 -10 163 0 Q181 0 196 0 Q212 0 211 16 L211 209 L238 209 L238 9 Q240 -24 206 -25 Q188 -25 168 -25 ZM158 32 L158 183 L183 183 L183 32 L158 32 Z" /><glyph glyph-name="uni5236" unicode="&#x5236;" d="M7 102 L7 124 L72 124 L72 152 L40 152 Q36 142 30 130 Q20 135 9 138 Q25 171 30 201 L53 197 Q50 185 47 175 L72 175 L72 209 L97 209 L97 175 L146 175 L146 152 L97 152 L97 124 L155 124 L155 102 L97 102 L97 76 L149 76 L149 15 Q149 -9 127 -10 Q125 -10 119 -10 Q111 -11 107 -11 Q105 -1 102 9 Q108 9 116 9 Q126 8 125 19 L125 54 L97 54 L97 -29 L72 -29 L72 54 L45 54 L45 -12 L21 -12 L21 76 L72 76 L72 102 L7 102 ZM174 -25 Q172 -12 169 0 Q185 0 198 0 Q215 -1 214 14 L214 209 L238 209 L238 9 Q239 -25 208 -25 Q192 -25 174 -25 ZM167 33 L167 184 L190 184 L190 33 L167 33 Z" /><glyph glyph-name="uni523B" unicode="&#x523b;" d="M22 19 Q15 31 6 41 Q48 64 69 91 L43 89 Q32 89 23 87 L14 108 Q23 113 30 122 Q42 137 54 156 L12 156 L12 180 L74 180 Q70 192 64 206 L92 210 Q98 195 103 180 L148 180 L148 156 L82 156 Q58 122 49 111 Q54 111 65 111 Q79 112 86 112 Q96 127 105 144 L126 133 Q85 58 22 19 ZM171 -25 Q169 -10 165 0 Q182 0 195 0 Q212 0 211 16 L211 208 L237 208 L237 10 Q238 -22 204 -24 Q186 -25 171 -25 ZM29 -30 Q27 -27 21 -19 Q16 -12 13 -8 Q88 25 126 98 L147 87 Q130 56 109 32 Q133 13 155 -4 L137 -24 Q127 -13 104 5 Q97 12 93 15 Q69 -7 29 -30 ZM162 30 L162 181 L187 181 L187 30 L162 30 Z" /><glyph glyph-name="uni524D" unicode="&#x524d;" d="M23 -29 L23 135 L132 135 L132 4 Q133 -23 104 -25 Q92 -25 73 -25 Q73 -21 71 -13 Q70 -5 69 -1 Q76 -2 94 -2 Q108 -3 107 8 L107 26 L47 26 L47 -29 L23 -29 ZM8 156 L8 179 L74 179 L54 205 L81 211 Q91 201 107 179 L150 179 Q164 197 174 211 L203 205 Q200 201 192 191 Q185 183 182 179 L248 179 L248 156 L8 156 ZM166 -25 L162 0 Q166 0 174 0 Q184 -1 190 -1 Q209 -2 208 15 L208 141 L233 141 L233 9 Q235 -25 201 -25 Q184 -25 166 -25 ZM157 20 L157 130 L180 130 L180 20 L157 20 ZM47 70 L47 47 L107 47 L107 70 L47 70 ZM47 113 L47 90 L107 90 L107 113 L47 113 Z" /><glyph glyph-name="uni5275" unicode="&#x5275;" d="M16 123 Q15 127 11 135 Q8 143 6 146 Q56 173 82 211 L110 209 L104 200 Q148 169 165 154 L150 136 L147 139 L147 60 L50 60 Q50 58 49 55 Q48 47 47 44 L150 44 L150 -24 L128 -24 L128 -12 L66 -12 L66 -24 L44 -24 L44 31 Q38 9 20 -17 Q19 -16 17 -13 Q7 -1 4 0 Q20 24 25 46 Q30 67 30 110 L30 132 L16 123 ZM176 -25 Q175 -13 172 -1 Q188 -1 199 -1 Q216 -2 215 13 L215 208 L239 208 L239 7 Q240 -24 210 -24 Q198 -25 176 -25 ZM169 33 L169 183 L192 183 L192 33 L169 33 ZM141 144 Q117 165 92 185 Q73 163 48 144 L86 144 Q85 147 82 152 Q78 160 77 164 L96 168 Q103 154 106 146 L99 144 L141 144 ZM66 26 L66 4 L128 4 L128 26 L66 26 ZM52 94 Q52 86 52 78 L124 78 L124 94 L52 94 ZM53 126 L53 110 L124 110 L124 126 L53 126 Z" /><glyph glyph-name="uni5283" unicode="&#x5283;" d="M7 155 L7 170 L73 170 L73 181 L20 181 L20 195 L73 195 L73 211 L97 211 L97 195 L153 195 L153 170 L167 170 L167 155 L153 155 L153 129 L97 129 L97 118 L157 118 L157 106 L97 106 L97 94 L167 94 L167 80 L8 80 L8 94 L73 94 L73 106 L16 106 L16 118 L73 118 L73 129 L19 129 L19 143 L73 143 L73 155 L7 155 ZM19 8 L19 69 L154 69 L154 8 L19 8 ZM181 -25 Q180 -21 179 -14 Q177 -6 176 -2 Q189 -2 201 -2 Q218 -3 217 9 L217 210 L238 210 L238 5 Q240 -25 211 -25 Q198 -25 181 -25 ZM178 29 L178 189 L198 189 L198 29 L178 29 ZM8 -23 L6 -4 Q14 -4 32 -3 Q124 -2 166 0 Q166 -3 166 -9 Q165 -15 165 -18 Q101 -19 8 -23 ZM132 56 L97 56 L97 44 L132 44 L132 56 ZM41 56 L41 44 L76 44 L76 56 L41 56 ZM41 33 L41 21 L76 21 L76 33 L41 33 ZM97 33 L97 21 L132 21 L132 33 L97 33 ZM97 155 L97 143 L132 143 L132 155 L97 155 ZM132 181 L97 181 L97 170 L132 170 L132 181 Z" /><glyph glyph-name="uni529B" unicode="&#x529b;" d="M28 -28 Q26 -26 23 -22 Q12 -9 8 -5 Q91 38 91 132 L16 132 L16 159 L93 159 Q93 167 94 185 Q94 202 95 210 L124 210 Q124 193 122 162 Q122 163 122 159 L234 159 Q231 82 228 28 Q227 -22 178 -21 Q156 -22 127 -22 Q126 -13 122 2 Q121 5 121 6 Q137 5 168 5 Q200 3 199 40 Q201 61 202 115 Q203 127 203 132 L120 132 Q120 22 28 -28 Z" /><glyph glyph-name="uni529E" unicode="&#x529e;" d="M229 44 Q215 73 201 99 Q201 86 200 62 Q200 37 199 26 Q198 -23 151 -22 Q139 -22 119 -23 Q110 -23 108 -23 Q106 -10 102 4 Q116 3 143 3 Q172 0 172 33 Q172 46 174 77 Q175 121 176 142 L115 141 Q117 16 27 -28 Q24 -24 16 -15 Q10 -9 8 -6 Q55 22 69 50 Q85 76 87 140 L87 142 L17 142 L17 168 L89 168 Q89 176 90 191 Q90 204 90 210 L119 210 Q118 204 118 189 Q117 175 117 168 L204 168 L202 111 L218 119 Q236 87 253 56 L229 44 ZM28 41 Q24 44 14 49 Q8 53 5 55 Q25 86 39 121 L63 111 Q48 78 28 41 Z" /><glyph glyph-name="uni529F" unicode="&#x529f;" d="M156 -24 Q154 -6 150 2 Q160 1 184 1 Q208 0 208 24 Q208 33 208 30 Q211 103 211 136 L163 136 L162 125 Q161 20 98 -29 Q96 -27 89 -23 Q79 -15 74 -12 Q110 17 121 43 Q132 68 135 126 L135 136 L107 136 L107 162 L137 162 Q137 193 138 210 L165 210 Q165 201 164 185 Q164 169 164 162 L239 162 Q237 76 234 18 Q234 -22 195 -23 Q190 -23 177 -23 Q162 -24 156 -24 ZM9 158 L9 184 L102 184 L102 158 L70 158 L70 49 L104 56 Q104 37 105 28 Q51 17 11 6 L6 36 L44 43 L44 158 L9 158 Z" /><glyph glyph-name="uni52A0" unicode="&#x52a0;" d="M145 -23 L145 184 L239 184 L239 -23 L213 -23 L213 0 L170 0 L170 -23 L145 -23 ZM22 -29 Q10 -15 3 -8 Q41 36 41 137 Q41 139 41 142 L11 142 L11 167 L42 167 Q42 188 42 210 L68 210 L68 167 L123 167 Q123 69 120 13 Q120 -22 88 -22 Q79 -23 58 -23 Q56 -9 53 3 Q66 3 76 3 Q95 2 95 21 Q97 79 97 142 L67 142 Q67 139 67 136 Q66 18 22 -29 ZM170 159 L170 24 L213 24 L213 159 L170 159 Z" /><glyph glyph-name="uni52A1" unicode="&#x52a1;" d="M16 80 Q15 83 11 91 Q7 100 5 104 Q65 111 101 123 Q81 135 62 155 Q47 142 28 127 Q23 134 10 147 Q54 175 82 211 L111 207 Q104 198 98 191 L221 191 L221 167 Q187 135 162 123 Q199 112 250 108 Q247 102 241 88 Q240 85 239 84 Q172 91 131 108 Q93 92 16 80 ZM129 -25 Q129 -20 127 -9 Q125 -2 125 0 Q132 0 146 0 Q160 0 168 0 Q192 -2 193 21 Q193 25 194 34 Q194 44 194 47 L118 47 Q110 -5 24 -30 Q21 -26 15 -16 Q9 -8 8 -6 Q81 11 90 47 L23 47 L23 69 L95 69 Q97 80 97 93 L125 93 L122 69 L223 69 Q222 42 220 19 Q219 -26 172 -24 Q157 -25 129 -25 ZM186 168 L82 168 Q105 146 131 134 Q158 146 186 168 Z" /><glyph glyph-name="uni52A8" unicode="&#x52a8;" d="M7 102 L7 126 L123 126 L123 102 L72 102 Q56 59 40 25 Q43 25 49 26 Q77 27 92 29 Q83 51 74 72 L96 80 Q113 43 125 10 Q151 44 151 127 Q151 128 151 131 Q152 135 152 137 L124 137 L124 161 L152 161 Q153 183 153 210 L179 210 Q178 187 178 161 L241 161 Q241 155 241 142 Q239 44 238 13 Q237 -22 204 -23 Q189 -23 169 -23 Q168 -14 163 2 Q168 2 178 2 Q188 1 193 1 Q211 1 211 21 Q215 80 215 137 L177 137 Q177 131 177 126 Q178 22 127 -30 Q117 -23 104 -14 Q113 -5 120 3 L104 -2 Q104 -2 103 0 Q102 4 101 6 Q93 5 79 4 Q52 2 40 1 Q27 0 17 -2 L7 19 Q15 25 19 36 Q35 71 44 102 L7 102 ZM19 168 L19 193 L115 193 L115 168 L19 168 Z" /><glyph glyph-name="uni52A9" unicode="&#x52a9;" d="M9 -11 L6 14 Q8 14 14 14 Q20 15 23 15 L23 197 L115 197 L115 24 L128 26 Q128 20 128 14 Q150 45 152 125 Q152 127 153 131 Q153 135 153 136 L127 136 L127 161 L153 161 L154 209 L180 209 Q179 192 179 161 L238 161 Q236 47 234 10 Q233 -22 202 -23 Q194 -24 168 -24 Q166 -12 163 1 Q179 0 191 0 Q208 0 209 17 Q209 20 209 25 Q212 98 212 136 L178 136 Q178 134 178 130 Q177 126 177 124 Q178 15 127 -29 Q125 -27 121 -22 Q114 -14 109 -8 L118 0 Q75 -2 9 -11 ZM47 18 Q48 18 50 18 Q69 19 90 22 L90 58 L47 58 L47 18 ZM47 175 L47 137 L90 137 L90 175 L47 175 ZM47 116 L47 79 L90 79 L90 116 L47 116 Z" /><glyph glyph-name="uni52BF" unicode="&#x52bf;" d="M24 -29 Q21 -24 14 -13 Q11 -8 9 -5 Q84 5 92 38 L22 38 L22 61 L97 61 L98 74 L106 74 Q104 76 101 79 Q93 88 89 91 Q115 104 125 119 L103 131 L115 148 L135 138 Q138 149 139 162 L111 162 L111 184 L140 184 Q141 194 141 211 L165 211 L164 184 L215 184 Q214 141 216 111 Q218 98 224 98 Q229 98 230 106 Q232 120 233 136 Q236 135 242 133 Q247 131 250 130 Q248 111 245 98 Q240 75 222 75 Q196 76 193 108 Q191 121 191 162 L163 162 Q162 142 156 127 L184 113 L171 92 L146 107 Q134 91 108 74 L125 74 L124 61 L225 61 Q224 37 222 12 Q222 -25 174 -24 Q159 -24 134 -24 Q132 -12 129 0 Q135 0 150 0 Q164 0 170 0 Q194 -1 195 14 Q195 24 197 38 L120 38 Q112 -11 24 -29 ZM15 161 L15 182 L49 182 L49 211 L73 211 L73 182 L99 182 L99 161 L73 161 L73 143 L100 146 Q99 140 100 130 Q100 126 100 125 L73 121 L73 103 Q74 73 48 73 Q34 73 22 73 Q21 77 19 85 Q18 91 17 95 Q23 94 37 94 Q50 93 49 106 L49 118 L15 112 L11 134 Q17 135 31 137 Q43 138 49 139 L49 161 L15 161 Z" /><glyph glyph-name="uni52CB" unicode="&#x52cb;" d="M141 -30 Q132 -23 120 -15 Q163 28 164 128 Q164 133 164 137 L140 137 L140 161 L165 161 Q165 190 166 209 L190 209 Q190 182 189 161 L242 161 Q242 156 242 147 Q240 47 238 9 Q237 -22 208 -24 Q187 -24 177 -25 Q175 -11 172 0 Q186 0 197 0 Q213 0 214 17 Q217 61 217 137 L188 137 Q188 133 188 129 Q188 19 141 -30 ZM25 132 L25 200 L123 200 L123 132 L25 132 ZM16 26 L16 114 L131 114 L131 28 L109 28 L109 93 L39 93 L39 26 L16 26 ZM116 -20 Q100 -4 74 13 Q61 -11 18 -28 Q11 -17 5 -7 Q56 8 61 42 Q63 51 63 79 L86 79 Q86 55 83 40 L82 35 Q107 17 131 0 L116 -20 ZM48 180 L48 153 L100 153 L100 180 L48 180 Z" /><glyph glyph-name="uni52D2" unicode="&#x52d2;" d="M8 167 L8 188 L32 188 L32 210 L54 210 L54 188 L94 188 L94 210 L117 210 L117 188 L142 188 L142 167 L117 167 L117 131 L86 131 L86 113 L132 113 L132 50 L86 50 L86 30 L137 30 L137 11 Q159 41 160 119 Q160 121 160 127 Q161 133 161 137 L136 137 L136 161 L161 161 Q162 181 162 210 L186 210 L186 161 L239 161 Q239 69 236 13 Q236 -23 204 -23 Q195 -24 175 -24 Q173 -12 170 1 Q184 0 194 0 Q211 0 212 20 Q213 39 214 96 Q215 124 215 137 L185 137 Q185 128 185 121 Q186 19 138 -29 Q133 -25 122 -18 Q119 -16 117 -15 Q119 -13 121 -10 Q132 2 136 9 L86 9 L86 -28 L63 -28 L63 9 L7 9 L7 30 L63 30 L63 50 L17 50 L17 113 L63 113 L63 131 L32 131 L32 167 L8 167 ZM54 167 L54 148 L94 148 L94 167 L54 167 ZM111 94 L86 94 L86 69 L111 69 L111 94 ZM38 94 L38 69 L63 69 L63 94 L38 94 Z" /><glyph glyph-name="uni52D5" unicode="&#x52d5;" d="M18 177 Q18 179 17 184 Q15 192 14 196 Q68 196 134 201 L139 183 Q132 183 120 182 Q99 180 89 180 L89 163 L143 163 L143 144 L89 144 L89 130 L139 130 L139 49 L89 49 L89 33 L139 33 L139 16 L89 16 L89 0 Q98 0 115 1 Q133 1 141 2 L141 -4 Q169 29 169 117 L169 138 L151 138 L151 162 L170 162 L170 210 L194 210 L193 162 L240 162 Q240 68 237 11 Q237 -23 208 -23 Q200 -24 182 -24 Q181 -20 180 -12 Q178 -3 177 0 Q188 0 198 0 Q214 0 214 18 Q214 20 214 26 Q217 103 217 138 L192 138 Q192 129 192 119 Q191 17 154 -30 Q147 -22 139 -16 Q78 -17 9 -22 L7 -1 L67 0 L67 16 L14 16 L14 33 L67 33 L67 49 L17 49 L17 130 L67 130 L67 144 L8 144 L8 163 L67 163 L67 179 Q59 178 42 178 Q27 177 18 177 ZM89 81 L89 65 L118 65 L118 81 L89 81 ZM38 113 L38 97 L67 97 L67 113 L38 113 ZM118 113 L89 113 L89 97 L118 97 L118 113 ZM38 81 L38 65 L67 65 L67 81 L38 81 Z" /><glyph glyph-name="uni52D9" unicode="&#x52d9;" d="M14 8 L6 38 Q31 63 47 99 L9 99 L9 121 L55 121 Q50 126 37 138 Q26 148 22 152 L37 166 L58 148 L83 177 L14 177 L14 199 L111 199 L111 176 L75 133 L79 130 L70 121 L111 121 L111 106 Q141 113 160 122 Q148 134 138 148 Q130 139 122 131 L108 150 Q137 177 154 210 L180 207 Q175 197 169 188 L239 188 L239 164 Q225 139 204 122 Q222 113 250 108 Q242 94 239 85 Q205 93 181 107 Q157 94 121 83 Q116 95 111 104 L111 100 L104 56 Q92 59 87 59 L94 99 L76 99 L76 3 Q77 -25 48 -26 Q41 -27 22 -27 Q21 -23 20 -16 Q18 -7 17 -3 Q29 -3 39 -3 Q54 -4 53 9 L53 69 Q37 32 14 8 ZM167 -25 Q165 -13 162 0 Q168 0 178 -1 Q187 -1 192 -1 Q209 -3 210 14 Q210 18 210 28 Q211 41 211 47 L173 47 Q167 1 109 -29 Q104 -24 92 -8 Q141 12 147 47 L114 47 L114 70 L151 70 Q151 78 151 87 L177 87 Q176 79 176 70 L238 70 Q237 53 235 21 Q234 13 234 10 Q234 -24 200 -24 Q193 -25 167 -25 ZM212 166 L154 166 Q166 145 182 134 Q196 144 212 166 Z" /><glyph glyph-name="uni52DD" unicode="&#x52dd;" d="M103 141 L103 161 L128 161 Q117 175 105 189 L122 201 Q127 196 135 186 Q142 177 146 173 L128 161 L156 161 Q159 182 159 210 L184 210 Q183 183 179 161 L207 161 L193 173 Q207 188 217 202 L234 190 Q230 185 221 174 Q214 165 210 161 L240 161 L240 141 L175 141 Q174 131 169 122 L246 122 L246 101 L206 101 Q220 82 251 72 Q245 62 241 51 Q239 52 235 54 Q229 57 227 59 Q225 25 224 8 Q222 -23 191 -23 Q175 -24 159 -24 Q159 -23 159 -21 Q158 -13 155 -1 Q160 -1 169 -2 Q179 -2 183 -2 Q201 -3 201 11 Q201 16 202 26 Q202 36 202 40 L169 40 Q162 1 107 -30 Q106 -28 103 -25 Q100 -21 90 -10 Q137 10 145 40 L113 40 L113 58 Q111 57 105 53 Q100 50 97 48 L87 68 L87 0 Q88 -23 66 -25 Q56 -25 44 -26 Q44 -25 43 -22 Q41 -9 39 -2 Q47 -3 55 -3 Q65 -3 65 6 L65 53 L41 53 Q41 8 23 -30 Q21 -28 17 -23 Q8 -13 5 -9 Q20 17 19 75 L19 199 L87 199 L87 69 Q115 85 130 101 L96 101 L96 122 L145 122 Q146 124 147 127 Q150 136 151 141 L103 141 ZM158 101 Q143 80 118 61 L149 61 Q151 71 151 83 L175 83 Q175 71 173 61 L222 61 Q195 75 182 101 L158 101 ZM41 177 L41 136 L65 136 L65 177 L41 177 ZM41 74 L65 74 L65 115 L41 115 L41 74 Z" /><glyph glyph-name="uni52FE" unicode="&#x52fe;" d="M28 97 Q13 112 7 117 Q46 154 69 211 L98 205 Q91 189 83 176 L236 176 Q235 152 233 89 Q231 42 231 26 Q230 -24 180 -24 Q168 -24 146 -25 Q131 -25 125 -25 Q123 -9 120 2 Q127 2 144 2 Q162 1 170 1 Q203 0 203 35 Q203 45 204 75 Q206 135 207 150 L68 150 Q52 124 28 97 ZM141 103 Q166 73 193 32 L168 16 L157 34 Q147 33 124 32 Q86 29 71 28 Q65 27 50 24 Q46 23 45 23 L30 48 Q42 56 51 66 Q81 106 98 138 L127 131 Q101 87 73 53 Q82 53 105 55 Q130 56 141 57 Q137 63 129 75 Q122 85 118 90 L141 103 Z" /><glyph glyph-name="uni5305" unicode="&#x5305;" d="M80 -21 Q35 -22 37 19 L37 120 Q34 117 29 111 Q21 102 16 98 Q12 113 6 126 Q44 163 65 211 L95 208 Q94 205 91 200 Q90 196 84 186 L222 186 Q222 127 219 71 Q219 27 180 29 Q166 28 145 28 Q144 31 142 37 Q140 48 138 54 L63 54 L63 22 Q61 0 87 1 L193 1 Q215 0 218 17 Q221 30 222 48 Q227 47 236 44 Q245 41 249 40 Q247 22 243 4 Q237 -22 199 -21 L80 -21 ZM69 161 Q61 148 49 134 L154 134 L154 54 L172 54 Q192 53 193 74 Q195 115 195 161 L69 161 ZM63 111 L63 77 L128 77 L128 111 L63 111 Z" /><glyph glyph-name="uni5316" unicode="&#x5316;" d="M90 38 Q86 47 74 63 Q105 78 129 94 L129 207 L158 207 L158 114 Q193 142 221 177 L243 158 Q206 115 158 80 L158 21 Q157 2 176 3 L195 3 Q215 2 217 19 Q218 28 222 60 Q226 59 236 55 Q245 52 249 50 Q246 23 242 5 Q238 -23 198 -22 L168 -22 Q127 -24 129 17 L129 61 Q113 51 90 38 ZM15 61 L5 95 Q44 144 68 209 L96 200 Q83 169 68 141 L68 -28 L42 -28 L42 98 Q38 92 29 80 Q20 67 15 61 Z" /><glyph glyph-name="uni5317" unicode="&#x5317;" d="M182 -21 Q142 -22 143 17 L143 208 L172 208 L172 130 Q202 147 231 166 L247 142 Q205 117 172 100 L172 21 Q171 2 189 3 L197 3 Q216 1 218 24 Q221 40 222 61 Q238 56 249 52 Q248 44 245 24 Q244 15 243 10 Q238 -23 199 -21 L182 -21 ZM10 118 L10 144 L74 144 L74 208 L102 208 L102 -27 L74 -27 L74 16 Q43 4 13 -4 L7 23 Q37 31 74 43 L74 118 L10 118 Z" /><glyph glyph-name="uni5319" unicode="&#x5319;" d="M9 71 L9 91 L148 91 L148 71 L97 71 L97 47 L143 47 L143 27 L97 27 L97 0 Q108 0 120 0 Q144 0 205 0 Q241 0 250 0 Q248 -4 245 -14 Q243 -20 242 -23 Q194 -23 169 -23 Q140 -23 118 -22 Q60 -22 41 6 Q35 -10 23 -29 Q14 -20 5 -13 Q27 14 26 61 L49 59 Q49 45 48 33 Q57 14 73 7 L73 71 L9 71 ZM26 106 L26 200 L133 200 L133 106 L26 106 ZM189 18 Q160 18 160 50 L160 205 L185 205 L185 134 Q207 151 228 170 L244 152 Q211 122 185 105 L185 55 Q184 40 197 41 L205 41 Q217 40 219 54 Q221 62 223 87 Q236 82 246 80 Q243 58 240 40 Q235 17 209 18 L189 18 ZM50 145 L50 126 L110 126 L110 145 L50 145 ZM50 181 L50 162 L110 162 L110 181 L50 181 Z" /><glyph glyph-name="uni5320" unicode="&#x5320;" d="M24 -20 L24 198 L241 198 L241 173 L51 173 L51 4 L245 4 L245 -20 L24 -20 ZM163 13 L163 77 L109 77 Q108 43 88 9 Q76 18 65 26 Q86 52 84 109 L84 151 Q151 152 214 159 L221 136 Q163 130 110 128 L110 101 L235 101 L235 77 L189 77 L189 13 L163 13 Z" /><glyph glyph-name="uni532F" unicode="&#x532f;" d="M76 91 Q69 96 53 107 Q48 111 45 113 L45 0 L246 0 L246 -21 L19 -21 L19 201 L243 201 L243 179 L45 179 L45 114 L57 131 Q73 122 89 110 L88 109 Q113 137 126 174 L149 170 Q145 159 140 150 L177 150 Q173 161 167 170 L189 174 Q198 159 201 151 L200 150 L237 150 L237 132 L194 132 L194 112 L233 112 L233 94 L194 94 L194 74 L233 74 L233 56 L194 56 L194 37 L240 37 L240 18 L134 18 L134 8 L111 8 L111 103 Q109 101 106 97 Q104 94 97 86 Q90 100 87 107 L76 91 ZM72 7 L50 16 Q51 18 52 22 Q68 58 74 79 Q79 76 86 74 Q91 72 95 70 L72 7 ZM90 135 Q82 142 63 155 Q60 157 58 158 L70 175 Q78 171 92 162 Q100 158 104 155 L90 135 ZM134 132 L134 112 L171 112 L171 132 L134 132 ZM134 56 L134 37 L171 37 L171 56 L134 56 ZM134 94 L134 74 L171 74 L171 94 L134 94 Z" /><glyph glyph-name="uni533A" unicode="&#x533a;" d="M25 -16 L25 196 L236 196 L236 170 L52 170 L52 7 L240 7 L240 -16 L25 -16 ZM201 17 Q174 44 147 71 Q113 39 84 16 Q78 23 64 37 Q102 64 127 89 Q99 117 70 142 L90 159 Q119 134 146 108 Q170 133 191 163 L215 148 Q213 145 209 140 Q182 106 166 90 Q167 89 169 87 Q196 64 223 37 L201 17 Z" /><glyph glyph-name="uni533B" unicode="&#x533b;" d="M23 -20 L23 200 L243 200 L243 176 L50 176 L50 3 L246 3 L246 -20 L23 -20 ZM84 99 Q82 101 78 104 Q75 107 65 115 Q87 139 100 172 L125 166 Q121 157 116 148 L227 148 L227 126 L167 126 Q167 119 166 108 Q166 100 166 96 L238 96 L238 73 L161 73 L159 71 L158 69 Q181 58 223 35 Q229 32 232 30 L217 7 Q183 29 149 49 Q134 25 80 6 Q78 10 73 17 Q68 24 65 28 Q128 47 135 73 L63 73 L63 96 L139 96 Q140 101 140 111 Q141 120 141 126 L104 126 Q96 113 84 99 Z" /><glyph glyph-name="uni5340" unicode="&#x5340;" d="M21 -21 L21 202 L243 202 L243 180 L46 180 L46 0 L246 0 L246 -21 L21 -21 ZM84 102 L84 163 L214 163 L214 102 L84 102 ZM158 18 L158 85 L235 85 L235 18 L158 18 ZM64 18 L64 85 L140 85 L140 18 L64 18 ZM110 145 L110 120 L188 120 L188 145 L110 145 ZM180 67 L180 36 L214 36 L214 67 L180 67 ZM86 67 L86 36 L119 36 L119 67 L86 67 Z" /><glyph glyph-name="uni5341" unicode="&#x5341;" d="M9 94 L9 123 L113 123 L113 210 L143 210 L143 123 L247 123 L247 94 L143 94 L143 -28 L113 -28 L113 94 L9 94 Z" /><glyph glyph-name="uni5347" unicode="&#x5347;" d="M18 159 Q18 160 18 163 Q16 178 14 185 Q91 189 143 197 L149 172 Q124 168 95 165 L95 106 L168 106 L168 209 L196 209 L196 106 L248 106 L248 81 L196 81 L196 -27 L168 -27 L168 81 L95 81 Q97 8 32 -30 Q23 -20 11 -9 Q67 21 66 81 L8 81 L8 106 L67 106 L67 163 Q42 160 18 159 Z" /><glyph glyph-name="uni5348" unicode="&#x5348;" d="M41 107 Q30 116 18 124 Q50 159 67 212 L96 207 Q94 203 91 193 Q87 184 85 179 L231 179 L231 152 L149 152 L149 90 L249 90 L249 63 L149 63 L149 -28 L120 -28 L120 63 L7 63 L7 90 L120 90 L120 152 L72 152 Q57 127 41 107 Z" /><glyph glyph-name="uni5349" unicode="&#x5349;" d="M8 56 L8 80 L56 80 L57 121 L84 121 L83 80 L173 80 L173 121 L201 121 L201 80 L248 80 L248 56 L201 56 L201 -26 L173 -26 L173 56 L83 56 Q83 0 28 -31 Q21 -23 7 -11 Q56 12 56 56 L8 56 ZM24 147 L24 172 L115 172 L115 210 L142 210 L142 172 L232 172 L232 147 L142 147 L142 102 L115 102 L115 147 L24 147 Z" /><glyph glyph-name="uni534A" unicode="&#x534a;" d="M18 95 L18 121 L113 121 L113 210 L142 210 L142 121 L237 121 L237 95 L142 95 L142 59 L248 59 L248 33 L142 33 L142 -28 L113 -28 L113 33 L8 33 L8 59 L113 59 L113 95 L18 95 ZM186 132 L167 151 Q191 172 210 195 L231 178 Q208 151 186 132 ZM66 133 Q62 137 54 146 Q34 168 23 178 L43 195 Q64 174 87 151 L66 133 Z" /><glyph glyph-name="uni534E" unicode="&#x534e;" d="M92 106 Q88 118 82 130 Q110 139 132 147 L132 207 L159 207 L159 159 Q190 173 222 196 L238 177 Q202 152 159 132 L159 120 Q158 102 177 103 L198 103 Q214 102 218 117 Q220 126 221 143 Q235 138 247 135 Q244 117 241 104 Q236 79 204 80 L167 80 Q131 78 132 114 L132 121 Q114 114 92 106 ZM9 26 L9 51 L114 51 L114 77 L141 77 L141 51 L247 51 L247 26 L141 26 L141 -29 L114 -29 L114 26 L9 26 ZM17 113 Q14 126 7 141 Q47 167 75 211 L101 201 Q88 182 74 165 L74 74 L47 74 L47 138 Q34 125 17 113 Z" /><glyph glyph-name="uni5353" unicode="&#x5353;" d="M36 50 L36 153 L108 153 L108 211 L136 211 L136 193 L238 193 L238 171 L136 171 L136 153 L220 153 L220 50 L142 50 L142 30 L248 30 L248 8 L142 8 L142 -29 L114 -29 L114 8 L8 8 L8 30 L114 30 L114 50 L36 50 ZM63 93 L63 71 L193 71 L193 93 L63 93 ZM63 132 L63 111 L193 111 L193 132 L63 132 Z" /><glyph glyph-name="uni5354" unicode="&#x5354;" d="M90 103 Q87 108 80 117 Q77 122 75 124 Q127 139 132 164 L85 164 L85 186 L136 186 Q137 196 137 211 L163 211 Q163 198 162 186 L231 186 Q231 181 230 172 Q229 148 228 139 Q227 110 196 110 Q176 110 162 109 Q161 111 160 116 Q158 126 156 132 Q172 131 188 131 Q202 130 203 143 Q204 146 204 154 Q205 160 205 164 L158 164 Q152 124 90 103 ZM7 125 L7 149 L28 149 L28 210 L52 210 L52 149 L73 149 L73 125 L52 125 L52 -28 L28 -28 L28 125 L7 125 ZM160 -29 Q159 -28 158 -26 Q151 -14 146 -10 Q176 18 176 63 L176 65 L159 65 L159 86 L177 86 Q177 94 177 102 L199 102 L198 86 L242 86 Q241 40 239 6 Q240 -25 210 -24 Q202 -25 189 -25 Q188 -21 187 -14 Q185 -6 184 -1 Q196 -2 203 -2 Q218 -3 218 10 Q220 40 218 16 Q220 40 220 65 L197 65 L197 63 Q197 7 160 -29 ZM70 -29 Q64 -20 56 -9 Q85 17 86 65 L66 65 L66 86 L87 86 Q87 93 87 102 L108 102 L108 86 L150 86 Q150 42 148 4 Q148 -25 120 -25 Q110 -25 99 -25 Q99 -24 99 -22 Q98 -14 95 -2 Q107 -2 113 -2 Q127 -3 127 9 Q127 18 128 37 Q128 56 129 65 L107 65 Q106 5 70 -29 Z" /><glyph glyph-name="uni5355" unicode="&#x5355;" d="M28 58 L28 174 L79 174 Q73 182 59 197 Q58 199 57 200 L80 212 Q87 205 103 187 Q106 183 107 182 L90 174 L147 174 Q152 181 162 195 Q170 206 173 211 L200 203 Q195 196 183 180 Q180 176 178 174 L228 174 L228 58 L142 58 L142 35 L248 35 L248 11 L142 11 L142 -29 L114 -29 L114 11 L7 11 L7 35 L114 35 L114 58 L28 58 ZM142 106 L142 80 L201 80 L201 106 L142 106 ZM55 106 L55 80 L114 80 L114 106 L55 106 ZM201 151 L142 151 L142 126 L201 126 L201 151 ZM55 151 L55 126 L114 126 L114 151 L55 151 Z" /><glyph glyph-name="uni5356" unicode="&#x5356;" d="M11 30 L11 52 L132 52 Q132 53 133 54 Q133 55 133 55 Q141 76 141 112 L168 112 Q166 75 161 58 L159 52 L246 52 L246 30 L152 30 Q152 29 151 27 Q170 20 204 8 Q232 0 245 -5 L231 -28 Q177 -3 137 9 Q113 -15 23 -29 Q22 -27 20 -23 Q18 -19 9 -5 Q103 4 121 30 L11 30 ZM29 167 L29 188 L114 188 L114 210 L141 210 L141 188 L228 188 L228 167 L141 167 L141 144 L239 144 L239 123 L225 84 Q219 86 208 88 Q203 89 200 90 L213 123 L14 123 L14 144 L114 144 L114 167 L29 167 ZM97 55 Q60 66 28 73 L36 89 Q50 86 86 76 Q98 73 105 71 L97 55 ZM111 83 Q88 92 44 102 L51 118 Q58 116 71 113 Q102 105 119 100 L111 83 Z" /><glyph glyph-name="uni5357" unicode="&#x5357;" d="M9 163 L9 186 L114 186 L114 210 L141 210 L141 186 L247 186 L247 163 L141 163 L141 141 L236 141 L236 4 Q236 -25 206 -26 Q195 -27 166 -27 Q165 -24 164 -18 Q162 -7 160 -2 Q174 -2 191 -2 Q211 -3 209 12 L209 119 L47 119 L47 -27 L21 -27 L21 141 L114 141 L114 163 L9 163 ZM63 63 L63 83 L93 83 Q92 84 90 87 Q79 105 77 108 L101 113 Q104 110 114 95 Q118 88 119 87 L109 83 L135 83 Q139 89 149 105 Q154 112 155 114 L179 109 Q178 108 177 106 Q168 91 163 83 L193 83 L193 63 L141 63 L141 42 L199 42 L199 21 L141 21 L141 -22 L115 -22 L115 21 L58 21 L58 42 L115 42 L115 63 L63 63 Z" /><glyph glyph-name="uni535A" unicode="&#x535a;" d="M73 168 L73 188 L146 188 L146 210 L170 210 L170 188 L200 188 Q196 196 188 205 L211 210 Q216 204 223 194 Q226 189 227 188 L246 188 L246 168 L170 168 L170 153 L234 153 L234 58 L216 58 L216 45 L249 45 L249 25 L216 25 L216 4 Q217 -26 184 -25 Q173 -26 151 -26 Q150 -22 147 -10 Q146 -5 145 -2 Q161 -3 176 -3 Q192 -4 191 10 L191 25 L108 25 Q125 15 141 1 L124 -15 Q116 -8 96 7 Q92 9 90 11 L103 25 L68 25 L68 45 L191 45 L191 59 L210 59 L210 70 L170 70 L170 57 L146 57 L146 70 L106 70 L106 55 L83 55 L83 153 L146 153 L146 168 L73 168 ZM7 119 L7 143 L29 143 L29 210 L54 210 L54 143 L73 143 L73 119 L54 119 L54 -29 L29 -29 L29 119 L7 119 ZM170 102 L170 87 L210 87 L210 102 L170 102 ZM106 102 L106 87 L146 87 L146 102 L106 102 ZM106 134 L106 119 L146 119 L146 134 L106 134 ZM210 134 L170 134 L170 119 L210 119 L210 134 Z" /><glyph glyph-name="uni5367" unicode="&#x5367;" d="M17 -19 L17 198 L143 198 L143 175 L103 175 L103 134 L140 134 L140 48 L103 48 L103 2 L145 2 L145 -19 L17 -19 ZM228 62 Q225 65 220 72 Q200 98 189 110 L189 -28 L162 -28 L162 209 L189 209 L189 124 L201 133 Q215 119 246 83 Q244 85 250 78 L228 62 ZM115 111 L42 111 L42 70 L115 70 L115 111 ZM42 48 L42 2 L78 2 L78 48 L42 48 ZM42 175 L42 134 L78 134 L78 175 L42 175 Z" /><glyph glyph-name="uni536B" unicode="&#x536b;" d="M9 -16 L9 9 L87 9 L87 169 L21 169 L21 196 L230 196 Q230 186 229 163 Q228 118 227 104 Q228 55 179 56 Q164 55 141 55 Q138 69 135 85 Q148 84 171 84 Q199 81 199 111 Q199 116 199 134 Q200 158 200 169 L116 169 L116 9 L247 9 L247 -16 L9 -16 Z" /><glyph glyph-name="uni5373" unicode="&#x5373;" d="M115 -11 Q109 -1 100 12 Q95 10 86 6 Q59 -3 46 -10 Q35 -14 27 -20 L12 0 Q21 7 20 21 L20 198 L123 198 L123 71 L46 71 L46 14 L88 33 L74 55 L96 64 Q124 21 137 0 L115 -11 ZM146 -29 L146 193 L237 193 L237 41 Q239 7 205 6 Q193 6 182 6 Q181 11 179 21 Q178 27 177 31 Q188 31 196 31 Q213 30 212 46 L212 168 L171 168 L171 -29 L146 -29 ZM46 93 L98 93 L98 123 L46 123 L46 93 ZM46 175 L46 146 L98 146 L98 175 L46 175 Z" /><glyph glyph-name="uni5374" unicode="&#x5374;" d="M15 145 L15 169 L60 169 L60 210 L86 210 L86 169 L128 169 L128 145 L86 145 L86 107 L134 107 L134 83 L79 83 Q61 48 42 20 L98 23 L81 60 L104 68 Q118 39 139 -9 L115 -17 L107 0 Q91 0 63 -1 Q50 -2 44 -2 Q30 -3 19 -6 L8 15 Q17 21 24 33 Q39 57 50 83 L9 83 L9 107 L60 107 L60 145 L15 145 ZM145 -29 L145 193 L237 193 L237 46 Q239 7 202 8 Q190 7 181 7 Q180 13 178 25 Q177 30 176 33 Q183 32 196 32 Q213 31 212 50 L212 168 L170 168 L170 -29 L145 -29 Z" /><glyph glyph-name="uni537B" unicode="&#x537b;" d="M129 68 L129 -26 L104 -26 L104 -13 L52 -13 L52 -27 L27 -27 L27 68 L13 56 Q12 62 8 74 Q6 80 5 83 Q47 115 70 157 L96 154 L91 145 Q131 105 149 86 Q144 82 129 68 ZM154 -29 L154 194 L238 194 L238 41 Q239 8 208 8 Q199 7 188 7 Q187 20 182 33 Q185 33 191 33 Q197 32 200 32 Q215 32 214 46 L214 171 L178 171 L178 -29 L154 -29 ZM52 53 L52 9 L104 9 L104 53 L52 53 ZM79 125 Q59 96 37 77 L122 77 Q99 105 79 125 ZM23 134 Q15 142 5 152 Q30 177 52 209 L73 194 Q54 170 23 134 ZM126 145 Q115 158 96 180 Q87 189 83 194 L101 209 Q121 189 145 162 L126 145 Z" /><glyph glyph-name="uni5385" unicode="&#x5385;" d="M27 -29 Q13 -15 5 -9 Q20 13 25 36 Q30 58 30 106 L30 197 L247 197 L247 171 L58 171 L58 108 Q61 17 27 -29 ZM69 110 L69 135 L247 135 L247 110 L178 110 L178 10 Q179 -23 141 -25 Q123 -25 103 -25 Q101 -13 97 0 Q114 0 131 0 Q151 0 150 18 L150 110 L69 110 Z" /><glyph glyph-name="uni539A" unicode="&#x539a;" d="M75 86 L75 163 L229 163 L229 86 L75 86 ZM26 -30 Q12 -16 6 -12 Q29 24 27 102 L27 198 L247 198 L247 177 L52 177 L52 101 Q54 13 26 -30 ZM56 12 L56 31 L146 31 L146 36 L187 52 L74 52 L74 70 L230 70 L230 51 L180 31 L248 31 L248 12 L174 12 L174 0 Q174 -25 144 -26 Q137 -27 104 -27 Q102 -15 99 -6 Q117 -6 133 -6 Q146 -6 146 3 L146 12 L56 12 ZM100 117 L100 103 L205 103 L205 117 L100 117 ZM100 145 L100 132 L205 132 L205 145 L100 145 Z" /><glyph glyph-name="uni539F" unicode="&#x539f;" d="M27 -30 Q18 -21 6 -11 Q20 11 24 35 Q29 58 29 105 L29 198 L247 198 L247 176 L159 176 Q158 174 156 168 Q153 156 151 151 L230 151 L230 51 L170 51 L170 1 Q169 -24 143 -25 Q134 -26 109 -26 Q108 -15 103 -3 Q119 -3 131 -3 Q144 -4 144 7 L144 51 L77 51 L77 151 L124 151 Q126 157 129 171 Q129 168 131 176 L55 176 L55 100 Q55 52 49 27 Q44 0 27 -30 ZM102 130 L102 110 L205 110 L205 130 L102 130 ZM102 92 L102 72 L205 72 L205 92 L102 92 ZM67 -20 Q59 -11 50 -1 Q74 15 101 43 L120 27 Q108 15 83 -6 Q73 -15 67 -20 ZM231 -18 Q217 -4 189 22 Q186 25 184 27 L202 42 Q210 35 225 21 Q242 6 250 0 L231 -18 Z" /><glyph glyph-name="uni53A6" unicode="&#x53a6;" d="M63 1 Q61 3 58 8 Q53 15 50 18 Q86 36 103 56 L73 56 L73 139 L124 139 L127 152 L63 152 L63 168 L240 168 L240 152 L151 152 L147 139 L230 139 L230 56 L130 56 Q129 55 128 54 Q125 49 119 43 L225 43 L225 25 Q206 10 184 0 Q211 -4 248 -8 Q247 -10 245 -14 Q243 -18 240 -27 Q191 -22 155 -10 Q119 -23 60 -29 Q56 -18 51 -11 Q94 -7 126 0 Q111 6 93 21 Q86 15 69 5 Q65 2 63 1 ZM24 -29 Q22 -27 15 -20 Q8 -14 5 -11 Q30 22 28 105 L28 199 L246 199 L246 180 L52 180 L52 104 Q54 14 24 -29 ZM96 81 L96 70 L206 70 L206 81 L96 81 ZM96 125 L96 114 L206 114 L206 125 L96 125 ZM96 103 L96 92 L206 92 L206 103 L96 103 ZM195 27 L116 27 Q134 15 155 8 Q177 15 195 27 Z" /><glyph glyph-name="uni53A8" unicode="&#x53a8;" d="M23 -28 Q14 -19 4 -9 Q16 11 20 33 Q24 54 24 102 L24 198 L246 198 L246 175 L48 175 L48 100 Q48 50 43 24 Q38 -2 23 -28 ZM156 108 L156 131 L207 131 L207 167 L231 167 L231 131 L248 131 L248 108 L231 108 L231 8 Q232 -24 199 -24 Q183 -25 168 -25 Q166 -10 163 0 Q169 -1 189 -1 Q208 -2 207 15 L207 108 L156 108 ZM65 54 L65 121 L147 121 L147 54 L65 54 ZM53 -20 L50 2 Q53 2 60 3 Q89 4 106 6 Q118 31 125 48 L147 41 L130 7 Q144 9 157 9 Q156 5 156 -1 Q155 -7 155 -11 Q146 -12 129 -13 Q72 -18 53 -20 ZM58 137 L58 158 L153 158 L153 137 L58 137 ZM177 31 Q173 44 162 73 Q159 81 157 85 L178 92 Q188 69 199 38 L177 31 ZM87 101 L87 73 L125 73 L125 101 L87 101 ZM82 9 Q79 17 72 30 Q68 37 66 41 L87 47 Q89 43 93 35 Q100 23 103 16 L82 9 Z" /><glyph glyph-name="uni53C8" unicode="&#x53c8;" d="M23 -29 Q18 -19 6 -3 Q70 15 107 43 Q67 85 46 161 Q51 163 58 164 Q67 165 72 168 L26 168 L26 195 L217 195 L217 167 Q193 87 149 42 Q183 17 248 0 Q245 -4 240 -13 Q234 -22 231 -26 Q164 -5 128 23 Q96 -1 23 -29 ZM73 168 Q91 98 128 61 Q167 101 185 168 L73 168 Z" /><glyph glyph-name="uni53CA" unicode="&#x53ca;" d="M74 -30 Q73 -29 71 -24 Q63 -10 59 -5 Q102 8 132 28 Q101 59 82 107 Q76 28 25 -27 Q13 -13 5 -6 Q58 45 58 141 Q59 154 59 172 L20 172 L20 196 L205 196 L205 170 L177 127 L228 127 L228 104 Q206 55 175 28 Q206 8 249 0 L233 -27 Q186 -12 153 9 Q122 -11 74 -30 ZM86 172 Q86 156 85 139 L94 146 Q116 79 153 45 Q181 70 197 103 L144 103 L144 127 L172 172 L86 172 Z" /><glyph glyph-name="uni53CB" unicode="&#x53cb;" d="M233 -28 Q183 -16 148 6 Q114 -15 62 -30 Q59 -24 48 -6 Q47 -5 47 -4 Q92 4 126 24 Q102 48 84 87 L99 95 L86 95 Q64 33 18 -18 Q14 -9 5 8 Q55 64 73 152 L12 152 L12 177 L78 177 Q79 183 81 195 Q82 205 83 211 L111 210 Q110 205 109 195 Q107 183 106 177 L246 177 L246 152 L101 152 Q99 142 94 124 Q93 121 93 119 L222 119 L222 94 Q202 50 171 23 Q201 7 247 -1 Q240 -12 233 -28 ZM192 95 L108 95 Q124 60 148 39 Q178 63 192 95 Z" /><glyph glyph-name="uni53CC" unicode="&#x53cc;" d="M233 -25 Q195 0 177 22 Q157 -3 113 -29 Q111 -26 105 -19 Q98 -10 95 -6 Q136 14 161 44 Q133 84 122 160 L147 165 Q157 101 178 67 Q201 103 209 168 L121 168 L121 193 L237 193 L237 167 Q223 85 194 44 Q214 18 250 -1 Q240 -12 233 -25 ZM96 4 L74 39 Q55 8 23 -23 Q19 -17 7 -3 Q6 -2 5 -1 Q41 32 58 64 Q46 84 19 123 Q13 132 10 136 L32 150 L71 92 Q82 122 88 168 L11 168 L11 193 L114 193 L114 168 Q105 102 88 66 Q103 44 118 21 L96 4 Z" /><glyph glyph-name="uni53CD" unicode="&#x53cd;" d="M235 -27 Q177 -10 148 9 Q115 -11 64 -30 Q60 -22 51 -7 Q49 -6 49 -5 Q96 7 126 28 Q99 54 77 104 L90 110 L61 110 Q64 19 26 -29 Q12 -15 5 -9 Q37 27 35 112 L35 196 Q109 196 228 205 L237 179 Q160 174 62 170 L61 136 L227 136 L227 110 Q203 57 171 27 Q201 9 249 0 Q245 -6 238 -21 Q236 -25 235 -27 ZM196 110 L102 110 Q123 65 148 44 Q179 69 196 110 Z" /><glyph glyph-name="uni53D1" unicode="&#x53d1;" d="M16 135 L16 160 Q23 174 33 202 L59 198 Q57 194 54 184 Q47 166 44 159 L88 159 Q96 186 100 211 L128 209 Q127 204 125 194 Q120 171 116 159 L248 159 L248 135 L110 135 Q106 122 101 108 L223 108 L223 86 Q203 46 172 22 Q202 7 247 0 Q239 -15 233 -27 Q181 -13 148 6 Q110 -13 59 -29 Q58 -26 55 -21 Q52 -14 46 -4 Q93 6 125 22 Q101 44 86 74 Q59 23 16 -16 Q12 -4 6 12 Q60 62 81 135 L16 135 ZM191 85 L108 85 Q121 58 148 36 Q177 57 191 85 ZM200 159 Q182 178 163 193 L179 209 Q184 205 195 196 Q212 183 219 178 L200 159 Z" /><glyph glyph-name="uni53D6" unicode="&#x53d6;" d="M11 175 L11 198 L128 198 L128 175 L116 175 L116 42 L135 46 Q134 31 135 22 L116 19 L116 -28 L92 -28 L92 15 Q52 9 10 2 L6 27 L25 29 L25 175 L11 175 ZM234 -26 Q205 -3 187 18 Q169 -5 137 -29 Q127 -14 121 -6 Q150 12 172 40 Q147 78 137 163 L143 164 L134 164 L134 189 L239 189 L239 164 Q229 82 203 40 Q221 16 250 -2 Q241 -14 234 -26 ZM214 164 L162 164 Q170 97 187 65 Q207 101 214 164 ZM49 33 L92 39 L92 69 L49 69 L49 33 ZM49 122 L49 90 L92 90 L92 122 L49 122 ZM49 175 L49 143 L92 143 L92 175 L49 175 Z" /><glyph glyph-name="uni53D7" unicode="&#x53d7;" d="M14 84 L14 132 L54 132 Q45 148 36 163 L62 168 Q72 153 81 136 L68 132 L122 132 Q117 144 106 166 L133 171 Q141 156 147 137 L123 132 L168 132 Q181 154 191 173 L218 166 Q208 150 196 132 L242 132 L242 84 L215 84 L215 110 L41 110 L41 86 L208 86 L208 63 Q189 33 157 13 Q191 1 248 -2 Q244 -10 236 -27 Q169 -19 128 0 Q91 -18 20 -30 Q16 -18 8 -5 Q67 1 101 13 Q77 29 54 64 L40 64 L40 84 L14 84 ZM25 174 Q24 177 23 183 Q21 192 19 197 Q116 197 227 203 L232 180 Q126 175 25 174 ZM177 64 L85 64 Q102 40 129 25 Q155 38 177 64 Z" /><glyph glyph-name="uni53D8" unicode="&#x53d8;" d="M235 -27 Q165 -18 128 0 Q90 -18 21 -30 Q15 -18 8 -5 Q66 1 101 13 Q75 31 56 63 L37 63 L37 86 L206 86 L206 62 Q186 32 156 13 Q192 1 248 -2 Q246 -5 240 -17 Q237 -24 235 -27 ZM12 159 L12 183 L118 183 Q117 187 114 196 Q111 204 109 208 L139 211 L148 183 L244 183 L244 159 L170 159 L170 98 L144 98 L144 159 L111 159 L111 98 L86 98 L86 159 L12 159 ZM174 63 L85 63 Q103 40 128 26 Q150 37 174 63 ZM230 84 Q207 108 183 130 L199 147 Q214 135 243 108 Q246 105 248 103 L230 84 ZM22 85 Q15 96 7 104 Q33 124 55 148 L71 130 Q48 106 22 85 Z" /><glyph glyph-name="uni53E0" unicode="&#x53e0;" d="M8 -21 L8 -5 L43 -5 L43 61 L212 61 L212 -5 L248 -5 L248 -21 L8 -21 ZM135 89 Q134 90 133 93 Q132 95 128 103 Q131 103 138 104 Q156 107 164 109 L135 117 L141 129 L187 116 Q202 122 213 130 L134 130 L134 144 L212 144 Q199 147 171 152 Q144 157 130 159 Q78 148 34 146 Q31 153 27 159 Q69 162 93 166 Q90 167 84 168 Q68 171 45 174 L50 186 L36 186 L36 201 L210 201 L210 184 Q187 175 163 168 Q193 162 219 158 L213 144 L237 144 L237 128 Q235 127 233 125 Q219 115 210 112 L243 102 L237 87 Q211 96 188 102 Q166 94 135 89 ZM14 53 L14 87 L242 87 L242 54 L218 54 L218 72 L38 72 L38 53 L14 53 ZM114 89 L73 102 Q49 93 18 88 Q15 94 11 102 Q32 104 49 109 L19 117 L26 129 L72 116 Q87 122 98 130 L16 130 L16 144 L121 144 L121 128 Q109 119 94 111 L121 104 L114 89 ZM68 3 L68 -5 L186 -5 L186 3 L68 3 ZM68 26 L68 15 L186 15 L186 26 L68 26 ZM68 48 L68 38 L186 38 L186 48 L68 48 ZM176 186 L52 186 Q65 184 91 180 Q117 175 130 173 Q149 176 176 186 Z" /><glyph glyph-name="uni53E3" unicode="&#x53e3;" d="M27 -21 L27 189 L229 189 L229 -21 L201 -21 L201 0 L56 0 L56 -21 L27 -21 ZM56 163 L56 25 L201 25 L201 163 L56 163 Z" /><glyph glyph-name="uni53E4" unicode="&#x53e4;" d="M8 140 L8 166 L114 166 L114 210 L142 210 L142 166 L248 166 L248 140 L142 140 L142 95 L221 95 L221 -29 L193 -29 L193 -13 L63 -13 L63 -29 L35 -29 L35 95 L114 95 L114 140 L8 140 ZM63 69 L63 11 L193 11 L193 69 L63 69 Z" /><glyph glyph-name="uni53E6" unicode="&#x53e6;" d="M36 110 L36 200 L222 200 L222 110 L36 110 ZM134 -24 Q133 -20 131 -11 Q129 -2 128 1 Q145 0 175 0 Q203 -1 202 23 Q203 27 204 40 Q205 52 205 56 L119 56 Q115 0 24 -30 Q22 -27 18 -20 Q11 -9 9 -5 Q87 16 91 56 L17 56 L17 81 L95 81 Q95 83 95 88 Q96 96 96 100 L124 100 L123 81 L233 81 L230 21 Q230 -26 180 -23 Q163 -24 134 -24 ZM63 176 L63 134 L194 134 L194 176 L63 176 Z" /><glyph glyph-name="uni53EF" unicode="&#x53ef;" d="M7 169 L7 194 L249 194 L249 169 L216 169 L216 13 Q217 -23 178 -25 Q156 -25 133 -25 Q131 -13 128 0 Q149 0 166 0 Q190 -1 188 21 L188 169 L7 169 ZM33 16 L33 136 L146 136 L146 33 L60 33 L60 16 L33 16 ZM60 113 L60 56 L119 56 L119 113 L60 113 Z" /><glyph glyph-name="uni53F0" unicode="&#x53f0;" d="M36 -29 L36 83 L220 83 L220 -29 L192 -29 L192 -13 L63 -13 L63 -29 L36 -29 ZM227 93 Q218 103 209 112 Q104 110 59 108 Q38 106 25 103 L12 130 Q26 135 39 146 Q77 178 106 212 L136 199 Q134 197 130 194 Q86 153 60 132 L187 136 L157 166 L177 181 Q219 142 249 110 L227 93 ZM63 59 L63 9 L192 9 L192 59 L63 59 Z" /><glyph glyph-name="uni53F2" unicode="&#x53f2;" d="M21 -30 Q20 -29 19 -25 Q12 -11 8 -5 Q59 4 78 15 Q59 27 34 60 L54 75 Q77 45 99 32 Q112 48 113 77 L28 77 L28 178 L114 178 L115 210 L143 210 L142 178 L229 178 L229 65 L202 65 L202 77 L141 77 Q140 40 124 19 Q142 11 168 8 Q198 4 249 2 Q247 -2 243 -15 Q241 -21 240 -24 Q196 -22 166 -16 Q132 -12 103 0 Q82 -16 21 -30 ZM202 153 L142 153 L142 102 L202 102 L202 153 ZM55 153 L55 102 L114 102 L114 153 L55 153 Z" /><glyph glyph-name="uni53F3" unicode="&#x53f3;" d="M56 -28 L56 66 Q40 48 19 29 Q18 32 15 38 Q9 51 7 56 Q59 102 85 150 L17 150 L17 175 L98 175 Q101 183 108 199 Q110 207 112 211 L141 207 Q139 202 135 193 Q130 181 127 175 L247 175 L247 150 L115 150 Q106 130 87 103 L223 103 L223 -28 L197 -28 L197 -11 L83 -11 L83 -28 L56 -28 ZM83 79 L83 12 L197 12 L197 79 L83 79 Z" /><glyph glyph-name="uni53F7" unicode="&#x53f7;" d="M6 82 L6 105 L249 105 L249 82 L80 82 L73 60 L219 60 Q218 49 216 28 Q215 17 215 12 Q212 -26 164 -25 Q139 -25 104 -25 Q103 -15 99 0 Q109 0 130 0 Q148 0 156 0 Q187 -1 187 17 Q189 29 189 37 L40 37 L52 82 L6 82 ZM39 125 L39 201 L216 201 L216 125 L39 125 ZM67 178 L67 148 L188 148 L188 178 L67 178 Z" /><glyph glyph-name="uni53F8" unicode="&#x53f8;" d="M31 0 L31 101 L166 101 L166 15 L58 15 L58 0 L31 0 ZM138 38 L138 78 L58 78 L58 38 L138 38 ZM10 125 L10 149 L190 149 L190 125 L10 125 ZM154 -26 Q153 -13 148 0 Q165 0 188 0 Q209 -1 208 17 L208 174 L21 174 L21 199 L236 199 L236 10 Q237 -26 201 -26 Q180 -26 154 -26 Z" /><glyph glyph-name="uni5403" unicode="&#x5403;" d="M107 111 Q99 120 90 131 L90 3 L68 3 L68 22 L39 22 L39 0 L15 0 L15 190 L90 190 L90 132 Q121 169 137 210 L166 206 L153 180 L246 180 L246 155 L138 155 Q125 132 107 111 ZM141 -22 Q109 -19 107 5 Q107 18 118 31 Q142 63 183 97 L118 97 L118 122 L221 122 L221 97 Q168 51 142 22 Q136 14 136 9 Q136 0 152 0 L195 0 Q218 1 220 19 Q220 22 221 29 Q222 33 224 54 Q234 50 249 46 Q248 24 243 7 Q238 -21 203 -22 L141 -22 ZM39 166 L39 45 L68 45 L68 166 L39 166 Z" /><glyph glyph-name="uni5404" unicode="&#x5404;" d="M15 67 Q14 72 11 80 Q8 89 6 93 Q67 101 102 114 Q78 131 63 150 Q53 140 30 121 Q47 134 27 118 Q25 121 21 127 Q15 136 13 140 Q57 171 82 212 L111 208 Q108 203 101 194 Q98 189 96 187 L217 187 L217 163 Q190 133 159 114 Q195 101 248 97 Q247 93 244 84 Q241 76 239 71 Q165 82 130 99 Q92 81 15 67 ZM41 -28 L41 68 L215 68 L215 -28 L188 -28 L188 -16 L68 -16 L68 -28 L41 -28 ZM68 45 L68 5 L188 5 L188 45 L68 45 ZM183 164 L82 164 Q104 140 130 126 Q161 141 183 164 Z" /><glyph glyph-name="uni5408" unicode="&#x5408;" d="M38 -29 L38 78 L217 78 L217 -29 L190 -29 L190 -15 L65 -15 L65 -29 L38 -29 ZM234 102 Q209 114 195 123 L195 105 L60 105 L60 121 Q55 118 45 112 Q29 103 21 98 Q19 102 13 111 Q8 119 6 123 Q85 160 119 212 L151 210 L144 200 Q182 153 249 127 Q242 115 234 102 ZM65 54 L65 7 L190 7 L190 54 L65 54 ZM129 181 Q105 152 71 129 L186 129 Q154 150 129 181 Z" /><glyph glyph-name="uni540A" unicode="&#x540a;" d="M23 -10 L23 88 L114 88 L114 115 L38 115 L38 200 L219 200 L219 115 L142 115 L142 88 L235 88 L235 24 Q237 -8 202 -8 Q186 -8 168 -9 Q167 -5 165 3 Q163 11 162 15 Q177 14 191 14 Q209 13 208 29 L208 63 L142 63 L142 -29 L114 -29 L114 63 L50 63 L50 -10 L23 -10 ZM66 176 L66 139 L191 139 L191 176 L66 176 Z" /><glyph glyph-name="uni540C" unicode="&#x540c;" d="M20 -26 L20 198 L235 198 L235 12 Q237 -24 200 -24 Q184 -25 161 -25 Q160 -15 155 0 Q174 0 189 0 Q210 -1 208 17 L208 174 L47 174 L47 -26 L20 -26 ZM75 21 L75 104 L181 104 L181 21 L75 21 ZM61 127 L61 150 L195 150 L195 127 L61 127 ZM100 81 L100 44 L156 44 L156 81 L100 81 Z" /><glyph glyph-name="uni540D" unicode="&#x540d;" d="M19 46 Q13 58 6 71 Q63 84 103 102 Q84 120 65 135 L84 151 Q89 147 99 139 Q117 125 129 115 Q163 134 191 161 L90 161 Q63 135 26 111 Q24 113 22 117 Q17 123 10 132 Q71 168 101 211 L130 206 Q129 205 128 203 Q122 194 113 185 L227 185 L227 160 Q181 109 113 79 L228 79 L228 -29 L201 -29 L201 -15 L78 -15 L78 -29 L51 -29 L51 56 Q46 55 35 51 Q25 48 19 46 ZM78 56 L78 7 L201 7 L201 56 L78 56 Z" /><glyph glyph-name="uni540E" unicode="&#x540e;" d="M78 -27 L78 81 L228 81 L228 -27 L201 -27 L201 -13 L104 -13 L104 -27 L78 -27 ZM27 -29 Q24 -25 15 -18 Q9 -12 6 -9 Q36 33 34 111 L34 192 Q136 195 227 204 L238 178 Q154 171 60 167 L60 138 L247 138 L247 114 L60 114 L60 111 Q60 59 53 31 Q47 3 27 -29 ZM104 57 L104 9 L201 9 L201 57 L104 57 Z" /><glyph glyph-name="uni5411" unicode="&#x5411;" d="M21 -26 L21 177 L93 177 Q99 195 102 211 L133 208 Q131 202 126 190 Q124 181 122 177 L235 177 L235 10 Q237 -24 199 -24 L161 -25 Q160 -22 159 -17 Q157 -5 155 0 Q172 0 189 0 Q209 0 208 15 L208 152 L48 152 L48 -26 L21 -26 ZM76 26 L76 121 L179 121 L179 26 L76 26 ZM102 98 L102 50 L154 50 L154 98 L102 98 Z" /><glyph glyph-name="uni5415" unicode="&#x5415;" d="M26 -28 L26 83 L231 83 L231 -28 L202 -28 L202 -12 L54 -12 L54 -28 L26 -28 ZM41 109 L41 198 L215 198 L215 109 L41 109 ZM54 59 L54 10 L202 10 L202 59 L54 59 ZM69 174 L69 132 L187 132 L187 174 L69 174 Z" /><glyph glyph-name="uni5426" unicode="&#x5426;" d="M35 -29 L35 79 L220 79 L220 -28 L193 -28 L193 -14 L62 -14 L62 -29 L35 -29 ZM16 175 L16 199 L239 199 L239 175 L152 175 Q141 162 129 151 L142 151 L142 89 L115 89 L115 139 Q80 110 18 87 Q16 92 12 101 Q9 107 7 111 Q81 137 118 175 L16 175 ZM62 55 L62 7 L193 7 L193 55 L62 55 ZM236 88 Q192 114 150 136 L162 155 Q183 144 220 125 Q239 115 249 110 L236 88 Z" /><glyph glyph-name="uni5427" unicode="&#x5427;" d="M138 -21 Q103 -22 103 13 L103 199 L234 199 L234 77 L128 77 L128 17 Q127 0 146 1 L199 1 Q218 1 221 17 Q224 33 226 52 Q231 51 243 46 Q248 45 250 44 Q247 19 243 4 Q237 -21 202 -21 L138 -21 ZM16 0 L16 190 L84 190 L84 5 L61 5 L61 22 L39 22 L39 0 L16 0 ZM39 167 L39 46 L61 46 L61 167 L39 167 ZM128 175 L128 100 L157 100 L157 175 L128 175 ZM210 175 L180 175 L180 100 L210 100 L210 175 Z" /><glyph glyph-name="uni542B" unicode="&#x542b;" d="M37 -29 L37 65 L142 65 Q138 65 133 67 L169 96 L46 96 L46 118 L204 118 L204 96 L168 65 L219 65 L219 -28 L193 -28 L193 -16 L63 -16 L63 -29 L37 -29 ZM237 114 Q164 140 129 183 Q93 143 19 111 Q17 115 13 123 Q8 131 6 135 Q87 167 119 212 L150 209 L143 201 Q179 160 250 139 Q242 125 237 114 ZM63 42 L63 5 L193 5 L193 42 L63 42 ZM129 119 Q125 124 116 135 Q109 144 105 148 L124 160 Q130 154 140 142 Q145 136 148 133 L129 119 Z" /><glyph glyph-name="uni5434" unicode="&#x5434;" d="M25 82 L25 104 L231 104 L231 82 L141 82 Q141 79 140 74 Q140 63 138 58 L246 58 L246 35 L148 35 Q170 3 248 -2 Q242 -15 237 -27 Q152 -17 127 23 Q108 -15 18 -30 Q15 -19 7 -5 Q93 4 105 35 L9 35 L9 58 L112 58 Q113 65 113 82 L25 82 ZM36 125 L36 200 L220 200 L220 125 L36 125 ZM64 178 L64 147 L192 147 L192 178 L64 178 Z" /><glyph glyph-name="uni5448" unicode="&#x5448;" d="M20 78 L20 101 L236 101 L236 78 L142 78 L142 51 L225 51 L225 30 L142 30 L142 1 L247 1 L247 -20 L9 -20 L9 1 L114 1 L114 30 L31 30 L31 51 L114 51 L114 78 L20 78 ZM36 122 L36 198 L219 198 L219 122 L36 122 ZM64 176 L64 144 L192 144 L192 176 L64 176 Z" /><glyph glyph-name="uni544E" unicode="&#x544e;" d="M231 -26 Q165 16 157 91 L136 91 Q135 16 98 -28 Q95 -26 87 -20 Q79 -14 76 -12 Q96 13 103 38 Q110 63 110 110 L110 195 L232 195 L232 91 L182 91 Q191 29 248 -3 Q246 -6 240 -15 Q234 -23 231 -26 ZM17 2 L17 188 L89 188 L89 21 L41 21 L41 2 L17 2 ZM136 171 L136 115 L206 115 L206 171 L136 171 ZM41 164 L41 45 L66 45 L66 164 L41 164 Z" /><glyph glyph-name="uni5458" unicode="&#x5458;" d="M41 128 L41 199 L216 199 L216 128 L41 128 ZM28 22 L28 108 L228 108 L228 25 L200 25 L200 85 L56 85 L56 22 L28 22 ZM235 -27 Q179 -4 127 13 Q109 -14 18 -30 Q14 -19 7 -4 Q109 8 112 45 Q116 59 116 73 L144 73 Q143 51 139 40 L138 35 Q160 28 202 13 Q233 2 248 -2 L235 -27 ZM68 177 L68 151 L188 151 L188 177 L68 177 Z" /><glyph glyph-name="uni5468" unicode="&#x5468;" d="M27 -30 Q24 -28 18 -22 Q8 -14 5 -11 Q29 20 27 105 L27 200 L237 200 L237 11 Q239 -24 203 -25 Q185 -25 166 -25 Q164 -15 159 0 Q171 0 193 0 Q213 -2 211 15 L211 178 L54 178 L54 102 Q54 50 48 23 Q43 -3 27 -30 ZM78 3 L78 73 L185 73 L185 3 L78 3 ZM73 133 L73 154 L119 154 L119 177 L145 177 L145 154 L191 154 L191 133 L145 133 L145 112 L199 112 L199 91 L65 91 L65 112 L119 112 L119 133 L73 133 ZM160 24 L160 52 L103 52 L103 24 L160 24 Z" /><glyph glyph-name="uni5473" unicode="&#x5473;" d="M93 -10 Q90 -5 81 3 Q77 8 75 10 L86 17 L41 17 L41 -1 L18 -1 L18 189 L88 189 L88 19 Q125 46 145 90 L95 90 L95 114 L154 114 L154 148 L104 148 L104 172 L154 172 L154 210 L180 210 L180 172 L233 172 L233 148 L180 148 L180 114 L243 114 L243 90 L188 90 Q208 45 251 16 Q248 12 241 1 Q236 -4 235 -6 Q199 23 180 65 L180 -29 L154 -29 L154 65 Q134 19 93 -10 ZM41 165 L41 41 L66 41 L66 165 L41 165 Z" /><glyph glyph-name="uni5475" unicode="&#x5475;" d="M15 -5 L15 189 L88 189 L88 -3 L65 -3 L65 15 L39 15 L39 -5 L15 -5 ZM100 170 L100 195 L250 195 L250 170 L232 170 L232 14 Q234 -26 196 -25 Q181 -26 155 -26 Q154 -21 153 -13 Q151 -4 150 0 Q162 0 184 0 Q208 -2 206 20 L206 170 L100 170 ZM109 32 L109 142 L184 142 L184 32 L109 32 ZM39 166 L39 38 L65 38 L65 166 L39 166 ZM132 119 L132 55 L161 55 L161 119 L132 119 Z" /><glyph glyph-name="uni547D" unicode="&#x547d;" d="M235 116 Q207 128 187 140 L187 120 L68 120 L68 138 Q47 126 21 114 Q18 119 9 132 Q7 136 6 137 Q86 170 118 212 L150 210 L144 201 Q184 163 250 141 Q249 138 244 132 Q237 120 235 116 ZM27 -8 L27 98 L112 98 L112 -6 L88 -6 L88 7 L51 7 L51 -8 L27 -8 ZM136 -29 L136 99 L230 99 L230 31 Q231 0 202 0 Q192 -1 175 -1 Q173 11 170 22 Q177 21 191 21 Q206 20 205 36 L205 76 L161 76 L161 -29 L136 -29 ZM129 185 Q107 163 76 143 L182 143 Q151 161 129 185 ZM51 75 L51 30 L88 30 L88 75 L51 75 Z" /><glyph glyph-name="uni548C" unicode="&#x548c;" d="M131 -21 L131 186 L238 186 L238 -20 L212 -20 L212 2 L157 2 L157 -21 L131 -21 ZM10 114 L10 138 L52 138 L52 171 Q46 171 34 170 Q21 170 15 169 Q14 174 13 183 Q11 190 11 194 Q71 196 110 201 L115 177 Q97 174 77 173 L77 138 L118 138 L118 114 L77 114 L77 82 L86 91 Q92 86 104 75 Q116 64 122 59 L105 39 Q101 43 92 53 Q82 63 77 68 L77 -28 L52 -28 L52 73 Q39 43 15 12 Q14 17 10 27 Q7 37 5 42 Q31 69 48 114 L10 114 ZM157 162 L157 26 L212 26 L212 162 L157 162 Z" /><glyph glyph-name="uni5496" unicode="&#x5496;" d="M174 -21 L174 184 L239 184 L239 -20 L218 -20 L218 0 L195 0 L195 -21 L174 -21 ZM17 -9 L17 184 L77 184 L77 7 L38 7 L38 -9 L17 -9 ZM87 -28 Q84 -25 75 -18 Q71 -15 69 -13 Q98 18 98 110 L99 143 L84 143 L84 167 L99 167 L100 209 L121 209 L120 167 L159 167 Q159 90 157 5 Q156 -21 132 -22 Q123 -23 112 -23 L108 0 Q114 0 122 0 Q137 0 137 14 Q139 73 139 143 L120 143 L119 110 Q118 11 87 -28 ZM195 161 L195 23 L218 23 L218 161 L195 161 ZM38 162 L38 29 L58 29 L58 162 L38 162 Z" /><glyph glyph-name="uni54AB" unicode="&#x54ab;" d="M26 -28 L6 -9 Q19 15 23 37 Q27 58 27 101 L27 198 L122 198 L122 96 L94 96 Q102 8 183 3 Q199 0 248 0 L240 -25 Q198 -23 173 -20 Q80 -12 70 96 L53 96 Q54 14 26 -28 ZM140 94 L140 198 L236 198 L236 94 L140 94 ZM165 175 L165 118 L211 118 L211 175 L165 175 ZM53 175 L53 119 L97 119 L97 175 L53 175 ZM226 21 Q209 52 195 75 L215 86 Q224 71 240 46 Q244 38 247 34 L226 21 ZM148 22 L127 36 Q143 56 159 86 L181 74 Q165 47 148 22 Z" /><glyph glyph-name="uni54C1" unicode="&#x54c1;" d="M41 109 L41 199 L215 199 L215 109 L41 109 ZM141 -28 L141 84 L238 84 L238 -28 L213 -28 L213 -14 L166 -14 L166 -28 L141 -28 ZM18 -28 L18 84 L114 84 L114 -28 L89 -28 L89 -14 L43 -14 L43 -28 L18 -28 ZM68 175 L68 133 L188 133 L188 175 L68 175 ZM166 61 L166 7 L213 7 L213 61 L166 61 ZM43 61 L43 7 L89 7 L89 61 L43 61 Z" /><glyph glyph-name="uni54CD" unicode="&#x54cd;" d="M99 -28 L99 178 L142 178 Q147 195 150 211 L178 209 Q177 202 172 187 Q170 181 169 178 L238 178 L238 6 Q239 -25 208 -25 Q205 -25 196 -25 Q184 -26 179 -26 Q178 -23 177 -18 Q174 -7 173 -2 Q187 -2 200 -2 Q217 -4 215 12 L215 155 L122 155 L122 -28 L99 -28 ZM17 -1 L17 186 L81 186 L81 1 L61 1 L61 20 L39 20 L39 -1 L17 -1 ZM137 24 L137 129 L199 129 L199 24 L137 24 ZM39 164 L39 41 L61 41 L61 164 L39 164 ZM156 107 L156 46 L180 46 L180 107 L156 107 Z" /><glyph glyph-name="uni54E1" unicode="&#x54e1;" d="M29 13 L29 127 L227 127 L227 13 L29 13 ZM42 142 L42 200 L214 200 L214 142 L42 142 ZM68 182 L68 160 L188 160 L188 182 L68 182 ZM55 109 L55 93 L201 93 L201 109 L55 109 ZM55 78 L55 62 L201 62 L201 78 L55 78 ZM55 47 L55 31 L201 31 L201 47 L55 47 ZM20 -30 Q13 -16 10 -9 Q60 0 100 10 L111 -7 Q80 -17 20 -30 ZM237 -29 Q192 -17 146 -7 L155 10 Q212 0 246 -7 L237 -29 Z" /><glyph glyph-name="uni552F" unicode="&#x552f;" d="M91 91 Q88 102 83 111 L83 -4 L62 -4 L62 13 L40 13 L40 -6 L18 -6 L18 189 L83 189 L83 122 Q113 160 127 211 L154 206 Q147 185 138 167 L182 167 Q180 173 175 186 Q170 198 168 204 L193 208 Q193 207 194 205 Q204 181 208 169 L198 167 L246 167 L246 145 L200 145 L200 114 L243 114 L243 92 L200 92 L200 60 L243 60 L243 39 L200 39 L200 6 L248 6 L248 -14 L133 -14 L133 -29 L108 -29 L108 113 Q105 109 99 101 Q94 95 91 91 ZM40 164 L40 37 L62 37 L62 164 L40 164 ZM133 39 L133 6 L175 6 L175 39 L133 39 ZM133 145 L133 114 L175 114 L175 145 L133 145 ZM133 92 L133 60 L175 60 L175 92 L133 92 Z" /><glyph glyph-name="uni5546" unicode="&#x5546;" d="M60 57 Q58 60 52 69 Q49 73 48 75 L48 -28 L22 -28 L22 134 L80 134 Q69 149 63 159 L88 164 Q96 156 107 138 Q108 136 109 135 L102 134 L145 134 Q152 142 163 160 Q165 163 166 165 L8 165 L8 186 L117 186 Q116 189 114 195 Q111 204 109 208 L140 211 Q141 208 143 201 Q146 191 147 186 L247 186 L247 165 L167 165 L192 159 Q190 155 184 147 Q178 138 175 134 L233 134 L233 8 Q234 -25 201 -24 Q196 -24 185 -24 Q174 -25 167 -25 Q166 -22 165 -17 Q163 -7 161 -1 Q177 -1 191 -1 Q209 -2 207 12 L207 75 L196 58 L176 72 L176 2 L79 2 L79 69 L60 57 ZM48 113 L48 76 Q74 91 101 113 L117 97 Q114 95 109 91 Q93 78 84 73 L174 73 Q169 76 157 84 Q145 92 138 97 L153 113 Q175 99 207 78 L207 113 L48 113 ZM154 22 L154 53 L102 53 L102 22 L154 22 Z" /><glyph glyph-name="uni5561" unicode="&#x5561;" d="M17 -6 L17 189 L86 189 L86 -4 L64 -4 L64 13 L39 13 L39 -6 L17 -6 ZM182 -29 L182 209 L206 209 L206 169 L245 169 L245 145 L206 145 L206 110 L242 110 L242 87 L206 87 L206 50 L247 50 L247 26 L206 26 L206 -29 L182 -29 ZM97 145 L97 169 L133 169 L133 209 L157 209 L157 -28 L133 -28 L133 26 L95 26 L95 50 L133 50 L133 87 L99 87 L99 110 L133 110 L133 145 L97 145 ZM39 165 L39 38 L64 38 L64 165 L39 165 Z" /><glyph glyph-name="uni5584" unicode="&#x5584;" d="M16 166 L16 185 L76 185 Q67 198 59 207 L87 212 Q89 209 95 202 Q104 191 108 185 L147 185 Q155 196 168 212 L197 207 L179 185 L240 185 L240 166 L141 166 L141 152 L229 152 L229 133 L141 133 L141 119 L246 119 L246 100 L190 100 L212 93 Q210 91 207 86 Q201 79 198 75 L248 75 L248 57 L8 57 L8 75 L58 75 Q56 78 50 84 Q45 91 43 94 L62 100 L10 100 L10 119 L114 119 L114 133 L27 133 L27 152 L114 152 L114 166 L16 166 ZM33 -29 L33 40 L222 40 L222 -29 L195 -29 L195 -19 L59 -19 L59 -29 L33 -29 ZM59 22 L59 0 L195 0 L195 22 L59 22 ZM168 75 L185 100 L141 100 L141 75 L168 75 ZM70 100 Q73 96 80 88 Q86 79 89 75 L114 75 L114 100 L70 100 Z" /><glyph glyph-name="uni559C" unicode="&#x559c;" d="M8 42 L8 60 L78 60 Q73 65 63 76 Q70 69 61 79 L74 81 L36 81 L36 130 L220 130 L220 81 L182 81 L195 79 Q189 70 179 60 L248 60 L248 42 L8 42 ZM32 -29 L32 28 L224 28 L224 -29 L198 -29 L198 -21 L58 -21 L58 -29 L32 -29 ZM12 175 L12 193 L114 193 L114 210 L141 210 L141 193 L243 193 L243 175 L141 175 L141 160 L228 160 L228 144 L27 144 L27 160 L114 160 L114 175 L12 175 ZM58 12 L58 -4 L198 -4 L198 12 L58 12 ZM61 114 L61 98 L194 98 L194 114 L61 114 ZM108 61 L103 60 L148 60 Q150 62 154 67 Q163 77 166 81 L90 81 Q103 68 108 61 Z" /><glyph glyph-name="uni55A7" unicode="&#x55a7;" d="M16 -10 L16 185 L84 185 L84 7 L39 7 L39 -10 L16 -10 ZM103 19 L103 113 L235 113 L235 19 L103 19 ZM94 148 L94 187 L156 187 L151 208 L179 211 L185 187 L245 187 L245 148 L232 148 L232 131 L107 131 L107 148 L94 148 ZM86 -20 L86 0 L249 0 L249 -20 L86 -20 ZM39 162 L39 30 L61 30 L61 162 L39 162 ZM117 167 L117 149 L221 149 L221 167 L117 167 ZM128 57 L128 38 L211 38 L211 57 L128 57 ZM128 94 L128 75 L211 75 L211 94 L128 94 Z" /><glyph glyph-name="uni55AE" unicode="&#x55ae;" d="M34 36 L34 130 L222 130 L222 36 L141 36 L141 19 L248 19 L248 0 L141 0 L141 -28 L115 -28 L115 0 L8 0 L8 19 L115 19 L115 36 L34 36 ZM139 144 L139 200 L233 200 L233 144 L139 144 ZM23 144 L23 200 L116 200 L116 144 L23 144 ZM141 74 L141 55 L196 55 L196 74 L141 74 ZM60 74 L60 55 L115 55 L115 74 L60 74 ZM196 111 L141 111 L141 92 L196 92 L196 111 ZM60 111 L60 92 L115 92 L115 111 L60 111 ZM162 182 L162 162 L210 162 L210 182 L162 182 ZM46 182 L46 162 L93 162 L93 182 L46 182 Z" /><glyph glyph-name="uni5609" unicode="&#x5609;" d="M8 54 L8 71 L76 71 L64 88 L75 90 L33 90 L33 136 L223 136 L223 90 L181 90 L192 88 L180 71 L248 71 L248 54 L8 54 ZM12 178 L12 195 L115 195 L115 211 L141 211 L141 195 L243 195 L243 178 L141 178 L141 164 L228 164 L228 148 L28 148 L28 164 L115 164 L115 178 L12 178 ZM142 -26 L142 40 L236 40 L236 -26 L212 -26 L212 -14 L165 -14 L165 -26 L142 -26 ZM24 -29 Q21 -26 13 -18 Q9 -14 7 -12 Q37 1 42 19 L15 19 L15 37 L46 37 Q46 39 46 43 Q47 50 47 54 L71 52 Q71 49 70 44 Q70 39 70 37 L127 37 Q126 19 124 2 Q123 -24 91 -24 Q80 -24 68 -24 Q68 -23 67 -19 Q64 -7 63 -3 Q70 -4 84 -4 Q101 -5 101 6 Q102 10 102 19 L67 19 Q61 -9 24 -29 ZM59 120 L59 105 L197 105 L197 120 L59 120 ZM92 90 L106 71 L150 71 Q151 73 155 78 Q161 86 163 90 L92 90 ZM165 23 L165 0 L212 0 L212 23 L165 23 Z" /><glyph glyph-name="uni56A3" unicode="&#x56a3;" d="M11 118 L11 137 L246 137 L246 118 L135 118 L131 104 L221 104 L221 66 L196 66 L196 87 L61 87 L61 65 L35 65 L35 104 L105 104 L108 118 L11 118 ZM207 -29 L207 -20 L162 -20 L162 -29 L139 -29 L139 31 L230 31 L230 -29 L207 -29 ZM26 -29 L26 31 L116 31 L116 -29 L94 -29 L94 -20 L48 -20 L48 -29 L26 -29 ZM241 29 Q224 33 183 43 Q144 53 125 57 Q104 36 13 31 Q11 42 8 52 Q83 55 104 68 Q114 75 115 87 L141 87 Q140 84 139 78 Q137 75 137 73 Q197 61 248 49 L241 29 ZM139 149 L139 200 L231 200 L231 149 L139 149 ZM25 149 L25 200 L117 200 L117 149 L25 149 ZM162 14 L162 -3 L207 -3 L207 14 L162 14 ZM48 14 L48 -3 L94 -3 L94 14 L48 14 ZM161 183 L161 165 L208 165 L208 183 L161 183 ZM48 183 L48 165 L94 165 L94 183 L48 183 Z" /><glyph glyph-name="uni56B4" unicode="&#x56b4;" d="M123 -29 L123 -8 Q87 -12 52 -16 L49 0 L68 2 L68 75 L56 75 L56 91 L116 91 L119 102 L68 102 L68 115 L142 115 L138 91 L157 91 L157 75 L145 75 L145 9 L159 11 Q159 2 159 -4 Q177 4 188 16 Q179 31 173 51 Q169 44 163 36 Q160 42 152 55 Q171 81 180 122 L202 118 Q202 117 201 114 Q199 109 195 99 L246 99 L246 80 L235 80 Q229 41 215 17 Q226 5 250 -6 Q247 -11 240 -21 Q238 -25 237 -26 Q219 -15 201 0 Q187 -14 163 -29 Q162 -27 159 -23 Q153 -14 150 -10 Q155 -7 159 -5 Q151 -5 145 -6 L145 -29 L123 -29 ZM25 -30 Q22 -28 15 -22 Q8 -16 5 -14 Q27 18 25 81 L25 144 L247 144 L247 126 L49 126 L49 76 Q50 10 25 -30 ZM142 155 L142 201 L236 201 L236 155 L142 155 ZM28 155 L28 201 L121 201 L121 155 L28 155 ZM165 186 L165 169 L213 169 L213 186 L165 186 ZM188 80 Q187 79 187 77 Q192 52 201 35 Q211 53 215 80 L188 80 ZM51 186 L51 169 L99 169 L99 186 L51 186 ZM89 4 Q95 5 106 6 Q118 7 123 7 L123 19 L89 19 L89 4 ZM89 47 L89 33 L123 33 L123 47 L89 47 ZM89 75 L89 61 L123 61 L123 75 L89 75 Z" /><glyph glyph-name="uni56DB" unicode="&#x56db;" d="M21 -28 L21 195 L237 195 L237 -28 L210 -28 L210 -14 L48 -14 L48 -28 L21 -28 ZM173 52 Q143 51 144 82 L144 170 L112 170 L112 125 Q115 72 69 35 Q60 45 49 54 Q90 83 87 127 Q87 146 87 170 L48 170 L48 9 L210 9 L210 170 L169 170 L169 91 Q168 76 184 77 L209 77 Q209 75 208 72 Q206 64 204 52 L173 52 Z" /><glyph glyph-name="uni56DE" unicode="&#x56de;" d="M18 -28 L18 197 L237 197 L237 -28 L210 -28 L210 -12 L45 -12 L45 -28 L18 -28 ZM45 173 L45 9 L210 9 L210 173 L45 173 ZM76 44 L76 140 L180 140 L180 44 L76 44 ZM100 118 L100 67 L155 67 L155 118 L100 118 Z" /><glyph glyph-name="uni56E0" unicode="&#x56e0;" d="M20 -29 L20 199 L236 199 L236 -29 L208 -29 L208 -15 L47 -15 L47 -29 L20 -29 ZM47 175 L47 6 L208 6 L208 175 L47 175 ZM61 106 L61 130 L115 130 L115 165 L141 165 L141 130 L194 130 L194 106 L141 106 Q140 97 138 89 Q147 82 165 68 Q188 50 201 39 L181 19 Q148 50 129 66 Q113 38 70 15 Q68 17 64 22 Q56 32 52 36 Q113 63 114 106 L61 106 Z" /><glyph glyph-name="uni56E2" unicode="&#x56e2;" d="M19 -29 L19 200 L237 200 L237 -29 L210 -29 L210 -18 L46 -18 L46 -29 L19 -29 ZM46 176 L46 4 L210 4 L210 176 L46 176 ZM59 117 L59 140 L145 140 L145 167 L170 167 L170 140 L200 140 L200 117 L170 117 L170 49 Q172 16 139 16 Q135 16 126 16 Q115 15 110 15 Q107 27 104 39 Q118 38 129 38 Q146 37 145 52 L145 106 Q118 62 67 31 Q64 36 54 47 Q52 50 51 51 Q101 78 126 117 L59 117 Z" /><glyph glyph-name="uni56ED" unicode="&#x56ed;" d="M18 -29 L18 200 L238 200 L238 -29 L212 -29 L212 -17 L44 -17 L44 -29 L18 -29 ZM44 178 L44 4 L212 4 L212 178 L44 178 ZM56 90 L56 111 L200 111 L200 90 L159 90 L159 50 Q159 41 167 41 L174 41 Q183 41 184 51 Q185 57 187 75 Q196 71 205 68 Q205 63 203 54 Q202 45 201 40 Q196 19 174 19 L161 19 Q134 18 135 45 L135 90 L111 90 Q111 40 67 12 Q58 22 50 31 Q88 51 87 90 L56 90 ZM66 135 L66 156 L189 156 L189 135 L66 135 Z" /><glyph glyph-name="uni56F4" unicode="&#x56f4;" d="M18 -29 L18 199 L237 199 L237 -29 L211 -29 L211 -18 L44 -18 L44 -29 L18 -29 ZM44 177 L44 2 L211 2 L211 177 L44 177 ZM145 21 Q143 31 140 40 Q144 40 151 39 Q158 39 161 39 Q172 38 173 48 Q173 49 173 53 Q174 58 174 60 L131 60 L131 8 L105 8 L105 60 L54 60 L54 80 L105 80 L105 98 L64 98 L64 117 L105 117 L105 135 L57 135 L57 154 L105 154 L105 170 L131 170 L131 154 L197 154 L197 135 L131 135 L131 117 L189 117 L189 98 L131 98 L131 80 L196 80 Q196 61 194 46 Q194 22 168 22 Q157 21 145 21 Z" /><glyph glyph-name="uni56FD" unicode="&#x56fd;" d="M18 -29 L18 200 L238 200 L238 -29 L210 -29 L210 -16 L45 -16 L45 -29 L18 -29 ZM45 177 L45 5 L210 5 L210 177 L45 177 ZM59 135 L59 157 L196 157 L196 135 L139 135 L139 109 L191 109 L191 87 L139 87 L139 47 L174 47 Q161 62 150 72 L164 84 Q177 73 189 61 L174 47 L199 47 L199 25 L57 25 L57 47 L113 47 L113 87 L64 87 L64 109 L113 109 L113 135 L59 135 Z" /><glyph glyph-name="uni56FE" unicode="&#x56fe;" d="M17 -29 L17 202 L238 202 L238 -29 L212 -29 L212 -17 L43 -17 L43 -29 L17 -29 ZM43 179 L43 3 L212 3 L212 179 L43 179 ZM198 76 Q157 83 132 95 Q103 82 57 73 Q56 74 55 78 Q53 83 47 92 Q85 98 110 107 Q96 116 84 130 Q75 121 64 113 Q58 121 50 128 Q80 149 99 177 L123 174 Q118 167 112 159 L193 159 L193 141 Q172 118 153 107 Q177 100 208 97 Q207 94 204 88 Q200 81 198 76 ZM183 10 Q137 18 63 29 L69 49 Q127 41 188 30 L183 10 ZM170 49 Q126 57 85 62 L90 80 Q110 77 155 70 Q169 68 175 67 L170 49 ZM165 141 L98 141 Q112 126 131 116 Q150 126 165 141 Z" /><glyph glyph-name="uni5708" unicode="&#x5708;" d="M17 -29 L17 202 L238 202 L238 -29 L213 -29 L213 -18 L42 -18 L42 -29 L17 -29 ZM200 58 Q179 67 166 77 L165 60 Q163 42 143 41 Q131 41 118 41 Q118 42 117 43 Q117 47 114 55 Q127 54 136 54 Q145 54 145 61 Q146 65 146 68 L97 68 L97 43 Q96 28 111 29 L156 29 Q171 29 173 40 Q176 47 177 56 Q187 52 196 49 Q196 47 195 44 Q193 35 191 31 Q186 12 160 12 L104 12 Q75 11 76 39 L76 66 Q72 64 64 59 Q56 55 52 53 Q49 62 42 71 L42 0 L213 0 L213 182 L42 182 L42 73 Q73 86 89 101 L50 101 L50 118 L102 118 Q106 125 109 132 L57 132 L57 148 L82 148 Q79 153 73 160 Q69 165 67 168 L86 173 Q94 163 101 152 L92 148 L114 148 Q117 162 119 175 L142 175 Q141 171 140 162 Q138 153 137 148 L164 148 L155 152 Q161 158 171 173 L190 168 Q183 160 174 148 L198 148 L198 132 L132 132 Q131 128 128 121 Q127 119 127 118 L205 118 L205 101 L167 101 Q183 85 211 78 Q209 75 206 68 Q202 62 200 58 ZM117 101 Q111 92 101 84 L158 84 Q151 91 143 101 L117 101 Z" /><glyph glyph-name="uni570B" unicode="&#x570b;" d="M17 -29 L17 202 L238 202 L238 -29 L213 -29 L213 -18 L42 -18 L42 -29 L17 -29 ZM42 180 L42 2 L213 2 L213 180 L42 180 ZM52 133 L52 153 L135 153 L135 174 L157 174 Q157 162 157 153 L177 153 L168 168 L182 173 Q184 170 189 162 Q192 156 194 153 L203 153 L203 133 L158 133 Q159 100 163 79 Q174 98 184 123 L202 114 Q184 73 168 52 Q169 50 171 47 Q172 43 173 41 Q177 32 182 33 Q187 33 188 42 Q190 48 194 68 Q199 64 209 59 Q208 50 204 37 Q203 32 202 30 Q196 9 179 10 Q162 10 154 33 Q150 29 143 20 Q135 12 131 8 Q128 12 116 25 Q97 23 61 18 Q56 17 54 17 L50 38 Q96 42 128 46 Q128 40 128 36 Q137 45 146 55 Q139 80 136 133 L52 133 ZM60 57 L60 118 L122 118 L122 57 L60 57 ZM78 101 L78 74 L104 74 L104 101 L78 101 Z" /><glyph glyph-name="uni570D" unicode="&#x570d;" d="M17 -29 L17 201 L238 201 L238 -29 L213 -29 L213 -17 L42 -17 L42 -29 L17 -29 ZM53 46 L53 60 L124 60 L124 72 L148 72 L148 60 L198 60 L198 46 L148 46 L148 32 L203 32 L203 18 L148 18 L148 1 L213 1 L213 181 L42 181 L42 1 L124 1 L124 18 L58 18 L65 46 L53 46 ZM52 125 L52 139 L86 139 L90 152 L66 152 L66 166 L94 166 L98 179 L121 179 L118 166 L187 166 L187 139 L204 139 L204 125 L52 125 ZM64 73 L64 113 L191 113 L191 73 L64 73 ZM88 100 L88 86 L167 86 L167 100 L88 100 ZM164 152 L113 152 L110 139 L164 139 L164 152 ZM87 46 L83 32 L124 32 L124 46 L87 46 Z" /><glyph glyph-name="uni5712" unicode="&#x5712;" d="M18 -29 L18 200 L238 200 L238 -29 L213 -29 L213 -18 L43 -18 L43 -29 L18 -29 ZM43 179 L43 2 L213 2 L213 179 L43 179 ZM58 13 Q56 18 49 29 Q48 31 47 32 Q84 43 111 63 L67 63 L67 106 L188 106 L188 64 Q189 65 190 66 L203 54 Q201 53 196 49 Q185 41 179 37 Q185 34 197 28 Q202 25 205 24 L194 8 Q169 23 134 39 L134 10 L111 10 L111 42 Q94 29 58 13 ZM64 147 L64 162 L116 162 L116 175 L139 175 L139 162 L191 162 L191 147 L139 147 L139 134 L203 134 L203 119 L52 119 L52 134 L116 134 L116 147 L64 147 ZM90 92 L90 77 L166 77 L166 92 L90 92 ZM145 53 Q154 49 163 44 Q167 47 175 54 Q183 60 187 63 L137 63 L134 60 L134 40 L145 53 Z" /><glyph glyph-name="uni5716" unicode="&#x5716;" d="M17 -29 L17 200 L238 200 L238 -29 L213 -29 L213 -18 L42 -18 L42 -29 L17 -29 ZM42 180 L42 0 L213 0 L213 180 L42 180 ZM66 132 L66 168 L189 168 L189 132 L139 132 L139 122 L205 122 L205 108 L139 108 L139 96 L196 96 L196 13 L59 13 L59 96 L116 96 L116 108 L51 108 L51 122 L116 122 L116 132 L66 132 ZM80 82 L80 27 L175 27 L175 82 L80 82 ZM95 37 L95 71 L161 71 L161 37 L95 37 ZM89 156 L89 144 L166 144 L166 156 L89 156 ZM112 61 L112 48 L143 48 L143 61 L112 61 Z" /><glyph glyph-name="uni5718" unicode="&#x5718;" d="M18 -29 L18 200 L237 200 L237 -29 L214 -29 L214 -19 L42 -19 L42 -29 L18 -29 ZM42 181 L42 0 L214 0 L214 181 L42 181 ZM53 152 L53 167 L117 167 L117 176 L138 176 L138 167 L203 167 L203 152 L138 152 L138 142 L193 142 L193 87 L189 87 Q193 83 199 76 Q206 68 209 64 L194 55 L187 64 Q181 64 175 64 L175 51 L206 51 L206 35 L175 35 L175 29 Q176 6 150 6 Q135 6 122 6 Q121 9 119 15 Q118 19 117 21 Q122 21 130 20 Q138 20 142 20 Q154 20 154 30 L154 35 L83 35 Q95 28 105 20 L92 8 Q80 19 66 28 L74 35 L50 35 L50 51 L154 51 L154 63 Q103 63 54 61 L52 76 Q83 76 117 76 L117 87 L63 87 L63 142 L117 142 L117 152 L53 152 ZM138 77 Q159 77 178 77 L170 86 L173 87 L138 87 L138 77 ZM83 109 L83 99 L117 99 L117 109 L83 109 ZM138 99 L172 99 L172 109 L138 109 L138 99 ZM83 129 L83 120 L117 120 L117 129 L83 129 ZM172 129 L138 129 L138 120 L172 120 L172 129 Z" /><glyph glyph-name="uni5728" unicode="&#x5728;" d="M16 155 L16 180 L84 180 Q88 188 93 203 Q95 208 96 211 L125 208 Q123 204 121 197 Q116 186 114 180 L248 180 L248 155 L103 155 Q89 127 71 103 L71 -28 L45 -28 L45 72 Q41 68 32 59 Q23 51 18 46 Q15 51 10 64 Q7 70 6 73 Q50 111 72 155 L16 155 ZM91 71 L91 95 L150 95 L150 141 L177 141 L177 95 L236 95 L236 71 L177 71 L177 8 L248 8 L248 -14 L80 -14 L80 8 L150 8 L150 71 L91 71 Z" /><glyph glyph-name="uni5730" unicode="&#x5730;" d="M187 50 Q186 53 185 58 Q183 68 181 74 Q188 74 197 74 Q209 73 210 89 Q212 119 212 138 L178 128 L178 23 L153 23 L153 121 L121 111 L121 22 Q119 0 143 1 L195 1 Q219 0 221 17 Q224 31 226 46 Q236 41 250 37 Q247 17 243 2 Q238 -22 203 -21 L133 -21 Q95 -22 96 13 L96 103 L79 98 L75 119 L58 119 L58 34 Q61 35 67 36 Q78 39 85 40 Q85 28 86 15 Q76 13 50 6 Q23 0 10 -3 L5 22 L34 28 L34 119 L10 119 L10 144 L34 144 L34 210 L58 210 L58 144 L80 144 L80 125 L96 129 L96 184 L121 184 L121 137 L153 146 L153 210 L178 210 L178 153 L237 170 Q237 114 234 85 Q234 52 210 52 Q201 50 187 50 Z" /><glyph glyph-name="uni573A" unicode="&#x573a;" d="M10 122 L10 148 L36 148 L36 209 L62 209 L62 148 L86 148 L86 122 L62 122 L62 45 L84 52 L85 36 Q109 57 120 95 L91 95 L91 121 L184 174 L99 174 L99 197 L227 197 L227 170 L136 118 L241 118 L237 20 Q238 -24 200 -23 Q191 -24 169 -24 Q168 -19 166 -8 Q164 -1 164 0 Q176 0 190 0 Q213 -1 212 23 Q213 34 214 66 Q215 86 215 95 L193 95 Q181 12 125 -30 Q117 -21 106 -11 Q157 25 169 95 L144 95 Q130 37 84 1 Q82 3 77 9 Q71 16 67 20 Q62 18 52 14 Q39 9 12 0 L6 27 Q13 28 26 33 Q33 35 36 36 L36 122 L10 122 Z" /><glyph glyph-name="uni5740" unicode="&#x5740;" d="M75 -16 L75 7 L108 7 L108 159 L134 159 L134 7 L167 7 L167 210 L195 210 L195 137 L241 137 L241 112 L195 112 L195 7 L249 7 L249 -16 L75 -16 ZM10 123 L10 148 L38 148 L38 210 L64 210 L64 148 L91 148 L91 123 L64 123 L64 40 L94 49 Q93 43 94 31 Q94 26 94 23 Q84 20 58 13 Q26 3 11 0 L6 25 L38 33 L38 123 L10 123 Z" /><glyph glyph-name="uni5747" unicode="&#x5747;" d="M109 113 Q101 120 92 126 L92 121 L66 121 L66 39 L95 48 Q95 43 96 34 Q96 25 96 21 Q86 18 62 12 Q28 2 12 -1 L7 25 Q22 28 39 33 L39 121 L10 121 L10 146 L39 146 L39 209 L66 209 L66 146 L92 146 L92 134 Q115 164 131 210 L159 205 Q158 202 155 195 Q151 182 147 175 L241 175 Q239 95 237 19 Q238 -24 191 -23 Q183 -23 166 -24 Q152 -24 147 -24 Q144 -9 141 3 Q159 2 183 2 Q211 0 209 28 Q212 112 212 149 L134 149 Q122 130 109 113 ZM111 17 L99 43 Q146 60 196 84 Q196 82 197 76 Q199 62 200 56 Q190 52 166 41 Q127 24 111 17 ZM154 75 Q138 92 117 110 L136 128 Q141 124 152 114 Q168 101 174 95 L154 75 Z" /><glyph glyph-name="uni574A" unicode="&#x574a;" d="M93 146 L93 172 L160 172 Q155 191 149 207 L179 210 Q185 192 190 172 L247 172 L247 146 L149 146 L148 112 L233 112 Q232 94 233 100 Q231 44 230 21 Q230 -23 189 -23 Q184 -23 173 -24 Q162 -24 156 -24 Q155 -21 154 -12 Q151 -1 150 2 Q169 1 181 1 Q203 0 203 25 Q205 59 206 88 L147 88 Q147 18 99 -30 Q96 -28 91 -24 Q80 -15 75 -12 Q122 30 121 97 L122 146 L93 146 ZM11 123 L11 148 L38 148 L38 209 L64 209 L64 148 L90 148 L90 123 L64 123 L64 47 L93 57 Q93 44 95 30 Q61 20 13 2 L6 29 Q22 33 38 39 L38 123 L11 123 Z" /><glyph glyph-name="uni5750" unicode="&#x5750;" d="M34 44 L34 69 L114 69 L114 210 L142 210 L142 69 L222 69 L222 44 L142 44 L142 7 L248 7 L248 -17 L9 -17 L9 7 L114 7 L114 44 L34 44 ZM93 84 Q78 105 60 127 Q50 103 25 74 Q17 84 7 92 Q44 131 54 190 L79 188 Q75 167 70 151 Q81 140 98 119 Q107 108 112 103 L93 84 ZM229 82 Q220 95 194 127 Q186 113 163 83 Q154 92 144 100 Q181 141 189 190 L215 187 Q214 183 212 177 Q210 166 204 150 Q216 137 235 115 Q244 105 248 100 L229 82 Z" /><glyph glyph-name="uni575A" unicode="&#x575a;" d="M29 32 L29 56 L114 56 L114 75 L142 75 L142 56 L226 56 L226 32 L142 32 L142 3 L247 3 L247 -19 L8 -19 L8 3 L114 3 L114 32 L29 32 ZM237 75 Q199 86 174 102 Q145 85 117 77 Q109 93 104 100 Q134 109 153 120 Q132 140 120 171 L126 173 L112 173 L112 197 L235 197 L235 174 Q220 140 196 119 Q217 107 249 100 Q242 87 237 75 ZM73 74 L73 208 L99 208 L99 74 L73 74 ZM21 80 L21 199 L46 199 L46 80 L21 80 ZM207 173 L144 173 Q156 146 174 133 Q195 148 207 173 Z" /><glyph glyph-name="uni5782" unicode="&#x5782;" d="M28 176 Q27 180 26 190 Q24 196 24 198 Q130 200 226 204 L230 182 Q186 181 141 179 L141 153 L241 153 L241 132 L204 132 L204 100 L248 100 L248 79 L204 79 L204 46 L242 46 L242 25 L141 25 L141 0 L231 0 L231 -20 L24 -20 L24 0 L114 0 L114 25 L14 25 L14 46 L51 46 L51 79 L8 79 L8 100 L51 100 L51 132 L15 132 L15 153 L114 153 L114 178 Q100 178 71 177 Q42 177 28 176 ZM141 79 L141 46 L178 46 L178 79 L141 79 ZM77 79 L77 46 L114 46 L114 79 L77 79 ZM141 132 L141 100 L178 100 L178 132 L141 132 ZM77 132 L77 100 L114 100 L114 132 L77 132 Z" /><glyph glyph-name="uni578B" unicode="&#x578b;" d="M17 178 L17 200 L143 200 L143 178 L122 178 L122 143 L151 143 L151 121 L122 121 L122 74 L142 74 L142 52 L229 52 L229 30 L142 30 L142 2 L247 2 L247 -20 L9 -20 L9 2 L114 2 L114 30 L27 30 L27 52 L114 52 L114 74 L98 74 L98 121 L64 121 Q63 90 36 65 Q34 66 29 69 Q24 72 14 79 Q39 98 40 121 L9 121 L9 143 L41 143 L41 178 L17 178 ZM171 70 Q170 74 169 82 Q167 90 166 94 Q178 94 196 94 Q213 92 211 110 L211 207 L236 207 L236 104 Q237 71 207 71 Q196 70 171 70 ZM161 113 L161 196 L184 196 L184 113 L161 113 ZM65 178 L65 143 L98 143 L98 178 L65 178 Z" /><glyph glyph-name="uni57AB" unicode="&#x57ab;" d="M170 84 L146 100 Q136 82 115 69 L142 69 L142 50 L229 50 L229 28 L142 28 L142 2 L248 2 L248 -19 L8 -19 L8 2 L114 2 L114 28 L27 28 L27 50 L114 50 L114 68 Q113 67 110 65 Q107 62 105 61 Q102 65 96 71 Q90 78 87 81 Q113 94 125 112 L102 126 L114 144 Q126 139 135 133 Q140 145 140 158 L110 158 L110 180 L142 180 Q142 198 142 211 L166 211 L166 180 L215 180 Q214 130 217 101 Q219 88 224 88 Q229 88 230 98 Q232 109 233 128 Q242 125 251 122 Q250 117 249 107 Q247 93 246 87 Q241 64 223 63 Q197 64 193 98 Q191 126 191 158 L165 158 Q163 137 157 121 L183 106 L170 84 ZM14 158 L14 180 L48 180 L48 210 L71 210 L71 180 L99 180 L99 158 L71 158 L71 138 Q72 138 73 138 Q85 139 99 142 Q99 129 99 120 L71 116 L71 94 Q72 64 46 65 Q38 64 20 64 Q20 67 18 74 Q17 83 16 87 Q26 86 35 86 Q49 85 48 98 L48 112 L12 107 L9 130 Q16 131 29 133 Q42 134 48 135 L48 158 L14 158 Z" /><glyph glyph-name="uni57CE" unicode="&#x57ce;" d="M222 -26 Q198 -26 186 9 Q170 -8 147 -28 Q138 -16 130 -10 Q158 10 178 36 Q170 68 166 143 L109 143 L109 112 L155 112 Q155 77 153 40 Q154 9 126 9 Q117 8 110 8 Q110 12 108 21 Q107 29 106 33 Q110 33 119 33 Q133 32 132 46 Q133 57 133 90 L109 90 Q110 12 81 -29 Q78 -28 71 -24 Q63 -19 58 -17 Q75 7 80 29 Q85 50 85 97 L85 166 L166 166 Q165 185 165 210 L189 210 Q189 202 190 187 Q190 173 190 166 L248 166 L248 143 L191 143 Q191 137 192 127 Q194 81 197 65 Q212 91 222 122 L243 113 Q225 65 204 33 Q204 32 205 30 Q205 29 206 28 Q211 1 221 0 Q224 0 226 8 Q227 14 230 31 Q230 38 231 42 Q241 38 251 35 Q248 10 245 -3 Q239 -26 222 -26 ZM9 128 L9 152 L31 152 L31 210 L55 210 L55 152 L75 152 L75 128 L55 128 L55 44 Q56 44 60 45 Q64 47 75 51 Q75 47 76 38 Q76 29 76 26 Q56 20 10 4 L6 31 L31 37 L31 128 L9 128 ZM225 167 Q213 179 198 194 L214 206 Q219 202 228 193 Q238 185 242 180 L225 167 Z" /><glyph glyph-name="uni57DF" unicode="&#x57df;" d="M8 120 L8 145 L32 145 L32 210 L56 210 L56 145 L77 145 L77 120 L56 120 L56 36 L77 41 Q77 36 78 28 Q78 21 78 18 Q88 19 112 22 Q147 26 160 28 Q160 23 160 17 Q169 27 176 36 Q168 74 167 120 L166 146 L81 146 L81 169 L165 169 L164 210 L189 210 Q189 191 189 169 L247 169 L247 146 L190 146 Q190 134 191 122 Q193 83 195 65 Q209 88 222 127 L243 118 Q226 67 201 31 Q201 30 202 27 Q206 14 210 8 Q213 0 218 0 Q224 -1 226 10 Q226 13 227 22 Q229 36 230 44 Q239 39 250 36 Q248 13 244 -2 Q239 -27 219 -27 Q197 -27 189 0 Q186 2 184 8 Q168 -9 147 -29 Q140 -18 131 -8 Q139 -2 145 3 Q119 0 75 -6 L72 14 Q64 12 47 7 Q21 0 10 -1 L5 24 Q19 27 32 30 L32 120 L8 120 ZM86 45 L86 124 L150 124 L150 45 L86 45 ZM106 102 L106 66 L130 66 L130 102 L106 102 ZM220 173 Q210 185 200 198 L218 208 Q220 205 225 200 Q235 188 239 184 L220 173 Z" /><glyph glyph-name="uni57FA" unicode="&#x57fa;" d="M17 168 L17 189 L53 189 L53 211 L79 211 L79 189 L177 189 L177 211 L204 211 L204 189 L239 189 L239 168 L204 168 L204 89 L247 89 L247 69 L183 69 Q207 45 250 33 Q249 31 247 27 Q244 22 239 10 Q216 19 192 34 L192 21 L141 21 L141 0 L230 0 L230 -18 L25 -18 L25 0 L115 0 L115 21 L64 21 L64 34 Q45 21 17 7 Q13 19 6 30 Q48 46 72 69 L9 69 L9 89 L53 89 L53 168 L17 168 ZM141 59 L141 39 L184 39 Q165 55 154 69 L102 69 Q90 54 71 39 L115 39 L115 59 L141 59 ZM79 105 L79 89 L177 89 L177 105 L79 105 ZM79 168 L79 153 L177 153 L177 168 L79 168 ZM79 137 L79 121 L177 121 L177 137 L79 137 Z" /><glyph glyph-name="uni5802" unicode="&#x5802;" d="M47 64 L47 129 L209 129 L209 64 L142 64 L142 44 L227 44 L227 23 L142 23 L142 1 L247 1 L247 -18 L9 -18 L9 1 L114 1 L114 23 L29 23 L29 44 L114 44 L114 64 L47 64 ZM15 114 L15 168 L67 168 Q63 172 52 181 Q41 190 36 194 L56 207 Q79 191 90 181 L71 168 L114 168 L114 211 L142 211 L142 168 L182 168 L164 181 Q165 182 167 183 Q191 199 199 207 L220 193 Q216 190 206 183 Q194 173 188 168 L241 168 L241 114 L214 114 L214 147 L42 147 L42 114 L15 114 ZM74 109 L74 84 L182 84 L182 109 L74 109 Z" /><glyph glyph-name="uni5805" unicode="&#x5805;" d="M19 70 L19 201 L128 201 L128 182 L97 182 L97 162 L127 162 L127 109 L97 109 L97 88 L127 88 L127 70 L19 70 ZM25 27 L25 49 L114 49 L114 65 L142 65 L142 49 L231 49 L231 27 L142 27 L142 2 L247 2 L247 -18 L8 -18 L8 2 L114 2 L114 27 L25 27 ZM140 70 Q139 71 138 74 Q130 87 127 92 Q153 102 169 114 Q150 135 140 171 L150 175 L135 175 L135 196 L238 196 L238 173 Q224 135 204 114 Q223 101 249 93 Q244 83 238 69 Q208 81 186 97 Q168 84 140 70 ZM162 175 Q173 143 187 130 Q203 147 213 175 L162 175 ZM105 145 L42 145 L42 126 L105 126 L105 145 ZM42 109 L42 88 L75 88 L75 109 L42 109 ZM42 182 L42 162 L75 162 L75 182 L42 182 Z" /><glyph glyph-name="uni5821" unicode="&#x5821;" d="M90 138 L90 200 L227 200 L227 138 L171 138 L171 123 L244 123 L244 103 L187 103 Q210 84 248 76 Q240 65 235 56 Q191 70 171 94 L171 56 L146 56 L146 93 Q120 68 82 55 Q80 58 74 66 Q71 72 69 74 Q111 87 129 103 L73 103 L73 123 L146 123 L146 138 L90 138 ZM27 21 L27 42 L114 42 L114 58 L141 58 L141 42 L229 42 L229 21 L141 21 L141 0 L247 0 L247 -19 L8 -19 L8 0 L114 0 L114 21 L27 21 ZM35 55 L35 126 Q31 121 22 111 Q17 106 15 103 Q14 107 11 115 Q7 126 5 132 Q38 163 58 211 L82 202 Q72 179 60 161 L60 55 L35 55 ZM116 180 L116 157 L201 157 L201 180 L116 180 Z" /><glyph glyph-name="uni5831" unicode="&#x5831;" d="M161 -27 Q159 -24 155 -15 Q153 -11 152 -9 L152 -29 L128 -29 L128 199 L239 199 Q239 175 238 159 Q237 128 208 129 Q204 129 196 129 Q185 128 178 128 Q177 134 174 145 Q173 148 173 150 Q178 150 186 149 Q193 149 197 149 Q214 148 214 162 Q214 164 214 169 Q215 174 215 177 L152 177 L152 111 L242 111 L242 87 Q231 45 214 20 Q228 6 251 -4 Q247 -9 241 -20 Q239 -24 238 -26 Q214 -12 199 2 Q184 -12 161 -27 ZM13 61 L13 82 L34 82 Q27 97 20 108 L41 113 Q46 105 54 87 Q48 100 55 84 L40 82 L68 82 Q77 101 83 113 L105 109 L91 82 L113 82 L113 61 L76 61 L76 36 L119 36 L119 14 L76 14 L76 -29 L51 -29 L51 14 L7 14 L7 36 L51 36 L51 61 L13 61 ZM15 163 L15 184 L51 184 L51 209 L76 209 L76 184 L111 184 L111 163 L76 163 L76 140 L118 140 L118 119 L8 119 L8 140 L51 140 L51 163 L15 163 ZM152 -4 Q171 7 184 20 Q167 44 158 83 L171 89 L152 89 L152 -4 ZM218 89 L178 89 Q187 56 199 38 Q212 58 218 89 Z" /><glyph glyph-name="uni5834" unicode="&#x5834;" d="M79 81 L79 100 L249 100 L249 81 L135 81 Q130 72 124 65 L240 65 Q240 38 238 7 Q236 -24 206 -24 Q192 -24 179 -24 Q176 -9 174 -2 Q181 -3 199 -3 Q213 -3 214 9 Q216 24 216 46 L200 46 Q186 0 138 -29 Q132 -22 122 -14 Q165 10 177 46 L155 46 Q137 7 86 -17 Q78 -5 72 0 Q115 18 132 46 L106 46 Q105 45 103 44 Q97 38 86 30 Q78 40 71 47 Q94 59 110 81 L79 81 ZM98 114 L98 200 L231 200 L231 114 L98 114 ZM9 121 L9 146 L32 146 L32 210 L56 210 L56 146 L78 146 L78 121 L56 121 L56 28 Q68 31 81 34 Q81 20 82 9 Q35 0 10 -7 L6 17 Q18 19 32 22 L32 121 L9 121 ZM122 182 L122 165 L207 165 L207 182 L122 182 ZM122 149 L122 132 L207 132 L207 149 L122 149 Z" /><glyph glyph-name="uni586B" unicode="&#x586b;" d="M85 174 L85 193 L151 193 L151 210 L176 210 L176 193 L242 193 L242 174 L176 174 L176 158 L230 158 L230 33 L249 33 L249 13 L79 13 L79 25 Q63 20 27 7 Q17 3 12 1 L6 28 Q20 31 35 37 L35 124 L10 124 L10 148 L35 148 L35 210 L60 210 L60 148 L84 148 L84 124 L60 124 L60 45 Q73 48 85 53 L87 33 L98 33 L98 158 L151 158 L151 174 L85 174 ZM87 -30 Q86 -28 84 -24 Q83 -21 77 -10 Q86 -7 102 -2 Q128 5 142 11 L153 -5 Q139 -11 109 -22 Q95 -27 87 -30 ZM236 -29 Q214 -20 174 -5 L183 11 Q215 1 246 -10 L236 -29 ZM123 141 L123 125 L205 125 L205 141 L123 141 ZM123 48 L123 33 L205 33 L205 48 L123 48 ZM123 79 L123 63 L205 63 L205 79 L123 79 ZM123 110 L123 94 L205 94 L205 110 L123 110 Z" /><glyph glyph-name="uni5883" unicode="&#x5883;" d="M90 26 L90 112 L231 112 L231 26 L193 26 L193 4 Q192 -5 205 -4 L215 -4 Q226 -4 228 4 Q229 6 229 13 Q230 20 230 23 Q242 19 250 16 Q249 5 247 -5 Q244 -25 217 -24 L196 -24 Q167 -25 168 0 L168 26 L146 26 Q146 -16 75 -31 Q69 -21 62 -10 Q123 0 122 26 L90 26 ZM86 169 L86 189 L149 189 L142 208 L172 211 Q176 199 179 189 L239 189 L239 169 L204 169 L217 168 Q215 164 209 155 Q205 149 203 146 L247 146 L247 126 L81 126 L81 146 L123 146 Q113 162 110 167 L122 169 L86 169 ZM10 122 L10 148 L32 148 L32 209 L57 209 L57 148 L75 148 L75 122 L57 122 L57 39 L80 45 Q80 31 80 19 Q77 18 71 16 Q32 5 10 0 L6 27 Q19 29 32 33 L32 122 L10 122 ZM114 62 L114 45 L206 45 L206 62 L114 62 ZM114 94 L114 78 L206 78 L206 94 L114 94 ZM136 169 Q140 163 149 148 Q150 147 150 146 L176 146 Q183 158 189 169 L136 169 Z" /><glyph glyph-name="uni5885" unicode="&#x5885;" d="M16 90 L16 106 L62 106 L62 121 L18 121 L18 200 L128 200 L128 121 L84 121 L84 106 L131 106 L131 90 L84 90 L84 75 Q111 77 134 78 Q134 74 133 67 Q133 61 133 59 Q96 58 13 52 L10 72 L62 74 L62 90 L16 90 ZM26 19 L26 38 L115 38 L115 51 L141 51 L141 38 L229 38 L229 19 L141 19 L141 0 L248 0 L248 -20 L8 -20 L8 0 L115 0 L115 19 L26 19 ZM235 86 Q225 89 215 90 L226 116 L201 116 L201 82 Q202 56 174 55 Q164 54 150 54 Q149 58 146 67 Q145 73 144 76 Q150 75 165 75 Q179 74 178 87 L178 116 L138 116 L138 136 L182 136 Q165 148 148 159 L163 173 L188 155 L216 179 L142 179 L142 198 L242 198 L242 176 L206 143 L198 136 L247 136 L247 116 L235 86 ZM39 153 L39 137 L63 137 L63 153 L39 153 ZM39 184 L39 168 L63 168 L63 184 L39 184 ZM83 153 L83 137 L107 137 L107 153 L83 153 ZM107 184 L83 184 L83 168 L107 168 L107 184 Z" /><glyph glyph-name="uni588A" unicode="&#x588a;" d="M184 80 Q181 82 176 87 Q170 91 167 93 Q160 78 144 58 Q136 66 128 72 L128 70 L82 70 L82 52 L59 52 L59 70 L11 70 L11 88 L59 88 L59 103 L20 103 L20 121 L42 121 Q35 132 32 139 L47 142 L13 142 L13 161 L59 161 L59 175 L21 175 L21 193 L59 193 L59 210 L82 210 L82 193 L120 193 L120 175 L82 175 L82 161 L127 161 L127 142 L93 142 L109 139 Q105 132 99 121 L121 121 L121 103 L82 103 L82 88 L128 88 L128 75 Q144 94 148 106 Q138 114 126 121 L137 137 L154 127 Q157 139 157 156 L133 156 L133 178 L158 178 Q158 195 158 210 L180 210 Q180 188 179 178 L219 178 L219 139 Q219 107 221 93 Q223 84 226 84 Q229 84 231 93 Q233 111 234 129 Q243 125 250 122 Q247 97 244 80 Q239 57 224 57 Q205 58 201 83 Q197 98 197 141 L197 156 L179 156 Q177 131 174 115 Q184 108 197 100 L184 80 ZM28 20 L28 40 L115 40 L115 56 L141 56 L141 40 L228 40 L228 20 L141 20 L141 0 L248 0 L248 -20 L8 -20 L8 0 L115 0 L115 20 L28 20 ZM51 142 Q53 139 60 124 Q62 122 62 121 L78 121 Q81 126 87 139 Q89 141 89 142 L51 142 Z" /><glyph glyph-name="uni589E" unicode="&#x589e;" d="M80 92 L80 182 L119 182 Q118 184 116 187 Q107 201 103 207 L128 212 Q131 206 140 194 Q146 185 148 182 L174 182 Q182 194 192 212 L219 206 Q210 193 201 182 L241 182 L241 92 L80 92 ZM91 -29 L91 76 L230 76 L230 -29 L205 -29 L205 -18 L116 -18 L116 -29 L91 -29 ZM10 121 L10 147 L31 147 L31 209 L55 209 L55 147 L74 147 L74 121 L55 121 L55 36 Q56 36 58 37 Q73 40 79 43 Q79 30 79 16 Q70 13 51 8 Q25 1 11 -2 L6 24 L31 29 L31 121 L10 121 ZM103 162 L103 111 L150 111 L150 162 L103 162 ZM218 162 L172 162 L172 111 L218 111 L218 162 ZM116 20 L116 0 L205 0 L205 20 L116 20 ZM116 57 L116 37 L205 37 L205 57 L116 57 ZM128 119 Q123 128 111 145 Q109 146 109 147 L123 156 Q125 153 128 148 Q138 134 142 127 L128 119 ZM192 118 L178 127 Q190 143 198 155 L212 146 Q209 142 202 131 Q195 122 192 118 Z" /><glyph glyph-name="uni58EB" unicode="&#x58eb;" d="M8 109 L8 136 L112 136 L112 210 L143 210 L143 136 L247 136 L247 109 L143 109 L143 12 L232 12 L232 -13 L24 -13 L24 12 L112 12 L112 109 L8 109 Z" /><glyph glyph-name="uni58EE" unicode="&#x58ee;" d="M103 109 L103 135 L162 135 L162 208 L190 208 L190 135 L249 135 L249 109 L190 109 L190 12 L242 12 L242 -13 L109 -13 L109 12 L162 12 L162 109 L103 109 ZM15 12 L6 44 Q22 54 58 82 Q61 84 62 85 L62 209 L90 209 L90 -28 L62 -28 L62 51 Q36 30 15 12 ZM36 100 Q32 110 22 132 Q13 154 8 164 L30 172 Q31 169 34 163 Q50 127 58 109 L36 100 Z" /><glyph glyph-name="uni58EF" unicode="&#x58ef;" d="M23 116 L23 197 L46 197 L46 141 L79 141 L79 208 L105 208 L105 -27 L79 -27 L79 62 L55 62 L54 44 Q53 0 27 -27 Q19 -20 6 -11 Q29 10 30 45 L31 62 L9 62 L9 86 L79 86 L79 116 L23 116 ZM114 107 L114 133 L167 133 L167 207 L196 207 L196 133 L249 133 L249 107 L196 107 L196 8 L245 8 L245 -16 L117 -16 L117 8 L167 8 L167 107 L114 107 Z" /><glyph glyph-name="uni58F0" unicode="&#x58f0;" d="M28 -30 Q18 -21 7 -13 Q38 13 35 67 L35 105 L225 105 L225 23 L200 23 L200 34 L59 34 Q57 -1 28 -30 ZM11 165 L11 188 L116 188 L116 211 L143 211 L143 188 L248 188 L248 165 L143 165 L143 145 L229 145 L229 123 L29 123 L29 145 L116 145 L116 165 L11 165 ZM60 55 L117 55 L117 83 L60 83 L60 55 ZM200 83 L143 83 L143 55 L200 55 L200 83 Z" /><glyph glyph-name="uni58F9" unicode="&#x58f9;" d="M39 18 L39 70 L216 70 L216 18 L194 18 Q192 16 188 11 Q182 2 178 -1 L248 -1 L248 -20 L8 -20 L8 -1 L78 -1 Q76 1 71 8 Q66 15 63 18 L39 18 ZM11 174 L11 193 L115 193 L115 211 L141 211 L141 193 L246 193 L246 174 L141 174 L141 160 L226 160 L226 143 L30 143 L30 160 L115 160 L115 174 L11 174 ZM13 86 L13 130 L243 130 L243 86 L218 86 L218 112 L37 112 L37 86 L13 86 ZM50 84 L50 99 L206 99 L206 84 L50 84 ZM64 53 L64 36 L191 36 L191 53 L64 53 ZM92 18 Q94 15 98 10 Q101 6 107 -1 L149 -1 Q153 2 159 11 Q163 16 165 18 L92 18 Z" /><glyph glyph-name="uni5904" unicode="&#x5904;" d="M243 -20 Q187 -21 157 -17 Q108 -14 77 15 Q63 0 23 -30 Q20 -26 15 -20 Q9 -12 6 -8 Q39 13 60 37 Q43 63 36 97 Q34 94 30 87 Q21 70 15 62 Q10 77 4 91 Q35 142 49 209 L76 205 Q74 199 71 188 Q67 172 65 165 L129 165 L129 141 Q121 75 93 36 Q117 10 159 7 Q203 2 251 5 Q247 -6 243 -20 ZM228 77 Q221 84 206 99 Q191 114 183 121 L183 16 L156 16 L156 208 L183 208 L183 137 L191 145 Q221 121 248 97 L228 77 ZM102 141 L56 141 Q55 137 52 132 Q59 87 76 58 Q96 89 102 141 Z" /><glyph glyph-name="uni5907" unicode="&#x5907;" d="M36 -29 L36 86 L219 86 L219 -29 L194 -29 L194 -19 L62 -19 L62 -29 L36 -29 ZM14 82 Q13 86 10 94 Q7 103 5 106 Q58 113 101 126 Q81 138 63 156 Q53 147 32 130 Q29 128 27 127 Q21 136 10 145 Q56 176 80 212 L108 207 Q105 202 97 193 Q96 191 95 190 L220 190 L220 168 Q193 143 161 126 Q198 115 249 112 Q248 109 246 102 Q242 92 241 87 Q171 96 130 112 Q80 93 14 82 ZM184 169 L81 169 Q102 150 130 136 Q158 148 184 169 ZM194 66 L140 66 L140 41 L194 41 L194 66 ZM140 24 L140 0 L194 0 L194 24 L140 24 ZM62 66 L62 41 L115 41 L115 66 L62 66 ZM62 24 L62 0 L115 0 L115 24 L62 24 Z" /><glyph glyph-name="uni590D" unicode="&#x590d;" d="M17 127 Q15 134 10 145 Q8 149 7 151 Q43 176 63 212 L92 210 Q90 206 86 200 Q83 196 82 194 L243 194 L243 173 L66 173 Q64 171 60 167 Q55 160 51 157 L224 157 L224 73 L83 73 L106 71 L94 57 L223 57 L223 37 Q194 14 170 5 Q197 0 249 -5 Q246 -10 241 -22 Q240 -25 239 -27 Q172 -18 137 -7 Q98 -19 27 -30 Q25 -25 20 -16 Q17 -11 16 -8 Q67 -3 103 5 Q83 15 65 30 Q51 18 24 3 Q22 5 19 9 Q17 13 8 22 Q51 42 77 73 L40 73 L40 146 Q39 145 37 144 Q29 137 17 127 ZM67 108 L67 92 L198 92 L198 108 L67 108 ZM67 139 L67 123 L198 123 L198 139 L67 139 ZM187 38 L89 38 Q110 23 136 14 Q165 25 187 38 Z" /><glyph glyph-name="uni5916" unicode="&#x5916;" d="M21 70 Q19 73 12 81 Q6 89 4 92 Q39 141 58 210 L85 206 Q79 187 72 169 L134 169 L134 144 Q123 34 29 -28 Q27 -25 18 -15 Q12 -9 10 -6 Q56 23 78 58 Q74 61 66 68 Q51 81 42 88 L58 108 L91 82 Q103 109 108 144 L62 144 Q45 105 21 70 ZM155 -28 L155 210 L182 210 L182 126 L194 136 Q221 111 251 80 L231 62 Q206 91 182 113 L182 -28 L155 -28 Z" /><glyph glyph-name="uni591A" unicode="&#x591a;" d="M36 26 Q26 44 22 49 Q99 73 143 113 L173 108 Q162 99 153 91 L238 91 L238 68 Q167 -8 20 -29 Q17 -18 11 -6 Q81 4 116 18 Q111 23 101 32 Q91 41 86 46 L108 57 Q114 52 125 43 Q136 34 141 29 Q175 45 203 69 L124 69 Q84 43 36 26 ZM32 134 Q31 136 28 140 Q22 150 18 155 Q80 180 115 213 L146 209 Q134 198 122 189 L227 189 L227 165 Q153 103 19 74 Q18 76 16 80 Q15 85 9 97 Q63 108 101 122 Q82 140 68 151 L88 163 Q92 160 101 153 Q117 141 127 133 L124 131 Q160 146 189 167 L93 167 Q73 153 32 134 Z" /><glyph glyph-name="uni591C" unicode="&#x591c;" d="M234 -26 Q189 -11 160 7 Q131 -11 86 -29 Q82 -21 72 -5 Q114 6 140 24 Q121 43 106 71 Q97 58 85 46 Q84 47 83 49 Q75 61 70 67 Q104 104 124 156 L149 150 Q148 147 146 142 Q145 140 141 131 L230 131 L230 107 Q212 54 180 24 Q207 6 248 0 Q241 -12 234 -26 ZM11 157 L11 181 L120 181 Q114 196 108 207 L139 211 Q140 208 143 200 Q149 187 152 181 L247 181 L247 157 L11 157 ZM39 -29 L39 68 Q37 66 33 62 Q28 54 13 40 Q11 53 6 70 Q42 107 61 155 L87 146 Q75 122 63 102 L63 -29 L39 -29 ZM203 108 L130 108 L121 92 Q139 57 160 39 Q189 66 203 108 ZM164 63 Q159 70 147 82 Q141 89 138 92 L155 105 Q161 100 174 86 Q179 81 182 78 L164 63 Z" /><glyph glyph-name="uni5927" unicode="&#x5927;" d="M12 119 L12 146 L113 146 Q114 168 114 209 L144 209 L142 146 L243 146 L243 119 L143 119 Q156 33 248 0 Q238 -10 229 -25 Q146 11 128 81 Q112 13 27 -28 Q24 -24 16 -13 Q10 -6 8 -3 Q104 37 110 119 L12 119 Z" /><glyph glyph-name="uni5929" unicode="&#x5929;" d="M24 170 L24 196 L232 196 L232 170 L142 170 Q142 161 141 143 Q141 125 141 117 L246 117 L246 91 L145 91 Q162 22 249 0 Q239 -12 232 -26 Q145 3 128 65 Q112 8 25 -28 Q17 -16 8 -3 Q99 30 108 91 L10 91 L10 117 L111 117 Q112 125 112 143 Q113 161 113 170 L24 170 Z" /><glyph glyph-name="uni592A" unicode="&#x592a;" d="M13 124 L13 151 L112 151 Q114 189 114 209 L143 209 Q143 171 142 151 L243 151 L243 124 L145 124 Q160 37 249 0 Q238 -14 230 -25 Q146 18 128 97 Q110 22 26 -29 Q23 -25 17 -17 Q10 -8 7 -4 Q94 42 109 124 L13 124 ZM129 -20 Q124 -14 109 1 Q97 15 91 22 L112 38 Q115 35 122 27 Q141 5 151 -3 L129 -20 Z" /><glyph glyph-name="uni592B" unicode="&#x592b;" d="M24 144 L24 170 L113 170 Q114 193 114 210 L143 210 L143 170 L232 170 L232 144 L142 144 Q142 136 141 121 Q141 109 141 105 L245 105 L245 79 L145 79 Q165 18 248 0 Q244 -5 236 -18 Q233 -24 231 -26 Q148 0 128 56 Q111 5 27 -29 Q19 -17 8 -4 Q100 27 108 79 L10 79 L10 105 L112 105 Q112 109 112 121 Q113 136 113 144 L24 144 Z" /><glyph glyph-name="uni592E" unicode="&#x592e;" d="M234 -27 Q152 -8 127 39 Q109 -5 24 -30 Q23 -28 20 -23 Q12 -10 7 -3 Q93 14 109 60 L9 60 L9 85 L35 85 L35 170 L114 170 L114 210 L143 210 Q143 190 142 170 L221 170 L221 85 L247 85 L247 60 L144 60 Q168 12 248 0 Q240 -13 234 -27 ZM113 85 Q114 110 114 146 L61 146 L61 85 L113 85 ZM142 146 Q142 113 141 85 L194 85 L194 146 L142 146 Z" /><glyph glyph-name="uni5931" unicode="&#x5931;" d="M43 107 Q34 113 19 119 Q44 159 55 200 L82 194 Q78 179 72 165 L120 165 L120 210 L149 210 L147 165 L233 165 L233 140 L146 140 L144 97 L247 97 L247 71 L147 71 Q165 19 248 0 Q242 -9 244 -5 Q234 -21 231 -26 Q150 -1 131 50 Q114 0 27 -29 Q18 -16 8 -5 Q100 22 111 71 L9 71 L9 97 L116 97 Q118 116 119 140 L61 140 Q54 124 43 107 Z" /><glyph glyph-name="uni5934" unicode="&#x5934;" d="M9 57 L9 82 L133 82 Q133 84 134 85 Q139 129 140 210 L168 210 Q167 128 162 84 Q162 83 162 82 L247 82 L247 57 L157 57 Q157 55 155 52 Q154 48 153 46 Q189 27 243 -2 L225 -25 Q199 -8 151 19 Q144 23 140 25 Q117 -6 27 -29 Q24 -24 15 -10 Q12 -5 10 -3 Q117 18 127 57 L9 57 ZM82 93 Q46 119 21 132 L36 152 Q70 133 98 115 L82 93 ZM111 143 Q77 167 51 181 L66 201 Q104 180 127 165 L111 143 Z" /><glyph glyph-name="uni594F" unicode="&#x594f;" d="M237 37 Q201 53 179 72 L179 60 L142 60 Q142 57 141 51 Q141 45 141 43 L218 43 L218 23 L135 23 L134 20 Q160 13 219 -6 Q226 -8 229 -9 L218 -30 Q213 -28 201 -24 Q153 -5 125 2 Q108 -20 33 -30 Q28 -19 22 -8 Q102 0 110 23 L38 23 L38 43 L115 43 Q116 51 116 60 L74 60 L74 71 Q52 53 19 34 Q14 45 6 57 Q43 75 67 97 L9 97 L9 117 L84 117 Q85 118 87 121 Q89 125 94 134 L28 134 L28 153 L102 153 Q104 157 106 167 Q106 168 106 169 L19 169 L19 189 L111 189 Q113 200 114 210 L142 210 Q141 200 138 189 L237 189 L237 169 L134 169 Q134 167 132 161 Q131 156 130 153 L228 153 L228 134 L122 134 Q119 125 114 117 L247 117 L247 97 L185 97 Q206 73 249 60 Q247 57 244 50 Q239 41 237 37 ZM172 79 Q165 87 157 97 L100 97 Q97 94 92 88 Q86 82 83 79 L172 79 Z" /><glyph glyph-name="uni5956" unicode="&#x5956;" d="M113 131 Q107 140 98 151 Q132 177 149 211 L176 208 Q175 206 172 201 Q169 196 162 186 L238 186 L238 163 Q209 101 126 81 L143 81 Q142 72 142 63 L245 63 L245 41 L145 41 Q164 4 248 -1 Q244 -8 239 -20 Q237 -25 236 -27 Q150 -14 128 23 Q112 -11 19 -30 Q12 -13 6 -4 Q101 7 109 41 L12 41 L12 63 L114 63 L115 81 L119 81 Q113 90 107 101 Q139 108 158 118 Q152 124 138 136 Q131 142 128 145 Q119 136 113 131 ZM14 90 L7 116 Q11 118 20 121 Q38 128 68 141 L68 210 L92 210 L92 74 L68 74 L68 115 Q43 105 14 90 ZM178 131 L163 120 Q191 133 211 164 L146 164 Q145 163 142 159 Q139 156 137 154 L144 159 Q152 153 168 140 Q174 134 178 131 ZM44 143 Q29 162 13 183 L32 195 Q42 185 59 164 Q62 159 64 157 L44 143 Z" /><glyph glyph-name="uni5957" unicode="&#x5957;" d="M13 165 L13 186 L100 186 Q106 198 112 212 L140 210 Q138 205 134 196 Q131 189 130 186 L242 186 L242 165 L174 165 Q199 136 250 127 Q245 119 239 104 Q211 112 193 122 L193 120 L79 120 L79 105 L206 105 L206 90 L79 90 L79 74 L207 74 L207 59 L79 59 L79 44 L246 44 L246 23 L184 23 Q192 16 208 4 Q223 -8 231 -15 L209 -30 Q207 -28 203 -23 Q198 -19 196 -16 Q115 -18 68 -20 Q59 -20 43 -22 Q44 -22 41 -22 L30 -2 Q39 0 48 4 Q61 11 73 23 L10 23 L10 44 L54 44 L54 116 Q48 113 36 108 Q24 102 18 99 Q12 111 5 122 Q59 138 83 165 L13 165 ZM76 0 Q108 0 176 0 Q166 10 155 19 L159 23 L108 23 Q93 10 76 0 ZM116 165 Q106 151 90 139 L168 139 Q156 150 146 165 L116 165 Z" /><glyph glyph-name="uni5962" unicode="&#x5962;" d="M240 119 Q175 134 145 168 L108 168 Q90 152 65 138 L106 138 L106 156 L131 156 L131 138 L174 138 L174 119 L131 119 L131 101 L151 101 Q175 114 198 132 L215 116 Q203 109 192 101 L241 101 L241 82 L158 82 Q142 73 124 66 L215 66 L215 -29 L189 -29 L189 -19 L76 -19 L76 -29 L50 -29 L50 37 Q34 31 14 25 Q12 31 8 43 Q7 46 6 48 Q72 64 112 82 L15 82 L15 101 L106 101 L106 119 L57 119 L57 134 Q39 124 16 115 Q11 126 5 136 Q50 151 74 168 L14 168 L14 189 L97 189 Q106 200 113 212 L140 208 Q134 198 127 189 L242 189 L242 168 L176 168 Q202 148 249 140 Q245 130 240 119 ZM80 47 L76 46 L76 30 L189 30 L189 47 L80 47 ZM76 14 L76 0 L189 0 L189 14 L76 14 Z" /><glyph glyph-name="uni5965" unicode="&#x5965;" d="M27 57 L27 188 L101 188 Q105 200 108 212 L139 209 L131 188 L228 188 L228 57 L202 57 L202 167 L53 167 L53 57 L27 57 ZM13 25 L13 45 L113 45 Q114 47 114 52 Q115 57 115 59 L142 59 Q142 56 141 51 Q141 47 141 45 L242 45 L242 25 L149 25 Q163 1 248 -4 Q244 -11 239 -23 Q238 -26 237 -27 Q147 -17 129 14 Q112 -16 19 -30 Q15 -22 7 -8 Q98 3 106 25 L13 25 ZM64 104 L64 123 L116 123 L116 165 L139 165 L139 123 L191 123 L191 104 L139 104 L139 88 L148 100 Q156 96 172 88 Q187 80 195 76 L184 59 Q158 74 139 84 L139 65 L116 65 L116 88 Q100 72 70 57 Q68 61 63 69 Q60 73 59 75 Q88 86 109 104 L64 104 ZM158 125 L147 140 Q156 145 176 160 L188 147 Q175 137 158 125 ZM96 125 Q80 139 68 147 L80 160 Q94 151 109 139 L96 125 Z" /><glyph glyph-name="uni5967" unicode="&#x5967;" d="M13 24 L13 45 L113 45 Q114 47 114 52 Q115 56 115 59 L142 59 Q142 56 141 51 Q141 47 141 45 L243 45 L243 24 L150 24 Q165 1 248 -4 Q244 -11 239 -23 Q238 -26 237 -27 Q149 -18 129 14 Q110 -16 19 -30 Q15 -22 7 -8 Q96 2 106 24 L13 24 ZM27 56 L27 189 L102 189 Q105 201 108 212 L139 209 L131 189 L228 189 L228 56 L203 56 L203 169 L53 169 L53 56 L27 56 ZM63 97 L63 113 L92 113 Q83 122 70 131 L80 140 L69 140 Q69 141 68 144 Q67 147 65 156 Q124 156 186 160 L189 144 Q165 142 139 142 L139 113 L157 113 L148 124 Q151 126 158 131 Q169 138 174 142 L186 131 Q184 130 180 127 Q175 124 161 113 L193 113 L193 97 L139 97 L139 84 L148 94 Q172 84 195 72 L184 57 Q175 62 154 73 Q144 78 139 81 L139 64 L116 64 L116 84 Q94 65 69 56 Q68 59 64 64 Q60 69 58 71 Q86 81 108 97 L63 97 ZM107 124 L96 113 L116 113 L116 141 L85 140 Q97 133 107 124 Z" /><glyph glyph-name="uni5973" unicode="&#x5973;" d="M8 128 L8 153 L77 153 Q91 193 95 211 L127 204 Q125 198 121 187 Q113 165 108 153 L247 153 L247 128 L203 128 Q192 72 161 36 Q170 32 190 22 Q222 6 239 -1 L221 -27 Q204 -17 167 1 Q148 11 139 16 Q100 -10 24 -29 Q21 -25 16 -16 Q11 -7 8 -2 Q75 9 110 31 Q97 38 73 49 Q50 61 40 66 Q54 93 68 128 L8 128 ZM133 50 Q163 79 173 128 L99 128 Q95 120 89 105 Q80 84 76 76 Q86 72 106 62 Q124 54 133 50 Z" /><glyph glyph-name="uni597D" unicode="&#x597d;" d="M23 -27 Q15 -19 5 -7 Q35 15 50 36 Q39 45 18 64 Q16 66 15 67 Q20 88 30 138 L9 138 L9 163 L34 163 Q37 187 40 210 L67 208 Q66 200 63 183 Q61 169 60 163 L102 163 L102 138 Q98 74 81 42 Q101 25 119 10 L99 -8 Q94 -3 82 7 Q73 15 68 19 Q54 -1 23 -27 ZM111 77 L111 102 L169 102 L169 132 L209 172 L120 172 L120 197 L242 197 L242 170 L197 124 L197 102 L249 102 L249 77 L197 77 L197 8 Q198 -25 163 -25 Q144 -25 130 -25 Q130 -23 129 -18 Q126 -4 125 0 Q138 0 153 0 Q170 0 169 16 L169 77 L111 77 ZM42 74 L62 58 Q75 88 78 138 L56 138 Q53 125 48 101 Q44 83 42 74 Z" /><glyph glyph-name="uni5982" unicode="&#x5982;" d="M138 -19 L138 185 L237 185 L237 -17 L211 -17 L211 2 L164 2 L164 -19 L138 -19 ZM109 -12 Q101 -4 80 12 Q95 0 77 15 Q62 -2 26 -29 Q20 -22 6 -8 Q37 10 57 33 Q37 51 17 68 Q26 101 34 139 L7 139 L7 164 L38 164 Q41 187 44 211 L73 208 Q70 187 65 164 L119 164 L119 140 Q113 71 93 37 Q101 31 117 17 Q125 10 129 7 L109 -12 ZM164 161 L164 26 L211 26 L211 161 L164 161 ZM92 139 L60 139 Q54 105 46 76 Q58 66 72 55 Q88 86 92 139 Z" /><glyph glyph-name="uni5987" unicode="&#x5987;" d="M100 -4 Q95 0 85 7 Q77 14 72 18 Q60 0 24 -27 Q14 -15 6 -7 Q38 14 52 35 L14 66 Q23 99 30 138 L8 138 L8 163 L34 163 Q37 187 40 210 L67 208 Q66 205 65 199 Q62 184 59 163 L107 163 L107 140 Q103 79 86 41 Q90 38 99 31 Q111 22 118 17 L100 -4 ZM121 78 L121 103 L209 103 L209 166 L117 166 L117 191 L236 191 L236 -27 L209 -27 L209 -12 L115 -12 L115 12 L209 12 L209 78 L121 78 ZM82 138 L55 138 Q48 102 40 74 L65 57 Q78 86 82 138 Z" /><glyph glyph-name="uni5999" unicode="&#x5999;" d="M91 -2 L68 18 Q57 0 24 -27 Q21 -24 15 -17 Q9 -10 6 -7 Q31 9 49 35 Q34 50 15 67 Q23 102 29 139 L8 139 L8 164 L33 164 Q36 187 39 211 L65 208 Q64 200 61 184 Q59 170 58 164 L103 164 L103 141 Q97 75 80 40 Q82 39 85 36 Q95 29 108 17 L91 -2 ZM108 -31 Q101 -20 91 -7 Q179 21 214 90 L236 77 Q195 2 108 -31 ZM162 59 L162 210 L187 210 L187 59 L162 59 ZM121 72 L99 82 Q117 126 130 168 L153 161 Q134 104 121 72 ZM79 139 L54 139 Q51 123 45 94 Q41 80 40 73 Q51 65 61 56 Q76 89 79 139 ZM230 92 Q220 110 202 143 Q195 155 191 162 L211 173 Q223 153 243 120 Q249 110 252 105 L230 92 Z" /><glyph glyph-name="uni59A5" unicode="&#x59a5;" d="M9 71 L9 96 L81 96 Q91 111 100 127 L127 118 L113 96 L248 96 L248 71 L200 71 Q187 41 165 20 Q173 17 189 12 Q201 8 240 -4 L225 -28 Q171 -5 141 4 Q102 -17 24 -29 Q19 -20 12 -4 Q73 2 109 16 Q76 28 42 40 Q53 54 65 71 L9 71 ZM26 169 L21 194 Q149 196 231 201 L238 177 Q233 177 223 176 Q95 171 26 169 ZM80 49 L137 30 Q158 45 170 71 L96 71 Q93 68 89 61 Q83 52 80 49 ZM189 107 L167 121 Q179 135 201 168 Q202 171 203 172 L227 159 Q226 158 224 155 Q201 121 189 107 ZM60 111 Q55 120 40 140 Q34 149 31 153 L54 164 Q57 160 64 151 Q79 131 84 124 L60 111 ZM128 120 Q119 140 106 161 L130 171 Q143 150 152 130 L128 120 Z" /><glyph glyph-name="uni59CB" unicode="&#x59cb;" d="M92 -6 L67 15 Q51 -5 22 -28 L5 -8 Q33 12 48 33 L13 65 Q21 94 28 139 L7 139 L7 163 L32 163 Q35 187 38 211 L64 208 Q61 194 58 169 Q60 184 57 163 L103 163 L103 139 Q98 71 81 37 L110 12 L92 -6 ZM116 -29 L116 81 L234 81 L234 -29 L208 -29 L208 -14 L142 -14 L142 -29 L116 -29 ZM114 104 L103 129 Q112 134 121 146 Q139 171 159 211 L186 201 Q158 157 138 131 Q155 132 195 134 Q189 133 207 134 Q205 138 200 145 Q192 159 188 166 L209 177 Q224 155 246 115 Q249 109 251 106 L228 94 Q224 102 219 111 Q158 109 137 107 Q123 107 114 104 ZM142 58 L142 8 L208 8 L208 58 L142 58 ZM79 139 L53 139 Q47 101 39 72 Q43 69 50 63 Q58 57 61 54 Q75 83 79 139 Z" /><glyph glyph-name="uni59D3" unicode="&#x59d3;" d="M127 95 L105 103 Q122 145 127 192 L150 189 L144 158 L170 158 L170 210 L195 210 L195 158 L244 158 L244 134 L195 134 L195 81 L242 81 L242 57 L195 57 L195 3 L249 3 L249 -20 L107 -20 L107 3 L170 3 L170 57 L117 57 L117 81 L170 81 L170 134 L138 134 Q133 115 127 95 ZM92 -4 Q88 -1 80 6 Q72 13 68 17 Q53 -2 23 -27 Q21 -26 14 -19 Q6 -12 4 -11 Q33 9 49 35 L14 67 Q19 88 29 138 L8 138 L8 163 L33 163 Q36 187 38 211 L64 208 Q64 207 63 204 Q60 176 57 163 L105 163 L105 147 Q99 76 80 39 L110 13 L92 -4 ZM80 138 L53 138 Q47 102 39 73 L61 55 Q75 84 80 138 Z" /><glyph glyph-name="uni59FF" unicode="&#x59ff;" d="M223 140 Q214 144 201 148 Q202 147 199 148 L211 171 L173 171 Q173 169 172 166 Q172 164 172 163 Q186 121 249 111 L237 88 Q178 102 162 136 Q148 109 105 94 L130 90 Q124 84 119 77 L245 77 L245 55 L205 55 Q190 29 168 13 L238 -5 L226 -28 Q184 -15 142 -1 Q99 -20 21 -29 Q19 -25 14 -12 Q12 -8 11 -6 Q71 -2 107 8 L45 28 Q49 32 57 41 Q65 50 70 55 L10 55 L10 77 L88 77 Q94 85 100 92 Q98 92 93 90 Q89 89 86 88 Q85 90 82 95 Q76 105 73 110 Q135 124 144 153 Q147 160 148 171 L121 171 Q111 154 95 138 Q91 142 80 149 Q77 152 75 153 Q102 179 114 212 L139 209 Q136 199 132 192 L238 192 L238 170 L223 140 ZM137 22 Q160 34 174 55 L100 55 Q97 50 89 42 Q86 38 84 36 L137 22 ZM26 89 L9 109 Q39 130 64 151 Q69 144 81 133 L26 89 ZM55 160 Q33 180 17 191 L34 208 Q42 202 58 190 Q68 182 73 179 L55 160 Z" /><glyph glyph-name="uni5A01" unicode="&#x5a01;" d="M217 -27 Q193 -28 179 7 Q164 -9 146 -27 Q137 -18 127 -10 L136 -2 Q126 2 114 9 Q95 -6 62 -22 Q61 -21 60 -18 Q52 -7 48 -2 Q76 8 94 21 Q78 32 61 39 Q69 54 75 72 L52 72 L52 92 L82 92 Q85 103 88 113 L112 110 Q109 101 105 92 L149 92 L149 72 Q143 45 129 26 Q134 24 143 18 Q147 16 149 15 L137 -1 Q157 15 170 35 Q160 79 156 152 L50 152 L50 99 Q52 11 26 -29 Q23 -27 16 -21 Q9 -16 5 -13 Q18 8 22 30 Q26 51 26 97 L26 174 L155 174 Q155 181 154 194 Q154 206 154 211 L179 211 Q179 205 180 193 Q180 180 180 174 L211 174 Q204 184 190 196 L210 203 Q223 190 232 178 L223 174 L247 174 L247 152 L181 152 Q182 105 188 65 Q206 97 215 134 L239 126 Q221 70 197 32 Q197 29 199 26 Q205 0 216 0 Q220 0 223 6 Q223 8 224 15 Q227 36 228 46 Q236 42 247 37 Q246 37 249 36 Q245 5 242 -5 Q237 -27 217 -27 ZM60 115 L60 134 L146 134 L146 115 L60 115 ZM126 72 L98 72 Q96 67 92 57 Q89 51 88 48 L110 37 Q122 52 126 72 Z" /><glyph glyph-name="uni5A1B" unicode="&#x5a1b;" d="M95 37 L95 59 L153 59 Q154 63 154 72 Q155 80 155 85 L106 85 L106 181 L128 181 L128 107 L234 107 L234 59 L249 59 L249 37 L187 37 Q205 7 250 -3 Q248 -7 243 -15 Q238 -24 236 -27 Q185 -9 168 26 Q157 -8 98 -30 Q98 -30 97 -29 Q89 -14 83 -7 Q140 9 148 37 L95 37 ZM84 -2 L62 18 Q47 -2 21 -26 Q20 -24 17 -21 Q9 -11 5 -6 Q30 12 45 35 Q39 40 27 51 Q17 60 12 64 Q20 99 26 140 L8 140 L8 161 L29 161 Q32 185 35 211 L59 208 Q56 194 53 166 Q55 184 52 161 L92 161 L92 139 Q89 74 73 40 L100 16 L84 -2 ZM145 127 L145 200 L229 200 L229 127 L145 127 ZM70 140 L48 140 Q46 121 39 87 Q37 77 36 72 L56 55 Q67 81 70 140 ZM167 178 L167 148 L207 148 L207 178 L167 178 ZM212 85 L180 85 Q180 80 179 72 Q179 63 178 59 L212 59 L212 85 Z" /><glyph glyph-name="uni5A31" unicode="&#x5a31;" d="M82 -1 Q73 6 62 17 Q53 4 29 -19 Q24 -24 22 -26 Q21 -24 18 -21 Q10 -10 5 -6 Q31 14 44 34 Q27 51 12 64 Q20 99 26 140 L8 140 L8 162 L29 162 Q32 186 35 211 L59 208 L52 162 L94 162 L94 141 Q91 77 74 39 Q78 36 86 28 Q94 21 98 17 L82 -1 ZM102 84 L102 106 L241 106 L241 84 L184 84 Q184 80 183 72 Q183 64 182 60 L248 60 L248 37 L189 37 Q205 7 251 -3 Q247 -9 239 -23 Q238 -26 237 -27 Q187 -9 170 25 Q159 -8 97 -30 Q91 -20 82 -7 Q140 10 151 37 L95 37 L95 60 L156 60 Q158 73 158 84 L102 84 ZM109 125 L109 200 L234 200 L234 125 L109 125 ZM134 178 L134 147 L209 147 L209 178 L134 178 ZM71 140 L49 140 Q43 104 37 72 L56 55 Q68 84 71 140 Z" /><glyph glyph-name="uni5A66" unicode="&#x5a66;" d="M102 -13 L102 63 L155 63 L155 85 L112 85 L112 70 L91 70 L91 105 L247 105 L247 70 L224 70 L224 85 L179 85 L179 63 L233 63 L233 13 Q234 -10 211 -11 Q203 -11 189 -11 Q189 -8 187 -3 Q186 4 185 8 Q193 8 201 8 Q211 8 211 17 L211 44 L179 44 L179 -29 L155 -29 L155 44 L125 44 L125 -13 L102 -13 ZM79 -2 Q73 4 58 19 Q47 0 19 -26 Q10 -11 6 -5 Q29 14 41 36 Q27 51 12 66 Q20 101 26 141 L8 141 L8 163 L29 163 Q32 186 34 210 L57 208 Q54 184 50 163 L87 163 L87 140 Q83 75 68 40 L94 16 L79 -2 ZM108 151 L108 168 L209 168 L209 181 L101 181 L101 200 L232 200 L232 119 L99 119 L99 137 L209 137 L209 151 L108 151 ZM66 141 L47 141 Q41 101 34 71 Q37 69 42 64 Q48 58 51 56 Q63 85 66 141 Z" /><glyph glyph-name="uni5A74" unicode="&#x5a74;" d="M11 45 L11 66 L86 66 Q88 68 91 72 Q93 75 100 83 L104 82 Q100 84 91 90 Q75 101 68 105 Q56 88 20 75 Q17 79 7 94 Q60 108 59 142 Q59 145 59 152 Q60 163 60 168 L81 168 Q81 154 80 142 Q79 132 77 123 Q79 122 83 120 Q111 105 122 98 L110 81 L127 78 L118 66 L245 66 L245 45 L201 45 Q186 22 168 9 Q177 7 196 3 Q224 -1 238 -5 L226 -27 Q182 -15 141 -3 Q101 -20 21 -29 Q19 -26 16 -19 Q12 -10 10 -7 Q68 -3 103 4 Q73 13 44 19 Q55 31 67 45 L11 45 ZM21 122 L21 199 L119 199 L119 122 L99 122 L99 178 L42 178 L42 122 L21 122 ZM138 122 L138 199 L237 199 L237 122 L217 122 L217 179 L159 179 L159 122 L138 122 ZM235 75 Q210 91 187 106 Q173 87 139 75 Q136 82 127 95 Q178 109 176 143 Q177 150 177 168 L199 168 Q199 164 199 156 Q198 147 198 143 Q197 133 195 125 Q228 105 249 94 L235 75 ZM136 17 Q155 25 172 45 L99 45 Q96 42 90 36 Q85 30 83 28 Q109 23 136 17 Z" /><glyph glyph-name="uni5A92" unicode="&#x5a92;" d="M91 165 L91 186 L112 186 L112 210 L135 210 L135 186 L202 186 L202 209 L226 209 L226 186 L247 186 L247 165 L226 165 L226 86 L180 86 L180 65 L248 65 L248 44 L193 44 Q216 16 252 1 Q250 -2 245 -10 Q241 -16 239 -19 Q197 3 180 28 L180 -29 L157 -29 L157 28 Q135 0 94 -22 Q93 -21 91 -18 Q85 -6 81 -1 Q121 16 144 44 L92 44 L92 65 L157 65 L157 86 L112 86 L112 165 L91 165 ZM19 -27 Q17 -25 13 -19 Q7 -10 4 -7 Q29 13 42 36 Q27 51 11 66 Q19 100 25 140 L8 140 L8 163 L28 163 Q31 186 34 210 L58 208 Q55 186 51 163 L91 163 L91 139 Q87 78 71 40 L95 18 L79 0 Q76 2 69 9 Q63 15 59 18 Q47 -1 19 -27 ZM35 73 L53 57 Q65 84 69 140 L48 140 Q42 106 35 73 ZM135 165 L135 145 L202 145 L202 165 L135 165 ZM135 126 L135 106 L202 106 L202 126 L135 126 Z" /><glyph glyph-name="uni5A9A" unicode="&#x5a9a;" d="M129 -29 L129 113 L237 113 L237 -29 L214 -29 L214 -15 L152 -15 L152 -29 L129 -29 ZM88 -29 Q86 -27 82 -24 Q72 -17 68 -15 Q87 13 93 41 Q99 68 99 123 L99 198 L239 198 L239 130 L123 130 L123 104 Q126 27 88 -29 ZM73 8 L59 22 Q48 1 20 -26 Q17 -23 11 -14 Q7 -8 5 -6 Q30 14 42 38 Q34 46 15 63 Q29 51 12 66 Q20 101 26 141 L6 141 L6 162 L28 162 Q29 167 30 178 Q33 199 34 210 L57 207 L51 162 L87 162 L87 140 Q84 79 70 44 L86 30 L73 8 ZM66 141 L48 141 Q45 120 37 84 Q36 76 35 72 L52 59 Q63 87 66 141 ZM152 21 L152 2 L214 2 L214 21 L152 21 ZM152 93 L152 75 L214 75 L214 93 L152 93 ZM152 57 L152 39 L214 39 L214 57 L152 57 ZM123 177 L123 149 L158 149 L158 177 L123 177 ZM216 177 L181 177 L181 149 L216 149 L216 177 Z" /><glyph glyph-name="uni5B30" unicode="&#x5b30;" d="M9 37 L9 57 L83 57 Q91 65 97 73 L107 71 Q104 72 97 75 Q93 78 78 84 L86 99 Q90 97 97 94 Q115 87 124 83 L115 69 L123 67 L114 57 L247 57 L247 37 L199 37 Q187 19 168 7 Q177 5 195 1 Q223 -3 237 -7 L225 -27 Q203 -21 162 -10 Q148 -7 141 -5 Q100 -22 20 -29 Q17 -22 10 -8 Q64 -5 104 2 Q73 10 44 17 Q48 21 55 27 Q62 34 65 37 L9 37 ZM139 101 L139 200 L233 200 L233 101 L139 101 ZM26 101 L26 200 L119 200 L119 101 L26 101 ZM137 14 Q157 23 169 37 L95 37 Q89 31 83 25 Q96 23 125 17 Q133 15 137 14 ZM22 61 L12 79 Q35 88 54 99 L65 84 Q60 81 49 76 Q43 72 22 61 ZM237 61 Q224 69 196 81 Q197 80 193 82 L203 98 Q217 92 243 80 Q245 79 246 79 L237 61 ZM140 64 L131 81 Q152 88 170 98 L180 82 Q161 73 140 64 ZM163 130 L163 116 L210 116 L210 130 L163 130 ZM163 184 L163 170 L210 170 L210 184 L163 184 ZM163 157 L163 144 L210 144 L210 157 L163 157 ZM49 130 L49 116 L95 116 L95 130 L49 130 ZM49 184 L49 170 L95 170 L95 184 L49 184 ZM49 157 L49 144 L95 144 L95 157 L49 157 Z" /></font>
</defs>
</svg>
